<?xml version="1.0" encoding="UTF-8"?>
<!DOCTYPE svg PUBLIC "-//W3C//DTD SVG 1.1//EN" "http://www.w3.org/Graphics/SVG/1.1/DTD/svg11.dtd">
<!-- Creator: CorelDRAW X8 -->
<svg xmlns="http://www.w3.org/2000/svg" xml:space="preserve" width="3508px" height="2480px" version="1.1" style="shape-rendering:geometricPrecision; text-rendering:geometricPrecision; image-rendering:optimizeQuality; fill-rule:evenodd; clip-rule:evenodd"
viewBox="0 0 3508 2480"
 xmlns:xlink="http://www.w3.org/1999/xlink">
 <defs>
  <style type="text/css">
   <![CDATA[
    .fil0 {fill:#BAFFFF}
   ]]>
  </style>
 </defs>
 <g id="Capa_x0020_1">
  <metadata id="CorelCorpID_0Corel-Layer"/>
  <g id="eyeColor">
   <g>
    <path class="fil0" d="M793 2190c6,-1 7,-2 10,-8 3,-4 4,-7 4,-13l-15 -1 1 22z"/>
    <path class="fil0" d="M1488 2219c9,1 10,1 17,-1 0,-8 -6,-13 -9,-20 -4,5 -8,11 -8,21z"/>
    <path class="fil0" d="M1451 2220l18 1c0,-10 -5,-17 -10,-21 -3,4 -7,14 -8,20z"/>
    <path class="fil0" d="M736 2194l16 1c0,-11 -5,-17 -10,-21 -2,4 -7,16 -6,20z"/>
    <path class="fil0" d="M773 2193l17 0 -10 -20c-6,5 -8,10 -7,20z"/>
    <path class="fil0" d="M1446 2218c2,-3 2,-22 2,-27 -8,-2 -21,-5 -18,8 2,9 8,18 16,19z"/>
    <path class="fil0" d="M714 2168c-1,8 3,15 8,20 5,5 3,4 10,5 -4,-24 0,-17 -1,-28 -10,-1 -10,0 -17,3z"/>
    <path class="fil0" d="M1509 2216c10,-2 14,-12 15,-21 -6,-4 -6,-6 -17,-6l2 27z"/>
   </g>
   <g>
    <path class="fil0" d="M2034 2196c6,-1 6,-2 10,-8 2,-4 4,-7 4,-13l-15 -1 1 22z"/>
    <path class="fil0" d="M2729 2225c8,1 9,1 17,-1 -1,-7 -6,-12 -9,-20 -4,5 -8,11 -8,21z"/>
    <path class="fil0" d="M2692 2226l17 1c1,-10 -5,-16 -9,-21 -3,4 -7,14 -8,20z"/>
    <path class="fil0" d="M1976 2200l17 1c0,-11 -5,-17 -10,-21 -2,5 -7,16 -7,20z"/>
    <path class="fil0" d="M2013 2199l18 1 -10 -20c-6,4 -8,9 -8,19z"/>
    <path class="fil0" d="M2687 2224c1,-3 1,-21 2,-27 -9,-2 -22,-5 -18,8 2,10 7,18 16,19z"/>
    <path class="fil0" d="M1954 2174c0,8 4,15 9,21 5,4 3,3 10,4 -5,-24 0,-17 -1,-27 -10,-2 -10,0 -18,2z"/>
    <path class="fil0" d="M2750 2222c9,-2 14,-12 15,-21 -7,-4 -7,-6 -17,-5l2 26z"/>
   </g>
  </g>
 </g>
</svg>
