<?xml version="1.0" encoding="UTF-8"?>
<!DOCTYPE svg PUBLIC "-//W3C//DTD SVG 1.1//EN" "http://www.w3.org/Graphics/SVG/1.1/DTD/svg11.dtd">
<!-- Creator: CorelDRAW X8 -->
<svg xmlns="http://www.w3.org/2000/svg" xml:space="preserve" width="3508px" height="2480px" version="1.1" style="shape-rendering:geometricPrecision; text-rendering:geometricPrecision; image-rendering:optimizeQuality; fill-rule:evenodd; clip-rule:evenodd"
viewBox="0 0 3508 2480"
 xmlns:xlink="http://www.w3.org/1999/xlink">
 <defs>
  <style type="text/css">
   <![CDATA[
    .str0 {stroke:#373435;stroke-width:0.900032}
    .fil1 {fill:#00030A}
    .fil2 {fill:#156C73}
    .fil0 {fill:#BAFFFF}
   ]]>
  </style>
 </defs>
 <g id="Capa_x0020_1">
  <metadata id="CorelCorpID_0Corel-Layer"/>
  <g id="house">
   <g id="CASA">
    <path class="fil0 str0" d="M1254 2084l1059 -61 109 -152c7,0 -30,-20 -21,-21 2,-8 4,-24 1,-32 -8,-26 5,-31 9,-59 1,-9 9,-17 7,-26 -1,-4 -1,-8 -1,-12 0,-4 -1,-13 -1,-16 2,-11 5,-19 7,-30 1,-9 -4,-18 -7,-27 -3,-8 -6,-13 -7,-23 -1,-6 -2,-22 -3,-30 -1,-6 6,-9 8,-13l6 -6c0,-1 0,-1 0,-1l2 -2c8,-8 18,-14 28,-18 10,-5 13,-2 22,4 4,3 13,9 17,14 4,4 4,6 2,11 -3,5 -9,16 -16,16 -4,-1 -6,-10 -10,-13 -1,-2 -3,-2 -6,-2 -2,3 -3,5 -1,9 1,2 3,5 5,7 2,3 10,11 15,10 2,0 6,-3 7,-4 7,-6 15,-17 17,-28l0 -5c-1,-3 -2,-6 -5,-9 -1,-1 -3,-1 -4,-2l-16 -15c-3,-2 -5,-4 -8,-5 -6,-4 -12,-5 -21,-3 -9,3 -16,8 -23,14 -3,2 -5,4 -8,6 -16,13 -28,27 -21,49 4,15 11,25 6,41 -1,7 -4,13 -9,17 -2,0 -12,-5 -16,-6 -2,0 -3,0 -4,-2 -3,-3 -3,-7 -6,-9 -7,-7 -23,-7 -33,-10 -10,-4 -12,-6 -13,-17 -1,-4 -2,-9 -1,-13 0,-3 3,-6 6,-8 3,-2 6,-3 10,-4 7,-1 22,-4 18,9 -5,11 -5,13 -16,11 -6,-1 -10,-2 -10,3 4,3 11,3 16,4 8,1 11,0 14,-6 1,-4 4,-10 5,-15 1,-8 2,-12 -5,-13 -3,-1 -6,-1 -9,-2 -3,0 -6,0 -9,0 -7,0 -10,3 -15,6 -11,5 -7,8 -22,6 -4,-1 -6,0 -8,-2 -4,-3 -4,-9 -7,-13 -2,-5 -6,-9 -11,-9 -7,0 -24,6 -32,9 -5,2 -8,5 -8,11 0,11 -5,25 19,16 5,-1 11,-2 11,-8 -4,-1 -7,1 -11,2 -3,1 -6,3 -11,3 -2,-4 -2,-11 0,-14 3,-7 10,-8 17,-9 1,0 7,-1 8,-1 1,0 6,1 7,2 2,1 3,3 4,5 2,3 3,7 5,11 3,3 8,3 14,4 25,4 9,12 9,14 -1,2 10,19 11,21 6,7 9,5 25,8 8,2 11,3 16,8l6 6c0,0 0,0 0,0 5,5 11,8 17,12 8,6 15,8 15,19 -1,13 -2,16 0,30 1,11 -5,16 -8,25 -1,5 -2,9 -4,12 -1,4 -4,9 -9,7 -1,-1 -1,1 -2,-4 -1,-2 -2,-5 -2,-6 -2,-3 -4,-3 -7,-4 -3,-2 -3,-3 -2,-6 2,-7 1,-5 7,-10 4,-3 8,-6 13,-8 15,-9 5,-14 6,-31 0,-24 -15,-11 -26,-17 -7,-3 -16,-14 -19,-3 -1,3 -2,5 -4,7 -2,3 -3,3 -6,5 -3,1 -5,2 -7,4 -8,5 -2,11 2,17 1,1 1,1 2,3 3,3 7,7 11,10 2,2 3,3 8,3 6,0 14,-1 18,-3 8,-3 16,-18 1,-24 -4,-2 -15,-3 -17,3 0,4 3,6 7,6 3,-2 3,-4 8,-3 10,3 1,13 -10,15 -11,1 -15,-6 -20,-12 -4,-5 -8,-7 -1,-11 2,-1 5,-3 6,-4 2,-1 6,-9 7,-11 7,0 9,7 16,8 9,1 13,-7 16,5 1,3 2,18 2,23 -1,3 -3,5 -6,7 -10,7 -20,7 -23,14 -3,11 1,26 5,36 2,5 3,10 0,15 -2,3 -3,4 -8,4 -6,-11 -6,-25 -26,-14 -4,1 -8,4 -13,4 -8,-13 -21,-1 -29,6 -2,2 -4,3 -6,5 -4,3 -7,5 -13,2 -2,-1 -9,-6 -10,-9 -1,-4 3,-9 6,-12 1,-2 3,-4 6,-3 5,1 11,5 5,9 -2,2 -5,1 -9,1l-1 2c3,14 30,-8 12,-16 -6,-3 -8,-2 -14,0 0,-3 -2,-6 -3,-7 -3,0 -6,2 -8,3 -3,1 -7,3 -9,3 0,-2 -1,-10 -2,-11 -1,-2 -14,0 -15,2 -1,1 2,13 2,16 -3,0 -17,6 -20,8 0,4 2,9 4,13 4,0 6,-2 9,-3 1,-1 7,-4 8,-3 1,1 5,30 5,33 -3,-2 -27,-4 -33,-5 0,-15 3,-29 -10,-38 -12,-9 -25,-4 -36,4 -2,1 -2,1 -4,4 -2,2 -2,2 -3,4 -3,5 -2,8 -2,15 -3,0 -24,-6 -25,-7 -2,-1 -1,-1 -1,-3l3 -24c0,-3 0,-6 1,-8 4,0 9,1 13,1 8,2 7,0 8,-6 2,-8 2,-7 -6,-8 -4,0 -9,-1 -14,-2 0,-16 6,-15 -7,-16 -3,-1 -5,-1 -7,0 0,1 -1,4 -1,6 0,2 -1,6 -1,7 -5,0 -14,-1 -19,-3 -1,3 -4,13 -3,14 1,1 18,4 20,4 0,3 0,5 0,8 0,2 -1,5 -1,7 -1,6 -1,11 -1,17 -10,-2 -25,-17 -31,-25 -5,-5 -4,-2 -1,-13 1,-7 6,-24 6,-30 0,-6 -2,-11 -4,-14 -2,-3 -8,-8 -11,-8 0,-5 4,-11 5,-16 5,1 10,7 11,-3 -2,-1 -5,-2 -8,-3 0,-3 1,-3 1,-7 -2,-1 -3,-2 -7,-2 0,2 -1,4 -1,6 -3,-1 -6,-3 -8,-3 -3,4 -4,5 1,7 1,1 3,1 4,2 -1,2 -2,5 -3,8 0,2 -2,6 -2,9 -8,0 -17,2 -23,5 -3,2 -4,4 -6,5 0,-2 -21,-31 -23,-34l-3 -4c-10,-15 -19,-29 -29,-44 -1,-2 -2,-3 -3,-4l-17 -27c-3,-5 -11,-17 -14,-22 -1,-3 0,-4 0,-6 1,-5 0,-10 1,-14 3,-11 8,-24 6,-36 -2,-13 1,-25 3,-38 1,-4 0,-10 1,-14 2,-13 8,-23 4,-37 -1,-4 -2,-7 -3,-11 -3,-13 1,-28 1,-40 0,-7 1,-8 3,-12 7,-9 24,-18 36,-22 3,0 9,-2 12,-2 7,1 21,15 24,20 7,8 8,9 1,19 -2,3 -11,14 -16,10 -4,-4 -4,-18 -13,-16 -4,0 -3,6 -2,9 1,4 3,7 6,10 6,8 9,11 17,7 10,-6 25,-21 23,-34 -1,-4 -3,-6 -6,-9 -1,-1 -1,-1 -2,-2 0,0 0,0 0,0l-1 -2c-5,-5 -10,-11 -14,-15 -19,-19 -37,-8 -56,4 -3,1 -8,5 -10,5 0,-5 1,-8 1,-13 0,-10 3,-34 3,-42 0,-3 0,-10 1,-13 0,-5 0,-9 1,-14l4 -69c1,-3 1,-10 1,-14 0,-4 1,-9 1,-13 1,-4 0,-4 2,-6 7,-5 23,-9 25,-12 -7,-5 -7,0 -11,-9 -3,-4 -5,-8 -7,-13 -11,-28 -16,-70 -20,-100 -2,-23 3,-17 -22,-18 -3,0 -5,0 -9,0l-20 0c-5,0 -6,0 -6,-5 0,-12 -2,-24 -3,-36 -1,-12 -3,-24 -4,-37 2,-1 5,-3 7,-4 2,-2 4,-4 6,-5 0,-5 -7,-62 -6,-63 1,-1 5,0 6,0 2,0 2,-1 4,-1 2,0 1,1 2,-1 1,-1 5,-22 5,-24l-61 0c-1,4 -1,10 -1,15 0,10 0,7 6,11 3,3 2,9 2,15 0,6 0,11 0,17l-62 0c0,8 -5,22 -8,30l-5 13c-5,12 -14,27 -20,38l-12 17c-1,2 -2,4 -3,6 1,0 4,3 6,3l16 11c2,1 1,0 1,0l-76 0 -2 25c-4,22 -9,45 -17,65 -5,13 -15,32 -25,42l-4 3c-1,2 -2,3 -3,4 -5,3 -15,6 -15,12l33 0c0,3 0,4 0,8 0,2 0,6 0,8 1,9 1,26 1,32l1 16c1,12 1,23 2,33l1 32c0,8 3,59 1,63 -4,10 -6,16 -2,28 1,2 1,4 2,6 2,6 3,8 3,14 0,4 0,5 0,8 0,3 0,6 0,8 1,9 3,10 -4,20 -2,2 -3,2 -6,2 -4,-2 -8,-4 -12,-5 -4,-1 -4,0 -6,-3 -3,-4 -3,-7 -7,-10 -14,-10 -43,-2 -44,-23 -1,-11 -6,-18 6,-24 4,-3 8,-3 14,-4 3,0 11,-1 13,3 1,3 -3,11 -4,13 -4,10 -9,4 -18,4 -4,0 -5,0 -5,4 5,2 12,2 19,4 8,1 10,-4 12,-9 2,-4 5,-12 5,-17 0,-4 0,-7 -3,-8 -4,-2 -15,-3 -20,-3 -6,0 -18,7 -22,11 -6,4 -10,2 -18,1 -8,0 -8,-5 -11,-11 -5,-16 -15,-12 -28,-9 -6,1 -12,3 -17,5 -8,4 -7,7 -8,14 0,6 -2,15 6,16 6,1 14,-2 18,-4 9,-3 10,-10 0,-6 -2,1 -5,2 -8,3 -3,1 -4,2 -8,1 -1,-6 -2,-10 1,-15 2,-4 5,-5 10,-6 3,-1 10,-2 15,-2 12,0 10,11 16,18 5,5 20,2 26,7 6,5 -3,8 -4,10 0,2 5,9 6,11 1,3 4,7 6,10 3,5 3,5 10,6 7,1 22,3 26,7 2,1 3,2 5,4l4 5c11,9 30,18 32,24 2,5 -1,18 0,30 1,6 1,16 -1,21l-6 12c-2,6 -2,12 -7,17 -1,2 -3,3 -5,2 -2,-1 -2,0 -3,-5 -3,-9 -1,-6 -9,-10 -1,-1 -1,-1 -2,-2 0,-7 1,-8 6,-12 6,-5 19,-11 22,-17 2,-4 -1,-11 -2,-15 -1,-7 2,-18 -5,-23 -2,-1 -5,-2 -8,-1 -6,1 -11,0 -16,-3 -5,-3 -7,-6 -13,-6 -1,1 -1,1 -2,2 -2,4 -2,7 -4,10 -7,8 -26,8 -13,24 4,5 8,10 13,14 4,4 7,4 14,3 9,-1 15,-1 20,-8 9,-12 -6,-24 -18,-19 -7,2 -5,8 0,9 4,1 4,-2 6,-3 2,0 5,1 7,2 5,4 -1,8 -4,10 -4,2 -11,4 -15,3 -6,-1 -19,-15 -19,-18 0,-3 8,-7 11,-9 4,-4 4,-12 9,-10 5,2 8,7 13,8 9,1 14,-8 16,5 1,4 3,17 2,22 0,2 -1,3 -2,4 -1,1 -2,2 -3,3 -5,4 -10,6 -17,8 -13,4 -7,28 -4,38 2,6 6,13 3,19 -2,2 -4,5 -7,5 -6,-1 -4,-16 -15,-18 -10,-2 -17,8 -25,8 -11,-16 -26,3 -36,10 -5,4 -7,6 -14,2 -2,-2 -9,-7 -9,-10 0,-4 6,-10 8,-12 4,-4 12,0 12,3 0,2 -3,5 -5,6 -3,1 -4,-1 -8,1 0,4 4,6 9,5 7,-2 16,-18 0,-22 -14,-4 -25,17 -20,25 0,1 2,2 2,4 -5,0 -10,-1 -16,-1 0,2 1,4 2,7 0,2 1,5 1,7 2,7 9,40 9,45l-49 0c0,-3 -1,-4 -1,-6 0,-2 0,-5 0,-7l-2 -26c0,-2 1,-5 0,-7 0,-2 0,-3 0,-6 0,-7 -1,-12 -1,-19 0,-10 -2,-7 -11,-3 -4,1 -8,2 -11,3 0,7 2,18 3,26 1,11 5,35 5,44 -13,0 -25,-1 -38,-1 0,-17 3,-33 3,-51 -7,1 -14,3 -21,4 0,8 -1,14 -1,22 0,5 1,19 0,23 0,2 -1,2 -3,1 -2,0 -4,0 -6,0 -3,0 -7,0 -11,0l-17 0c-2,0 -3,-1 -5,-1 0,-10 -2,-23 -2,-34 -1,-12 0,-11 -7,-12 -4,0 -11,-2 -16,-2 0,10 3,25 4,35 0,4 1,9 2,13 -12,0 -23,-1 -34,-1 0,-12 1,-22 1,-34 0,-3 0,-4 0,-8l1 -26c-2,0 -20,5 -21,6 0,20 1,40 1,61 -12,0 -25,-1 -37,-1 0,-5 4,-26 5,-34 1,-3 2,-6 2,-9 0,-1 0,-1 -1,-2 -7,0 -14,3 -21,3l-6 80c0,10 10,25 9,34 -4,0 -1,9 -5,9l24 370z"/>
    <path class="fil0" d="M1975 1058l9 1 0 5c2,-1 2,0 3,-3 2,0 3,2 5,5 3,-1 2,-1 4,-3 9,5 6,5 14,1 2,0 1,0 3,1 2,2 2,4 7,-3 2,2 2,3 4,3l0 -4 9 0c-1,-2 -3,-3 -5,-5 -2,-1 -3,-3 -5,-4 -2,2 -3,3 -5,5l-3 2c-1,1 -2,2 -3,2 -2,0 -4,-5 -4,-7l-1 0c0,3 0,2 0,4 -4,0 -2,-1 -7,0 0,-2 0,-2 0,-4 -2,2 -3,4 -4,7 -1,-1 -3,-4 -4,-6 -2,-1 -3,-3 -5,-5 -3,2 -10,6 -12,8z"/>
    <path class="fil0" d="M2007 985c-1,2 -1,1 -2,3l4 0c0,8 0,6 5,6 2,12 9,1 9,12 1,0 4,-1 5,-1 1,1 1,1 1,3l1 0c1,-2 0,-1 2,-2 2,2 3,3 5,4 0,-4 -1,-8 -1,-11l-13 1c0,-2 1,-5 2,-6 -2,0 -1,0 -3,1 -2,-1 -1,-1 -3,-2 0,-2 0,-2 1,-4 -2,1 -2,1 -3,2 -4,2 -3,0 -3,-10 -4,0 -7,-1 -11,-1l4 5z"/>
    <path class="fil0" d="M1705 944c-3,0 -2,-2 -5,-3 0,1 1,1 1,3 -3,0 -2,0 -4,1 -1,-2 -1,-2 -2,-2l0 5c-2,-2 -6,-4 -8,-4 -2,1 -5,5 -6,7 3,0 3,0 6,-1 0,1 0,2 1,3 1,-1 1,-1 2,-3 1,1 3,2 4,2 1,-1 1,-1 1,-2 5,0 6,2 10,-4 2,0 2,1 4,1l2 -4c1,1 1,1 3,1 -1,-3 -2,-2 0,-3 3,-1 3,0 4,-3 -3,-1 -5,-2 -9,-2l-4 8z"/>
    <path class="fil0" d="M1930 960c-1,2 -1,1 -1,3 2,0 2,-1 3,1 1,1 -1,2 0,3 1,2 1,0 3,1 2,1 1,1 2,3 1,4 4,1 6,3 1,2 -1,3 1,4 0,0 2,0 4,0 0,2 0,1 1,2 1,-1 1,-1 3,-1 1,2 2,2 4,3 0,-4 -1,-6 -1,-9 -2,0 -4,0 -6,0 -6,0 -5,1 -4,-5 -2,0 0,0 -3,1 -1,-2 0,-1 -2,-2 0,-3 1,-1 1,-3 -2,0 -3,1 -4,2 -1,-2 0,-5 0,-9 -3,-1 -8,-1 -10,-1 0,2 2,2 3,4z"/>
    <path class="fil0" d="M1977 985l0 8c-4,0 -3,-1 -6,-1 1,1 1,1 1,3l-2 2c-1,-1 -1,-1 -3,-1l3 5c-4,0 -6,-1 -10,-1 0,1 -1,8 -1,10 2,-1 3,-2 4,-4 2,1 1,1 3,2l0 -3c1,0 4,1 5,-1 2,-3 -3,-2 2,-3 2,-1 3,0 4,-3 1,-3 -2,-4 5,-4 0,-5 0,-3 -1,-4 3,-2 2,0 4,-2 -2,-1 -2,0 -2,-2 2,-3 7,-5 -4,-3 -4,0 -2,0 -2,2z"/>
    <path class="fil0" d="M1716 870l0 1c0,0 5,1 5,1 2,0 1,0 0,3 3,0 1,0 4,-1 1,1 1,2 2,3 2,0 1,0 3,-1 3,1 2,2 5,2 2,0 2,0 4,-1l4 3 3 -3c2,1 0,2 3,2l0 -2c3,0 3,0 6,0 -1,-2 -4,-5 -6,-7 -3,1 -5,5 -9,6 0,-2 -1,-4 -1,-6 -1,1 -1,1 -1,3l-4 0c-1,-2 -1,-1 -1,-3 -1,1 -2,2 -2,3l-1 0c-1,-1 -4,-7 -5,-7 -3,0 -6,3 -9,4z"/>
    <path class="fil0" d="M1624 991c2,0 3,1 5,1 0,2 -1,2 -1,4 3,0 1,-1 4,-1 0,2 1,3 1,4 2,0 2,-1 4,-1 3,5 4,3 9,3l2 4c2,-1 2,-1 4,-2 2,2 -1,1 2,2 1,-3 0,-1 2,-2 0,0 4,1 5,2 0,-3 -4,-8 -5,-8 -3,0 -6,3 -10,3l0 -5c-1,0 -1,0 -1,2 -6,-1 -4,-3 -4,-5 -2,1 -3,2 -3,4l-2 0c0,-2 -2,-7 -2,-8 -3,0 -4,0 -6,1 -2,0 -3,0 -4,2z"/>
    <path class="fil0" d="M1626 1107c-2,-2 -1,-3 -4,-4l1 2c-2,1 -3,1 -4,2 -2,-3 0,-2 -2,-3l-1 4c-3,0 -5,-3 -7,-5l-6 5c-2,2 -1,-1 -1,3 2,-1 3,-1 6,-1 0,2 0,2 0,3 2,-1 1,0 2,-2 4,0 1,1 5,2 1,-1 0,-1 2,-2 3,0 1,1 5,1 2,0 3,-2 4,-3 1,1 2,1 4,2l2 -4c2,0 2,1 3,1 0,-1 0,-1 0,-3 1,0 4,-1 6,-1 -1,-2 -8,-5 -9,-5 -1,2 -4,7 -6,8z"/>
    <path class="fil0" d="M1678 1033l0 4c-4,0 -3,-1 -6,-2 1,3 1,1 2,3l-3 3c-1,-1 -1,-1 -3,-2 1,2 2,4 3,5l-10 0c0,3 -1,6 -1,9 2,0 2,-2 4,-3 2,1 1,1 3,2l0 -3c7,0 5,0 5,-3 0,-2 0,-1 2,-2 4,0 4,-1 4,-6 2,0 2,0 5,0l-1 -5c2,-1 1,0 3,0 -1,-3 -2,-2 1,-5 1,-2 3,-3 -1,-2 -10,0 -7,1 -7,7z"/>
   </g>
   <g id="CASA_0">
    <path class="fil1" d="M1209 2105l1213 0 0 -225c7,0 5,2 15,1 2,-8 -4,-16 -6,-24 -8,-27 -9,-58 -6,-87 1,-9 2,-20 0,-29 -1,-4 -2,-8 -2,-13 0,-3 0,-12 0,-16 2,-11 -2,-19 0,-29 1,-9 3,-20 0,-29 -3,-8 -7,-13 -8,-23 -1,-6 -2,-21 -3,-29 -1,-6 0,-9 2,-13l6 -7c0,0 0,0 0,-1l2 -1c8,-8 18,-14 28,-19 10,-4 13,-2 22,4 4,3 13,10 17,14 4,4 4,6 2,12 -3,5 -9,16 -16,16 -4,-1 -6,-11 -10,-14 -1,-1 -3,-1 -6,-1 -2,3 -3,4 -1,8 1,3 3,6 5,8 2,3 10,11 15,10 2,0 6,-3 7,-4 7,-6 15,-18 17,-28l0 -6c-1,-3 -2,-6 -5,-8 -1,-1 -3,-2 -4,-3l-16 -15c-3,-1 -5,-4 -8,-5 -6,-3 -12,-5 -21,-2 -9,2 -16,8 -23,13 -3,2 -5,4 -8,6 -16,13 -28,28 -21,50 4,15 11,25 6,41 -1,7 -4,14 -9,17 -2,0 -12,-5 -16,-5 -2,-1 -3,-1 -4,-3 -3,-3 -3,-6 -6,-9 -7,-7 -23,-7 -33,-10 -10,-4 -12,-6 -13,-17 -1,-4 -2,-9 -1,-13 0,-3 3,-6 6,-8 3,-2 6,-3 10,-4 7,-1 22,-4 18,8 -5,12 -5,14 -16,12 -6,-1 -10,-2 -10,3 4,3 11,3 16,4 8,1 11,0 14,-6 1,-4 4,-10 5,-15 1,-8 2,-13 -5,-14 -3,0 -6,-1 -9,-1 -3,0 -6,0 -9,0 -7,0 -10,3 -15,6 -11,5 -7,8 -22,6 -4,-1 -6,0 -8,-2 -4,-3 -4,-10 -7,-14 -2,-4 -6,-8 -11,-8 -7,0 -24,5 -32,8 -5,2 -8,5 -8,12 0,11 -5,25 19,16 5,-1 11,-3 11,-9 -4,-1 -7,1 -11,3 -3,1 -6,3 -11,3 -2,-4 -2,-11 0,-15 3,-6 10,-7 17,-8 1,0 7,-1 8,-1 1,0 6,1 7,1 2,1 3,3 4,5 2,4 3,8 5,11 3,4 8,3 14,4 25,5 9,13 9,15 -1,2 10,19 11,21 6,7 9,5 25,8 8,2 11,3 16,8l6 6c0,0 0,0 0,0 5,5 11,9 17,13 8,5 15,7 15,18 -1,14 -2,17 0,31 1,11 -5,16 -8,25 -1,5 -2,9 -4,13 -1,3 -4,9 -9,7 -1,-1 -1,0 -2,-5 -1,-2 -2,-4 -2,-6 -2,-3 -4,-3 -7,-4 -3,-2 -3,-3 -2,-6 2,-7 1,-5 7,-10 4,-3 8,-6 13,-8 15,-10 5,-14 6,-31 0,-25 -15,-12 -26,-17 -7,-4 -16,-14 -19,-3 -1,3 -2,5 -4,7 -2,3 -3,3 -6,4 -3,2 -5,3 -7,4 -8,6 -2,12 2,17 1,1 1,2 2,3 3,4 7,8 11,11 2,2 3,3 8,3 6,0 14,-1 18,-3 8,-3 16,-18 1,-24 -4,-2 -15,-3 -17,2 0,4 3,6 7,7 3,-2 3,-5 8,-3 10,3 1,13 -10,15 -11,1 -15,-6 -20,-12 -4,-6 -8,-7 -1,-12 2,-1 5,-2 6,-3 2,-1 6,-9 7,-11 7,0 9,7 16,8 9,1 13,-8 16,5 1,3 2,18 2,23 -1,3 -3,5 -6,7 -10,7 -20,7 -23,14 -3,11 1,26 5,37 2,5 3,10 0,14 -2,3 -3,5 -8,5 -6,-12 -6,-25 -26,-15 -4,2 -8,4 -13,4 -8,-12 -21,-1 -29,7 -2,1 -4,3 -6,4 -4,4 -7,6 -13,3 -2,-2 -9,-7 -10,-9 -1,-5 3,-10 6,-13 1,-1 3,-3 6,-3 5,1 11,5 5,10 -2,1 -5,1 -9,1l-1 2c3,13 30,-9 12,-17 -6,-3 -8,-1 -14,0 0,-2 -2,-6 -3,-7 -3,0 -6,2 -8,3 -3,1 -7,3 -9,3 0,-2 -1,-10 -2,-11 -1,-2 -14,0 -15,2 -1,1 2,14 2,16 -3,0 -17,6 -20,8 0,4 2,10 4,13 4,0 6,-2 9,-3 1,0 7,-4 8,-3 1,1 5,31 5,34 -3,-2 -27,-4 -33,-5 0,-15 3,-29 -10,-39 -12,-8 -25,-4 -36,4 -2,2 -2,2 -4,4 -2,2 -2,2 -3,5 -3,5 -2,8 -2,15 -3,-1 -24,-6 -25,-7 -2,-1 -1,-1 -1,-3l3 -25c0,-2 0,-6 1,-8 4,0 9,1 13,2 8,1 7,-1 8,-7 2,-7 2,-6 -6,-7 -4,-1 -9,-2 -14,-3 0,-16 6,-15 -7,-16 -3,-1 -5,-1 -7,0 0,1 -1,4 -1,6 0,2 -1,6 -1,7 -5,0 -14,-1 -19,-2 -1,2 -4,12 -3,13 1,1 18,4 20,4 0,4 0,5 0,8 0,2 -1,5 -1,8 -1,6 -1,10 -1,16 -10,-2 -25,-17 -31,-24 -5,-6 -4,-3 -1,-14 1,-7 6,-24 6,-31 0,-5 -2,-10 -4,-13 -2,-3 -8,-8 -11,-8 0,-6 4,-11 5,-16 5,0 10,6 11,-3 -2,-1 -5,-3 -8,-3 0,-4 1,-4 1,-7 -2,-1 -3,-2 -7,-2 0,2 -1,4 -1,5 -3,0 -6,-2 -8,-3 -3,4 -4,6 1,8 1,0 3,1 4,1 -1,2 -2,6 -3,8 0,3 -2,6 -2,9 -8,0 -17,2 -23,6 -3,2 -4,3 -6,5 0,-3 -21,-32 -23,-35l-3 -4c-10,-14 -19,-29 -29,-44 -1,-2 -2,-3 -3,-4l-17 -27c-3,-5 -11,-17 -14,-22 -1,-3 0,-4 0,-7 1,-4 0,-9 1,-13 3,-12 8,-25 6,-37 -2,-14 1,-25 3,-39 1,-3 0,-10 1,-14 2,-13 8,-23 4,-37 -1,-4 -2,-7 -3,-11 -3,-13 1,-28 1,-41 0,-6 1,-8 3,-11 7,-10 24,-18 36,-22 3,-1 9,-3 12,-2 7,1 21,15 24,20 7,8 8,9 1,19 -2,3 -11,14 -16,10 -4,-4 -4,-18 -13,-16 -4,0 -3,6 -2,9 1,4 3,7 6,10 6,8 9,11 17,7 10,-6 25,-22 23,-34 -1,-5 -3,-7 -6,-9 -1,-1 -1,-1 -2,-2 0,0 0,0 0,-1l-1 -1c-5,-5 -10,-12 -14,-16 -19,-19 -37,-8 -56,4 -3,2 -8,5 -10,6 0,-5 1,-9 1,-14 0,-10 3,-34 3,-42 0,-3 0,-10 1,-13 0,-5 0,-9 1,-14l4 -70c1,-3 1,-10 1,-14 0,-4 1,-9 1,-13 1,-4 0,-4 2,-6 7,-5 23,-10 25,-12 -7,-5 -7,0 -11,-9 -3,-4 -5,-9 -7,-14 -11,-28 -16,-70 -20,-100 -2,-23 3,-18 -22,-18 -3,0 -5,-1 -9,-1l-20 0c-5,0 -6,1 -6,-4 0,-12 -2,-25 -3,-37 -1,-12 -3,-25 -4,-37 2,-1 5,-3 7,-5 2,-1 4,-3 6,-4 0,-5 -7,-62 -6,-64 1,-1 5,0 6,0 2,0 2,0 4,-1 2,0 1,1 2,-1 1,-1 5,-22 5,-24l-61 0c-1,4 -1,10 -1,16 0,9 0,6 6,11 3,2 2,8 2,15 0,5 0,11 0,16l-62 0c0,9 -5,23 -8,30l-5 14c-5,12 -14,27 -20,38l-12 18c-1,2 -2,3 -3,6 1,0 4,2 6,3l16 10c2,1 1,0 1,1l-76 0 -2 25c-4,22 -9,45 -17,65 -5,13 -15,33 -25,43l-4 3c-1,1 -2,2 -3,3 -5,4 -15,7 -15,13l33 0c0,3 0,4 0,8 0,2 0,6 0,8 1,9 1,27 1,33l1 16c1,11 1,22 2,33l1 32c0,8 3,60 1,63 -4,11 -6,17 -2,29 1,2 1,4 2,6 2,6 3,8 3,14 0,4 0,5 0,8 0,3 0,6 0,9 1,9 3,9 -4,19 -2,2 -3,3 -6,2 -4,-1 -8,-4 -12,-5 -4,0 -4,0 -6,-2 -3,-4 -3,-7 -7,-10 -14,-10 -43,-3 -44,-24 -1,-11 -6,-18 6,-25 4,-2 8,-2 14,-3 3,0 11,-1 13,3 1,3 -3,11 -4,13 -4,10 -9,4 -18,4 -4,0 -5,0 -5,4 5,2 12,3 19,4 8,1 10,-4 12,-9 2,-4 5,-12 5,-18 0,-4 0,-6 -3,-8 -4,-1 -15,-2 -20,-2 -6,0 -18,7 -22,10 -6,5 -10,3 -18,2 -8,-1 -8,-5 -11,-12 -5,-15 -15,-12 -28,-8 -6,1 -12,3 -17,5 -8,3 -7,7 -8,14 0,6 -2,15 6,16 6,1 14,-2 18,-4 9,-4 10,-10 0,-6 -2,1 -5,2 -8,3 -3,1 -4,2 -8,1 -1,-6 -2,-10 1,-15 2,-4 5,-5 10,-6 3,-1 10,-3 15,-2 12,0 10,10 16,17 5,6 20,3 26,8 6,5 -3,8 -4,10 0,2 5,10 6,11 1,4 4,8 6,10 3,5 3,5 10,6 7,1 22,3 26,7 2,1 3,3 5,4l4 5c11,10 30,19 32,24 2,6 -1,19 0,31 1,6 1,16 -1,21l-6 12c-2,6 -2,13 -7,17 -1,2 -3,3 -5,2 -2,0 -2,0 -3,-4 -3,-9 -1,-7 -9,-11 -1,-1 -1,-1 -2,-2 0,-7 1,-8 6,-12 6,-5 19,-11 22,-17 2,-4 -1,-11 -2,-16 -1,-7 2,-17 -5,-22 -2,-2 -5,-2 -8,-2 -6,1 -11,1 -16,-2 -5,-3 -7,-7 -13,-7 -1,2 -1,1 -2,3 -2,3 -2,7 -4,9 -7,9 -26,8 -13,24 4,5 8,10 13,15 4,4 7,4 14,3 9,-1 15,-1 20,-8 9,-12 -6,-24 -18,-20 -7,3 -5,9 0,10 4,1 4,-2 6,-3 2,0 5,1 7,2 5,4 -1,8 -4,10 -4,2 -11,4 -15,3 -6,-1 -19,-15 -19,-19 0,-3 8,-6 11,-8 4,-4 4,-12 9,-11 5,2 8,7 13,8 9,2 14,-7 16,5 1,4 3,18 2,23 0,2 -1,2 -2,4 -1,1 -2,2 -3,3 -5,4 -10,6 -17,8 -13,4 -7,28 -4,38 2,6 6,13 3,19 -2,3 -4,5 -7,6 -6,-2 -4,-17 -15,-19 -10,-1 -17,8 -25,8 -11,-15 -26,3 -36,11 -5,4 -7,6 -14,1 -2,-1 -9,-6 -9,-10 0,-3 6,-9 8,-12 4,-3 12,1 12,4 0,2 -3,4 -5,5 -3,1 -4,0 -8,2 0,3 4,5 9,4 7,-2 16,-18 0,-22 -14,-3 -25,17 -20,25 0,2 2,3 2,4 -5,0 -10,-1 -16,-1 0,2 1,5 2,7 0,3 1,5 1,8 2,6 9,40 9,45l-49 0c0,-3 -1,-4 -1,-6 0,-2 0,-5 0,-7l-2 -26c0,-2 1,-5 0,-7 0,-2 0,-3 0,-6 0,-8 -1,-13 -1,-20 0,-9 -2,-6 -11,-3 -4,1 -8,2 -11,4 0,6 2,18 3,26 1,11 5,35 5,44 -13,0 -25,0 -38,0 0,-18 3,-35 3,-53 -7,2 -14,3 -21,5 0,8 -1,14 -1,22 0,5 1,19 0,23 0,2 -1,2 -3,1 -2,0 -4,0 -6,0 -3,0 -7,0 -11,0l-17 0c-2,0 -3,-1 -5,-1 0,-10 -2,-24 -2,-34 -1,-12 0,-11 -7,-12 -4,-1 -11,-2 -16,-2 0,10 3,24 4,35 0,4 1,9 2,13 -12,0 -23,-1 -34,-1 0,-12 1,-22 1,-34 0,-4 0,-5 0,-8l1 -26c-2,0 -20,4 -21,5 0,21 1,41 1,62 -12,0 -25,-1 -37,-1 0,-5 4,-27 5,-34 1,-3 2,-6 2,-10 0,-1 0,-1 -1,-1 -7,0 -14,3 -21,3l-8 86c-1,10 -3,20 -3,30 -5,0 -8,0 -12,0l0 391z"/>
    <path class="fil1" d="M1975 1060l9 1 0 5c2,-1 2,0 3,-3 2,0 3,2 5,5 3,-1 2,-1 4,-3 9,5 6,5 14,1 2,0 1,0 3,1 2,2 2,4 7,-3 2,2 2,3 4,3l0 -4 9 0c-1,-2 -3,-3 -5,-5 -2,-1 -3,-3 -5,-4 -2,2 -3,3 -5,5l-3 2c-1,1 -2,2 -3,2 -2,0 -4,-5 -4,-7l-1 0c0,3 0,2 0,4 -4,0 -2,-1 -7,0 0,-2 0,-2 0,-4 -2,2 -3,4 -4,7 -1,-1 -3,-4 -4,-6 -2,-2 -3,-3 -5,-5 -3,2 -10,6 -12,8z"/>
    <path class="fil1" d="M2007 987c-1,2 -1,1 -2,3l4 0c0,8 0,5 5,5 2,13 9,1 9,12 1,0 4,-1 5,-1 1,2 1,1 1,3l1 0c1,-1 0,-1 2,-1 2,1 3,3 5,3 0,-3 -1,-7 -1,-10l-13 0c0,-2 1,-4 2,-6 -2,1 -1,1 -3,2 -2,-1 -1,-2 -3,-3 0,-2 0,-1 1,-4 -2,1 -2,2 -3,2 -4,2 -3,0 -3,-10 -4,0 -7,0 -11,0l4 5z"/>
    <path class="fil1" d="M1705 945c-3,-1 -2,-2 -5,-3 0,1 1,1 1,3 -3,0 -2,0 -4,1 -1,-3 -1,-2 -2,-2l0 5c-2,-2 -6,-4 -8,-4 -2,1 -5,5 -6,7 3,0 3,0 6,-1 0,1 0,2 1,3 1,-1 1,-1 2,-3 1,1 3,2 4,2 1,-1 1,-1 1,-3 5,0 6,3 10,-3 2,0 2,1 4,1l2 -4c1,0 1,1 3,1 -1,-3 -2,-2 0,-3 3,-2 3,0 4,-3 -3,-1 -5,-2 -9,-2l-4 8z"/>
    <path class="fil1" d="M1930 961c-1,2 -1,1 -1,3 2,0 2,-1 3,1 1,1 -1,3 0,3 1,2 1,0 3,1 2,1 1,1 2,3 1,4 4,2 6,4 1,2 -1,2 1,3 0,0 2,0 4,0 0,2 0,1 1,3 1,-1 1,-1 3,-2 1,2 2,2 4,3 0,-4 -1,-6 -1,-9 -2,0 -4,0 -6,0 -6,0 -5,2 -4,-5 -2,1 0,1 -3,1 -1,-1 0,-1 -2,-2 0,-3 1,0 1,-3 -2,0 -3,1 -4,2 -1,-1 0,-5 0,-9 -3,-1 -8,-1 -10,-1 0,2 2,2 3,4z"/>
    <path class="fil1" d="M1977 986l0 8c-4,0 -3,0 -6,-1 1,1 1,2 1,3l-2 2c-1,0 -1,0 -3,-1l3 5c-4,0 -6,-1 -10,-1 0,2 -1,8 -1,10 2,0 3,-2 4,-3 2,1 1,1 3,1l0 -3c1,1 4,1 5,0 2,-3 -3,-2 2,-4 2,0 3,0 4,-2 1,-4 -2,-4 5,-4 0,-6 0,-4 -1,-5 3,-1 2,0 4,-2 -2,0 -2,0 -2,-2 2,-2 7,-5 -4,-3 -4,1 -2,0 -2,2z"/>
    <path class="fil1" d="M1716 870l0 1c0,0 5,1 5,1 2,1 1,0 0,3 3,0 1,0 4,-1 1,1 1,2 2,4 2,-1 1,-1 3,-2 3,2 2,3 5,3 2,0 2,-1 4,-1l4 3 3 -3c2,1 0,1 3,1l0 -2c3,0 3,1 6,1 -1,-3 -4,-6 -6,-7 -3,1 -5,5 -9,5 0,-2 -1,-4 -1,-5 -1,1 -1,0 -1,2l-4 0c-1,-2 -1,-1 -1,-3 -1,1 -2,2 -2,4l-1 0c-1,-1 -4,-7 -5,-7 -3,0 -6,2 -9,3z"/>
    <path class="fil1" d="M1624 992c2,1 3,1 5,2 0,1 -1,2 -1,3 3,0 1,0 4,-1 0,2 1,3 1,5 2,-1 2,-1 4,-1 3,5 4,3 9,3l2 3c2,0 2,-1 4,-2 2,2 -1,2 2,3 1,-3 0,-1 2,-3 0,1 4,2 5,2 0,-3 -4,-8 -5,-8 -3,0 -6,3 -10,3l0 -5c-1,1 -1,0 -1,2 -6,-1 -4,-2 -4,-4 -2,1 -3,1 -3,3l-2 0c0,-2 -2,-6 -2,-8 -3,0 -4,1 -6,1 -2,1 -3,1 -4,2z"/>
    <path class="fil1" d="M1626 1109c-2,-1 -1,-3 -4,-4l1 3c-2,0 -3,0 -4,1 -2,-2 0,-2 -2,-3l-1 5c-3,-1 -5,-4 -7,-6l-6 5c-2,3 -1,0 -1,3 2,0 3,-1 6,-1 0,2 0,2 0,3 2,-1 1,0 2,-2 4,0 1,1 5,2 1,-1 0,-1 2,-2 3,1 1,1 5,1 2,0 3,-2 4,-3 1,1 2,2 4,2l2 -4c2,1 2,1 3,2 0,-2 0,-2 0,-3 1,-1 4,-1 6,-1 -1,-3 -8,-5 -9,-6 -1,3 -4,7 -6,8z"/>
    <path class="fil1" d="M1678 1035l0 3c-4,0 -3,-1 -6,-1 1,2 1,1 2,3l-3 2c-1,0 -1,0 -3,-1 1,2 2,3 3,5l-10 0c0,3 -1,6 -1,9 2,0 2,-2 4,-3 2,1 1,1 3,1l0 -3c7,0 5,1 5,-2 0,-3 0,-1 2,-2 4,-1 4,-2 4,-6 2,0 2,0 5,0l-1 -5c2,-1 1,-1 3,-1 -1,-2 -2,-2 1,-4 1,-2 3,-3 -1,-3 -10,1 -7,2 -7,8z"/>
    <g>
     <path class="fil2" d="M1788 1471c-1,3 0,42 1,49l36 8 -5 -59 -32 2z"/>
     <path class="fil2" d="M1825 1468l5 60c0,0 1,0 1,0 0,1 19,5 20,5 1,-11 0,-24 0,-35 0,-4 -1,-4 -2,-7 -1,-5 1,-4 2,-7 0,-2 0,-14 0,-17l-26 1z"/>
     <path class="fil2" d="M1750 1473c0,6 -1,36 0,39l34 7 -1 -48 -33 2z"/>
     <path class="fil2" d="M1750 1554c3,1 17,1 19,0 4,0 4,-6 15,-5l0 -25 -34 -7 0 37z"/>
     <path class="fil2" d="M1828 1554l-2 -21c-2,-1 0,0 -2,-1l-16 -3c-6,-2 -13,-3 -19,-4l0 25c1,2 3,4 5,4 4,1 27,0 34,0z"/>
     <path class="fil2" d="M1750 1461l0 7 33 -2c0,-3 0,-26 -1,-27 -2,-1 -23,-2 -27,-2 -1,4 -2,7 -3,11 -1,4 -2,9 -2,13z"/>
     <polygon class="fil2" points="1736,1283 1760,1279 1761,1246 1740,1244 "/>
     <polygon class="fil2" points="1867,1287 1867,1319 1891,1324 1887,1285 "/>
     <path class="fil2" d="M1787 1408l0 25c3,1 25,2 29,2 0,-3 -2,-27 -3,-28 -2,-3 -21,0 -26,1z"/>
     <polygon class="fil2" points="1788,1466 1819,1464 1817,1440 1787,1438 "/>
     <path class="fil2" d="M1824 1463l27 -1c0,-3 -1,-8 -1,-11 -1,-2 -1,-8 -3,-10l-25 -1 2 23z"/>
     <polygon class="fil2" points="1821,1008 1842,1004 1842,976 1824,975 "/>
     <polygon class="fil2" points="1845,1288 1844,1315 1863,1319 1863,1287 "/>
     <path class="fil2" d="M1723 1286l10 -2c0,-3 3,-38 3,-40l-13 -1 0 43z"/>
     <polygon class="fil2" points="1763,1278 1780,1275 1780,1247 1764,1246 "/>
     <path class="fil2" d="M1846 1436c-3,-11 -16,-26 -27,-28 0,7 1,19 2,25 0,3 2,2 11,3 4,0 9,0 14,0z"/>
     <polygon class="fil2" points="1844,1342 1864,1342 1864,1322 1845,1318 "/>
     <path class="fil2" d="M1734 1301l26 0 0 -19c-5,0 -13,2 -19,4 -5,1 -5,-1 -6,5 0,3 -1,7 -1,10z"/>
     <path class="fil2" d="M1867 1342l25 0c1,-2 0,-11 -1,-14l-24 -5 0 19z"/>
    </g>
    <g>
     <polygon class="fil2" points="1844,1003 1861,1000 1861,977 1845,976 "/>
     <path class="fil2" d="M1790 1578c2,-1 7,-4 9,-5 3,-2 6,-4 9,-6 6,-3 12,-4 17,1 2,3 0,4 4,4 1,-2 0,-11 -1,-13 -1,0 -6,0 -8,0l-25 0c-1,5 -2,4 -4,8 -2,2 -2,8 -1,11z"/>
     <path class="fil2" d="M1758 1432l25 2 -1 -24c-9,2 -23,15 -24,22z"/>
     <polygon class="fil2" points="1891,1285 1894,1325 1902,1326 1902,1284 "/>
     <path class="fil2" d="M1750 1583l22 0c0,0 -3,-4 -4,-5 -10,-9 -3,-14 -2,-19l-16 0 0 24z"/>
     <polygon class="fil2" points="1832,1554 1851,1554 1851,1538 1831,1533 "/>
     <polygon class="fil2" points="1763,1281 1763,1301 1780,1301 1780,1278 "/>
     <path class="fil2" d="M1742 1226l-2 15 21 2 0 -19c-3,0 -7,1 -10,1l-9 0c0,0 0,0 0,0 0,0 0,1 0,1z"/>
     <path class="fil2" d="M1866 1283l21 -1c0,-2 0,-5 -1,-8 0,-1 0,-2 0,-4l-1 -4 -19 -1 0 18z"/>
     <path class="fil2" d="M1810 1010l8 -1c1,-3 3,-32 3,-35l-11 0 0 36z"/>
     <path class="fil2" d="M1844 1285l19 -1 0 -17c-1,-4 -7,-2 -14,-3 -3,6 -5,13 -5,21z"/>
     <polygon class="fil2" points="1844,1006 1844,1023 1861,1023 1861,1003 "/>
     <path class="fil2" d="M1820 1023l21 0 0 -16c-5,0 -10,2 -16,3 -4,1 -4,0 -5,4 0,3 -1,6 0,9z"/>
     <path class="fil2" d="M1743 1206l-1 16c3,0 16,0 19,-1l0 -15c-5,-1 -13,-2 -18,0z"/>
     <path class="fil2" d="M1764 1242c3,2 12,2 16,2 0,-7 0,-15 -3,-20l-13 0 0 18z"/>
    </g>
    <g>
     <path class="fil2" d="M1845 958l0 15 16 1c0,-6 -1,-9 -2,-14 -1,-4 -2,-3 -6,-3 -3,0 -5,0 -8,1z"/>
     <polygon class="fil2" points="1826,958 1824,972 1842,973 1842,958 "/>
     <path class="fil2" d="M1785 1581l0 -10c-10,1 -11,-6 -5,-6 2,0 2,1 4,1l1 -7c-10,0 -12,-1 -15,5 -2,3 -1,6 1,8 2,3 8,11 14,9z"/>
     <path class="fil2" d="M1724 1226c-1,3 -2,9 -1,14l14 1 1 -16 -14 1z"/>
    </g>
    <g>
     <path class="fil2" d="M1866 1252l0 10 19 1c0,-10 -1,-10 -5,-11 -4,-1 -10,-1 -14,0z"/>
     <path class="fil2" d="M1826 956l16 -1c0,0 0,-1 0,-1l0 -10c-3,-2 -10,-2 -13,-1 -3,1 -2,2 -3,6 0,2 0,4 0,7z"/>
     <polygon class="fil2" points="1844,1355 1864,1354 1864,1346 1845,1345 "/>
     <path class="fil2" d="M1834 1570c2,1 5,-1 8,-2 3,-1 5,-1 9,-1l0 -8 -18 0 1 11z"/>
     <path class="fil2" d="M1890 1282l11 -1c1,-3 -1,-8 -2,-11l-1 -3c-1,-1 -7,-1 -9,-1l1 16z"/>
     <path class="fil2" d="M1810 971l11 1c1,-1 0,0 1,-2l1 -12c-12,0 -12,-1 -13,13z"/>
    </g>
   </g>
  </g>
 </g>
</svg>
