<?xml version="1.0" encoding="UTF-8"?>
<!DOCTYPE svg PUBLIC "-//W3C//DTD SVG 1.1//EN" "http://www.w3.org/Graphics/SVG/1.1/DTD/svg11.dtd">
<!-- Creator: CorelDRAW X8 -->
<svg xmlns="http://www.w3.org/2000/svg" xml:space="preserve" width="3508px" height="2480px" version="1.1" style="shape-rendering:geometricPrecision; text-rendering:geometricPrecision; image-rendering:optimizeQuality; fill-rule:evenodd; clip-rule:evenodd"
viewBox="0 0 3508 2480"
 xmlns:xlink="http://www.w3.org/1999/xlink">
 <defs>
  <style type="text/css">
   <![CDATA[
    .fil3 {fill:#4B4B4D}
    .fil0 {fill:#FFF212}
    .fil2 {fill:#00030A}
    .fil1 {fill:#80F5FF}
   ]]>
  </style>
 </defs>
 <g id="Capa_x0020_1">
  <metadata id="CorelCorpID_0Corel-Layer"/>
  <g id="_3079685325984">
   <path class="fil0" d="M1063 1702c-15,4 -13,5 -17,10l-4 -5c-15,2 -4,0 -14,3 -3,-6 -5,-6 -13,-8 4,14 16,13 16,13 1,0 1,1 1,1 9,2 3,1 10,0 1,0 1,0 1,0 0,0 15,3 20,-14z"/>
   <path class="fil0" d="M1045 1692c8,2 12,1 18,-3 1,-9 -6,-17 -14,-18l-4 21z"/>
   <path class="fil0" d="M1014 1688c6,4 8,4 15,3 0,-5 -2,-16 -5,-19 -7,3 -12,7 -10,16z"/>
   <path class="fil0" d="M2571 1937l1 -1c3,0 5,-1 5,-3 1,-2 1,-5 1,-8 -1,-1 -4,-3 -5,-3 -1,3 -1,10 -3,13 -2,-3 -1,-11 -1,-15 -1,0 -11,-1 -12,-1 0,5 2,9 4,12 2,2 6,6 10,6z"/>
   <path class="fil0" d="M2603 1927c1,3 -1,4 2,7 2,2 3,1 4,3l2 0c4,0 10,-6 11,-8 -1,-3 0,-4 -2,-6 -2,-2 -2,-2 -4,-3l-3 0c0,4 1,11 -1,15 -1,-3 -2,-10 -2,-13 -3,0 -7,3 -7,5z"/>
   <path class="fil0" d="M2600 1933c0,1 2,3 4,4 2,1 5,1 7,0l-2 0c-1,-2 -2,-1 -4,-3 -3,-3 -1,-4 -2,-7l-2 3c0,1 -1,2 -1,3z"/>
   <path class="fil0" d="M2616 1920c2,1 2,1 4,3 2,2 1,3 2,6 0,-1 0,-1 1,-1 0,0 0,-1 0,-1 1,-1 1,-2 1,-2 0,-2 1,-4 1,-6 -1,0 -3,0 -5,0 0,0 -1,0 -2,0 -1,0 -1,0 -2,1z"/>
   <path class="fil0" d="M2571 1937c0,0 0,0 0,0 0,1 3,1 4,1 3,-1 6,-3 7,-5l-4 -8c0,3 0,6 -1,8 0,2 -2,3 -5,3l-1 1z"/>
  </g>
  <g id="_3079685324352">
   <path class="fil1" d="M2592 1933c0,-1 0,-2 1,-3l2 -3c0,-2 4,-5 6,-5 0,3 1,10 3,13 2,-4 1,-11 1,-15l3 0c1,-1 0,-1 2,-1 0,0 1,0 2,0 2,0 3,0 5,0l3 0c-2,18 -12,22 -31,22l3 -8zm-43 -14c0,0 10,1 12,1 0,4 -2,12 0,15 2,-3 3,-10 3,-13 2,0 5,2 6,3l4 8 3 8c-19,1 -29,-4 -32,-22l4 0zm-18 -22c0,7 1,13 3,20 2,6 2,7 1,13 -1,4 -1,11 1,15 -16,0 -20,-6 -23,-7 2,4 5,6 9,8 4,1 10,3 15,3 0,1 0,1 1,2 -5,0 -12,3 -20,1 -1,0 -2,-1 -4,-1 2,3 8,5 12,5 5,0 9,-2 13,-2 1,0 1,1 2,2 -6,1 -9,7 -22,7 6,5 19,-2 23,-5 2,1 3,2 4,3 1,1 3,2 4,3 6,5 14,8 22,10 3,1 3,2 4,7 1,2 0,3 -1,5 -5,11 -10,23 -14,35 -5,10 -14,37 -19,45 -2,3 -2,1 -5,2 -4,0 -6,3 -8,6 -3,8 -4,19 -4,29 0,17 12,32 22,44 1,1 2,2 2,3l6 6c0,1 0,1 1,2 1,1 1,1 1,1 -4,3 -12,3 -14,8 -2,3 -1,7 2,9 6,4 15,0 21,0 5,6 14,4 16,0 4,3 2,4 10,4 1,0 2,-1 3,-1 1,-1 2,-2 2,-3 4,2 18,2 22,-1 1,0 1,-1 2,-2 2,-4 0,-8 -4,-10l-6 -2c-3,-1 2,1 -1,0l0 0c7,-1 21,-8 27,-12 5,-3 8,-5 11,-9 2,-1 1,-1 2,-2l8 -8c8,-11 11,-23 8,-37 -1,-9 -5,-15 -10,-22 -9,-14 -37,-30 -27,-47 1,-1 2,-3 4,-4 8,-5 14,1 16,1 4,0 5,-6 -2,-10 -8,-5 -18,-1 -24,4 -5,3 -8,9 -8,16 0,18 21,32 28,41 5,7 8,7 11,17 5,13 3,27 -7,36 -1,2 -3,4 -5,5 -7,7 -14,14 -24,16 1,-1 9,-12 13,-20 5,-8 7,-15 7,-25 0,-9 0,-29 -10,-33 -1,-1 -3,0 -6,0l-8 -19c-6,-15 -11,-30 -17,-44 -3,-6 -5,-11 -7,-16 -3,-5 -3,-7 -1,-13 1,-3 8,-2 19,-8 3,-2 5,-3 7,-5 3,-1 4,-4 6,-5 3,1 5,3 8,4 4,2 9,4 13,3l3 -2c-13,0 -17,-6 -22,-7 1,-1 1,-2 2,-2 1,0 3,0 5,1 6,1 18,0 19,-4 -7,2 -1,2 -12,2 -4,0 -7,-2 -11,-2 1,-1 1,-1 1,-2 9,0 19,-3 24,-11 -2,1 -3,2 -5,3 -7,4 -15,3 -18,5 2,-7 1,-15 0,-22 0,-2 1,-5 2,-8 3,-10 4,-22 1,-32 -2,-4 -4,-7 -7,-9 1,4 7,15 -4,22 -3,3 -9,5 -11,8 -20,-5 -34,-5 -54,0 -2,-3 -8,-5 -11,-7 -3,-2 -3,-3 -5,-5 -4,-9 0,-14 1,-18 -7,5 -9,13 -9,22z"/>
   <path class="fil1" d="M2574 1933c-1,2 -5,4 -8,5 0,0 -3,0 -3,-1 0,0 0,0 0,0 -4,0 -8,-4 -10,-6 -2,-3 -4,-7 -4,-12l-4 0c3,18 13,23 32,22l-3 -8z"/>
   <path class="fil1" d="M2614 1929c-1,2 -7,8 -11,8 -2,1 -5,1 -7,0 -2,-1 -4,-3 -4,-4l-3 8c19,0 29,-4 31,-22l-3 0c0,2 -1,4 -1,6 -1,0 -1,1 -1,2 0,0 -1,1 -1,1 0,0 0,0 0,1z"/>
  </g>
  <g id="mountainForest">
   <g>
    <path class="fil1" d="M1273 2219c1,-6 5,-16 8,-20 5,5 10,11 10,21l-18 -1zm37 -1c0,-10 4,-16 8,-21 4,8 9,13 9,20 -7,2 -8,2 -17,1zm19 -30c11,0 11,2 17,6 0,9 -5,19 -15,21l-2 -27zm-61 29c-8,-1 -14,-10 -16,-19 -4,-13 9,-10 18,-8 0,6 0,24 -2,27zm-714 -24c0,-4 5,-16 7,-20 5,4 10,10 10,21l-17 -1zm37 -1c0,-10 2,-15 8,-20l10 21 -18 -1zm20 -25l15 1c0,6 -1,9 -4,13 -4,6 -4,7 -10,8l-1 -22zm-79 0c7,-2 8,-4 18,-3 1,11 -4,4 1,28 -8,-1 -6,0 -10,-4 -6,-6 -9,-13 -9,-21zm17 -108l0 0zm159 -57l2 3 -2 -3zm0 0c-7,0 -7,0 -7,-5 3,2 5,2 7,5zm31 -4c1,-1 5,2 1,1 0,0 -4,2 -1,-1zm-3 -4c-1,-4 2,-1 1,0 -2,2 -1,1 -1,0zm16 -5l6 -1 0 9c-2,-1 -2,-1 -4,-3 -3,-4 -1,-2 -2,-5zm46 -4c2,3 2,-3 2,3 -1,3 -1,1 -2,3l0 -6zm-14 3c-1,-3 2,-5 1,-1 0,0 0,6 -1,1zm-47 0c2,-3 2,-3 3,-7 4,2 6,8 6,14 -9,-6 0,-10 -9,-7zm47 -13l-3 2 3 -2zm-29 -4l0 0zm68 -9l2 0c0,9 3,7 -2,9l0 -9zm-25 -7c4,14 1,9 0,20l-3 0c0,-11 -9,-18 3,-20zm-14 20c-1,-9 -2,-1 -2,-6 -2,-10 -3,-11 3,-13 0,9 0,12 2,19l-3 0zm-29 -4c-3,-2 -6,-7 -8,-9 7,0 7,1 8,9zm86 -13c0,7 1,5 3,11 -7,-5 -2,-6 -8,-10 0,6 1,6 2,10l-3 0c0,-8 -1,-12 -2,-19 8,0 7,-1 14,-1l0 11c-5,-3 -3,1 -3,-7 -3,2 -3,0 -3,5zm-19 -6c2,-3 5,4 1,1 0,0 -3,1 -1,-1zm54 -8c0,7 1,8 3,14 -2,-2 -5,-5 -6,-7 -3,-5 -3,-5 3,-7zm-123 -5l3 0 0 11c-4,-3 -3,-4 -3,-11zm26 -3l5 0 0 11 -5 0 0 -11zm19 -3l0 13 -7 0c0,-10 -2,-12 7,-13zm89 10l6 0 -2 9c-5,-4 -1,-3 -4,-9zm15 -1c2,-3 5,4 1,1 0,0 -3,1 -1,-1zm-80 -12l4 0 0 12 -4 0 0 -12zm23 7l0 3 -4 0c2,-3 0,-2 4,-3zm-12 2c2,-2 6,2 2,0 0,0 -4,2 -2,0zm66 -10l0 -9 6 0 0 7c0,6 -1,1 1,4 -4,1 -7,3 -7,-2zm-60 1l0 -3 6 0 0 4c-2,-2 -1,-3 -6,-1zm89 -6l0 -9c6,0 6,0 10,-1l0 15 -5 0c-4,0 -5,-1 -5,-5zm-42 -3c4,3 2,3 7,12l-6 2c0,-8 -1,-7 -1,-14zm-10 15l-8 0 0 -12c6,-1 5,-1 12,-1 -1,3 -4,9 -4,13zm94 -19l0 0zm0 0c-3,1 -3,3 -5,6 0,-14 -3,-9 5,-13l0 7zm-10 -6c0,7 2,15 -4,15 -4,0 -4,-1 -5,-5l-2 0c-2,14 -4,-5 -4,-6 1,-6 6,1 15,-4zm24 0c-1,-3 1,-5 0,-1 0,0 1,6 0,1zm-8 6c-1,-3 -1,-3 -1,-7 8,0 3,0 3,2 1,4 -2,5 -2,5zm38 -13c3,-3 5,4 1,1 0,0 -3,1 -1,-1zm15 -2l0 1c0,0 0,0 0,-1zm39 -5l1 0c0,0 -1,0 -1,0zm16 -2l1 1c0,0 -1,-1 -1,-1zm28 -4l4 0 0 3 -4 0 0 -3zm13 -2c7,1 3,-1 4,3 -2,-1 -2,-1 -4,-3zm17 -3l1 1c0,0 -1,0 -1,-1zm-14 -7c0,0 6,-2 2,0 -3,2 -2,2 -2,0zm14 -1l1 0c0,0 -1,0 -1,0zm50 -25c0,-4 2,0 1,0 0,0 -1,4 -1,0zm-178 -19l0 0zm0 0l-2 -3 2 3zm-144 -109l0 0zm-6 -4l0 0zm200 -19c-6,17 -20,13 -20,13 -1,0 -1,0 -1,0 -8,2 -2,2 -10,0 -1,0 -1,0 -1,0 -1,0 -13,0 -17,-13 9,1 11,1 14,8 9,-4 -2,-2 13,-3l4 4c4,-5 3,-6 18,-9zm-194 23c1,-2 17,-14 23,-23 2,-3 5,-6 7,-8 -1,7 -4,15 -9,20 -5,5 -15,10 -21,11zm179 -54c9,0 15,8 14,18 -5,3 -10,4 -18,2l4 -20zm-35 17c-1,-10 3,-13 10,-17 3,4 5,15 5,20 -7,0 -9,0 -15,-3zm-306 -179c-7,-5 -3,-13 -5,-24 -2,-19 -7,-32 6,-45 3,-3 3,-2 3,-2l3 -5 21 5c-3,6 -5,11 -7,18 -3,8 -4,11 -7,18 -15,29 -2,32 -14,35zm-214 -78l0 0zm207 6l-2 -9c6,0 4,1 5,4l0 2c1,3 3,-4 1,1 -1,3 1,1 -4,2zm178 -26c1,-5 6,-15 10,-18 0,6 0,1 3,8 -5,3 -9,7 -13,10zm67 -47l17 -16c0,7 1,5 2,11 -7,4 -10,5 -19,5zm-289 -37l0 0zm120 -2l0 0zm-120 2c-2,-7 -1,-10 -1,-19 4,-1 4,-2 8,-3l-7 21c0,0 0,0 0,1zm216 -26c0,-8 1,-11 5,-15 3,-4 9,-8 12,-10 -1,12 -5,24 -17,25zm4 -28l-3 0c0,-12 4,-14 5,-22 5,4 2,1 1,5 -1,14 3,2 0,11 -2,3 -2,2 -3,6zm51 -54l0 0zm85 -29c7,0 2,0 4,2 -8,0 -2,0 -4,-2zm0 0l-4 -1c4,1 2,0 4,1zm-85 29c2,-1 0,0 3,-1 12,-8 21,-12 30,-23 4,-4 8,-6 9,-12 4,1 5,1 9,2 -6,8 -12,12 -23,19 -6,4 -19,15 -28,15zm7 -16l2 -36c17,2 10,10 23,10 -5,8 -1,4 -2,8 -1,1 -13,18 -23,18zm-158 122c-6,-3 -7,-5 -10,-10l-20 -24c-4,-5 -7,-7 -10,-12l9 0c-2,-5 -2,-1 1,-6 -5,-3 -6,-3 -5,-9 0,-1 0,-1 0,-1 0,-1 0,-1 0,-1 0,-1 0,-5 0,-6 0,-7 2,-10 -2,-10 -10,-1 -11,17 -14,23 -6,16 -11,4 -9,26 7,-2 13,-10 19,-15 10,19 45,57 49,71 3,12 -7,36 -15,43l-16 15c-5,6 -8,12 -12,18 -11,-3 -8,0 -16,-1 -11,-1 -6,-2 -5,-8 -5,0 -7,-2 -12,-3l0 6c-20,-2 -3,-33 -2,-44 3,-13 2,-14 6,-25 4,-8 11,-13 13,-20 -8,6 -18,16 -21,26 -2,6 -3,14 -4,20 -1,8 -1,13 -6,17l-3 -38c-4,17 -1,33 -1,49 -3,-1 -8,-3 -12,-4 -3,-1 -2,-1 -6,-2 0,0 -3,0 -3,0 -8,1 5,9 7,11 4,4 7,8 15,8 0,14 -8,5 -2,50 3,20 3,34 -1,52 -6,-2 -9,-6 -11,-12 -1,-5 -1,-6 0,-10 2,-4 4,-5 5,-7 3,-6 1,-4 1,-9 -2,-15 11,-14 -15,-14 -3,-10 -4,-9 -5,-22 0,-14 -6,-35 -4,-49 1,-7 7,-14 7,-21l-6 0c1,-7 15,-33 21,-37 4,-2 6,-3 10,-5 8,-5 18,-12 23,-20 -8,1 -20,11 -27,15l9 -36c2,-6 3,-8 -1,-11 0,8 -9,29 -12,39 -5,16 -6,5 -14,12 -5,6 1,13 -7,19 0,-14 1,-15 3,-26 1,-7 4,-19 4,-26l13 0c-1,-6 -3,-6 -10,-6 0,-8 4,-12 4,-21l-3 5c0,1 -1,3 -2,5 -1,4 -2,7 -3,11 -6,0 -17,-1 -20,-1 -7,3 -8,7 -17,7 1,-4 1,-4 2,-8 -13,1 -13,0 -12,5 0,1 5,10 -11,-1 -6,-4 -10,-4 -18,-4 -9,0 -16,-1 -18,6 11,1 15,7 25,7 10,1 8,1 16,3 5,2 4,-3 5,6 8,-2 4,-2 13,0l-2 -6c17,0 21,-11 21,10 0,10 0,20 -3,29 -2,6 0,1 -2,3 0,-10 -1,-23 -7,-27 -6,13 2,31 6,44 1,5 1,11 3,15 -3,4 -7,4 -6,13 2,12 7,-1 5,42 0,3 1,3 1,8 -5,-3 -4,-2 -7,-5 -4,-4 -3,-4 -8,-6 7,13 21,18 21,41 -8,-2 -12,-10 -18,-15 -5,-5 -14,-9 -16,-16 -2,-9 0,-23 1,-30 1,-7 -1,-9 2,-14 4,-5 5,-2 7,-11 -5,4 -8,10 -14,12l-8 -43c-1,-6 -3,-8 -3,-15l-1 0c0,22 10,55 10,86l-7 -8 0 6c-8,-5 -6,-7 -25,-20 0,-17 -3,-39 -3,-48 0,-8 1,-10 -3,-14 0,17 -1,31 -1,50 -4,-2 -16,-20 -19,-24 8,-3 1,-1 4,-8 2,-6 4,-4 8,-8 -3,-13 -2,0 -2,-15 -13,9 -11,22 -12,25l-4 -3c-5,-5 -3,-7 -10,-16 -4,-5 -4,-4 -4,-10 1,-7 1,-11 2,-16l-3 0c-1,6 -2,13 -4,19 -4,-3 -6,-6 -10,-9 -4,-5 -6,-5 -10,-9 2,8 18,21 23,32l4 6c7,6 2,6 7,12l3 2c1,1 0,1 2,2l11 15c3,4 5,7 7,11 -8,-5 -28,-21 -34,-23 5,7 15,14 23,22 2,2 3,3 5,5 10,9 7,1 11,13 1,6 1,4 3,8 8,-2 4,-5 12,-8l19 44c-4,-3 -7,-7 -11,-10 -14,-13 -10,-15 -34,-32l-36 -29c-5,-5 -7,-6 -12,-10 1,6 21,23 26,28l28 30c-6,0 -6,1 -14,1 9,12 26,-3 47,32 8,13 12,12 20,19 3,4 14,20 15,25 -4,-3 -29,-27 -36,-32 1,5 1,3 4,7l17 19c-7,-2 -43,-37 -51,-39 3,11 30,25 33,36 -10,-5 -33,-10 -37,-29 -9,2 0,2 -7,7 -9,-6 -8,-17 -21,-20 -4,3 -3,2 -5,7 -9,0 -9,1 -14,-4 -3,-3 -6,-7 -8,-11l-8 -11c-2,-4 -3,-7 -5,-14l-14 -60c0,18 8,43 8,58 -10,-6 -22,-27 -24,-38 -2,-10 1,-18 2,-27 0,-9 11,-14 14,-15l0 -3c-8,-2 -11,0 -19,5 -1,-5 -5,-9 -10,-10 2,5 -1,-1 4,5 3,4 2,1 4,6 -12,-6 -4,-10 -27,-10 3,8 14,8 17,16 0,0 1,0 1,1 1,6 1,2 2,3l3 1c3,0 4,-1 6,-2 0,26 -7,12 -1,38 -6,-1 -10,-5 -15,-8 5,18 28,20 30,37 -11,-8 -57,-39 -63,-41 8,13 57,39 64,49 -5,0 -11,0 -16,0l-45 -1 61 12c-4,0 -8,1 -12,2 -5,0 -8,1 -10,5 4,-2 2,-1 6,-2 3,-1 4,-1 7,-2 5,-1 11,0 14,2 6,5 7,15 17,16 10,1 4,0 18,13 12,11 12,4 26,8 17,6 17,30 33,36 10,4 18,-2 28,5 6,4 16,12 17,18 -27,0 -54,-7 -81,-7l0 3c9,0 27,4 36,5 12,3 25,6 38,6 -3,4 -9,6 -13,9 -2,2 -2,1 -3,4 17,-8 47,-17 57,6 2,7 7,13 7,20 -9,-2 -31,-10 -23,9 2,4 3,5 9,6 -3,3 -6,4 -3,10 7,14 11,18 11,38 -6,-2 -8,-6 -13,-10 -17,-12 -3,15 -3,26 0,21 9,28 -5,37 -4,3 -10,7 -17,4 -12,-6 -14,-17 -32,-17 0,4 0,4 -1,8 -39,0 -14,20 -36,25 -24,7 -25,-26 -27,-32 -3,-12 -10,-18 -23,-19 -1,-11 0,-22 2,-33 2,-13 4,-19 16,-22 11,-3 16,-10 25,0 8,7 12,11 12,26 -12,8 -9,4 -22,1 4,14 18,12 27,6 4,-2 6,-3 7,-7l3 0c0,20 2,12 -9,29 6,-1 8,-3 12,-7 8,-8 11,-18 8,-28l-5 -15c9,5 12,16 11,28 0,8 -3,7 2,10 3,-14 9,-31 -2,-43 -9,-11 -25,-17 -39,-17 2,-6 25,-22 7,-47 -15,-19 -41,-5 -42,5 32,-16 43,10 35,28 -5,9 -30,23 -41,16 -6,-4 -1,-9 -11,-9 0,-24 14,-9 9,-31l-5 -9c0,15 -1,22 -13,32 0,-9 -2,-16 -3,-24l-3 0c0,10 5,42 3,47 -4,-3 -3,-4 -4,-9 -1,-5 -1,-7 -5,-9 -1,4 -2,10 -3,15 -6,-2 -6,-6 -11,-9 -2,6 -2,11 2,15 5,5 9,3 18,4 14,2 10,18 4,26 -4,7 -5,5 -2,14 2,9 0,9 5,17 6,9 11,19 5,31 -5,-3 -2,-5 -9,-7 -3,-2 -11,-3 -15,-3 0,-15 12,-5 12,-21 -6,3 -8,4 -18,4 -1,-4 -2,-7 -2,-13 7,-2 7,0 17,0l0 -6c-6,-1 -9,-4 -15,-7 -8,7 -11,7 -21,1 1,-17 22,-14 24,-22 4,-11 -10,-27 -20,-23 3,10 15,11 7,22 -9,-2 -5,-8 -11,-13 -5,9 2,11 4,17 -9,0 -16,-8 -18,-16 0,-3 -1,-8 -1,-10 0,-12 15,-17 21,-25 19,-23 11,-29 20,-49 3,-7 6,-7 10,-13 -9,1 -15,9 -18,16 -3,5 -2,17 -5,29l-3 -48c-4,3 -4,10 -5,21 -1,19 1,48 -21,53 -8,-16 12,-26 16,-40l-22 20 -9 -15c-3,-4 0,-2 -4,-4 0,9 5,21 8,30 1,5 2,5 3,9 -3,0 -7,-1 -10,-2l-8 -2c-3,-1 0,-1 -2,0 -1,3 -2,-1 1,2 9,10 21,8 21,24 -7,-1 -10,-5 -15,-8 -4,-4 -8,-9 -10,-14 -3,-9 -4,-35 4,-41 16,-13 35,-20 37,-44 0,-7 0,-8 -3,-10 0,13 -4,20 -11,27 -4,5 -15,14 -21,16 1,-7 3,-19 3,-27 -4,6 -5,15 -7,22 -2,8 -4,17 -9,21l-2 19c-11,-3 -7,-13 -11,-22 -7,-18 -20,1 -3,-49 2,-7 7,-19 7,-28 -4,3 -6,9 -8,14 -3,6 -6,9 -7,17l-3 -22c-5,4 -1,-1 -3,6 -2,8 -1,17 -1,26 0,16 5,19 6,30 -14,-9 -23,-31 -29,-33 6,12 13,23 20,33 10,14 14,15 23,32 -8,0 -5,-2 -13,-3 4,5 11,7 17,13l13 18c-7,8 -11,9 -19,1 -6,-6 -10,-13 -16,-17 1,4 4,8 7,12 3,4 5,6 7,11l-42 0c4,6 24,7 32,8 21,2 38,-12 45,0 3,5 5,9 8,14 2,3 5,8 9,11 6,4 9,2 11,9 -7,0 -10,-1 -15,2 3,11 16,5 24,11 6,4 14,13 14,22 -5,3 -15,5 -20,9 -5,6 -6,13 -12,17 -5,-10 -2,-15 9,-17l0 -3c-8,1 -4,0 -13,0 0,-6 -2,-22 -6,-25 0,13 -3,16 0,28 -6,-2 -11,-8 -17,-11 -6,-4 -13,-5 -23,-5 7,8 24,13 32,25 5,9 0,5 -1,14 13,0 13,-1 18,8 4,5 12,12 15,3 3,-9 -4,-18 2,-22 2,-1 7,-1 10,-2 4,-2 6,-3 10,-5 0,25 -16,32 2,52 3,4 8,7 9,14 -13,0 -35,-2 -46,0 -7,2 -5,3 -14,3 -3,-4 -4,-6 -6,-11 -4,1 -4,2 -9,3 -4,-3 -7,-7 -10,-11 -3,-6 -3,-11 -2,-20 4,-26 -37,-23 -16,-60 3,-6 6,-10 9,-15 3,-5 7,-9 8,-15 -10,6 -21,29 -27,30 -1,-7 -3,-15 -4,-23l-3 0c0,55 5,34 15,75 -12,-3 -27,-32 -38,-39 1,9 9,18 14,25l18 23c0,11 -8,11 -2,22 4,6 10,11 11,19 -13,0 -17,-4 -44,-5 -14,0 -34,-19 -44,-29 -5,-6 -6,-10 -4,-17l4 -32c1,-8 4,-5 -1,-9 -2,6 -3,13 -5,19 -1,7 -1,14 -3,21 -3,7 -7,11 -2,19 2,3 11,15 -1,12 -9,-2 -14,-25 -18,-32 -4,-7 -14,-28 -15,-35l-3 0c1,7 8,26 10,34 4,13 3,16 -21,-1 -4,-3 -3,-4 -8,-5 2,5 6,9 10,13l13 12c5,3 3,1 9,3 9,3 6,9 15,23 14,0 15,-5 29,-2 -1,8 -4,7 -13,8l-38 5c-7,1 -15,0 -19,3 11,3 32,5 45,5 -6,9 -28,18 -30,26 11,-6 26,-9 36,-17 7,-6 5,-10 15,-12 7,-1 4,1 10,-3 6,-3 3,-3 11,-3 0,29 -31,16 -44,37 -9,15 6,49 25,49 -1,-7 -8,-9 -12,-14 -3,-5 -9,-11 -6,-19 3,-6 25,-20 33,-21 -5,8 -25,16 -18,30 4,7 18,12 25,14 6,1 6,2 9,-2 -9,-2 -17,-3 -16,-16 1,-9 8,-16 10,-23 5,3 13,22 29,14 -1,-7 -12,-7 -17,-14 4,-18 10,-11 0,-26 14,0 16,8 23,16 4,4 3,3 10,3 -1,5 -11,18 1,19 8,1 10,-10 21,-11 7,10 9,22 18,29 7,5 12,1 16,-4 5,-5 6,-9 12,-13 9,0 9,4 18,4 22,1 34,-12 13,34 -2,4 -2,4 -4,7 -7,17 -1,26 -13,43 -2,4 -6,8 -7,12 -2,7 -2,11 -3,17 -9,-3 -8,-19 -23,-21 -7,-1 -1,6 -3,12 -3,10 0,8 -11,8 0,26 10,36 4,51 -3,9 -4,9 -6,19 -2,8 1,5 -5,12 -17,21 -4,15 11,22 4,3 7,7 8,13 -7,2 4,1 -4,1 -2,7 -3,21 -9,23 -6,1 1,-8 0,0 0,0 -27,1 -27,2l20 3c-3,6 -25,-3 -22,2 4,5 17,2 19,9 -5,-1 5,1 0,0 9,16 6,24 7,42 1,9 -11,7 -21,8 170,76 10,39 -9,44 -5,6 -20,20 -28,25l-75 41c-7,5 -29,11 -30,21 10,5 44,3 62,3 30,0 53,1 83,1 11,22 41,22 70,22 8,-1 14,-7 22,-7 12,-1 25,5 37,3 28,-4 43,0 69,3 24,2 38,-2 63,-2l37 5c8,0 12,-8 21,-6 5,2 12,7 19,8l78 -5c10,-1 14,-2 23,-2 13,0 24,-1 36,-2 24,-3 44,-14 69,-14 199,0 379,8 577,8 -4,-5 6,9 -1,0 -3,-5 2,-9 -1,-14l-97 -148c-3,-4 -5,-8 -8,-13 -6,-9 -12,-18 -18,-27l-43 -67c-3,-5 -6,-8 -9,-14 -24,-40 -29,-37 -48,-85 -5,-13 -24,-54 -25,-65 -3,-1 -5,-1 -8,-2 -12,-3 -6,-7 -11,-10 -3,-1 0,1 -3,5l-1 -15c-5,1 -2,1 -4,0 -7,-5 4,-1 -4,-4 0,8 0,9 2,14l-3 0c-1,-4 -2,-12 -3,-16 -3,-7 -8,-4 -10,-10 -4,5 -7,7 -10,13l-1 4c-1,0 -1,0 -1,1 -1,-7 -2,-8 -4,-12 -7,0 -8,-1 -12,2 -7,5 -5,13 -6,20 0,7 0,6 -6,7 0,-12 2,-20 -8,-23 -16,-1 -14,22 -14,32 -7,-2 -2,-4 -8,-9 -3,7 -7,13 -13,16l-3 -7c-1,8 -4,8 -12,9 0,-6 1,-12 -3,-16 0,7 3,16 -6,17 1,-3 1,-3 2,-7 -13,3 0,8 -18,8 0,-8 -1,-10 -1,-15l-3 0c0,8 -1,11 -2,17 -6,0 -5,1 -4,-4l-3 0c0,6 2,2 -3,5 2,-6 4,-8 5,-14 -3,1 -5,3 -6,6 -2,2 -3,4 -3,8l-4 -3c0,0 0,-1 -1,-1l0 6c-7,0 -7,0 -13,1 1,-7 1,-2 2,-7 1,-6 -2,-1 -2,-8l0 -5c-2,-8 2,-4 6,-16 5,-16 3,0 8,-9 1,-3 -1,1 0,-2 2,-7 6,-11 4,-19 -1,-7 1,-14 2,-23 0,-6 0,-3 0,-8 -1,-10 -1,-17 7,-23 6,-4 6,-4 10,-10 6,1 13,7 19,10 10,6 18,13 26,4 5,-5 3,-5 4,-10l1 -3c2,-3 1,-2 2,-4 4,1 6,2 9,0 2,-2 0,0 2,-3 2,-3 1,-2 2,-4 -8,-6 -12,0 -19,-7 -10,-11 5,-12 1,-29 -2,-8 -6,-12 -8,-21l-3 0c0,7 0,7 -7,7 0,-7 1,-4 -3,-7 -2,8 -6,15 -7,23 -2,18 6,15 8,23 -16,2 -11,5 -32,1 -18,-3 -28,1 -33,-8 2,-3 7,-5 11,-7 16,-8 28,-12 28,-33 0,-21 -6,-31 -23,-39 0,0 -7,-3 -7,-3 -3,-1 -5,0 -9,0 2,-9 0,-7 0,-16 -18,0 -8,4 -7,16 -13,0 -20,4 -29,12 -12,12 -16,32 -8,44l10 10c4,3 8,5 13,8 7,5 9,3 9,13l-46 4c-6,0 -11,-3 -16,-3 0,-1 1,-6 1,-10 -11,2 -5,1 -13,-2 0,6 0,5 -2,9 -3,-1 -5,-3 -8,-4 -4,-2 -5,-4 -10,-4 -10,0 -16,4 -20,10 8,0 10,0 15,3 6,4 11,2 15,7 -11,0 -23,-3 -16,10 5,5 12,-8 17,11 5,20 18,6 28,-1l9 -4c6,-4 4,-3 14,-3l9 12c1,2 0,1 0,2 5,13 7,13 5,28 0,5 1,4 0,11 -2,6 -2,3 -2,10 1,9 1,1 -2,9 14,5 3,8 15,8 -3,13 0,9 6,17 -6,2 -1,-1 -3,4 0,0 -1,1 -1,1l-1 2c0,1 -1,3 -1,3 10,5 7,8 7,22l-1 0c0,-11 2,-13 -5,-18 2,8 2,13 2,22l-4 -1c0,0 -1,0 -1,0 -2,0 -3,-2 -4,3l-4 0c0,-6 -1,-6 -2,-11l-1 5c0,2 0,4 0,6 -7,0 -7,0 -12,1 0,-14 7,-20 7,-30 -15,17 -8,24 -13,30 -3,4 -5,0 -5,-4 0,-1 1,-6 1,-9 1,-4 2,-3 -2,-6 0,9 -2,10 -2,21 -5,-2 -4,0 -5,-5l-1 6c-1,0 -8,0 -8,0 -3,-1 2,1 -2,-1 -8,-6 6,1 -2,-2 -3,5 -1,5 -9,6 -5,0 -9,1 -13,1 0,-4 0,-4 -1,-7 -10,3 1,10 -13,10 -7,-1 -1,-8 -6,-15 -4,-5 -19,-6 -19,18 -15,0 -24,4 -40,4 -1,-4 -3,-7 -8,-7 -7,1 -8,9 -14,11 -7,2 -16,1 -23,1 0,-13 0,-14 -6,-22 -17,0 -17,11 -17,28l-7 0c0,-7 0,-13 -6,-15 0,6 -2,8 -2,16l-4 0c0,-13 -1,-43 -6,-52 -6,-1 -9,-2 -14,2 -8,8 -4,23 -3,33 0,6 0,13 0,20 -5,2 -6,1 -11,3 2,8 0,7 8,7 -3,5 -2,8 -4,12l-2 7c-5,-3 -3,-4 -9,-6l19 28c-10,-1 1,-2 -7,-8 0,8 1,7 -3,11 -1,-5 -3,-10 -6,-12 0,12 -4,1 -7,17l-7 -6 4 12c-4,0 -10,-3 -13,-4 2,7 1,1 6,7l-8 0c0,-8 1,-9 2,-14 -3,2 -6,8 -6,13 -4,-2 -6,-4 -10,-5 0,-6 0,-14 -5,-17 0,8 1,9 2,15 0,7 -1,8 -2,14l-5 1c0,-6 1,-4 1,-10l-5 16c-5,-1 -7,-5 -7,-11l-4 5 -1 -7c-3,2 -3,4 -5,3 0,-17 4,-17 7,-30 -6,4 -7,7 -10,14 -1,4 -3,18 -3,23l-2 -4c-2,-3 -1,-1 -2,-2l-2 -1c0,-8 1,-10 2,-16l-3 0c0,7 -2,7 -2,15 1,7 2,7 2,16 -4,-6 -3,-17 -10,-19 4,8 3,12 3,23 -5,-4 -2,1 -3,-6 -1,-2 -1,-5 -2,-7 0,0 0,0 0,1 0,0 -1,0 -1,1 0,0 0,1 -1,2 0,2 0,4 -1,5l-5 10c-4,-14 2,-14 3,-25 -10,6 -9,14 -9,29 -10,0 -3,-1 -10,-6l0 6 -6 -5c0,7 0,7 -2,11 -9,-2 -9,-7 -15,-4 -8,6 5,-1 -2,2 -2,-8 -2,-13 -2,-23 -6,5 -1,4 -5,11 -3,8 5,-8 -1,2 -3,5 -1,3 -1,6 0,7 0,5 -1,10l-7 0c0,0 -2,1 -3,2l-2 4c-3,-11 -10,-24 -18,-29 1,12 12,14 12,33 0,0 -1,0 -1,0 -1,5 -3,-8 -3,5 -5,-4 -3,1 -3,-6 -5,1 -7,10 -9,-8 -1,-6 0,-5 0,-12 -4,2 -6,6 -6,13 0,9 3,10 3,17 -7,-5 -2,-10 -10,-12 2,-8 8,-16 4,-25 -6,-11 -20,-14 -5,-49 8,-18 25,-55 34,-69 13,-20 27,-22 31,-38l3 0c1,5 4,5 4,5l2 1c6,2 8,2 16,-2l3 -1c4,-2 6,-4 7,-9 -15,-3 -9,1 -16,2 0,0 -4,0 -4,0 0,0 -1,0 -2,0 -5,-1 -3,-2 -11,-2 1,-18 7,-18 19,-26 15,-11 -10,-17 43,-23 12,-1 27,-2 37,-10 8,-6 4,-9 8,-15 6,-9 25,-2 35,-1 15,1 21,-3 33,13 13,18 40,6 47,-3 6,-8 3,-11 6,-17 9,3 9,21 24,6 12,-12 4,-14 4,-32l-13 0c2,-7 5,-7 13,-8 10,0 8,-1 14,-7 29,-30 39,-11 58,-26 6,-4 4,-5 13,-7 16,-4 14,1 16,-6l-16 0c3,-6 11,-9 13,-16 -5,1 -5,3 -9,6 -2,2 -6,5 -9,7 0,-15 6,-15 10,-20 2,-3 3,-4 3,-8 -6,2 -15,14 -17,18 -2,6 -1,4 -2,10 -3,11 -18,15 -32,16 5,-20 6,-18 22,-22 7,-2 5,-3 10,-4l0 -3c-8,0 -14,3 -21,3 0,-17 19,-22 33,-22l0 -3c-4,0 -9,0 -13,0 -5,0 -10,3 -12,3 -5,-1 -5,-2 -4,-8 1,-8 4,-7 -2,-11l-4 28c-1,5 -2,8 -4,11 -2,2 -2,4 -4,6l-4 5c0,-4 1,-2 -2,-3 -5,9 -16,16 -25,23 -3,2 -6,5 -9,7 1,-5 8,-14 11,-18 6,-5 15,-8 18,-12 -4,0 -9,1 -11,3 5,-23 -3,-12 10,-22 6,-4 8,-14 10,-22 -4,3 -3,4 -6,9 -12,19 -19,1 -19,27 -11,-3 -4,-18 -4,-29 -4,3 -5,10 -8,15 -5,-4 -9,-8 -16,-12 4,12 30,24 15,45 -2,3 -3,4 -5,7l-4 8c-1,-11 -3,-12 -2,-21 2,-7 7,-18 2,-21 -2,9 -7,14 -7,26 -8,-2 -9,-9 -15,-13 2,8 7,8 9,16 -6,9 -16,2 -16,16 8,-1 11,-2 19,0 2,-4 2,-3 2,-9 3,2 3,0 3,7 -1,9 -6,18 -15,20 0,-18 -12,-11 -14,-20 0,-2 1,-11 1,-16 0,-10 -2,-6 -6,-13 1,-16 16,-27 22,-39 5,-10 4,-12 4,-26 0,-10 4,-18 5,-26 -1,1 -1,0 -2,2 -10,18 -5,56 -25,62 0,-7 -2,-16 -3,-23 -1,-7 -3,-16 -3,-24 -4,3 -2,1 -3,9 0,11 3,22 3,32 -6,-5 -11,-12 -19,-16 4,13 21,15 16,33 -1,3 -2,5 -3,10 -2,11 3,12 -8,15 -5,2 -4,1 -9,4 0,14 6,25 11,37 3,8 -6,5 -15,5 -4,0 -8,0 -12,0 -8,0 -6,0 -11,2 -15,5 -24,-5 -38,-8 -10,-2 -11,0 -11,-13 0,-7 2,-13 11,-14 -6,-25 35,-8 37,-28 0,-2 -1,0 0,-5 0,-3 0,-2 0,-6 1,-11 -6,-11 -8,-21 3,-5 7,-8 12,-11 3,-1 3,-2 5,-3 0,-19 -2,-12 6,-23 8,-10 -9,-30 -5,-46 2,-10 8,-11 11,-20 6,1 10,3 16,5 -4,-7 -9,-6 -13,-13 0,-9 2,-17 6,-23l26 17c-1,-8 -8,-10 -9,-19 6,-3 15,-4 25,-3 4,1 18,6 20,9 -10,0 -11,6 -14,13 4,0 4,1 7,1l11 -10 1 16c4,1 4,1 7,2 4,-9 1,-15 -3,-22 13,0 20,0 30,3 15,4 11,8 20,15 13,13 38,-4 55,-4l0 -1c-5,0 -11,0 -16,0 -13,1 -33,3 -41,-9 18,-1 34,-1 55,2 9,2 19,1 27,-3 7,-3 13,-9 17,-15 -14,1 -18,12 -41,9 -7,-1 -10,0 -11,-6 5,-1 22,-5 26,-7 0,6 0,3 1,7 4,-2 5,-3 9,-6 5,-2 7,-3 5,-8 11,0 26,-4 37,-5 -3,-5 -24,-3 -32,-3 2,-5 10,-18 14,-23 8,0 12,-1 18,-1 -5,-8 -14,2 -13,-7 0,-4 5,-6 6,-15 -13,9 -21,41 -43,47 -8,2 -15,5 -25,5 3,-7 9,-12 13,-19 -22,5 -17,22 -45,22 0,0 0,-1 1,0 0,0 1,-1 1,-1 2,-2 1,1 3,-3 -5,-1 -11,-2 -16,1 -4,3 -4,3 -10,3 -1,-3 -2,-3 -3,-7 -8,0 -11,-2 -20,-2 1,4 0,1 2,3 4,4 4,5 11,5l0 3c-6,0 -11,-1 -17,0 -6,2 -8,3 -15,3 2,-9 14,-14 20,-19 -7,0 -32,14 -51,5 2,-4 25,-41 34,-46 21,-10 5,-6 24,-16 6,-4 22,-12 28,-13 -5,-7 -10,-1 -14,-7l12 -10c4,-3 3,-1 7,-4 12,-12 6,-1 11,-8 -5,-1 -4,-2 -10,-3 18,-27 20,5 54,-25 11,-10 30,3 60,3 -1,9 -11,13 -6,18 2,2 4,0 8,-3 7,-5 7,-3 6,-8 -5,-25 1,-4 -13,-12 -9,-5 -15,-9 -29,-9l0 -2c8,0 10,-1 19,-1l0 -3c-11,-3 -32,-3 -41,1 -6,2 -7,4 -11,6 1,-6 1,-2 0,-5 -1,-2 -4,-5 -5,-6 3,-4 6,-9 6,-15 -1,2 0,0 -2,3 -2,3 -4,5 -5,9 -6,0 -5,-1 -10,-2 1,6 3,8 -4,10 -4,1 -11,1 -13,-1 -8,-9 23,-29 28,-33 5,-4 15,-14 15,-19 -4,2 -8,7 -13,10 -5,4 -8,8 -14,11l-15 10c-7,2 -4,-9 -6,-17 0,1 -1,1 -1,1 -1,8 -4,7 -2,27 3,22 -4,25 -19,39l-16 16c-1,-5 0,-4 -6,-4 2,-4 4,-7 7,-10 2,-3 6,-4 9,-7 6,-5 8,-14 10,-22 -5,1 -10,10 -20,21 -5,4 -7,6 -12,10 -5,4 -7,6 -16,6 4,8 -4,-6 2,2 4,5 -1,5 -3,14 -1,7 -4,16 -5,22l0 -2c0,0 -1,-1 -1,-1 0,0 0,-1 0,-1l-3 -15c-5,1 -5,0 -6,5 -3,11 2,21 2,33 -22,14 -39,42 -35,22 2,-6 2,-4 0,-9 -7,1 -2,-1 -5,2 -4,4 -6,11 -7,16 -3,9 -5,15 -12,20 -2,-2 -10,-12 -11,-15 -4,-7 1,-15 3,-22 -7,2 -8,7 -10,14 -3,15 5,27 -4,40 -3,4 -7,10 -13,12 -4,-18 1,-15 7,-26 10,-21 -9,-37 19,-49 7,-3 22,-7 24,-12 -14,0 -29,2 -38,12 -7,7 -8,20 -10,29l-4 9 -3 -11c-1,8 -10,20 -12,29l-3 0c-1,-7 -1,-3 0,-8l6 -26c5,-11 11,-14 22,-20 -1,-9 -4,-6 -5,-16 5,-7 21,-20 29,-23 13,-5 8,-2 14,-13 7,-16 28,-28 44,-35 6,-2 13,-5 19,-7 5,-2 12,-6 20,-6l0 -3c-20,0 -34,1 -47,9 -16,11 -4,-10 1,-15 14,-14 22,-25 44,-28 29,-3 28,-9 44,-12l-39 4c1,-5 5,-6 10,-9l35 -21c9,-5 16,-9 27,-11 9,-2 22,-4 34,-4l0 -3c-13,0 -25,1 -37,2 -13,2 -22,7 -34,7 1,-4 1,-4 3,-8 3,-4 3,-3 6,-6 3,-4 10,-10 11,-14 -8,2 -19,16 -25,22 -5,5 -6,7 -9,14 -3,6 -6,9 -13,11l-3 -4 4 -3c0,0 1,0 1,-1 0,-8 1,-12 9,-13 -3,-9 -5,-4 -2,-16 -10,3 -12,14 -12,24 -5,-2 -3,-3 -7,1 3,-32 37,-34 57,-52 6,-4 10,-6 16,-11 5,-4 10,-8 16,-11 17,-5 36,2 51,-1 0,0 -1,-1 -1,-1 0,1 -1,0 -1,0 0,0 -1,0 -1,0 -1,0 -1,-1 -1,-1 -5,-1 -2,1 -6,-1 -10,-5 -5,-9 -28,-15 1,-11 15,-17 18,-29 -8,6 -15,17 -22,24 -4,4 -4,4 -12,4 2,-3 9,-8 12,-10 2,-3 3,-3 6,-6l6 -6c-8,2 -20,13 -27,18 2,-9 9,-20 9,-29l-13 24c-6,-1 -2,-1 -7,-3l0 8c-9,-3 -9,-11 -16,-15 -3,-1 -5,-2 -8,-3 2,-17 26,-22 29,-32 -12,3 -33,15 -36,28l-12 0c2,4 4,6 8,8 -1,7 -3,13 -3,19l-3 0c-2,-5 -7,-11 -12,-14 3,12 12,23 13,39 0,8 -9,13 -14,22 -4,7 -11,12 -17,18 -2,4 -5,8 -8,11 -2,-4 -3,-5 -4,-8 0,0 0,-1 0,0l13 -16c5,-4 13,-11 14,-17 -7,2 -13,9 -18,14l-7 7c-6,7 -15,20 -17,30l-3 0c0,-9 2,-16 3,-23 -11,1 -2,6 -13,7 0,-8 -2,-13 -5,-19 -12,-20 8,-26 21,-45 -14,3 -18,17 -26,20 -5,-8 0,-17 5,-25 4,-8 9,-15 14,-22 4,3 2,-1 2,5 4,-1 5,-1 8,-2 4,-2 1,-2 9,-2 0,0 0,-2 0,-2 0,-1 0,-1 0,-2 0,-5 2,-6 6,-9 5,-4 0,-2 7,-3 -6,-8 -13,2 -19,6 0,-6 1,-6 -1,-10 -1,-4 1,-1 -1,-2l-5 -3c-5,-2 -4,-1 -9,-1 6,9 6,19 -5,26 0,-8 3,-12 3,-20l-3 0c-1,11 -13,39 -14,43 -5,-1 -6,-4 -8,-8 -1,-2 -6,-8 -6,-10 -2,-4 2,-24 3,-27 -5,2 -4,3 -6,10 -1,5 -3,7 -4,12l-21 -21c1,7 2,6 5,11 3,3 5,6 8,9 3,4 19,22 21,27l0 19c-2,6 -1,0 -4,4 -3,4 -2,9 0,13 6,8 11,2 12,21 1,26 13,18 -2,50 -3,5 -3,7 -6,11 -2,3 -4,7 -7,10 0,-23 -7,-51 -5,-64 1,-7 5,-10 7,-16 -7,4 -11,10 -13,17 -4,9 -1,18 1,26 -8,-5 -12,-19 -21,-24 4,16 22,24 25,61 1,10 -5,17 -11,23 -3,5 -4,7 -11,7 -1,-4 -2,-17 -3,-22 -12,-6 -6,-2 -13,-16 -10,0 -9,3 -13,9 2,7 6,7 8,13z"/>
    <path class="fil1" d="M1122 546c5,-1 7,-2 11,-4 10,-4 18,-6 28,-7 4,-1 6,-1 8,-1l12 0c3,0 2,0 7,1 7,0 9,0 16,1 9,2 19,5 29,8 0,11 4,21 9,28 3,5 12,20 16,22 2,-2 9,-16 10,-20 7,-18 -8,-24 28,-33 66,-16 86,14 106,19 -4,-16 -38,-55 -57,-65 -14,-8 -22,-9 -39,-9 -6,0 -6,7 -8,12 -4,13 -19,33 -30,35 5,-7 7,-4 7,-18 0,-12 -8,5 -22,5 -4,0 -10,-12 -10,-17 -15,10 -2,23 -1,26 -9,-6 -19,-22 -19,-36 0,-6 1,-3 1,-9 -18,-4 -28,-3 -45,6 -14,7 -21,15 -32,25 -4,4 -24,27 -25,31z"/>
    <path class="fil1" d="M814 620l1 1c0,0 -1,0 -1,-1zm-10 -95c0,9 -3,2 2,12 12,26 4,30 3,44 10,0 8,1 8,16 0,17 -2,18 -8,19 0,12 3,5 6,14 1,3 4,13 4,17 5,-2 3,-2 8,-6l12 -6c7,-2 4,2 8,0 9,-2 -1,0 4,-6 1,0 4,-2 5,-2 23,-12 18,-2 28,-2 9,0 12,-25 12,-28 -9,1 -4,4 -12,-1 1,-8 4,-5 14,-16 6,-6 9,-9 21,-9 1,-11 8,-10 14,-18 6,-10 10,-8 24,-8 -4,-7 -4,-4 -14,-5 -22,-2 -32,9 -49,24 -3,2 -3,2 -5,4l-17 13c-6,6 -1,8 -8,10 0,-11 -3,-14 0,-33 1,-9 0,-6 7,-6 0,-9 -1,-2 -7,-8 -3,-2 -5,-7 -8,-10 -21,-24 -27,-35 -68,-35 3,6 5,1 10,10 2,3 6,11 6,16z"/>
    <path class="fil1" d="M1026 868c0,6 -1,11 -3,15 7,0 6,0 6,14 0,8 -3,7 -6,11 2,6 -1,-1 2,3 2,3 1,-1 3,5 0,2 1,7 2,10 5,-1 4,-2 9,-5 7,-4 6,-3 10,0 1,-3 1,-2 2,-6 4,-1 3,-1 7,-2 15,-6 4,-1 19,-1l6 -19c-7,1 -3,1 -9,0 2,-7 13,-13 19,-16 5,-2 14,-12 17,-17l12 0c-1,-5 0,-5 -12,-5 -14,0 -19,7 -27,14 -3,2 -3,2 -6,4 -2,2 -2,3 -5,5 -10,8 -6,7 -11,11 -1,-5 -2,-6 -1,-11 0,-5 1,-7 1,-14 2,-1 2,-1 2,-1l2 0c-2,-4 -7,-9 -10,-12 -13,-17 -19,-23 -45,-23 2,3 9,5 10,17 2,15 6,16 6,23z"/>
    <path class="fil1" d="M1288 729c1,-3 8,1 2,0 -1,0 -2,3 -2,0zm-7 -3c0,-3 8,1 1,0 0,0 -1,4 -1,0zm-9 3c-21,0 -26,4 -37,15 -9,9 -17,22 -20,34 6,-1 5,-3 15,-10 0,8 -1,8 0,13 10,0 11,0 16,-6 2,-3 6,-10 10,-12 4,-2 5,2 12,-9 3,-5 6,-10 9,-15 2,2 5,2 8,3 0,12 -4,19 -4,31l4 0c0,7 -4,16 3,32 8,-2 4,-6 12,-8 0,8 1,8 1,16 10,-2 12,-31 12,-39 0,-17 -6,-28 -16,-35 1,-8 3,-13 3,-23 -6,0 -6,1 -10,3 0,-7 1,-4 -3,-7 -6,1 -12,12 -15,17z"/>
    <path class="fil1" d="M1169 1040l0 0zm0 0c5,-2 9,-5 17,-3 5,1 9,4 12,8 17,-8 22,5 30,8 -1,-13 -8,-20 -18,-35 -28,0 -19,-4 -31,-5 1,-6 0,-5 1,-9 0,-6 2,-4 2,-11 -7,2 -5,6 -13,4 -6,-1 -3,-5 -11,-7 0,15 5,23 -23,9 -14,-8 -7,-8 -22,-5 -10,2 -22,2 -32,17 3,-1 28,-7 32,10 9,-1 10,-3 18,2 4,2 4,3 7,5 4,5 -1,4 6,6 -5,6 -6,2 -7,8 9,1 8,5 15,4 11,-3 1,-3 17,-2l0 -4z"/>
    <path class="fil1" d="M1017 664c13,0 9,9 19,12 26,9 8,8 21,12 8,3 1,-1 12,7 0,1 4,1 4,8l0 2c-1,4 10,8 11,8 4,0 4,-3 10,-4l1 2c1,1 0,0 2,2 8,-11 0,-4 10,-11 6,-4 4,-7 10,-10 4,-1 5,0 9,-1 5,-2 2,-2 6,-4 7,-3 4,0 8,-1 8,0 0,-2 7,-2 8,0 2,4 9,-1 5,-3 2,-3 10,-5 -6,-10 -16,-14 -28,-14 -5,0 -4,6 -20,17 -1,-4 0,-2 -3,-4 -10,7 -11,1 -11,1 -5,-3 3,0 -4,-2 -3,4 -4,2 -4,8 -9,-4 -14,-4 -25,-16 -5,-7 -7,-13 -28,-13 -5,0 -10,1 -15,2 -11,3 -10,4 -11,7z"/>
    <path class="fil1" d="M1244 893c13,0 18,4 18,16 0,0 23,-8 25,10 10,-2 4,-4 17,-1 1,5 2,4 2,11 9,-7 -3,-5 13,-5 5,1 1,0 7,0 2,0 3,3 6,5 0,-16 11,-10 19,-10 4,-19 21,-9 25,-9 2,-11 4,-14 17,-14 -1,-11 -23,-24 -45,-4 -5,5 -12,11 -19,14 1,-6 1,-3 0,-9l-7 2c-8,2 -2,-1 -10,-2 -4,5 -3,3 -2,9 -8,-4 -11,-8 -18,-14 -4,-4 -14,-12 -21,-12 -10,0 -23,8 -27,13z"/>
    <path class="fil1" d="M978 1022c-8,0 -8,0 -13,2 -1,5 -2,4 0,8 -5,0 -11,1 -16,2 -14,1 -28,11 -28,26 0,6 1,3 2,3l21 -5c3,0 7,3 10,3 6,0 17,-12 31,1 4,4 -1,2 4,4 3,-5 1,-5 0,-11 17,12 3,-2 3,-14 0,-4 5,-7 8,-9 7,-7 -1,-6 9,-15 4,-4 1,-1 4,-5 5,-11 5,-1 7,-10 -5,-1 -2,-1 -6,-3 -8,-2 -15,0 -21,3 -8,3 -13,10 -15,20z"/>
    <path class="fil1" d="M883 825c-4,0 0,-5 0,-2l0 2zm-9 1c1,-6 -1,-2 3,-5 0,2 -1,4 -3,5zm-54 5c10,0 16,-2 24,-2l0 10c8,-1 12,-6 20,-8 0,7 -3,10 2,9 3,-1 8,-4 13,-5 2,4 4,7 10,7 1,-19 8,0 9,-16 5,2 6,3 10,6 4,-2 2,3 3,-4 12,1 16,9 32,9 -3,-4 -9,-6 -13,-10 -5,-3 -8,-7 -11,-12 -15,-19 -9,-20 -14,-31 -5,4 -4,7 -7,16 -2,7 -4,12 -9,15 -2,-5 -1,-4 -5,-6l-4 6c0,-6 0,-4 -1,-7 -4,1 -1,0 -3,1 -4,3 4,0 -3,3 0,-5 -1,-12 0,-18 0,-6 3,-7 3,-14 -3,2 -19,23 -25,28 -5,4 -9,7 -14,11 -9,6 -15,7 -17,12z"/>
    <path class="fil1" d="M782 934c0,4 -1,3 0,5 0,7 2,0 2,6 0,6 -2,0 -3,9 4,1 4,0 4,7 0,6 -5,5 -10,5l0 4c15,1 13,3 12,13 4,-1 3,0 4,-4 15,0 9,1 16,5 2,1 3,1 5,2l4 1c4,3 -2,1 4,4 6,3 7,-2 8,6l4 0c0,-7 2,-6 -1,-15 -3,-8 -4,-5 -11,-8 4,-5 2,-1 8,-4 -2,-5 3,-2 -5,-3 1,-7 2,-3 0,-7 -8,0 -4,3 -14,3 -6,-25 6,-11 -17,-29 -2,-2 -5,-6 -10,-6 -6,0 -3,1 -3,2 0,1 3,1 3,4z"/>
    <path class="fil1" d="M657 980c0,10 0,6 -4,12 3,2 4,4 4,10 6,-2 19,-9 19,-9 8,-3 13,5 13,-11l-4 -3c6,-2 2,-2 8,-5 16,-9 7,-13 21,-13 -9,-12 -33,12 -38,18 0,-18 1,-10 3,-18 -13,-9 -7,-19 -34,-19 7,10 8,13 9,28 1,10 3,5 3,10z"/>
    <path class="fil1" d="M653 1045c2,5 1,2 7,4 6,3 3,2 6,8 4,0 8,0 10,1 5,2 4,3 3,8 20,1 3,13 9,15 5,2 0,-3 10,-1l1 6c3,-2 5,-3 8,-6 6,-5 6,-4 16,-4 0,-6 1,-10 13,-10l-2 -6c4,-1 5,-2 8,-3 5,-1 4,1 8,-2 -9,-12 -13,0 -29,-4 -3,4 -2,4 -4,9 -2,5 -1,4 -6,7 -1,-2 -1,0 0,-2 0,0 0,-3 0,-4 -9,3 -2,4 -10,0l-2 0c0,0 -1,0 -1,0 -6,0 -1,-16 -12,-14 -3,0 0,0 -3,0 -1,0 -27,-6 -30,-2z"/>
    <path class="fil1" d="M537 992c13,0 11,2 15,10 7,0 8,0 13,1 2,4 1,3 0,8 10,0 6,0 12,4l-3 10c9,-1 3,-4 9,-1 4,2 1,2 3,7 16,-11 7,-12 23,-10 1,-9 4,-10 13,-10 0,-3 -5,-11 15,-11l0 -3c-15,-3 -4,-3 -20,0 -8,1 -5,-3 -10,0 -4,3 -2,10 -10,15 -1,-2 0,0 0,-2 0,0 0,-3 0,-4 -6,2 -1,1 -4,2 -6,1 -2,-4 -10,-2 0,0 0,0 0,0 -3,-11 -2,-8 -8,-16 -8,2 0,4 -10,2 -5,-2 -26,-7 -28,0z"/>
    <path class="fil1" d="M753 1141l1 0c0,0 -1,0 -1,0zm-45 -4l0 3c19,0 1,2 26,0l-1 8c8,0 9,-2 10,6 17,-4 3,4 14,-2 4,-3 -2,0 3,-2 2,-1 3,-1 6,-2 -1,-6 -3,-2 -1,-5 4,-1 4,-2 10,-2l0 -4c11,0 10,5 19,7 -2,-7 -14,-22 -28,-22 0,8 -1,6 -3,12 -3,-1 -5,-6 -7,1 -3,-2 -2,0 -3,-4l-3 6c-9,-1 -7,-9 -11,-16 -5,3 -9,6 -14,9 -4,3 -10,7 -17,7z"/>
    <path class="fil1" d="M516 1301c-10,-4 7,4 -3,-2 -3,-2 1,-1 -3,-2 0,0 -2,1 -2,1 0,0 -1,0 -1,0 0,0 -1,0 -1,0 -4,0 0,-2 -5,1 0,0 -1,0 -1,0 -4,1 -4,-1 -5,-4 -11,0 -14,-2 -19,6 1,4 5,8 10,8 2,12 -1,-2 11,7 1,1 0,1 3,2l6 1c0,0 1,0 1,0 10,0 2,1 8,-4 7,-6 7,1 13,-5 6,-5 14,-7 17,-14 -12,-6 -22,-7 -29,5z"/>
    <path class="fil1" d="M1105 1652c7,1 5,3 8,8 11,-5 7,2 15,4 5,1 5,-2 7,5 9,-2 6,-2 15,0l0 -4 10 0c1,-10 8,-6 12,-5 1,-6 2,-6 8,-7 -1,-14 -20,-10 -29,3 0,0 -1,-1 -1,-1l-3 -1c0,0 0,0 -1,0l-9 -1 0 4c-6,-4 -18,-21 -30,-10 -3,3 -1,0 -2,5z"/>
    <path class="fil1" d="M667 1150c0,10 3,-1 -2,10 -4,9 -11,13 -11,17 0,6 1,3 2,9 4,-1 4,-2 7,-4l7 -5c6,-5 3,-8 15,-5l1 -7c0,0 0,0 0,-1 -7,-2 -5,-4 -5,-11 0,0 0,-1 0,-1 -1,-14 3,-17 -6,-13 -3,2 -8,7 -8,11z"/>
    <path class="fil1" d="M864 1060c0,7 -1,-1 -1,4 0,13 1,4 -3,10 -1,3 -1,0 -1,3 0,0 1,4 1,5 15,0 6,0 18,8 8,5 3,5 11,6 1,-4 3,-7 -1,-13 -6,-9 -6,-2 -9,-11 0,-2 0,-1 -1,-3 -1,-2 -2,-1 -2,-3 0,-7 3,-5 -2,-12 -3,-3 -5,-5 -10,-6 -2,5 0,9 0,12z"/>
    <path class="fil1" d="M650 1224c0,6 -1,-1 -1,4 0,3 4,8 -5,10l1 4c1,1 1,0 0,3 15,0 8,2 15,7 3,2 4,2 7,4 3,2 3,3 6,5 3,-5 4,-9 0,-14 -2,-3 -2,-3 -5,-5 -7,-7 0,0 -4,-9 -2,-5 -1,0 -2,-4 -2,-7 5,-9 -12,-17 -3,5 0,9 0,12z"/>
    <path class="fil1" d="M507 1119l1 9c4,-2 4,-3 6,-5 5,-5 5,-3 8,-5 5,-4 2,-9 14,-6 0,-4 1,-4 1,-7 -9,-3 -4,-7 -4,-26 -13,1 -13,9 -13,13 0,2 0,1 -1,4l-3 7c0,2 1,1 -1,3 0,0 -2,2 -2,2 -3,3 -6,5 -6,11z"/>
    <path class="fil1" d="M762 1715l-4 3c6,1 5,1 5,7 5,-2 2,-3 7,-2 7,2 18,14 18,7 0,-7 -3,-7 -4,-11 0,0 0,0 0,0l0 -2c-1,-3 -1,0 -2,-6 -5,3 -3,3 -8,1 0,-6 3,-5 -2,-9 -1,-2 -8,-7 -10,-7 -5,-1 -2,0 0,19z"/>
    <path class="fil1" d="M558 1206c0,-8 -4,-19 -12,-21l-1 16c14,3 5,7 13,14 0,0 0,1 0,1 1,0 1,0 1,1 0,0 1,1 2,1 1,2 1,1 3,3 1,-6 1,-7 7,-7 0,-10 1,-13 9,-15 -2,-5 -2,-2 -3,-6 0,-3 0,-6 0,-7 0,-2 3,-1 -1,-2 -1,0 -1,0 -5,6 -5,7 -3,5 -5,13 0,3 1,1 -1,3 -2,3 1,-1 -7,0z"/>
    <path class="fil1" d="M994 1415c-7,1 -3,-1 -6,3 7,3 7,-1 6,7 9,-2 4,-3 15,3l10 5c0,-14 -4,-7 -4,-14 0,-14 -6,1 -9,-7 -2,-4 1,-2 -3,-8 -2,-3 -7,-6 -12,-6 2,9 0,8 1,12l2 5z"/>
    <path class="fil1" d="M584 1131c-6,2 -1,-3 -6,3 7,3 8,-1 6,7 7,-2 3,-4 11,0 13,8 14,9 13,2 -1,-8 -2,-1 -4,-10 0,0 0,-1 0,-1l-1 -4c-7,2 -5,5 -7,-1 -2,-5 -4,-13 -15,-14 1,5 1,4 1,9 0,9 0,1 2,9z"/>
    <path class="fil1" d="M599 1266c10,-3 5,-5 16,-5 1,-17 6,-6 10,-15 0,0 3,-2 -2,-2 0,0 -1,0 -1,0 -3,0 -3,1 -5,2 -5,3 -2,4 -8,5 3,-6 2,-6 -2,-10 -5,-5 -5,-6 -13,-6 5,21 3,13 5,31z"/>
    <path class="fil1" d="M1037 1295c9,-1 7,-4 17,-5 0,-2 -1,-11 11,-14l0 -3c-12,0 -9,5 -17,7 4,-8 -6,-15 -15,-16 2,8 4,14 4,23 0,5 0,2 0,8z"/>
    <path class="fil1" d="M1043 1212l0 10c9,0 7,-4 16,-4 3,-12 -3,-3 13,-17 -12,0 -11,3 -18,8 0,-7 2,-6 -3,-12 -4,-4 -6,-5 -14,-5 4,5 6,15 6,20z"/>
    <path class="fil1" d="M1091 1530c5,-3 7,-5 15,-5 1,-5 1,-3 0,-8l13 -9c-11,-3 -10,5 -19,7 3,-11 -5,-16 -16,-16 8,12 2,21 7,31z"/>
    <path class="fil1" d="M1268 2217c2,-3 2,-21 2,-27 -9,-2 -22,-5 -18,8 2,9 8,18 16,19z"/>
    <path class="fil1" d="M1212 1570c5,1 4,2 7,4 6,3 8,3 11,8 3,7 4,2 6,7l15 -9c0,0 1,-1 1,-1l3 -2c1,0 3,0 7,-5 -9,-2 -17,-2 -18,6 -4,-1 -4,-1 -10,-2 0,-7 0,-6 -11,-8 -2,0 -10,-3 -11,2z"/>
    <path class="fil1" d="M905 1641c4,0 12,-2 14,-4 7,-7 -3,-1 3,-8 1,-1 5,-3 8,-4l0 -2c-14,0 -6,3 -15,5 0,-8 -6,-13 -15,-14 5,18 4,23 5,27z"/>
    <path class="fil1" d="M723 1807l13 0 0 4c7,1 2,-1 4,3 11,0 5,-2 13,-3l0 -4c13,-1 4,-1 15,1 -3,-6 -6,-10 -13,-11 -6,4 0,1 -7,4l-6 3c-1,-3 -2,-4 -2,-7 -5,0 -5,1 -9,4 -4,2 -6,2 -8,6z"/>
    <path class="fil1" d="M532 2167c0,8 3,15 9,21 4,4 2,3 10,4 -5,-24 0,-17 -1,-28 -10,-1 -11,1 -18,3z"/>
    <path class="fil1" d="M989 1839c-7,-11 -16,-9 -23,-9 -2,-5 3,-4 -3,-5 -10,-2 0,6 -7,-1 -3,-2 -3,-7 -19,-7 6,9 10,9 15,12 11,9 2,6 11,6 4,0 4,0 8,1 4,1 15,2 18,3z"/>
    <path class="fil1" d="M696 1843l0 -3c-4,0 -11,0 -16,0 -7,1 -2,1 -7,2 -4,0 -1,-1 -5,-1 -9,-1 2,0 -4,1 -4,0 -4,-1 -6,-1 -5,-1 -11,-1 -17,-1 1,5 0,2 4,5l16 4c4,2 2,2 6,2 7,0 -2,-2 13,-4 8,-1 8,-3 16,-4z"/>
    <path class="fil1" d="M1331 2215c10,-2 15,-12 15,-21 -6,-4 -6,-6 -17,-6l2 27z"/>
    <path class="fil1" d="M835 1585l14 12c2,3 0,4 5,4 3,0 7,-4 10,-6 6,-2 6,-1 12,-4 -7,-10 -8,-1 -18,-1 -10,0 -9,-7 -13,-7 -5,0 -6,1 -10,2z"/>
    <path class="fil1" d="M925 1556l9 4c0,0 1,1 1,1 5,2 0,5 16,-3 4,-2 6,-3 8,-8 -8,-5 -12,1 -19,1 -6,0 -14,-7 -15,5z"/>
    <path class="fil1" d="M612 2189c6,-1 6,-2 10,-8 3,-4 4,-7 4,-13l-15 -1 1 22z"/>
    <path class="fil1" d="M1310 2218c9,1 10,1 17,-1 0,-7 -5,-12 -9,-20 -4,5 -8,11 -8,21z"/>
    <path class="fil1" d="M1273 2219l18 1c0,-10 -5,-16 -10,-21 -3,4 -7,14 -8,20z"/>
    <path class="fil1" d="M554 2193l17 1c0,-11 -5,-17 -10,-21 -2,4 -7,16 -7,20z"/>
    <path class="fil1" d="M695 1830c4,-1 4,-2 7,-4 5,-4 4,-2 9,-5 -3,-11 -2,-2 -2,-13 0,-5 -5,-6 -8,4 -1,3 0,2 -2,5 -3,7 -4,2 -4,13z"/>
    <path class="fil1" d="M591 2192l18 1 -10 -21c-6,5 -8,10 -8,20z"/>
    <path class="fil1" d="M1072 1467c5,-1 7,-4 17,-8 -3,-8 -3,0 -3,-12 0,-2 2,-2 -1,-4 -2,0 -3,0 -4,2 -3,3 -2,6 -5,10 -2,5 -4,2 -4,12z"/>
    <path class="fil1" d="M810 1869c11,6 2,5 10,10l4 -4c1,-1 1,-1 1,-1 5,-9 4,-4 4,-14 -4,1 -2,0 -5,4 -2,3 -2,5 -2,8l-3 0c-1,-7 -3,-9 -7,-12 0,6 0,5 -2,9z"/>
    <path class="fil1" d="M1150 1575l-3 0c-1,-7 -2,-9 -7,-10 0,10 0,6 4,11l4 6c5,-3 2,-1 5,-6l4 -6c-2,-4 -1,-1 -1,-7 -5,3 -6,4 -6,12z"/>
    <path class="fil1" d="M950 1483l-3 0c0,-7 -3,-9 -7,-10 0,11 1,7 3,10 3,5 2,5 6,8 4,-3 3,-4 8,-12 -2,-4 -1,-2 -1,-7l-2 2c-5,5 -4,4 -4,9z"/>
    <path class="fil1" d="M510 1257l6 -8c1,0 1,-1 1,-1 4,-7 2,1 2,-10 -10,7 -3,7 -9,12 -1,-7 -3,-9 -8,-12 0,8 -1,6 3,11l5 8z"/>
    <path class="fil1" d="M976 1325c4,-2 3,-2 5,-7l-3 0c-1,3 -1,3 -2,7z"/>
    <path class="fil1" d="M635 1435c-1,-4 -2,-6 -7,-7l7 7z"/>
    <polygon class="fil1" points="457,1343 457,1341 456,1342 "/>
    <polygon class="fil1" points="645,2007 647,2007 646,2005 "/>
    <polygon class="fil1" points="887,1488 889,1488 888,1486 "/>
    <path class="fil1" d="M389 1540l0 -1c0,0 0,1 0,1z"/>
   </g>
   <g>
    <path class="fil1" d="M2685 1832l0 0zm9 -4l0 0zm-24 -29l10 25c2,3 5,5 5,8 -16,-4 -19,-13 -16,-27 1,-4 0,-2 1,-6zm316 -271l25 -6c0,2 -1,2 0,3 0,4 1,2 2,4 8,13 -6,30 -19,49 -7,12 -7,20 -18,26 -8,-3 -1,-9 3,-19 3,-9 2,-13 2,-19 1,-7 1,-10 2,-19 2,-7 3,-13 3,-19zm260 -7l0 0zm-216 -3l-6 9c-11,-1 -3,-2 -1,-5 4,-5 -4,-4 7,-4zm-181 -37c3,2 3,13 2,18 -3,-3 -6,-7 -9,-10 5,-6 3,-1 7,-8zm-53 -48l9 17c-9,-1 -12,-2 -16,-6 3,-6 3,-4 7,-11zm335 -23l0 0zm-125 -1l0 0zm125 1l5 -23c4,1 3,2 7,3 -5,10 -6,13 -12,20zm-218 -53c2,2 6,6 7,9 2,4 2,8 -2,17 -13,-2 -10,-13 -5,-26zm26 -27c-3,6 -1,6 -3,11 -1,5 -2,7 -4,12l-3 0c1,-4 0,-3 0,-6 2,-7 0,-1 3,-6 7,-10 -3,-6 7,-11zm-35 -33l0 0zm-73 -31c-3,2 3,1 -5,1 2,-1 -1,-1 5,-1zm0 0l6 -2c2,0 5,0 7,0l-13 2zm73 31c-9,-1 -22,-19 -29,-25 -4,-5 -4,-6 -5,-12 5,0 6,-1 10,-2 -2,6 1,7 3,12 4,13 9,16 19,24 2,2 1,1 2,3zm-10 -45c9,0 6,-1 14,-6 5,-3 10,-4 16,-5l-18 39c-10,-1 -14,-18 -14,-19l2 -5c0,0 0,-1 0,-1 0,-1 0,-2 0,-3zm-99 157c-3,6 -2,11 -2,15 -14,11 -9,6 -11,12 -7,-7 -4,-7 -19,-9 -8,-1 -22,-1 -33,2l-1 3c9,0 11,1 19,1l-1 2c-19,0 -30,8 -39,11l-3 4c38,0 56,-16 65,-2 17,28 38,-3 42,25 -7,1 -6,2 -13,3 2,5 0,1 3,3 0,0 1,0 1,0 7,4 2,2 4,5l8 10c3,4 1,4 5,5 -9,7 -10,0 -20,8 7,0 18,9 22,13 16,11 3,9 16,18 7,4 7,14 9,22 0,6 4,21 2,27 -25,9 -44,-6 -50,-6 3,5 13,11 11,20 -12,0 -19,-4 -33,-4l2 -3c7,0 6,0 12,-3 4,-2 3,-1 6,-4 -10,0 -14,1 -22,1 -3,4 -4,5 -8,8 -3,0 -4,0 -6,-1 -3,-1 0,0 -2,-1l-2 -2c-5,-3 -9,-2 -15,-1l4 5c-30,0 -16,-18 -36,-23 0,6 1,5 2,10 2,3 2,6 2,10 -11,0 -16,-3 -23,-5 -14,-5 -15,-19 -17,-32 0,-5 -1,-15 -4,-18 -4,9 1,11 -1,16 -4,9 -8,-1 -19,7 7,0 11,1 20,1 0,5 2,19 1,25 -8,0 -29,-3 -36,3 12,0 26,4 38,4 -8,9 -2,8 6,16 4,-4 2,-2 5,-8 3,2 19,6 24,8 -10,12 -36,6 -43,2 -4,-3 -5,-5 -11,-5 4,25 37,19 66,16 12,-2 20,0 30,1 -8,6 -20,10 -30,10 -11,1 -22,-1 -35,-1l-1 1c18,0 35,18 56,5 20,-13 22,-20 63,-20 -4,4 -7,6 -10,10 -2,3 -5,9 -5,13 4,-1 4,-1 9,-2 1,-3 3,-5 4,-8 3,-5 1,-2 4,-8l7 11c4,-1 4,-2 9,-2 0,-7 2,-14 -9,-14 6,-5 5,-2 12,-4 16,-5 27,-10 39,-2 -6,10 -14,11 -19,20l37 -19c0,7 -3,16 -7,25 -8,7 -13,7 -21,14 7,-2 13,-4 20,-5 -3,9 3,10 1,19 -5,18 -34,38 -32,50 1,12 7,0 -6,25 1,1 1,2 3,3 4,4 6,6 7,12 -7,9 -14,10 -19,20 -4,6 -2,5 -6,12 -12,23 43,4 23,31 7,1 7,7 4,14 -10,22 -14,10 -40,20 -20,8 -19,1 -44,1 -27,0 -20,2 0,-23 7,-8 10,-10 16,-21 -4,-3 -8,-3 -12,-6 -6,-3 0,1 6,-25 5,-19 24,-21 36,-35l-15 8c-6,3 -9,6 -14,9 6,-11 14,-22 21,-34 4,-8 4,-6 1,-9 -9,17 -23,33 -32,49 -16,-5 6,-42 8,-60l0 -8c-4,9 -4,17 -10,28 -7,15 -10,17 -10,28 0,12 9,24 2,41 -8,6 -8,3 -13,12 -3,5 -7,16 -8,17 -7,11 -16,3 -27,23 -10,-2 -9,-16 -1,-28 17,-26 10,-20 15,-39 -5,2 -4,2 -5,8 -6,21 -6,16 -18,36l-1 -7c1,-16 -7,-20 22,-42 6,-5 13,-7 18,-14 -9,4 -15,8 -23,13 0,-6 3,-13 0,-16 -6,12 -7,28 -21,31 14,-27 -2,-10 -4,-28 -1,-6 1,-7 -2,-10 -8,29 5,21 3,31 -1,4 -4,10 -5,15 -3,-2 -7,-3 -11,-4 2,10 19,11 14,33 -2,-2 -4,-5 -6,-8 -6,-8 -13,-15 -13,-25 -4,2 -1,0 -5,4 0,-1 0,-2 0,-1 0,0 0,-1 0,-1 0,-1 0,-1 -1,-3 -1,-10 1,-19 7,-32 2,-5 3,-10 5,-16 -8,5 -4,3 -7,10 -6,15 -5,7 -34,7l-2 3c16,1 33,5 23,23 -8,0 -12,-3 -21,-3l-2 3c5,2 3,3 9,5 8,2 14,2 13,11 0,4 -1,8 -2,12 -13,-1 -28,-5 -25,-16 2,-7 4,-12 2,-18 -1,-5 -1,-10 -7,-12 -4,14 8,11 -1,29 -4,-4 -6,-12 -12,-14 -2,8 4,11 5,17l-17 0c-2,11 13,-1 23,14 11,15 34,-1 47,27 2,5 1,8 9,8 9,1 14,0 12,8l-14 0c-9,18 -20,22 -14,33 6,14 12,5 24,-3 3,-2 0,-1 5,-2 -1,11 -8,17 2,25 6,5 21,8 34,2 12,-5 18,-16 32,-19 8,-2 14,0 21,-1 9,-1 30,-8 34,-1 3,4 -2,10 -1,15 1,4 5,7 9,9 9,4 22,5 33,6 45,7 14,12 27,25 22,21 -8,21 6,51 4,8 8,12 9,22 1,18 0,68 -6,87 -5,16 -10,22 -23,32 -16,12 -12,20 -16,32 -8,2 -21,16 -25,25 4,1 4,3 6,6l20 22c21,18 38,36 64,49 13,6 26,15 41,19 11,-5 6,-4 7,-8 0,0 0,0 0,-1 5,-15 26,-42 38,-54 -6,2 -8,4 -15,5 7,-8 8,-5 15,-11 0,0 0,0 0,0l2 -7c2,-5 2,-7 -2,-8 -4,-2 -10,-1 -8,-4 0,-1 3,-5 3,-6 3,-4 1,0 3,-5 -9,0 -12,0 -18,-2 4,-6 2,-4 9,-7 15,-7 43,-9 36,-32 -3,-10 5,-12 1,-18 -8,-13 -16,-9 5,-32 15,-16 23,-16 35,-38 -11,0 -15,2 -13,-7 4,-21 -19,-8 -33,4 -5,4 -4,4 -10,6 2,-6 1,-4 3,-8 2,-5 2,-2 4,-8 2,-9 -2,-16 -1,-25 1,-12 10,-21 11,-47 1,-41 11,-31 30,-30 11,0 13,-5 24,-5 9,3 -4,28 18,19 13,-6 25,-22 36,-31 11,1 6,11 15,12 14,0 11,-16 13,-22 13,0 10,-2 22,-11 8,-5 14,-9 24,-9 -6,5 -10,6 -13,13 -1,6 0,9 -2,15 -9,7 -21,8 -26,15 13,9 32,-12 38,-15 -4,18 9,34 -28,42 1,3 0,3 7,2 4,-1 10,-3 13,-4 6,-2 18,-6 22,-11 16,-14 0,-24 -1,-32 8,1 23,15 23,21 0,16 -31,27 -38,36 9,0 12,-2 19,-7 5,-3 10,-8 15,-13 27,-25 24,-39 2,-48 -11,-4 -17,-6 -8,-23 10,0 9,5 18,7 10,2 7,13 23,22 6,3 12,5 17,8 0,-3 0,-1 -1,-4 -4,-9 -16,-13 -17,-24 14,0 37,-1 50,-4 -4,-4 -11,-3 -17,-3 -10,-1 -39,-4 -46,-7 -5,-2 -5,-1 -2,-7 16,-3 15,2 30,2 6,-6 19,-21 26,-24 13,-5 10,-1 29,-13 7,-5 17,-11 22,-17 -6,1 -4,1 -10,4 -4,3 -29,17 -31,13 -1,-2 5,-8 7,-11 7,-8 26,-29 30,-35l-4 0c-4,6 -10,11 -16,17l-35 36c-5,6 -11,14 -19,16 -10,4 -9,-1 3,-11 10,-8 9,-12 10,-20l14 -43c-6,3 -5,4 -12,20 -20,46 2,26 -61,64 -6,4 -14,8 -22,8 -9,1 -18,0 -26,1 -10,2 -13,4 -24,4 5,-9 15,-14 21,-20 13,-12 5,-11 11,-23 5,-5 9,-7 15,-11 10,-8 39,-30 45,-40 -8,4 -36,25 -45,32 -5,4 -10,8 -17,10 33,-44 27,-22 58,-80l-3 0c-5,8 -12,17 -18,24 -4,-1 -5,-17 -7,-25 -1,-3 -2,-5 -4,-7 -7,17 16,42 -16,66 -11,9 -27,14 -33,28 -5,15 -14,27 -31,35 -4,-1 -3,-2 -7,-3 -5,4 -7,7 -12,11 -12,0 -15,-4 -28,-3 -11,0 -22,0 -34,0 4,-7 10,-10 17,-15 6,-4 13,-9 17,-15 6,-8 5,-13 6,-18 1,-7 3,-13 7,-21l18 6c6,4 -8,13 -10,24 -2,9 10,2 17,-3 11,-9 8,-9 24,-9 4,-9 -4,-5 7,-15 4,-3 11,-8 15,-10 10,-5 24,-10 32,-17 -9,0 -18,2 -26,6 -9,3 -16,10 -24,11 10,-12 8,-15 15,-29 -6,4 -16,20 -20,26 -9,0 -7,2 -14,0l-1 3c10,3 11,8 -1,19 -7,-8 3,-17 -11,-23 -5,-1 -6,-2 -8,-5 5,-10 18,-18 26,-23 12,-6 23,0 33,-12 -4,-3 -8,-2 -15,-2 7,-8 13,-5 32,-21 5,-4 8,-8 13,-12 6,-5 10,-9 17,-8 25,4 19,9 53,2 8,-1 13,0 19,-5l-44 0c8,-9 20,-15 28,-25 -18,9 -39,36 -46,17 22,-20 43,-28 48,-32 -9,1 -7,3 -16,3 19,-17 24,-19 42,-33 14,-12 27,-23 41,-36 -9,2 -27,24 -50,35 4,-6 29,-34 36,-59 3,-7 4,-3 1,-7l-16 23c4,-8 5,-28 2,-32 -10,20 -8,37 -14,57 -6,16 -14,14 -23,23 -9,8 -12,21 -26,24l9 -20c-8,-9 10,-33 8,-46 -5,10 -10,22 -13,30 -5,-2 -11,-13 -13,-18 -4,-7 -4,-15 4,-29 -6,3 -5,2 -8,10 -9,16 -4,29 3,38 3,4 7,7 10,10 5,7 -10,33 -17,43 -10,11 -27,21 -40,24 10,-19 22,-15 37,-26 4,-4 0,1 1,-2l-3 0c-7,1 -14,4 -21,5l17 -20c4,-5 14,-16 17,-22 -7,3 -19,15 -24,20l-12 -22c-2,7 1,15 2,21 0,1 1,9 1,10 -1,3 -5,9 -9,13 -23,-6 2,-46 11,-68 4,-8 6,-7 3,-10l-30 50c3,-11 10,-26 11,-30 0,-8 -2,-17 -11,-17 1,5 4,6 4,12 0,6 -2,12 -5,20 -8,22 -3,31 5,44 2,4 7,5 3,14 -7,13 -20,28 -36,29 6,-7 14,-9 15,-18 -10,5 -9,11 -20,14 -2,-12 12,-13 20,-23 -8,-5 -31,12 -34,24 -2,8 22,5 13,23 -4,2 -10,5 -14,5 -6,0 -6,-4 -8,-6 -7,3 -12,6 -19,7l-3 7c10,0 11,-2 18,0 -3,6 -6,9 -10,13 -10,0 -12,-1 -16,-4 -10,17 9,6 0,23 -4,0 -12,1 -16,2 -9,3 -7,5 -14,9 0,-13 11,-24 22,-34 10,-9 6,-6 14,-16 8,-11 7,-7 6,-16 -1,-9 4,-26 19,-28 15,-2 26,1 32,-20 -7,3 -10,8 -17,9 1,-4 5,-12 5,-15 -9,3 -10,14 -19,18 0,-6 9,-15 14,-23l12 -26c-5,8 -11,15 -16,25 -1,-1 -5,-11 -5,-12 -1,-6 4,-13 9,-22 -7,5 -17,15 -18,22 -1,10 11,-1 0,21 -14,0 -14,15 -35,9 -8,-3 -16,-8 -16,-17 0,-6 2,-11 5,-16 17,-23 34,-22 47,-13 2,-6 1,-7 -2,-10 -4,-3 -6,-4 -11,-5 -10,-3 -17,1 -28,9 -34,26 -18,45 -20,51 -11,0 -25,3 -37,9 -3,1 -3,1 -6,3 -24,14 -28,33 -33,50 8,-4 5,-9 14,-22 7,-10 11,-13 21,-17 -12,15 -34,31 -18,49 3,3 -1,2 6,3 -1,-5 -3,-7 -2,-13 1,-8 4,-10 9,-18l3 0c-1,4 1,5 3,8 7,7 21,8 31,-6 -14,3 -13,7 -22,-2 8,-16 15,-19 27,-27 12,-8 13,-7 20,-3 17,11 22,2 5,44 -4,10 -4,7 -9,17 -14,1 -25,7 -34,19 -15,18 -8,18 -29,31 -11,8 -27,8 -25,-5 3,-16 8,-18 -18,-18 1,-3 1,-3 3,-7 -10,0 -14,2 -22,6 -6,3 -15,8 -20,10 -13,6 -26,-6 -16,-18 13,-18 12,-24 29,-43 22,-25 -15,0 -23,2 14,-25 36,-42 38,-46 1,-3 0,0 0,-3l-2 -2c11,-2 21,-14 19,-18 -6,-4 -17,1 -26,3 8,-13 26,-31 41,-35 19,-6 31,1 41,7 1,-7 -8,-8 -10,-14 27,0 59,-11 85,-12l2 -3c-28,1 -62,8 -90,8 5,-7 19,-15 26,-19 18,-9 18,-1 33,-5 10,-3 19,-11 27,-19 6,-6 7,-5 13,-10 21,-17 26,-5 46,-17 5,-3 9,-6 14,-9 15,-10 9,-6 13,-6 20,-1 23,-26 49,-17 4,1 3,0 7,2 1,-7 -14,-7 -20,-8 6,-3 64,-11 72,-12l1 -3c-9,2 -22,3 -32,3 -8,0 -9,1 -16,1 -6,1 -13,0 -19,0 8,-6 37,-19 48,-25 13,-7 37,-18 47,-27 -6,2 -73,36 -89,43 12,-18 38,-20 51,-38 -6,2 -13,7 -19,8 20,-26 6,-15 19,-40l3 2c1,0 1,0 1,0l6 -2c3,-1 2,-1 4,-3l11 -8c7,-4 11,-3 17,-9 -5,0 -14,1 -18,2 -5,1 -2,0 -7,3 -7,5 0,2 -9,5 4,-5 11,-8 14,-12 -6,2 -12,6 -16,11 -5,-5 -7,-7 -18,-5l-1 3c6,1 4,2 7,6 3,4 4,4 1,9 -9,18 -5,26 -35,51 -6,6 -19,15 -25,19 6,-11 12,-19 19,-30 8,-11 15,-21 21,-32l-24 31c-28,39 -22,34 -51,59 -19,17 -20,16 -32,16 0,-5 1,-4 -2,-7 -14,3 -20,15 -33,21 -4,-5 5,-5 -3,-8 -15,20 -43,26 -55,31 9,-11 45,-27 54,-38 -7,1 -47,26 -56,31 -6,3 -13,9 -20,10 6,-5 12,-8 19,-12 6,-4 16,-11 19,-15 -11,5 -50,30 -56,33 4,-4 24,-22 29,-25 12,-8 17,-7 32,-21 41,-37 51,-21 67,-34 -8,0 -7,-1 -13,-1 7,-6 14,-10 22,-15 9,-6 13,-10 22,-15 9,-6 40,-25 45,-31 -8,4 -10,5 -18,10 -7,4 -11,6 -18,11 -4,2 -5,2 -8,4 -22,12 -48,26 -65,37 -9,6 -23,18 -35,24 4,-5 6,-6 10,-12 5,-6 6,-8 11,-13l24 -22c7,3 1,6 8,8 20,-17 -3,-4 25,-21l46 -30c-5,2 -28,14 -36,18 -4,3 -8,5 -12,7 4,-6 23,-20 30,-25 26,-18 11,-11 24,-19 12,-7 0,-2 23,-19 8,-6 23,-16 27,-21 -18,9 -21,13 -31,18 2,-6 4,-13 6,-20l-3 0c-2,6 -3,8 -6,15 -6,14 -5,6 -22,23 -3,2 -4,4 -7,6 -2,1 -1,0 -4,2 -1,0 -2,1 -3,2 1,-4 10,-17 1,-26 -2,3 -2,6 -3,7 -2,3 -3,4 -6,8 1,5 4,2 3,8 0,8 -8,6 0,9 -6,5 -28,23 -34,26 11,-20 17,-35 27,-54 -3,2 -3,2 -5,5l-36 61c-28,14 -25,16 -37,22l3 -6 -5 0 -6 7c9,-18 17,-30 28,-45l7 -16c-7,11 -17,23 -22,32 -6,-2 -5,-9 -9,-12 -2,8 0,5 1,10 1,6 -14,37 -20,46 -5,8 -17,13 -26,18 -8,5 -18,14 -27,16 7,-13 19,-25 32,-33 7,-5 6,-4 12,-10 -6,2 -4,2 -10,5 -6,4 -4,3 -11,6l19 -37c6,-10 9,-8 14,-14 7,-10 2,-11 2,-15 4,-4 7,-10 11,-15 4,-5 8,-10 12,-14 6,-7 19,-26 19,-34 -8,5 -17,18 -23,29 0,-1 -1,0 0,-3 1,-7 9,-23 13,-30 12,-24 10,-11 27,-11l-5 6c17,-3 4,-3 14,0 5,-9 2,-4 11,-7 10,-3 5,-2 16,-2 10,-1 18,-7 30,-8 1,-5 2,-6 -14,-6 -28,0 -14,3 -32,8 -3,0 -3,1 -4,0 -4,-2 0,-2 1,-3 2,-3 2,-1 2,-3 1,-3 2,-1 -12,-2 -1,3 0,3 -2,8 -6,0 -5,0 -9,-2l-3 -3c0,0 0,0 -1,0 0,0 0,-1 0,-1 -3,-2 -13,-1 -22,-1 1,-4 2,-7 2,-11l0 -7c0,-3 0,-1 0,-3 -4,9 -3,13 -7,21 -7,1 -9,1 -14,7l14 0c-4,7 -8,20 -10,26 -4,12 -4,14 -11,29 -5,-6 4,-12 2,-19 -2,-9 -11,2 -8,-13 2,-10 5,-33 9,-42 -6,3 -5,4 -6,10l-11 39c-5,-4 -16,-15 -21,-15 1,6 9,17 14,21 2,3 5,3 7,6 4,4 5,31 2,39l-7 0c-3,7 -1,12 -3,21l-39 64c-5,8 -6,6 -10,12 -28,0 -14,-1 -24,15 -3,5 -4,3 -4,9 1,4 4,7 -4,18 -5,6 -11,11 -18,13 11,-38 47,-79 51,-96 1,-8 -3,-1 2,-12 8,0 13,-4 20,-8 5,-4 5,-3 10,-6 8,-4 10,-6 2,-6 -8,1 -15,3 -23,7 11,-22 18,-25 25,-53l-24 40c-7,-8 25,-43 3,-66 -3,9 5,13 0,33 -1,5 -4,8 -6,14 -4,12 -4,45 -26,47l3 -6c-6,1 -8,2 -14,3 -2,6 2,8 -10,9 -9,1 -4,-2 -17,0 -6,-43 -16,-26 -13,-52 4,-30 13,-33 53,-64 8,-6 15,-12 23,-18 8,-7 18,-14 23,-19 -7,2 -9,4 -17,11 -9,6 -42,31 -49,35 5,-7 9,-7 15,-14 0,-7 1,-9 -9,-9 -15,14 -6,10 -23,17 -3,5 -12,18 -15,23 -10,-1 -13,-21 -7,-31 21,-38 48,-50 61,-66 -12,6 -24,20 -36,26 14,-17 23,-35 12,-46 -3,13 4,17 -14,40 -10,12 -22,32 -28,44 -5,-5 -3,-37 2,-46 6,-11 14,-15 21,-27 11,-21 10,-13 23,-23 3,-3 9,-8 9,-13 0,-8 -7,2 1,-11 15,-24 -4,-5 44,-43 9,-7 19,-12 25,-21l-34 22c2,-7 7,-22 1,-23 0,3 -7,23 -11,28 -1,2 -9,9 -12,11 -4,4 -7,7 -12,8l3 -22c2,-8 2,-17 5,-24l-3 0c-4,8 -3,12 -7,20 -11,23 -3,16 -6,34 0,7 -2,11 -8,17 -8,-4 -4,-18 -17,-22 2,14 20,28 -2,47 -7,6 -11,12 -16,21 -12,-1 0,-7 -10,-8 -4,8 -5,15 -10,25l-3 0c4,-16 0,-29 -5,-39 -3,-6 -5,-13 -12,-15 -1,7 8,22 10,30l1 5c-3,3 -5,5 -8,8 -2,-2 -3,-6 -3,-10 -2,-7 -8,-12 -8,-19 -1,-7 1,-6 -2,-12 -5,-9 0,-15 9,-27 9,-12 19,-18 26,-27 -7,3 -16,10 -21,15l-3 0c4,-7 5,-13 8,-20 5,-2 8,-4 12,-9l-12 0c4,-14 -12,-26 -23,-29 -1,4 2,5 4,7 1,2 4,5 5,8 3,5 8,10 4,19 -4,1 -6,1 -10,3 -9,3 -14,13 -25,15l4 -8c-6,2 -2,2 -9,3l1 -26c-6,11 -5,22 -8,31 -5,-5 -11,-16 -18,-18 -1,4 3,8 6,11 2,3 6,9 7,12 -13,0 -10,-5 -13,-13 -2,-5 -4,-13 -7,-17 -4,13 7,19 2,31 -8,2 -23,6 -30,11 -1,0 -1,1 -1,1 -10,6 -11,3 -19,7 14,3 38,-4 52,1 7,2 9,6 12,11 3,5 8,7 11,13 11,19 46,20 31,54 -1,-3 0,-2 -7,-1 5,-9 6,-10 5,-16 0,-4 0,-7 -4,-9 -4,13 -3,7 -11,17 8,1 7,5 2,14l3 3 -5 4c-12,-2 -5,-18 -9,-26 -3,-6 -8,-20 -15,-22 0,3 0,1 1,3l6 26c-14,0 -19,-5 -32,-7 -11,-2 -24,-3 -39,-3l-2 4c13,0 25,2 34,4 18,3 29,16 40,26 3,3 6,5 8,8 3,3 7,4 6,9l-39 -4c14,3 14,9 38,13 22,3 25,12 32,28 1,3 2,4 2,8 1,6 0,19 -9,10 -9,-10 -21,-10 -44,-10l-2 3c8,0 13,4 18,6 15,8 31,14 38,29 10,21 -3,23 12,29 8,3 17,18 18,25 -6,10 -8,8 -14,17 14,10 14,18 8,38 -1,3 -1,5 -3,9 -3,6 -1,2 -5,9l-3 0c3,-9 0,-22 4,-30l-10 12c0,-1 -1,0 0,-4 1,-24 26,-50 -27,-50 -3,13 36,7 25,33 -2,5 -13,25 -14,31 -1,13 8,9 -7,28 -10,-3 -9,-19 -3,-30 5,-9 10,-13 13,-23 1,-1 2,-7 2,-9 0,-5 1,-5 -4,-7 -1,6 -2,16 -8,22 -3,4 -17,15 -21,17 -9,-10 9,-39 -4,-40 -4,4 -3,2 -5,8 -3,9 -7,15 -9,3 -2,-4 -2,-5 -4,-9 -3,-7 -6,-11 -11,-16 6,-13 16,-21 19,-33 2,-6 3,-6 -3,-7l-14 19c0,0 -1,1 -1,1 2,-6 5,-16 7,-23 3,-9 0,-11 4,-14 11,-9 -4,5 4,-3 -12,0 -16,-9 -20,-16 -2,-4 -4,-8 -5,-12 -1,-5 0,-10 -5,-12 -9,29 5,22 6,42 -7,0 -5,-1 -9,4 -3,-3 -3,-4 -4,-7 -4,-18 -24,-19 -3,-50 5,-7 10,-16 12,-24 0,0 1,-3 1,-3 0,-4 0,-2 0,-3 -18,23 -8,22 -26,7l-13 -16c-2,-3 -2,-4 -4,-7 -5,12 13,28 16,35 2,5 9,13 2,19 -4,4 -10,4 -15,3 -7,-2 -4,-4 1,-11 -7,1 -5,2 -12,2 1,-5 1,-2 0,-6l-1 -5c0,-1 0,-1 0,-1z"/>
    <path class="fil1" d="M3267 1378c-1,3 -1,1 0,4l11 13c3,1 5,-2 9,2 0,0 3,11 19,2 3,-1 2,-2 6,-3 9,-3 3,6 9,-4 8,-1 2,0 8,-3 0,0 1,-1 1,-1l7 -5c-1,-8 -5,-7 -17,-7 -3,4 -4,6 -8,5l-7 -1c0,0 -1,0 -1,0 -4,-1 -1,-2 -6,1 -11,6 8,-2 -3,2 -2,-13 -14,-11 -28,-5z"/>
    <path class="fil1" d="M2689 1647c-2,5 0,6 4,8 13,9 9,5 14,3 0,0 0,0 1,0 0,0 0,0 1,-1l2 0c0,0 0,-1 1,-1l9 -3c5,-12 -6,-5 -16,-5 0,0 -10,-6 -16,-1z"/>
    <path class="fil1" d="M2730 1571c0,3 0,1 0,3l0 3c1,6 -1,3 2,7l11 -8c5,-5 4,-3 8,-11 -5,2 -9,4 -13,11l-3 0c3,-6 3,-4 1,-10 0,0 0,0 0,-1l-1 -1c-3,5 -2,4 -5,7z"/>
    <polygon class="fil1" points="2845,2176 2847,2176 2854,2162 2852,2162 "/>
    <path class="fil1" d="M2795 1409c2,-4 1,-4 2,-8l-3 0c-1,6 -1,5 1,8z"/>
    <path class="fil1" d="M3094 1525l12 -7c-6,1 -8,2 -12,7z"/>
    <polygon class="fil1" points="2731,1829 2733,1829 2735,1825 2734,1825 "/>
    <polygon class="fil1" points="2799,1581 2799,1579 2797,1580 "/>
    <polygon class="fil1" points="3333,1427 3335,1427 3335,1425 "/>
    <path class="fil1" d="M3295 1636c0,0 1,-1 1,-1l0 0c-1,0 -1,1 -1,1z"/>
   </g>
   <g>
    <path class="fil2" d="M548 2060l0 0zm158 -57l1 3 -1 -3zm0 0c-7,0 -7,0 -8,-6 4,3 5,3 8,6zm30 -4c2,-2 6,2 2,1 0,0 -4,1 -2,-1zm-3 -4c0,-4 3,-1 2,0 -2,2 -2,1 -2,0zm16 -5l6 -1 0 8c-1,0 -2,0 -3,-2 -4,-4 -1,-2 -3,-5zm47 -4c1,3 1,-3 1,3 0,3 0,1 -1,3l0 -6zm-15 3c0,-3 2,-5 1,-1 0,0 0,6 -1,1zm-46 0c1,-3 2,-4 3,-8 3,3 5,9 5,15 -9,-6 1,-10 -8,-7zm46 -13l-3 1 3 -1zm-29 -5l0 0zm68 -8l2 0c0,9 3,7 -2,8l0 -8zm-24 -8c3,15 0,10 0,21l-3 0c-1,-11 -9,-18 3,-21zm-15 21c-1,-9 -1,-1 -2,-6 -1,-11 -2,-12 4,-13 0,9 -1,12 1,19l-3 0zm-29 -5c-2,-1 -5,-6 -7,-8 7,0 6,0 7,8zm86 -13c0,8 1,6 3,12 -7,-5 -2,-6 -8,-10 0,5 1,6 2,10l-3 0c0,-9 -1,-13 -1,-19 7,0 6,-1 13,-1l0 11c-5,-3 -3,0 -3,-7 -3,2 -3,0 -3,4zm-19 -6c2,-2 5,4 1,2 0,-1 -3,1 -1,-2zm54 -7c0,7 1,8 2,13 -1,-1 -4,-4 -5,-6 -3,-5 -3,-5 3,-7zm-122 -6l3 0 0 12c-5,-3 -3,-4 -3,-12zm26 -3l4 0 0 12 -4 0 0 -12zm19 -2l0 13 -8 0c0,-10 -2,-13 8,-13zm88 10l6 0 -2 8c-5,-3 -1,-2 -4,-8zm15 -2c2,-2 5,4 1,1 0,0 -3,1 -1,-1zm-80 -11l4 0 0 11 -4 0 0 -11zm23 7l0 3 -4 0c2,-3 0,-2 4,-3zm-11 1c1,-1 5,3 1,1 0,0 -4,2 -1,-1zm65 -10l0 -8 6 0 0 7c0,5 -1,0 1,4 -5,1 -7,3 -7,-3zm-60 2l0 -3 6 0 0 4c-2,-2 -1,-3 -6,-1zm89 -6l0 -9c6,0 6,0 10,-1l0 14 -6 0c-3,0 -4,-1 -4,-4zm-42 -3c4,3 2,3 7,12l-6 1c0,-7 -1,-6 -1,-13zm-10 14l-8 0 0 -11c5,-1 5,-2 12,-2 -2,4 -4,9 -4,13zm94 -18l0 0zm0 0c-4,1 -3,3 -6,5 0,-13 -2,-9 6,-13l0 8zm-10 -6c0,7 2,14 -5,14 -4,0 -3,-1 -4,-4l-3 0c-1,13 -4,-5 -3,-6 1,-7 5,0 15,-4zm23 0c-1,-3 2,-5 1,-1 0,0 0,6 -1,1zm-7 6c-1,-4 -1,-4 -2,-8 8,1 3,1 4,3 0,4 -2,4 -2,5zm37 -13c3,-3 5,4 2,1 0,0 -4,1 -2,-1zm15 -2l0 1c0,0 0,-1 0,-1zm39 -6l1 1c0,0 -1,-1 -1,-1zm16 -1l1 0c-1,0 -1,0 -1,0zm28 -4l4 0 0 2 -4 0 0 -2zm13 -2c7,1 2,-1 4,3 -2,-1 -3,-1 -4,-3zm17 -3l1 1c0,0 -1,-1 -1,-1zm-14 -7c0,-1 6,-3 2,0 -3,1 -3,2 -2,0zm14 -2l1 1c0,0 -1,0 -1,-1zm49 -24c0,-4 3,0 1,0 0,0 -1,4 -1,0zm-177 -19l0 0zm0 0l-1 -3 1 3zm-143 -109l0 0zm-6 -4l0 0zm199 -20c-6,17 -20,14 -20,14 0,0 -1,0 -1,0 -8,1 -2,2 -10,0 -1,0 -1,-1 -1,-1 -1,0 -13,1 -16,-13 8,2 10,2 13,8 9,-3 -2,-1 13,-3l4 5c4,-5 3,-6 18,-10zm-193 24c1,-2 16,-14 23,-23 2,-3 4,-7 7,-9 -2,8 -4,16 -9,21 -5,4 -15,10 -21,11zm178 -55c9,1 15,9 14,18 -5,4 -10,5 -18,3l4 -21zm-34 17c-2,-9 3,-13 10,-16 2,3 5,14 4,19 -7,1 -9,1 -14,-3zm-305 -178c-8,-5 -4,-13 -5,-24 -2,-19 -7,-33 6,-46 3,-3 2,-2 3,-2l3 -5 20 6c-3,5 -4,11 -6,18 -3,8 -4,10 -8,17 -14,29 -1,33 -13,36zm-214 -78l0 0zm206 5l-1 -8c6,0 4,0 4,3l1 2c1,3 3,-3 1,2 -1,3 1,1 -5,1zm177 -26c2,-5 7,-15 11,-17 0,5 0,1 3,7 -5,3 -9,7 -14,10zm67 -46l18 -16c0,6 1,4 1,10 -6,4 -9,5 -19,6zm-287 -38l0 0zm119 -1l0 0zm-119 1c-2,-7 -2,-10 -2,-19 5,-1 5,-2 9,-3l-7 21c0,0 0,1 0,1zm215 -26c0,-8 1,-11 5,-15 3,-3 9,-7 12,-10 -1,13 -5,24 -17,25zm4 -28l-3 0c0,-12 4,-14 4,-21 6,3 3,0 2,4 -1,15 3,2 0,11 -2,4 -2,2 -3,6zm51 -53l0 0zm84 -29c7,0 2,0 4,1 -7,0 -2,0 -4,-1zm0 0l-3 -1c3,0 1,0 3,1zm-84 29c1,-2 0,0 2,-2 12,-8 21,-12 31,-23 3,-4 7,-6 9,-12 3,1 4,2 9,2 -6,9 -13,13 -23,19 -7,5 -20,15 -28,16zm7 -16l2 -37c17,2 10,10 23,11 -5,7 -1,3 -3,8 0,1 -12,17 -22,18zm-158 122c-5,-4 -6,-6 -10,-11l-20 -23c-4,-5 -6,-8 -9,-13l8 0c-1,-4 -2,0 2,-6 -6,-3 -7,-3 -6,-9 0,0 0,-1 0,-1 0,0 0,-1 0,-1 0,0 0,-5 0,-6 0,-7 3,-9 -1,-10 -11,-1 -12,17 -14,24 -7,15 -11,3 -10,25 8,-2 13,-10 19,-14 10,18 45,56 49,70 3,12 -6,37 -15,44l-15 14c-5,6 -9,12 -13,18 -10,-2 -8,1 -16,0 -10,-1 -6,-3 -4,-8 -5,-1 -7,-2 -12,-3l0 5c-20,-1 -4,-33 -2,-44 2,-13 1,-13 6,-24 4,-8 10,-14 12,-20 -8,5 -17,16 -20,26 -2,5 -3,13 -4,19 -1,8 -1,14 -6,17l-3 -37c-4,16 -2,32 -2,49 -2,-2 -7,-4 -11,-5 -3,-1 -2,-1 -6,-1 0,0 -3,0 -4,0 -8,0 6,9 8,11 4,4 7,7 15,8 -1,13 -9,4 -2,50 2,20 3,34 -1,52 -6,-2 -9,-7 -11,-13 -1,-4 -1,-6 0,-10 1,-3 4,-5 5,-7 3,-6 1,-4 0,-9 -1,-14 11,-14 -14,-14 -3,-10 -4,-8 -5,-21 0,-15 -6,-36 -4,-49 1,-8 7,-14 7,-21l-6 0c1,-8 15,-33 21,-37 4,-3 6,-3 10,-5 8,-6 18,-13 23,-21 -8,1 -20,11 -28,15l10 -36c2,-6 3,-8 -1,-10 -1,8 -9,29 -12,38 -5,16 -6,5 -14,13 -6,6 1,12 -7,18 0,-13 1,-15 3,-26 1,-6 4,-19 4,-26l13 0c-1,-5 -3,-6 -10,-6 0,-8 4,-12 4,-20l-3 4c0,2 -1,3 -2,5 -2,4 -3,7 -3,11 -7,0 -17,-1 -20,0 -7,2 -8,6 -17,6 1,-4 1,-4 2,-7 -13,1 -12,-1 -12,4 0,1 5,10 -11,-1 -6,-4 -9,-3 -18,-3 -8,0 -15,-2 -17,6 10,0 15,6 24,7 10,0 8,0 16,3 5,1 4,-4 5,5 8,-2 4,-2 13,0l-2 -5c16,0 21,-12 21,10 0,9 0,19 -3,28 -2,6 0,1 -2,4 0,-10 -1,-24 -7,-28 -6,14 2,32 6,44 1,5 1,12 3,16 -3,4 -7,4 -6,13 2,11 7,-2 5,41 0,3 1,3 1,8 -5,-2 -4,-1 -7,-5 -4,-3 -3,-4 -8,-5 7,12 20,18 20,41 -7,-2 -11,-10 -17,-15 -4,-5 -14,-10 -16,-16 -2,-9 0,-24 1,-31 1,-7 -1,-8 3,-13 3,-6 4,-3 6,-11 -5,3 -8,10 -14,12l-8 -44c-1,-5 -2,-8 -2,-14l-2 0c0,21 10,55 10,85l-7 -7 0 6c-8,-6 -5,-8 -25,-21 0,-16 -3,-39 -3,-48 0,-7 2,-9 -2,-14 0,18 -2,32 -2,51 -3,-3 -16,-20 -19,-25 9,-2 2,0 4,-8 2,-5 4,-3 8,-8 -3,-12 -2,0 -2,-14 -13,8 -10,21 -11,24l-4 -3c-5,-4 -4,-7 -11,-16 -4,-5 -4,-3 -3,-10 1,-7 1,-10 2,-16l-3 0c-1,7 -3,13 -4,19 -4,-2 -7,-5 -10,-9 -4,-4 -6,-5 -11,-8 2,8 19,21 23,32l5 6c6,6 1,5 7,11l2 3c1,1 1,0 2,2l11 15c3,3 6,6 7,11 -8,-6 -27,-22 -33,-24 4,7 14,14 22,22 2,2 3,4 5,6 10,8 7,1 11,12 2,6 1,4 4,8 7,-2 4,-5 11,-7l19 43c-4,-2 -7,-6 -11,-10 -13,-13 -10,-15 -34,-32l-36 -29c-5,-5 -6,-6 -12,-10 2,6 21,23 27,29l27 29c-6,1 -6,2 -13,2 8,12 26,-4 46,32 8,13 13,11 20,19 3,3 14,20 15,24 -4,-3 -29,-27 -36,-32 1,5 1,3 4,7l18 19c-7,-1 -43,-37 -51,-39 3,11 29,26 32,36 -10,-4 -32,-10 -37,-29 -9,3 0,2 -7,8 -9,-6 -8,-18 -20,-21 -5,4 -3,3 -6,8 -9,0 -9,1 -13,-4 -4,-3 -6,-7 -8,-11l-8 -12c-3,-4 -4,-7 -5,-13l-14 -60c0,18 7,42 7,58 -9,-7 -21,-27 -23,-39 -3,-10 1,-17 1,-27 1,-9 11,-14 15,-14l0 -3c-8,-2 -11,-1 -19,4 -1,-5 -5,-9 -10,-10 2,6 -1,0 4,5 3,4 2,2 3,7 -11,-7 -3,-10 -26,-10 2,8 14,7 17,15 0,0 0,1 0,1 2,6 2,3 3,3l3 1c3,1 4,-1 6,-2 0,27 -7,12 -1,38 -6,0 -10,-5 -15,-7 4,17 28,19 29,36 -11,-7 -56,-39 -62,-41 8,13 57,40 64,50 -5,0 -11,0 -16,0l-45 -2 61 12c-4,0 -8,1 -13,2 -4,1 -8,1 -9,5 4,-2 2,0 6,-1 3,-1 4,-2 6,-3 6,-1 11,0 14,3 7,5 8,15 17,15 10,1 4,0 18,13 12,12 13,4 27,9 17,6 17,30 32,36 10,3 18,-3 29,5 5,4 15,11 16,18 -26,0 -54,-7 -81,-8l0 3c9,0 28,4 37,6 12,2 24,6 37,6 -3,4 -8,5 -13,9 -2,2 -2,1 -3,4 17,-8 47,-18 57,6 2,6 6,13 7,20 -9,-2 -31,-11 -23,8 2,5 3,5 9,6 -4,3 -6,5 -3,10 7,14 11,18 11,38 -7,-1 -8,-6 -13,-9 -17,-12 -3,15 -3,25 0,22 9,28 -5,37 -4,3 -10,7 -17,4 -12,-5 -14,-16 -31,-16 -1,4 -1,4 -2,7 -38,0 -14,20 -35,26 -25,6 -26,-26 -27,-33 -3,-11 -10,-18 -23,-19 -1,-10 0,-21 2,-33 2,-12 4,-18 16,-21 10,-3 15,-11 25,-1 7,8 12,11 12,26 -13,8 -10,5 -22,2 3,13 17,12 26,6 4,-3 6,-4 7,-8l3 0c1,21 3,13 -8,29 5,0 8,-3 11,-7 8,-7 11,-17 9,-27l-6 -15c10,5 12,16 12,27 -1,9 -4,7 1,11 3,-14 9,-32 -2,-44 -9,-10 -24,-16 -39,-16 2,-6 26,-23 7,-47 -14,-20 -40,-6 -41,5 32,-17 43,10 34,27 -5,10 -29,24 -40,16 -6,-4 -1,-8 -12,-8 0,-25 15,-9 9,-31l-4 -10c0,15 -1,23 -13,32 0,-9 -3,-15 -3,-23l-3 0c0,9 5,42 3,46 -4,-3 -3,-3 -4,-9 -1,-4 -1,-7 -5,-8 -2,3 -2,10 -3,14 -6,-1 -7,-5 -12,-8 -1,6 -1,10 3,15 5,5 9,3 18,4 13,1 9,18 4,26 -5,7 -5,5 -3,14 3,9 1,9 6,16 6,10 10,20 4,32 -4,-3 -2,-5 -8,-8 -3,-1 -11,-2 -15,-2 0,-16 12,-5 12,-22 -6,3 -9,4 -18,4 -2,-3 -3,-7 -3,-13 8,-1 8,0 18,0l0 -5c-6,-2 -9,-5 -15,-8 -8,8 -11,7 -21,2 1,-18 22,-15 24,-22 3,-12 -10,-28 -20,-23 3,10 14,11 7,22 -9,-3 -5,-8 -11,-13 -5,8 2,10 4,17 -9,-1 -16,-8 -18,-16 0,-3 -1,-8 -1,-10 0,-12 15,-17 21,-25 19,-24 10,-29 20,-49 3,-7 6,-8 10,-13 -9,1 -15,8 -18,15 -3,6 -3,18 -5,30l-3 -48c-4,3 -4,9 -5,20 -1,20 1,49 -21,54 -8,-16 12,-27 16,-41l-22 21 -9 -15c-3,-5 1,-3 -4,-4 0,9 5,20 8,29 1,5 2,5 3,10 -3,0 -7,-1 -10,-3l-8 -2c-3,0 0,-1 -2,1 -1,2 -2,-1 1,2 9,9 21,7 21,24 -6,-2 -10,-5 -15,-9 -4,-3 -8,-8 -10,-13 -3,-9 -3,-35 4,-41 16,-13 35,-21 37,-45 0,-7 0,-7 -3,-10 0,13 -4,21 -11,27 -4,5 -15,15 -21,17 2,-7 3,-19 3,-28 -4,6 -5,16 -7,22 -2,9 -4,18 -9,22l-2 18c-10,-2 -7,-13 -11,-22 -7,-17 -20,2 -3,-48 2,-7 7,-20 7,-28 -4,3 -6,8 -8,13 -3,6 -6,10 -6,17l-3 -21c-5,3 -2,-2 -3,5 -3,8 -2,18 -2,26 0,17 5,20 6,31 -14,-10 -22,-32 -29,-33 6,11 13,22 21,33 9,14 14,15 23,32 -9,0 -6,-2 -13,-3 3,4 11,7 16,13l13 17c-7,8 -11,10 -19,2 -6,-6 -9,-13 -16,-18 1,5 4,9 7,12 3,5 5,7 7,12l-42 0c4,5 24,6 32,7 21,3 38,-11 46,1 2,4 4,9 7,13 2,4 5,9 9,11 6,4 9,3 11,10 -7,0 -10,-1 -15,1 3,12 16,5 24,11 6,5 14,13 14,23 -5,3 -15,5 -20,9 -5,5 -6,13 -12,17 -5,-11 -2,-15 9,-18l0 -3c-8,2 -4,0 -13,0 0,-5 -2,-21 -6,-24 0,12 -3,15 0,27 -6,-1 -11,-8 -17,-11 -6,-3 -13,-5 -22,-5 6,9 23,13 31,26 5,9 0,5 -1,13 13,0 13,0 18,9 4,5 12,12 15,3 3,-9 -4,-18 2,-22 2,-1 7,-2 10,-3 4,-1 5,-3 10,-4 0,24 -16,31 1,51 4,4 9,8 9,14 -12,0 -34,-2 -45,1 -7,1 -5,2 -14,2 -3,-4 -4,-6 -6,-10 -4,1 -4,2 -9,3 -4,-3 -7,-7 -10,-12 -3,-5 -3,-11 -2,-19 4,-26 -37,-23 -16,-61 3,-5 6,-9 9,-14 3,-6 7,-9 8,-16 -10,7 -21,29 -26,31 -2,-7 -4,-16 -5,-24l-3 0c0,56 6,35 15,76 -12,-3 -27,-32 -38,-39 1,9 10,17 14,25l18 23c0,11 -7,10 -1,21 3,6 9,11 10,19 -13,0 -17,-4 -44,-4 -13,0 -34,-20 -43,-30 -5,-5 -6,-9 -4,-16l4 -33c1,-7 3,-5 -2,-8 -1,6 -3,12 -4,19 -2,6 -2,14 -4,20 -2,7 -6,12 -1,20 2,3 11,14 -1,11 -9,-2 -14,-24 -18,-32 -4,-7 -15,-27 -15,-34l-3 0c0,6 8,26 10,34 3,13 3,15 -21,-1 -4,-3 -3,-4 -8,-5 1,5 6,9 10,13l13 11c5,4 2,2 8,4 10,3 6,9 16,22 13,0 15,-4 29,-1 -1,7 -5,7 -13,8l-38 5c-7,0 -15,0 -19,3 11,3 31,4 45,4 -6,10 -28,19 -31,26 12,-5 27,-8 37,-17 7,-5 5,-9 15,-11 7,-2 3,0 10,-3 5,-3 3,-3 11,-3 0,29 -31,16 -44,37 -9,15 6,48 25,48 -2,-6 -8,-8 -12,-14 -3,-4 -9,-10 -6,-18 2,-7 25,-21 33,-21 -6,8 -25,16 -18,30 3,6 18,11 25,13 5,2 5,3 9,-1 -10,-3 -18,-3 -16,-16 1,-10 8,-16 10,-24 4,4 12,23 29,15 -2,-7 -13,-8 -18,-15 5,-18 11,-10 0,-26 14,0 17,9 23,16 4,5 3,3 11,3 -2,6 -12,19 0,20 9,1 11,-10 22,-11 6,9 8,22 17,29 7,4 13,0 16,-4 5,-5 6,-10 11,-14 10,1 10,5 19,5 21,1 34,-12 13,34 -2,3 -3,4 -4,7 -7,16 -1,26 -13,43 -2,4 -6,8 -7,12 -2,6 -1,10 -2,16 -9,-3 -9,-18 -23,-20 -8,-1 -10,3 -12,9 -3,10 -4,8 -15,8 0,25 22,39 16,54 -3,8 -16,9 -18,18 -1,9 2,3 -3,10 -18,22 2,23 16,31 4,2 5,1 6,7 -7,2 -9,2 -17,2 -2,7 3,11 -3,13 -6,1 -12,1 -13,8 0,1 0,2 0,2l-1 4c-3,6 -3,-4 -1,2 4,5 7,2 9,10 -6,-2 -6,-3 -12,-5 9,17 8,29 9,47 1,9 2,6 -8,8 -45,9 -14,33 -17,43 -4,6 -25,18 -33,23l-71 42c-7,5 -30,18 -31,27 11,5 59,8 77,8 30,0 55,1 84,1 12,22 45,17 74,16 8,0 10,-1 18,-1 12,-1 25,1 37,-1 28,-4 41,4 66,6 24,3 47,1 72,2l35 1c9,0 19,-1 27,1 6,1 1,1 8,2l91 0c10,-1 7,-3 16,-3 13,0 23,-1 35,-3 25,-2 38,-10 64,-10 197,1 395,0 592,0 -4,-6 -6,0 -12,-10 -3,-4 -5,-8 -8,-13l-96 -148c-3,-4 -5,-9 -8,-13 -7,-10 -12,-19 -18,-28l-43 -67c-4,-4 -6,-8 -9,-13 -24,-40 -29,-37 -48,-85 -5,-13 -24,-54 -25,-65 -3,-1 -5,-1 -8,-2 -11,-3 -6,-7 -11,-10 -2,-1 0,0 -3,4l-1 -14c-5,1 -2,1 -4,-1 -6,-5 5,0 -3,-3 0,7 0,8 1,14l-3 0c-1,-5 -1,-13 -2,-16 -3,-8 -9,-4 -11,-10 -3,5 -6,7 -9,13l-2 4c0,0 0,0 -1,0 0,-6 -1,-7 -4,-11 -6,0 -7,-1 -11,2 -7,4 -6,13 -6,20 -1,6 0,6 -6,7 0,-12 1,-21 -9,-23 -16,-2 -13,22 -13,32 -8,-2 -2,-4 -9,-9 -3,6 -6,12 -13,16l-3 -7c0,8 -3,8 -11,8 0,-6 1,-12 -3,-16 0,8 3,17 -6,18 1,-4 1,-4 2,-8 -13,4 0,9 -18,9 0,-8 -1,-10 -1,-16l-3 0c0,9 -1,11 -2,18 -6,-1 -5,1 -4,-5l-3 0c0,7 2,3 -3,6 2,-6 4,-9 5,-14 -3,1 -5,3 -6,5 -2,3 -3,5 -3,9l-4 -3c0,-1 0,-1 0,-1l0 6c-8,0 -8,0 -14,1 1,-7 1,-2 2,-7 1,-6 -2,-1 -2,-8l0 -5c-2,-9 2,-4 6,-17 5,-15 3,1 8,-8 1,-4 -1,1 0,-3 2,-7 6,-11 4,-18 -1,-7 1,-15 2,-24 0,-6 0,-2 0,-8 -1,-9 -1,-17 7,-22 6,-4 6,-4 10,-11 6,2 13,7 19,10 10,7 18,13 26,5 5,-5 3,-5 4,-10l1 -3c1,-3 1,-2 2,-5 4,1 5,3 8,0 3,-1 1,0 3,-3 1,-2 1,-1 2,-4 -9,-6 -13,0 -19,-7 -10,-10 5,-11 1,-28 -2,-9 -6,-13 -8,-21l-3 0c0,7 0,7 -7,7 0,-8 1,-4 -3,-7 -2,8 -6,15 -7,23 -2,18 6,15 8,23 -16,1 -11,5 -32,1 -18,-3 -28,1 -33,-8 3,-4 7,-6 11,-8 16,-8 28,-11 28,-33 0,-21 -6,-30 -23,-38 0,0 -7,-3 -7,-3 -3,-1 -5,-1 -9,-1 2,-8 0,-6 0,-16 -18,0 -8,5 -7,16 -13,0 -20,5 -28,13 -12,12 -17,32 -8,43l10 11c4,3 8,4 12,8 7,4 9,2 9,12l-46 4c-5,0 -10,-2 -16,-2 1,-2 1,-6 1,-11 -11,3 -4,1 -13,-1 0,6 1,5 -1,9 -3,-2 -6,-3 -9,-5 -3,-2 -5,-4 -9,-3 -10,0 -16,3 -20,9 7,0 10,1 15,4 5,3 11,1 14,6 -11,0 -22,-3 -16,10 6,6 12,-8 18,12 5,20 18,6 28,-1l8 -4c7,-5 5,-4 14,-4l9 12c1,2 0,1 1,3 4,12 6,13 4,28 0,4 2,4 0,10 -1,7 -2,4 -1,11 0,9 0,1 -2,9 13,5 3,8 14,7 -3,14 0,10 6,18 -6,2 -1,-1 -3,4 0,0 0,1 -1,1l0 2c0,0 -2,2 -2,3 10,5 7,8 7,22l-1 0c0,-11 2,-14 -4,-18 1,8 1,12 1,22l-4 -1c0,0 -1,0 -1,0 -2,-1 -2,-3 -4,2l-4 0c0,-5 0,-6 -1,-10l-2 5c0,1 0,4 0,5 -7,0 -6,1 -12,2 0,-14 7,-21 8,-31 -16,18 -9,25 -13,31 -3,4 -6,0 -6,-4 0,-1 1,-6 2,-9 0,-5 1,-4 -2,-6 0,8 -3,10 -3,20 -4,-1 -3,0 -4,-4l-2 6c0,0 -7,0 -7,0 -4,-1 1,1 -2,-1 -8,-6 5,1 -2,-2 -3,5 -2,4 -9,5 -5,1 -9,2 -13,2 -1,-4 -1,-4 -2,-7 -9,2 2,10 -12,9 -7,0 -1,-7 -6,-14 -4,-6 -19,-7 -19,18 -16,0 -24,4 -40,4 -1,-4 -3,-7 -8,-7 -7,1 -8,8 -14,10 -7,3 -16,2 -23,2 0,-13 0,-14 -5,-22 -17,0 -18,11 -18,27l-7 0c0,-6 1,-12 -6,-14 0,6 -1,8 -1,16l-5 0c0,-13 -1,-43 -5,-52 -6,-2 -10,-3 -14,2 -8,8 -4,23 -4,32 1,7 0,14 0,21 -4,2 -6,1 -10,3 2,8 0,7 7,7 -2,5 -1,7 -4,12l-2 7c-4,-3 -3,-5 -8,-6l19 27c-11,-1 0,-1 -8,-7 0,8 2,7 -3,10 -1,-4 -2,-9 -5,-11 -1,12 -4,1 -8,17l-7 -6 4 12c-4,0 -9,-3 -13,-4 2,7 2,1 6,7l-7 0c0,-8 1,-9 1,-15 -3,3 -5,8 -5,13 -4,-1 -6,-3 -11,-4 0,-6 0,-14 -4,-17 0,7 1,8 2,14 0,8 -1,9 -2,15l-6 1c0,-6 1,-4 2,-10l-5 16c-6,-2 -7,-5 -7,-12l-4 6 -2 -7c-3,2 -2,3 -4,3 0,-17 4,-18 7,-31 -6,4 -7,7 -10,15 -1,4 -3,18 -3,23l-2 -5c-2,-2 -1,-1 -2,-1l-2 -1c0,-8 1,-10 2,-16l-3 0c0,6 -2,7 -2,14 1,8 2,8 2,16 -4,-6 -3,-17 -10,-19 4,8 3,12 3,24 -5,-4 -2,1 -3,-6 -1,-2 -1,-5 -2,-7 0,0 0,0 0,1 0,0 -1,0 -1,0 0,1 0,2 -1,2 0,3 0,4 -1,6l-5 9c-4,-13 2,-13 3,-24 -10,6 -9,14 -9,29 -10,0 -3,-1 -10,-6l0 6 -6 -5c0,7 0,6 -2,11 -9,-2 -9,-8 -15,-4 -8,6 6,-1 -2,2 -2,-8 -1,-13 -1,-23 -6,4 -2,3 -5,11 -4,8 4,-8 -2,2 -3,4 -1,3 -1,6 0,6 0,5 -1,10l-7 0c0,0 -2,1 -2,1l-3 5c-2,-11 -9,-24 -17,-29 0,12 11,14 11,33 0,0 0,0 0,0 -2,5 -4,-8 -4,4 -4,-3 -2,1 -3,-5 -5,1 -6,10 -9,-9 -1,-5 0,-4 0,-12 -3,3 -5,7 -5,13 -1,10 2,10 3,18 -7,-5 -3,-10 -11,-12 2,-8 9,-17 4,-26 -5,-11 -19,-13 -4,-48 7,-19 24,-55 33,-70 13,-20 27,-21 31,-37l3 0c1,4 4,4 4,4l2 1c6,3 8,3 16,-1l3 -1c4,-3 6,-5 7,-9 -15,-4 -8,0 -16,2 0,0 -4,0 -4,0 0,0 -1,0 -2,0 -5,-1 -3,-2 -11,-2 1,-18 7,-18 19,-26 15,-11 -10,-18 43,-23 12,-1 27,-3 37,-10 7,-6 3,-10 7,-16 6,-9 25,-1 36,0 15,1 21,-4 32,12 13,19 40,6 47,-3 6,-7 3,-10 7,-17 8,3 8,21 23,7 12,-12 4,-15 4,-33l-13 0c2,-7 5,-7 13,-7 10,0 8,-1 14,-7 29,-30 38,-12 57,-26 6,-5 5,-5 14,-7 16,-4 13,1 15,-6l-16 0c4,-6 11,-9 13,-16 -5,1 -4,2 -8,6 -3,2 -7,5 -9,7 0,-15 6,-15 10,-21 2,-3 2,-3 3,-7 -6,2 -15,14 -17,18 -3,5 -1,4 -2,9 -3,12 -18,15 -32,17 5,-20 6,-18 22,-22 7,-2 5,-3 10,-5l0 -2c-8,0 -14,2 -22,2 1,-17 19,-21 34,-21l0 -3c-4,0 -9,0 -13,0 -5,0 -11,2 -13,2 -4,0 -4,-2 -3,-8 0,-8 4,-6 -2,-10l-4 28c-1,4 -3,7 -5,11 -1,2 -2,3 -3,5l-4 5c-1,-3 1,-2 -3,-3 -5,10 -15,16 -24,24 -3,2 -6,5 -9,7 1,-5 8,-15 11,-18 6,-6 15,-8 18,-13 -4,1 -9,2 -12,3 6,-22 -2,-12 11,-21 6,-5 8,-14 10,-22 -5,3 -3,4 -6,8 -12,20 -19,2 -19,28 -11,-3 -4,-18 -4,-29 -4,3 -5,10 -8,14 -5,-3 -9,-8 -16,-11 4,11 30,23 15,45 -2,2 -3,4 -5,7l-4 7c-1,-10 -3,-11 -2,-20 2,-7 7,-19 2,-22 -2,9 -7,14 -7,26 -7,-2 -9,-9 -14,-13 1,9 6,8 8,16 -6,10 -15,3 -16,16 8,0 11,-2 19,0 2,-4 2,-3 2,-8 3,2 3,0 3,7 -1,9 -6,18 -15,20 0,-18 -12,-12 -14,-21 0,-1 1,-10 1,-15 0,-11 -2,-7 -6,-13 1,-16 16,-28 22,-39 5,-11 4,-12 4,-27 0,-10 4,-17 5,-26 -1,1 -1,1 -2,3 -10,18 -5,56 -25,61 0,-6 -2,-15 -3,-23 -1,-6 -2,-15 -2,-23 -4,3 -3,1 -3,8 -1,12 2,22 3,32 -7,-4 -12,-12 -19,-16 3,14 21,16 16,33 -2,4 -2,6 -3,11 -3,10 2,12 -9,15 -5,1 -4,1 -9,4 0,14 6,24 11,36 3,8 -6,6 -15,6 -4,0 -8,0 -12,0 -8,0 -5,0 -11,2 -15,4 -23,-6 -38,-8 -9,-2 -11,0 -10,-13 0,-8 2,-14 10,-14 -6,-26 36,-9 37,-28 0,-3 0,-1 0,-5 0,-3 1,-2 1,-7 0,-11 -7,-11 -9,-20 4,-5 7,-8 12,-11 3,-1 3,-2 6,-3 0,-19 -3,-12 6,-23 8,-11 -9,-30 -6,-47 2,-10 9,-10 11,-19 6,1 10,3 16,4 -4,-6 -8,-6 -13,-13 1,-8 3,-17 6,-23l26 17c-1,-8 -8,-9 -9,-18 6,-3 16,-4 25,-3 4,0 18,6 20,8 -9,1 -11,7 -14,13 4,1 4,1 7,2l11 -11 1 17c4,0 4,0 7,1 4,-8 1,-14 -3,-22 13,0 19,1 30,4 14,4 11,7 20,15 13,12 37,-4 54,-4l0 -2c-4,0 -11,0 -15,1 -13,1 -33,3 -41,-9 18,-2 34,-2 55,2 9,1 18,1 27,-3 6,-3 13,-9 17,-15 -14,1 -18,12 -41,9 -8,-1 -10,0 -12,-6 6,-2 22,-6 26,-8 1,6 0,4 2,8 3,-3 4,-4 8,-6 5,-3 8,-3 5,-9 11,0 26,-4 38,-4 -4,-5 -25,-3 -32,-3 1,-6 10,-18 13,-23 8,0 12,-2 19,-2 -6,-7 -15,2 -14,-6 0,-5 6,-7 6,-15 -13,8 -21,41 -42,47 -9,2 -16,5 -26,5 4,-7 10,-12 13,-19 -21,5 -17,22 -45,22 1,-1 1,-1 1,-1 0,1 1,0 2,-1 2,-1 0,1 3,-3 -5,-1 -11,-1 -16,2 -4,2 -4,3 -10,3 -2,-3 -2,-4 -3,-8 -8,0 -11,-1 -20,-1 1,4 -1,0 2,2 4,4 4,5 11,5l0 3c-6,0 -11,0 -17,1 -6,1 -8,2 -15,2 2,-9 14,-13 20,-19 -7,1 -32,15 -51,6 2,-5 25,-41 34,-46 20,-11 4,-6 24,-17 6,-3 22,-12 28,-12 -5,-8 -10,-1 -14,-8l12 -9c4,-4 3,-1 7,-5 12,-12 6,0 11,-8 -5,-1 -4,-2 -10,-2 18,-27 20,4 53,-25 12,-10 30,3 60,3 -1,9 -10,13 -6,17 2,3 4,0 8,-2 7,-6 7,-3 6,-8 -5,-25 1,-5 -13,-13 -8,-5 -15,-9 -28,-9l0 -1c7,0 10,-2 18,-2l0 -2c-11,-3 -31,-4 -41,0 -6,2 -7,4 -11,7 2,-7 2,-2 0,-6 -1,-1 -3,-4 -4,-6 2,-4 5,-9 6,-14 -2,2 0,0 -2,2 -3,4 -4,5 -6,9 -6,0 -4,-1 -10,-1 2,5 4,7 -3,9 -5,2 -11,2 -14,-1 -8,-9 24,-29 29,-33 4,-3 14,-13 14,-19 -3,3 -8,7 -12,11 -5,4 -9,7 -14,10l-15 10c-7,2 -5,-9 -6,-16 -1,0 -1,0 -1,1 -1,8 -4,7 -2,26 2,22 -4,26 -19,40l-16 15c-2,-5 0,-3 -6,-4 2,-3 4,-6 6,-9 3,-3 6,-5 9,-7 7,-5 9,-14 11,-23 -5,1 -10,10 -21,21 -4,5 -6,6 -11,10 -6,4 -7,7 -16,7 4,8 -4,-6 2,1 4,6 -1,5 -3,15 -1,6 -4,16 -5,21l0 -2c-1,0 -1,0 -1,-1 0,0 0,0 0,-1l-3 -14c-5,0 -5,0 -6,5 -3,10 2,21 2,32 -22,15 -38,43 -34,23 1,-6 1,-5 -1,-10 -7,1 -2,0 -5,3 -4,3 -5,11 -7,16 -3,8 -5,15 -11,19 -3,-2 -11,-11 -12,-14 -3,-7 1,-15 3,-22 -6,1 -8,7 -9,14 -4,14 5,26 -4,39 -4,5 -7,10 -13,12 -4,-18 1,-14 6,-26 10,-20 -9,-36 19,-48 7,-3 23,-7 24,-13 -14,0 -29,3 -38,13 -6,7 -7,19 -10,29l-4 9 -3 -12c-1,8 -9,20 -12,29l-2 0c-1,-6 -1,-3 -1,-8l6 -25c5,-12 12,-15 22,-20 -1,-9 -4,-7 -4,-16 4,-7 20,-21 29,-24 13,-4 7,-1 13,-13 8,-15 28,-28 44,-34 6,-3 13,-5 18,-8 6,-2 13,-5 21,-6l0 -2c-21,0 -34,0 -47,9 -16,11 -4,-11 1,-16 14,-14 22,-24 44,-27 29,-4 28,-9 44,-13l-40 4c2,-5 6,-6 10,-9l36 -21c8,-5 16,-8 27,-11 9,-1 22,-4 33,-4l0 -2c-13,0 -24,0 -37,2 -13,2 -21,6 -34,6 2,-3 2,-4 4,-8 2,-3 3,-3 5,-6 4,-3 10,-10 12,-13 -8,2 -20,15 -25,21 -6,5 -6,7 -9,14 -3,6 -6,10 -13,11l-3 -4 4 -3c0,0 0,0 1,0 0,-8 1,-13 8,-13 -2,-10 -4,-4 -1,-16 -10,2 -12,14 -12,23 -5,-1 -4,-2 -7,2 3,-33 37,-34 57,-52 5,-5 10,-7 15,-11 6,-5 10,-9 17,-11 16,-5 35,2 50,-2 0,0 -1,-1 -1,0 0,0 -1,-1 -1,-1 0,0 -1,0 -1,0 0,0 -1,0 -1,0 -4,-1 -2,0 -6,-2 -10,-5 -5,-9 -27,-14 1,-12 14,-18 17,-29 -8,5 -15,16 -21,23 -5,5 -4,4 -12,4 1,-3 8,-8 11,-10 3,-2 4,-3 6,-5l6 -7c-8,2 -19,13 -26,18 2,-9 8,-19 8,-29l-13 24c-5,-1 -2,-1 -7,-2l0 7c-8,-2 -9,-11 -16,-15 -2,-1 -5,-1 -7,-3 1,-16 25,-22 29,-31 -12,2 -33,14 -36,27l-12 0c1,5 4,6 7,9 0,6 -2,12 -3,19l-3 0c-1,-6 -7,-12 -11,-15 3,13 12,23 12,40 1,7 -8,12 -13,22 -4,7 -12,11 -17,18 -3,3 -5,8 -8,10 -2,-3 -3,-4 -5,-7 1,0 1,-1 1,-1l13 -16c5,-4 12,-10 14,-17 -8,2 -13,9 -18,14l-7 8c-6,6 -15,20 -17,29l-3 0c0,-9 2,-15 3,-23 -11,1 -2,6 -13,7 0,-8 -2,-13 -5,-18 -12,-20 8,-27 21,-46 -14,4 -18,18 -26,21 -5,-9 0,-17 5,-26 4,-8 9,-15 14,-22 4,3 2,-1 2,6 4,-1 5,-2 8,-3 4,-2 1,-2 8,-2 0,0 1,-2 1,-2 0,0 0,-1 0,-1 0,-6 1,-7 6,-10 5,-3 -1,-2 6,-3 -5,-7 -12,3 -18,6 0,-5 1,-5 -1,-10 -1,-4 1,0 -1,-2l-5 -2c-5,-2 -4,-2 -9,-2 6,9 6,19 -5,26 0,-8 3,-12 3,-20l-3 0c-1,12 -13,40 -14,44 -5,-2 -6,-5 -8,-9 -1,-1 -6,-8 -6,-10 -2,-4 2,-23 4,-26 -6,1 -5,3 -7,9 -1,5 -2,8 -4,12l-21 -20c1,7 2,6 6,10 2,3 4,6 7,9 4,5 19,22 21,27l0 19c-2,7 -1,0 -4,5 -2,3 -2,9 1,12 5,9 10,2 11,21 1,26 13,18 -2,50 -2,5 -3,7 -5,11 -3,4 -5,8 -8,10 0,-23 -7,-51 -5,-63 1,-8 5,-11 7,-17 -7,5 -10,10 -13,18 -3,9 -1,18 1,26 -8,-6 -12,-19 -20,-25 4,16 21,25 24,61 1,10 -5,17 -11,24 -3,4 -4,6 -10,7 -1,-5 -3,-17 -3,-22 -13,-6 -6,-3 -13,-16 -10,0 -10,2 -13,9 1,6 5,7 7,13z"/>
    <path class="fil2" d="M1118 546c5,-1 6,-2 11,-4 10,-4 17,-6 28,-7 3,0 6,-1 7,-1l12 0c3,0 3,0 7,1 7,0 9,0 16,2 9,1 19,4 29,7 0,11 4,21 9,28 3,5 12,20 16,22 2,-2 9,-16 10,-20 8,-18 -7,-24 28,-33 65,-16 86,14 105,19 -3,-16 -37,-55 -57,-65 -13,-8 -22,-9 -38,-9 -6,0 -7,7 -8,12 -4,13 -19,33 -30,35 5,-7 7,-4 7,-18 0,-12 -8,5 -22,5 -4,0 -9,-12 -10,-17 -15,10 -2,23 -1,26 -9,-6 -19,-22 -19,-36 0,-6 1,-3 1,-9 -17,-4 -27,-3 -45,6 -14,7 -21,15 -31,25 -5,4 -24,27 -25,31z"/>
    <path class="fil2" d="M812 620l0 1c0,0 0,0 0,-1zm-11 -95c0,9 -2,2 2,12 12,26 4,30 3,44 10,0 9,1 9,16 0,17 -3,18 -9,19 0,12 3,5 6,14 1,3 4,13 4,17 6,-2 4,-2 8,-6l12 -6c7,-2 4,2 9,1 8,-3 -2,-1 3,-6 1,-1 4,-3 5,-3 23,-12 18,-2 28,-2 8,0 12,-25 12,-28 -9,1 -4,4 -12,-1 1,-8 4,-5 14,-16 6,-6 9,-9 21,-9 1,-11 8,-10 14,-18 6,-10 10,-8 24,-8 -5,-7 -5,-4 -14,-5 -22,-2 -33,9 -50,24 -2,2 -2,2 -5,4l-16 13c-6,6 -1,8 -8,10 0,-11 -3,-14 0,-33 1,-9 0,-6 7,-6 -1,-9 -1,-2 -7,-8 -3,-2 -5,-7 -8,-10 -21,-24 -26,-35 -67,-35 2,6 4,1 10,10 2,3 5,11 5,16z"/>
    <path class="fil2" d="M1022 869c0,5 -1,10 -3,14 7,1 6,0 6,15 0,7 -3,6 -6,10 2,6 0,-1 2,3 2,4 1,-1 3,5 1,2 2,8 2,11 5,-2 5,-3 10,-6 6,-4 5,-3 9,0 2,-3 1,-2 2,-6 4,0 3,0 7,-2 14,-6 4,-1 19,-1l6 -19c-7,1 -3,2 -9,0 2,-6 13,-13 19,-16 4,-1 14,-12 17,-17l12 0c-2,-5 0,-4 -12,-4 -14,0 -19,6 -27,13 -3,2 -3,2 -6,4 -2,2 -2,3 -5,5 -10,8 -6,7 -11,11 -1,-5 -2,-6 -1,-11 0,-4 1,-7 1,-14 2,-1 2,0 2,0l2 -1c-2,-4 -7,-8 -10,-12 -13,-17 -19,-23 -45,-23 3,3 9,5 10,17 2,15 6,16 6,24z"/>
    <path class="fil2" d="M1283 729c1,-3 8,1 2,0 -1,0 -2,4 -2,0zm-7 -3c0,-3 8,1 1,1 0,0 -1,3 -1,-1zm-9 3c-21,0 -26,4 -37,15 -9,9 -16,22 -19,35 5,-2 4,-4 14,-11 0,8 -1,8 0,14 10,0 11,-1 16,-7 3,-3 7,-10 10,-11 5,-3 5,1 12,-10 3,-5 6,-10 9,-15 2,2 5,3 8,3 0,12 -4,19 -4,31l4 0c0,7 -4,17 3,32 8,-2 4,-5 12,-7 0,7 1,7 1,15 10,-2 12,-30 12,-39 0,-17 -6,-28 -16,-35 1,-8 3,-13 3,-23 -6,0 -7,1 -10,3 -1,-7 1,-4 -3,-7 -6,2 -12,12 -15,17z"/>
    <path class="fil2" d="M1164 1040l0 0zm0 0c6,-1 10,-4 17,-3 6,1 10,5 12,9 17,-8 22,5 31,7 -1,-13 -9,-20 -19,-35 -28,0 -18,-4 -31,-4 2,-7 1,-6 1,-10 1,-6 2,-4 2,-11 -6,2 -4,7 -12,4 -6,-1 -4,-5 -11,-7 0,15 4,24 -23,9 -15,-7 -7,-8 -23,-5 -10,2 -21,2 -31,17 3,0 28,-6 32,10 9,0 10,-3 18,2 3,2 4,3 6,6 4,4 0,3 7,5 -5,7 -6,2 -8,9 10,0 9,4 15,3 11,-2 2,-3 17,-2l0 -4z"/>
    <path class="fil2" d="M1013 664c14,0 9,9 19,12 26,9 8,9 21,13 8,2 1,-2 12,6 0,1 4,1 4,8l0 2c-1,4 10,8 11,8 3,0 4,-3 10,-4l1 2c0,1 0,0 2,2 7,-11 0,-4 10,-10 6,-4 4,-8 10,-10 4,-2 5,-1 9,-2 5,-1 1,-2 6,-4 6,-3 3,0 7,0 8,-1 1,-3 7,-3 9,0 3,4 10,-1 4,-3 2,-3 9,-4 -5,-11 -15,-15 -27,-15 -6,0 -4,6 -21,17 -1,-4 1,-2 -2,-4 -10,7 -11,1 -11,1 -5,-3 3,0 -4,-2 -3,4 -4,2 -4,8 -9,-4 -14,-4 -25,-16 -5,-7 -7,-13 -28,-13 -4,0 -10,1 -15,2 -11,3 -10,4 -11,7z"/>
    <path class="fil2" d="M1240 893c12,0 17,4 17,16 0,0 23,-8 25,10 10,-2 4,-4 17,-1 1,5 2,5 2,12 9,-8 -3,-6 13,-5 5,0 1,-1 7,-1 2,0 2,3 6,6 0,-17 11,-11 19,-11 4,-18 21,-9 24,-8 3,-11 4,-15 18,-15 -1,-10 -24,-24 -45,-4 -5,5 -13,11 -19,14 1,-5 1,-3 0,-8l-7 1c-8,2 -2,-1 -11,-1 -3,4 -2,2 -1,8 -8,-4 -11,-8 -18,-14 -4,-4 -14,-12 -21,-12 -10,0 -23,8 -26,13z"/>
    <path class="fil2" d="M974 1022c-7,0 -7,1 -13,2 0,6 -2,4 0,9 -4,0 -10,1 -16,1 -13,2 -27,11 -27,26 0,7 1,3 2,3l21 -4c3,0 7,3 10,3 5,0 16,-13 31,1 3,3 -2,1 4,3 2,-5 0,-4 0,-10 16,11 3,-2 3,-15 0,-4 5,-6 7,-8 7,-7 -1,-7 9,-16 5,-4 2,0 4,-5 6,-11 5,-1 7,-10 -5,-1 -2,-1 -6,-2 -7,-3 -15,0 -20,2 -9,4 -14,11 -16,20z"/>
    <path class="fil2" d="M880 825c-4,1 -1,-5 0,-2l0 2zm-9 2c1,-7 -1,-3 3,-6 -1,2 -1,5 -3,6zm-54 4c10,0 16,-2 24,-2l0 11c8,-2 12,-7 20,-9 0,8 -3,10 2,9 3,0 8,-4 12,-5 3,4 5,7 11,7 1,-19 8,1 8,-15 6,1 7,2 11,5 4,-1 2,3 2,-4 13,1 17,9 32,9 -3,-4 -8,-6 -12,-9 -5,-4 -8,-8 -12,-12 -14,-20 -8,-21 -13,-32 -5,4 -4,7 -7,17 -3,6 -5,11 -9,14 -2,-5 -1,-3 -5,-6l-4 6c0,-6 0,-3 -2,-7 -3,1 0,0 -2,2 -4,3 4,-1 -3,2 0,-5 -1,-12 0,-17 0,-7 2,-7 3,-15 -3,2 -19,23 -25,28 -5,4 -9,7 -14,12 -9,6 -15,7 -17,11z"/>
    <path class="fil2" d="M780 934c0,4 -1,3 -1,6 1,6 2,-1 2,6 0,5 -2,0 -3,8 5,1 5,0 5,7 0,6 -5,5 -11,5l0 4c15,1 13,3 12,13 4,-1 3,0 4,-4 16,0 10,1 16,5 2,1 3,1 5,2l4 2c4,2 -1,0 4,3 6,3 7,-2 8,7l4 0c0,-8 2,-7 -1,-15 -3,-9 -4,-5 -11,-8 4,-5 2,-2 8,-5 -2,-4 3,-2 -5,-3 1,-7 2,-3 0,-7 -7,1 -4,3 -14,3 -6,-25 6,-11 -16,-29 -3,-2 -6,-6 -10,-6 -7,0 -3,1 -3,2 0,2 3,2 3,4z"/>
    <path class="fil2" d="M655 980c0,10 -1,6 -4,12 3,2 3,5 4,10 6,-2 18,-9 19,-9 8,-3 13,6 13,-11l-4 -3c6,-2 2,-2 8,-5 15,-8 6,-13 21,-13 -9,-12 -33,12 -38,18 0,-18 1,-10 3,-18 -13,-8 -7,-18 -34,-18 7,9 8,12 9,27 1,10 3,5 3,10z"/>
    <path class="fil2" d="M651 1046c1,4 1,1 7,4 6,2 3,1 6,7 4,0 8,0 10,1 5,2 4,3 3,8 20,2 3,13 9,15 5,2 -1,-3 10,-1l1 6c3,-2 5,-3 8,-5 6,-6 6,-5 15,-5 0,-6 1,-10 13,-10l-1 -6c4,-1 4,-2 8,-2 5,-2 3,0 8,-2 -9,-12 -14,-1 -29,-5 -3,5 -3,4 -5,9 -2,5 -1,4 -5,7 -1,-1 -1,1 -1,-2 0,0 1,-3 1,-3 -9,2 -2,3 -10,0l-3 -1c0,0 0,0 0,0 -6,0 -1,-15 -12,-14 -3,1 0,1 -3,1 -1,0 -27,-7 -30,-2z"/>
    <path class="fil2" d="M536 992c12,0 11,3 14,10 8,0 8,0 14,2 1,3 1,2 0,7 10,0 5,0 11,4l-3 10c10,0 3,-4 9,-1 4,2 1,3 3,7 16,-11 7,-11 23,-10 1,-9 4,-10 13,-10 0,-2 -5,-10 15,-10l0 -3c-15,-4 -4,-4 -20,-1 -7,1 -5,-2 -10,0 -4,3 -2,10 -10,15 0,-2 0,1 0,-2 0,0 0,-3 0,-4 -5,2 -1,2 -4,2 -6,2 -2,-3 -10,-2 0,0 0,1 0,0 -3,-11 -2,-8 -7,-16 -8,3 -1,5 -10,2 -5,-2 -27,-7 -28,0z"/>
    <path class="fil2" d="M751 1141l0 1c0,0 0,0 0,-1zm-45 -4l0 3c19,0 1,2 26,0l-2 9c9,0 10,-2 11,5 17,-4 2,5 13,-2 5,-3 -2,0 4,-2 2,-1 2,-1 6,-1 -2,-6 -3,-3 -2,-6 5,-1 5,-2 10,-2l0 -4c11,0 11,5 19,7 -1,-7 -13,-21 -27,-21 0,7 -2,5 -3,11 -4,-1 -5,-6 -7,2 -4,-3 -2,-1 -3,-5l-3 6c-10,-1 -8,-8 -12,-16 -5,3 -8,6 -13,10 -5,3 -11,6 -17,6z"/>
    <path class="fil2" d="M514 1301c-9,-4 8,5 -2,-2 -3,-2 0,-1 -3,-1 0,0 -2,0 -3,0 0,0 0,0 -1,0 0,0 0,0 0,0 -5,0 -1,-1 -6,1 0,0 0,0 0,0 -4,2 -4,-1 -5,-4 -11,0 -14,-1 -19,6 1,5 5,8 10,9 1,11 -1,-2 11,7 1,1 0,0 2,1l7 2c0,0 1,0 1,0 9,0 2,0 8,-5 7,-5 6,2 13,-4 5,-6 14,-8 16,-14 -11,-6 -21,-8 -29,4z"/>
    <path class="fil2" d="M1100 1652c8,2 6,3 9,9 11,-5 7,2 14,3 5,1 6,-1 8,6 9,-3 5,-3 14,0l0 -5 11 0c1,-9 7,-5 11,-4 2,-6 2,-7 9,-7 -1,-14 -21,-10 -29,2 -1,0 -1,0 -1,0l-3 -1c0,-1 -1,-1 -1,-1l-10 0 0 4c-5,-4 -17,-21 -29,-10 -3,2 -1,0 -3,4z"/>
    <path class="fil2" d="M665 1150c0,10 3,0 -2,11 -4,8 -11,12 -11,17 0,5 1,2 1,8 5,-1 5,-2 8,-4l7 -4c6,-5 3,-9 15,-6l0 -7c1,0 1,0 1,0 -8,-2 -5,-4 -5,-12 0,0 -1,-1 -1,-1 0,-13 4,-17 -6,-12 -3,1 -7,6 -7,10z"/>
    <path class="fil2" d="M861 1060c0,7 -1,-1 -1,4 0,13 1,4 -3,11 -1,2 -1,-1 -1,2 0,0 1,4 1,5 15,0 6,0 18,8 8,5 3,6 11,6 1,-4 3,-6 -1,-13 -6,-8 -6,-2 -9,-10 0,-2 0,-2 -1,-4 -1,-2 -2,-1 -2,-3 0,-7 3,-5 -2,-11 -3,-4 -5,-6 -10,-6 -2,5 0,8 0,11z"/>
    <path class="fil2" d="M648 1224c0,7 -1,-1 -1,4 0,3 4,8 -5,11l1 3c1,1 1,1 0,4 15,0 8,2 15,7 3,1 4,1 7,3 3,3 3,4 6,6 3,-6 3,-9 0,-15 -2,-3 -2,-3 -5,-5 -7,-7 0,1 -4,-9 -3,-4 -1,1 -2,-3 -2,-8 5,-9 -12,-18 -3,6 0,9 0,12z"/>
    <path class="fil2" d="M505 1120l2 8c3,-2 3,-3 6,-5 5,-4 4,-2 7,-5 6,-4 2,-9 15,-6 0,-4 0,-4 1,-7 -9,-2 -4,-7 -4,-26 -13,1 -13,9 -13,13 -1,2 0,1 -1,4l-3 8c-1,2 0,0 -1,2 0,0 -2,2 -2,2 -4,4 -7,5 -7,12z"/>
    <path class="fil2" d="M759 1716l-4 3c6,0 6,1 6,7 4,-3 1,-3 6,-2 7,1 19,13 19,6 0,-7 -4,-6 -5,-10 0,0 0,0 0,0l0 -2c0,-3 -1,0 -1,-6 -5,2 -4,2 -9,1 1,-7 3,-5 -2,-10 -1,-1 -8,-6 -9,-6 -5,-2 -2,0 -1,19z"/>
    <path class="fil2" d="M556 1207c0,-9 -3,-19 -11,-22l-1 16c13,3 4,7 12,14 0,1 1,1 1,1 0,0 0,1 1,1 0,0 1,1 1,1 2,2 1,2 3,3 1,-6 1,-7 7,-7 0,-10 1,-13 9,-15 -1,-5 -2,-2 -2,-6 -1,-3 0,-6 0,-7 -1,-1 3,-1 -1,-2 -2,0 -2,1 -6,6 -5,7 -2,6 -4,14 -1,3 0,1 -1,3 -3,3 0,-2 -8,0z"/>
    <path class="fil2" d="M990 1416c-7,0 -2,-2 -6,3 7,3 8,-1 6,7 9,-2 4,-3 15,2l10 5c0,-13 -4,-7 -4,-14 0,-14 -5,1 -9,-7 -2,-4 1,-2 -3,-7 -2,-3 -7,-6 -12,-7 2,10 1,9 1,13l2 5z"/>
    <path class="fil2" d="M582 1131c-6,3 -1,-3 -5,3 6,3 7,-1 5,7 7,-2 3,-4 11,1 14,7 15,8 14,2 -2,-8 -3,-2 -4,-11 0,0 -1,0 -1,0l-1 -5c-7,2 -5,6 -7,-1 -2,-5 -3,-12 -15,-13 2,5 1,4 1,8 0,9 0,1 2,9z"/>
    <path class="fil2" d="M597 1266c10,-2 6,-4 16,-4 1,-17 6,-6 10,-16 0,0 3,-2 -1,-2 -1,0 -2,0 -2,0 -2,1 -3,1 -5,2 -5,4 -2,4 -8,6 3,-7 2,-7 -2,-11 -5,-5 -4,-5 -12,-5 4,20 2,12 4,30z"/>
    <path class="fil2" d="M1034 1295c8,-1 6,-4 16,-4 0,-2 -1,-11 11,-15l0 -3c-12,0 -9,6 -17,8 4,-9 -6,-16 -15,-16 2,7 4,14 4,22 0,5 0,3 1,8z"/>
    <path class="fil2" d="M1039 1212l0 11c9,-1 7,-5 16,-5 3,-12 -3,-3 13,-17 -12,0 -11,4 -18,9 0,-7 2,-7 -3,-12 -4,-5 -6,-6 -13,-6 3,5 5,16 5,20z"/>
    <path class="fil2" d="M1087 1530c5,-2 7,-4 15,-4 1,-6 1,-3 0,-9l13 -9c-11,-2 -10,5 -19,8 3,-12 -5,-16 -16,-16 8,12 2,21 7,30z"/>
    <path class="fil2" d="M1208 1571c5,1 3,1 7,3 5,3 7,3 10,9 4,6 4,2 6,7l15 -10c1,0 1,0 1,0l3 -3c1,0 3,1 7,-5 -9,-2 -17,-2 -17,6 -5,-1 -5,-1 -10,-1 -1,-8 -1,-6 -11,-8 -3,-1 -10,-3 -11,2z"/>
    <path class="fil2" d="M902 1642c3,0 12,-2 14,-4 6,-7 -4,-1 3,-8 1,-2 5,-3 7,-4l0 -3c-13,0 -5,3 -14,6 0,-9 -6,-14 -15,-15 5,19 3,23 5,28z"/>
    <path class="fil2" d="M720 1807l13 0 0 5c8,0 3,-2 5,3 11,0 4,-3 13,-3l0 -5c12,-1 4,-1 14,2 -3,-6 -5,-10 -13,-12 -6,5 1,2 -6,5l-7 2c-1,-3 -1,-3 -1,-7 -5,1 -6,2 -9,4 -5,3 -6,3 -9,6z"/>
    <path class="fil2" d="M986 1839c-7,-10 -17,-8 -23,-8 -3,-6 2,-4 -4,-6 -9,-1 0,7 -7,0 -3,-3 -3,-7 -18,-7 6,9 10,8 15,12 11,9 2,5 11,6 3,0 3,0 8,1 4,1 14,2 18,2z"/>
    <path class="fil2" d="M694 1844l0 -3c-5,0 -12,-1 -16,0 -7,1 -2,1 -7,1 -4,1 -1,0 -5,0 -9,-1 2,-1 -5,0 -3,1 -3,0 -5,0 -5,-2 -11,-1 -17,-1 1,5 0,2 4,4l16 5c4,1 2,2 6,2 7,0 -3,-3 13,-4 8,-1 8,-4 16,-4z"/>
    <path class="fil2" d="M832 1585l14 13c2,2 0,3 5,3 3,0 7,-4 10,-5 6,-3 6,-1 12,-5 -7,-9 -8,0 -18,0 -10,0 -9,-7 -13,-7 -5,0 -6,1 -10,1z"/>
    <path class="fil2" d="M922 1556l8 4c1,1 1,1 2,1 4,3 -1,5 15,-2 5,-3 7,-4 8,-8 -8,-5 -11,1 -19,1 -5,0 -13,-7 -14,4z"/>
    <path class="fil2" d="M693 1831c4,-1 4,-2 7,-5 5,-3 3,-2 9,-4 -3,-11 -2,-2 -2,-13 0,-6 -5,-6 -9,4 0,3 0,2 -1,5 -3,6 -4,2 -4,13z"/>
    <path class="fil2" d="M1068 1468c5,-1 7,-4 16,-9 -2,-8 -2,0 -2,-11 0,-3 2,-3 -1,-4 -2,-1 -3,0 -4,1 -3,3 -2,7 -5,11 -2,4 -4,1 -4,12z"/>
    <path class="fil2" d="M807 1870c11,5 2,4 10,10l5 -5c0,0 0,0 0,-1 5,-8 4,-3 4,-13 -4,1 -2,0 -5,4 -1,2 -2,4 -2,8l-3 0c-1,-7 -3,-9 -7,-12 0,6 0,5 -2,9z"/>
    <path class="fil2" d="M1145 1575l-3 0c0,-6 -1,-8 -7,-10 0,11 0,6 4,12l5 5c5,-3 2,0 5,-5l4 -6c-2,-4 -2,-2 -2,-7 -4,3 -5,4 -6,11z"/>
    <path class="fil2" d="M947 1484l-3 0c-1,-7 -3,-9 -8,-10 0,10 1,7 3,10 3,4 2,4 6,7 4,-3 3,-3 9,-12 -2,-3 -1,-1 -2,-7l-2 2c-4,6 -3,5 -3,10z"/>
    <path class="fil2" d="M508 1257l7 -8c0,0 0,0 1,0 4,-7 1,0 1,-10 -9,6 -2,7 -9,11 0,-7 -2,-8 -7,-11 0,8 -1,5 3,10l4 8z"/>
    <path class="fil2" d="M973 1326c3,-3 3,-2 4,-8l-3 0c-1,4 -1,4 -1,8z"/>
    <path class="fil2" d="M633 1436c-1,-5 -2,-6 -7,-7l7 7z"/>
    <polygon class="fil2" points="456,1343 456,1342 454,1343 "/>
    <polygon class="fil2" points="643,2008 645,2008 644,2006 "/>
    <polygon class="fil2" points="884,1488 886,1488 884,1486 "/>
    <path class="fil2" d="M388 1540l0 0c0,0 0,0 0,0z"/>
   </g>
   <g id="Grupo_x0020_de_x0020_11_x0020_objetos_x0020_">
    <path class="fil2" d="M2687 1832l0 0zm9 -4l0 0zm-23 -29l10 25c2,3 4,5 4,8 -16,-4 -18,-13 -15,-27 0,-4 0,-2 1,-6zm314 -271l25 -6c0,2 0,2 0,3 0,4 1,2 2,4 8,13 -6,30 -18,49 -8,12 -8,20 -19,26 -8,-3 0,-9 3,-19 3,-9 3,-13 3,-19 0,-7 0,-10 2,-19 1,-7 2,-13 2,-19zm259 -7l0 0zm-215 -3l-6 9c-11,-1 -3,-2 -1,-5 5,-5 -4,-4 7,-4zm-180 -37c2,2 3,13 1,18 -3,-3 -5,-7 -8,-10 5,-6 2,-1 7,-8zm-53 -48l9 17c-9,-1 -12,-2 -16,-6 3,-6 3,-4 7,-11zm334 -23l0 0zm-125 -1l0 0zm125 1l4 -23c5,1 4,2 8,3 -5,10 -6,13 -12,20zm-217 -53c2,2 5,6 7,9 2,4 2,8 -3,17 -13,-2 -10,-13 -4,-26zm26 -27c-3,6 -2,6 -3,11 -1,5 -2,7 -5,12l-3 0c1,-4 0,-3 1,-6 1,-7 0,-1 2,-6 7,-10 -2,-6 8,-11zm-35 -33l0 0zm-73 -31c-3,2 2,1 -5,1 2,-1 -2,-1 5,-1zm0 0l5 -2c3,0 6,0 8,0l-13 2zm73 31c-10,-1 -23,-19 -29,-25 -4,-5 -5,-6 -5,-12 4,0 5,-1 10,-2 -2,6 1,7 2,12 5,13 10,16 20,24 2,2 1,1 2,3zm-11 -45c9,0 7,-1 15,-6 5,-3 10,-4 16,-5l-19 39c-9,-1 -14,-18 -13,-19l1 -5c1,0 1,-1 1,-1 0,-1 0,-2 -1,-3zm-98 157c-3,6 -2,11 -2,15 -14,11 -9,6 -11,12 -7,-7 -4,-7 -19,-9 -8,-1 -22,-1 -32,2l-2 3c9,0 12,1 19,1l-1 2c-19,0 -30,8 -39,11l-2 4c37,0 55,-16 64,-2 17,28 38,-3 42,25 -7,1 -6,2 -13,3 1,5 0,1 3,3 0,0 0,0 1,0 7,4 2,2 4,5l7 10c3,4 2,4 6,5 -9,7 -10,0 -20,8 7,0 18,9 22,13 15,11 2,9 16,18 7,4 7,14 8,22 1,6 4,21 3,27 -25,9 -44,-6 -50,-6 3,5 13,11 11,20 -12,0 -19,-4 -33,-4l2 -3c7,0 6,0 12,-3 4,-2 3,-1 6,-4 -10,0 -14,1 -22,1 -3,4 -4,5 -7,8 -4,0 -5,0 -7,-1 -3,-1 0,0 -2,-1l-2 -2c-5,-3 -9,-2 -15,-1l4 5c-29,0 -16,-18 -36,-23 1,6 1,5 3,10 1,3 1,6 1,10 -10,0 -16,-3 -23,-5 -14,-5 -14,-19 -16,-32 -1,-5 -1,-15 -4,-18 -4,9 0,11 -2,16 -4,9 -8,-1 -18,7 7,0 10,1 19,1 1,5 3,19 1,25 -8,0 -28,-3 -35,3 12,0 25,4 37,4 -8,9 -2,8 6,16 4,-4 2,-2 5,-8 4,2 19,6 24,8 -10,12 -36,6 -43,2 -4,-3 -4,-5 -11,-5 4,25 37,19 66,16 12,-2 20,0 30,1 -7,6 -20,10 -30,10 -11,1 -22,-1 -35,-1l0 1c18,0 34,18 55,5 20,-13 22,-20 63,-20 -4,4 -7,6 -10,10 -2,3 -5,9 -5,13 4,-1 4,-1 8,-2 2,-3 4,-5 5,-8 3,-5 1,-2 4,-8l6 11c5,-1 5,-2 9,-2 0,-7 2,-14 -8,-14 6,-5 5,-2 12,-4 16,-5 27,-10 39,-2 -6,10 -14,11 -20,20l38 -19c0,7 -3,16 -7,25 -9,7 -13,7 -21,14 7,-2 12,-4 19,-5 -2,9 4,10 2,19 -5,18 -34,38 -32,50 1,12 7,0 -6,25 1,1 1,2 2,3 5,4 7,6 8,12 -7,9 -14,10 -20,20 -3,6 -1,5 -5,12 -12,23 43,4 23,31 7,1 7,7 3,14 -9,22 -13,10 -39,20 -20,8 -19,1 -44,1 -27,0 -20,2 0,-23 7,-8 10,-10 16,-21 -4,-3 -8,-3 -12,-6 -6,-3 0,1 6,-25 5,-19 24,-21 35,-35l-14 8c-6,3 -9,6 -14,9 6,-11 14,-22 21,-34 4,-8 4,-6 1,-9 -9,17 -23,33 -32,49 -16,-5 6,-42 8,-60l0 -8c-4,9 -4,17 -10,28 -7,15 -10,17 -10,28 0,12 9,24 2,41 -8,6 -8,3 -13,12 -3,5 -7,16 -8,17 -6,11 -16,3 -27,23 -10,-2 -9,-16 -1,-28 17,-26 10,-20 15,-39 -5,2 -3,2 -5,8 -6,21 -6,16 -18,36l0 -7c0,-16 -7,-20 21,-42 6,-5 13,-7 18,-14 -9,4 -15,8 -23,13 0,-6 3,-13 0,-16 -6,12 -7,28 -21,31 15,-27 -2,-10 -4,-28 -1,-6 1,-7 -2,-10 -8,29 5,21 3,31 -1,4 -4,10 -5,15 -2,-2 -7,-3 -11,-4 2,10 20,11 14,33 -2,-2 -4,-5 -6,-8 -5,-8 -12,-15 -12,-25 -5,2 -2,0 -5,4 0,-1 0,-2 0,-1 -1,0 -1,-1 -1,-1 0,-1 0,-1 0,-3 -2,-10 0,-19 6,-32 2,-5 3,-10 5,-16 -8,5 -4,3 -6,10 -7,15 -6,7 -35,7l-1 3c15,1 32,5 23,23 -8,0 -13,-3 -22,-3l-1 3c5,2 2,3 8,5 8,2 15,2 14,11 0,4 -2,8 -3,12 -12,-1 -27,-5 -25,-16 2,-7 4,-12 3,-18 -2,-5 -2,-10 -8,-12 -4,14 9,11 -1,29 -4,-4 -5,-12 -11,-14 -2,8 4,11 5,17l-17 0c-3,11 13,-1 23,14 10,15 34,-1 46,27 3,5 1,8 10,8 9,1 13,0 11,8l-14 0c-9,18 -19,22 -14,33 6,14 12,5 24,-3 4,-2 1,-1 5,-2 -1,11 -8,17 3,25 5,5 21,8 33,2 12,-5 18,-16 32,-19 8,-2 14,0 21,-1 9,-1 30,-8 34,-1 2,4 -2,10 -1,15 0,4 5,7 9,9 9,4 21,5 32,6 46,7 15,12 28,25 22,21 -8,21 6,51 4,8 8,12 8,22 2,18 1,68 -5,87 -5,16 -10,22 -24,32 -16,12 -12,20 -15,32 -9,2 -21,16 -25,25 4,1 3,3 6,6l20 22c21,18 38,36 64,49 12,6 25,15 40,19 11,-5 7,-4 7,-8 1,0 1,0 1,-1 5,-15 25,-42 37,-54 -6,2 -8,4 -14,5 6,-8 8,-5 15,-11 0,0 0,0 -1,0l2 -7c2,-5 2,-7 -2,-8 -3,-2 -9,-1 -8,-4 0,-1 3,-5 4,-6 2,-4 0,0 2,-5 -9,0 -11,0 -17,-2 3,-6 2,-4 8,-7 15,-7 43,-9 36,-32 -3,-10 5,-12 1,-18 -7,-13 -16,-9 6,-32 14,-16 22,-16 34,-38 -11,0 -15,2 -13,-7 4,-21 -19,-8 -33,4 -5,4 -4,4 -10,6 3,-6 1,-4 3,-8 3,-5 2,-2 4,-8 3,-9 -2,-16 -1,-25 1,-12 10,-21 11,-47 1,-41 11,-31 30,-30 11,0 13,-5 24,-5 9,3 -4,28 18,19 12,-6 25,-22 36,-31 11,1 6,11 15,12 14,0 11,-16 12,-22 13,0 11,-2 23,-11 7,-5 13,-9 23,-9 -5,5 -10,6 -12,13 -2,6 -1,9 -2,15 -9,7 -21,8 -27,15 13,9 33,-12 39,-15 -5,18 9,34 -28,42 1,3 -1,3 7,2 3,-1 10,-3 12,-4 6,-2 18,-6 23,-11 15,-14 0,-24 -2,-32 8,1 23,15 23,21 0,16 -30,27 -37,36 8,0 12,-2 18,-7 6,-3 11,-8 16,-13 26,-25 23,-39 2,-48 -12,-4 -17,-6 -9,-23 11,0 10,5 18,7 10,2 7,13 23,22 6,3 12,5 17,8 0,-3 0,-1 -1,-4 -4,-9 -15,-13 -17,-24 14,0 37,-1 50,-4 -3,-4 -10,-3 -17,-3 -10,-1 -38,-4 -46,-7 -4,-2 -4,-1 -2,-7 16,-3 15,2 30,2 6,-6 20,-21 26,-24 13,-5 11,-1 29,-13 7,-5 17,-11 22,-17 -5,1 -4,1 -10,4 -4,3 -29,17 -31,13 -1,-2 5,-8 7,-11 7,-8 26,-29 30,-35l-4 0c-4,6 -10,11 -16,17l-35 36c-5,6 -11,14 -18,16 -11,4 -10,-1 2,-11 10,-8 9,-12 10,-20l14 -43c-6,3 -5,4 -12,20 -20,46 2,26 -60,64 -7,4 -14,8 -22,8 -9,1 -19,0 -26,1 -10,2 -13,4 -24,4 5,-9 14,-14 21,-20 12,-12 4,-11 10,-23 5,-5 10,-7 15,-11 11,-8 40,-30 46,-40 -8,4 -36,25 -45,32 -6,4 -11,8 -17,10 33,-44 26,-22 57,-80l-3 0c-5,8 -12,17 -17,24 -4,-1 -5,-17 -7,-25 -1,-3 -2,-5 -4,-7 -8,17 15,42 -16,66 -11,9 -27,14 -33,28 -6,15 -15,27 -31,35 -4,-1 -3,-2 -8,-3 -4,4 -6,7 -11,11 -12,0 -15,-4 -28,-3 -11,0 -22,0 -34,0 4,-7 10,-10 17,-15 6,-4 13,-9 17,-15 6,-8 5,-13 5,-18 1,-7 4,-13 8,-21l17 6c7,4 -7,13 -9,24 -2,9 10,2 16,-3 11,-9 9,-9 25,-9 4,-9 -4,-5 7,-15 4,-3 11,-8 15,-10 9,-5 24,-10 32,-17 -10,0 -18,2 -27,6 -8,3 -16,10 -23,11 9,-12 8,-15 15,-29 -7,4 -16,20 -20,26 -9,0 -7,2 -14,0l-1 3c10,3 11,8 -1,19 -7,-8 3,-17 -12,-23 -4,-1 -5,-2 -7,-5 5,-10 17,-18 26,-23 12,-6 22,0 32,-12 -3,-3 -7,-2 -14,-2 6,-8 13,-5 31,-21 6,-4 9,-8 14,-12 5,-5 9,-9 17,-8 24,4 18,9 53,2 7,-1 12,0 18,-5l-44 0c9,-9 21,-15 28,-25 -17,9 -39,36 -46,17 22,-20 43,-28 48,-32 -8,1 -6,3 -15,3 18,-17 23,-19 41,-33 14,-12 27,-23 41,-36 -9,2 -27,24 -49,35 3,-6 28,-34 36,-59 2,-7 3,-3 0,-7l-15 23c3,-8 5,-28 1,-32 -10,20 -8,37 -14,57 -5,16 -14,14 -23,23 -9,8 -12,21 -25,24l9 -20c-8,-9 9,-33 7,-46 -5,10 -10,22 -12,30 -6,-2 -12,-13 -14,-18 -3,-7 -3,-15 4,-29 -5,3 -4,2 -8,10 -8,16 -4,29 3,38 3,4 8,7 10,10 5,7 -9,33 -17,43 -10,11 -26,21 -39,24 10,-19 22,-15 36,-26 4,-4 1,1 1,-2l-3 0c-6,1 -13,4 -21,5l17 -20c4,-5 14,-16 17,-22 -7,3 -18,15 -24,20l-11 -22c-2,7 0,15 1,21 0,1 1,9 1,10 0,3 -5,9 -8,13 -23,-6 1,-46 11,-68 3,-8 5,-7 2,-10l-30 50c4,-11 11,-26 11,-30 1,-8 -1,-17 -10,-17 1,5 4,6 3,12 0,6 -2,12 -4,20 -8,22 -3,31 4,44 3,4 7,5 3,14 -6,13 -19,28 -35,29 5,-7 14,-9 14,-18 -10,5 -9,11 -19,14 -2,-12 11,-13 19,-23 -7,-5 -31,12 -34,24 -1,8 22,5 14,23 -4,2 -10,5 -15,5 -5,0 -5,-4 -7,-6 -7,3 -12,6 -19,7l-4 7c11,0 12,-2 19,0 -4,6 -6,9 -11,13 -9,0 -11,-1 -16,-4 -9,17 9,6 1,23 -4,0 -12,1 -16,2 -9,3 -7,5 -14,9 0,-13 11,-24 22,-34 10,-9 6,-6 14,-16 8,-11 7,-7 6,-16 -2,-9 3,-26 19,-28 15,-2 26,1 32,-20 -7,3 -10,8 -17,9 1,-4 4,-12 5,-15 -9,3 -11,14 -19,18 0,-6 9,-15 13,-23l12 -26c-5,8 -11,15 -16,25 0,-1 -4,-11 -4,-12 -2,-6 4,-13 8,-22 -7,5 -16,15 -17,22 -1,10 11,-1 -1,21 -14,0 -14,15 -34,9 -9,-3 -16,-8 -16,-17 0,-6 2,-11 5,-16 17,-23 34,-22 46,-13 3,-6 2,-7 -2,-10 -3,-3 -5,-4 -10,-5 -10,-3 -17,1 -28,9 -34,26 -18,45 -20,51 -11,0 -25,3 -37,9 -3,1 -3,1 -6,3 -24,14 -28,33 -33,50 9,-4 5,-9 14,-22 7,-10 11,-13 21,-17 -12,15 -33,31 -18,49 3,3 -1,2 6,3 -1,-5 -3,-7 -2,-13 1,-8 5,-10 9,-18l3 0c-1,4 1,5 3,8 7,7 21,8 31,-6 -14,3 -13,7 -22,-2 8,-16 15,-19 27,-27 12,-8 13,-7 20,-3 17,11 21,2 5,44 -5,10 -4,7 -9,17 -14,1 -25,7 -34,19 -15,18 -8,18 -28,31 -12,8 -28,8 -26,-5 3,-16 8,-18 -17,-18 1,-3 0,-3 2,-7 -9,0 -14,2 -22,6 -6,3 -14,8 -19,10 -14,6 -26,-6 -17,-18 14,-18 12,-24 29,-43 22,-25 -15,0 -22,2 13,-25 36,-42 37,-46 1,-3 1,0 0,-3l-2 -2c11,-2 21,-14 19,-18 -5,-4 -17,1 -26,3 8,-13 27,-31 42,-35 18,-6 30,1 40,7 1,-7 -8,-8 -10,-14 27,0 59,-11 85,-12l2 -3c-28,1 -62,8 -90,8 5,-7 19,-15 26,-19 18,-9 18,-1 33,-5 10,-3 18,-11 26,-19 6,-6 8,-5 14,-10 21,-17 25,-5 46,-17 5,-3 9,-6 14,-9 14,-10 8,-6 13,-6 19,-1 22,-26 49,-17 4,1 3,0 6,2 1,-7 -14,-7 -19,-8 6,-3 63,-11 71,-12l1 -3c-9,2 -22,3 -32,3 -8,0 -8,1 -16,1 -6,1 -12,0 -18,0 8,-6 36,-19 47,-25 13,-7 37,-18 47,-27 -6,2 -73,36 -88,43 11,-18 37,-20 51,-38 -7,2 -14,7 -20,8 20,-26 6,-15 20,-40l3 2c0,0 0,0 0,0l6 -2c3,-1 3,-1 4,-3l11 -8c7,-4 11,-3 17,-9 -4,0 -14,1 -18,2 -5,1 -2,0 -7,3 -7,5 0,2 -9,5 4,-5 11,-8 15,-12 -7,2 -13,6 -17,11 -5,-5 -7,-7 -17,-5l-2 3c6,1 4,2 7,6 3,4 4,4 1,9 -9,18 -5,26 -35,51 -6,6 -18,15 -25,19 6,-11 13,-19 20,-30 7,-11 14,-21 20,-32l-24 31c-27,39 -22,34 -50,59 -20,17 -20,16 -32,16 0,-5 1,-4 -2,-7 -15,3 -20,15 -33,21 -5,-5 5,-5 -3,-8 -15,20 -43,26 -55,31 9,-11 45,-27 54,-38 -7,1 -47,26 -56,31 -6,3 -13,9 -19,10 5,-5 11,-8 18,-12 6,-4 15,-11 19,-15 -11,5 -50,30 -56,33 4,-4 24,-22 29,-25 12,-8 16,-7 32,-21 41,-37 51,-21 67,-34 -8,0 -8,-1 -13,-1 6,-6 14,-10 22,-15 8,-6 13,-10 21,-15 10,-6 40,-25 45,-31 -8,4 -9,5 -18,10 -6,4 -11,6 -17,11 -5,2 -5,2 -9,4 -21,12 -47,26 -64,37 -9,6 -23,18 -35,24 4,-5 6,-6 10,-12 5,-6 6,-8 11,-13l23 -22c7,3 2,6 9,8 20,-17 -3,-4 25,-21l46 -30c-6,2 -28,14 -36,18 -5,3 -9,5 -13,7 5,-6 23,-20 30,-25 27,-18 11,-11 25,-19 11,-7 0,-2 23,-19 7,-6 22,-16 26,-21 -18,9 -21,13 -31,18 2,-6 4,-13 6,-20l-3 0c-2,6 -3,8 -6,15 -6,14 -4,6 -22,23 -2,2 -3,4 -6,6 -3,1 -1,0 -4,2 -1,0 -3,1 -4,2 1,-4 11,-17 2,-26 -2,3 -3,6 -4,7 -1,3 -3,4 -6,8 1,5 4,2 4,8 -1,8 -8,6 0,9 -6,5 -29,23 -34,26 10,-20 17,-35 27,-54 -3,2 -3,2 -6,5l-35 61c-28,14 -26,16 -37,22l3 -6 -5 0 -6 7c9,-18 17,-30 28,-45l7 -16c-7,11 -17,23 -22,32 -6,-2 -6,-9 -9,-12 -2,8 0,5 1,10 1,6 -14,37 -20,46 -6,8 -18,13 -26,18 -8,5 -18,14 -27,16 7,-13 19,-25 32,-33 7,-5 6,-4 12,-10 -6,2 -4,2 -10,5 -6,4 -4,3 -11,6l19 -37c6,-10 9,-8 14,-14 7,-10 2,-11 1,-15 5,-4 8,-10 12,-15 3,-5 8,-10 11,-14 6,-7 19,-26 20,-34 -9,5 -18,18 -23,29 -1,-1 -1,0 0,-3 0,-7 9,-23 13,-30 11,-24 10,-11 27,-11l-5 6c17,-3 4,-3 14,0 5,-9 1,-4 10,-7 10,-3 6,-2 16,-2 11,-1 19,-7 30,-8 2,-5 2,-6 -13,-6 -28,0 -14,3 -32,8 -3,0 -3,1 -4,0 -4,-2 0,-2 0,-3 2,-3 2,-1 3,-3 0,-3 2,-1 -12,-2 -1,3 -1,3 -2,8 -7,0 -6,0 -9,-2l-3 -3c-1,0 -1,0 -1,0 0,0 0,-1 0,-1 -3,-2 -13,-1 -23,-1 2,-4 2,-7 3,-11l0 -7c0,-3 0,-1 -1,-3 -3,9 -2,13 -6,21 -7,1 -10,1 -14,7l14 0c-4,7 -8,20 -10,26 -4,12 -4,14 -11,29 -5,-6 3,-12 2,-19 -2,-9 -11,2 -8,-13 2,-10 5,-33 9,-42 -6,3 -5,4 -7,10l-10 39c-5,-4 -16,-15 -21,-15 1,6 9,17 14,21 2,3 5,3 7,6 4,4 5,31 1,39l-6 0c-3,7 -1,12 -3,21l-39 64c-5,8 -6,6 -10,12 -28,0 -13,-1 -23,15 -4,5 -5,3 -4,9 0,4 4,7 -5,18 -5,6 -11,11 -18,13 11,-38 47,-79 51,-96 2,-8 -3,-1 2,-12 8,0 13,-4 20,-8 5,-4 5,-3 10,-6 8,-4 10,-6 2,-6 -8,1 -15,3 -23,7 11,-22 18,-25 25,-53l-24 40c-7,-8 25,-43 3,-66 -2,9 5,13 0,33 -1,5 -4,8 -6,14 -4,12 -4,45 -26,47l3 -6c-6,1 -8,2 -14,3 -1,6 2,8 -9,9 -9,1 -5,-2 -17,0 -7,-43 -17,-26 -14,-52 4,-30 13,-33 53,-64 8,-6 15,-12 23,-18 8,-7 18,-14 23,-19 -7,2 -9,4 -17,11 -9,6 -41,31 -49,35 5,-7 9,-7 15,-14 0,-7 1,-9 -9,-9 -15,14 -6,10 -23,17 -3,5 -11,18 -15,23 -9,-1 -12,-21 -7,-31 21,-38 49,-50 61,-66 -12,6 -24,20 -35,26 13,-17 22,-35 11,-46 -3,13 4,17 -14,40 -10,12 -22,32 -28,44 -5,-5 -2,-37 2,-46 6,-11 14,-15 21,-27 12,-21 11,-13 23,-23 4,-3 9,-8 9,-13 0,-8 -7,2 1,-11 15,-24 -4,-5 44,-43 9,-7 19,-12 25,-21l-34 22c2,-7 7,-22 1,-23 0,3 -7,23 -11,28 -1,2 -9,9 -11,11 -5,4 -8,7 -13,8l3 -22c2,-8 2,-17 5,-24l-3 0c-3,8 -3,12 -7,20 -11,23 -3,16 -5,34 -1,7 -3,11 -9,17 -8,-4 -4,-18 -17,-22 2,14 20,28 -2,47 -7,6 -11,12 -16,21 -11,-1 1,-7 -10,-8 -3,8 -5,15 -10,25l-3 0c5,-16 0,-29 -5,-39 -2,-6 -4,-13 -11,-15 -2,7 8,22 9,30l2 5c-4,3 -5,5 -9,8 -2,-2 -2,-6 -3,-10 -2,-7 -7,-12 -8,-19 0,-7 1,-6 -2,-12 -4,-9 1,-15 10,-27 9,-12 18,-18 25,-27 -6,3 -16,10 -20,15l-3 0c3,-7 4,-13 7,-20 5,-2 9,-4 13,-9l-13 0c4,-14 -11,-26 -23,-29 0,4 2,5 4,7 2,2 4,5 6,8 3,5 7,10 3,19 -3,1 -6,1 -9,3 -10,3 -15,13 -25,15l4 -8c-6,2 -3,2 -9,3l0 -26c-6,11 -5,22 -7,31 -5,-5 -11,-16 -18,-18 -1,4 3,8 5,11 3,3 7,9 7,12 -13,0 -10,-5 -13,-13 -2,-5 -3,-13 -7,-17 -3,13 8,19 3,31 -8,2 -23,6 -30,11 -1,0 -1,1 -2,1 -9,6 -10,3 -18,7 14,3 37,-4 52,1 6,2 9,6 12,11 3,5 7,7 10,13 11,19 47,20 32,54 -2,-3 -1,-2 -7,-1 4,-9 5,-10 5,-16 0,-4 0,-7 -5,-9 -3,13 -2,7 -10,17 8,1 7,5 2,14l3 3 -6 4c-11,-2 -5,-18 -8,-26 -3,-6 -8,-20 -15,-22 0,3 0,1 1,3l5 26c-13,0 -19,-5 -31,-7 -11,-2 -24,-3 -39,-3l-2 4c13,0 25,2 34,4 18,3 28,16 40,26 3,3 5,5 8,8 3,3 7,4 6,9l-39 -4c14,3 14,9 38,13 21,3 25,12 31,28 1,3 2,4 3,8 1,6 -1,19 -9,10 -9,-10 -22,-10 -45,-10l-1 3c7,0 13,4 18,6 15,8 31,14 38,29 10,21 -3,23 12,29 7,3 16,18 17,25 -5,10 -8,8 -13,17 14,10 13,18 7,38 -1,3 -1,5 -3,9 -2,6 0,2 -5,9l-3 0c3,-9 0,-22 4,-30l-10 12c0,-1 0,0 0,-4 1,-24 26,-50 -27,-50 -3,13 36,7 25,33 -2,5 -12,25 -13,31 -1,13 7,9 -8,28 -9,-3 -8,-19 -2,-30 5,-9 10,-13 13,-23 0,-1 1,-7 1,-9 1,-5 1,-5 -3,-7 -2,6 -2,16 -8,22 -3,4 -18,15 -21,17 -10,-10 9,-39 -4,-40 -4,4 -3,2 -6,8 -3,9 -6,15 -9,3 -1,-4 -1,-5 -3,-9 -4,-7 -7,-11 -12,-16 7,-13 16,-21 20,-33 2,-6 3,-6 -3,-7l-15 19c0,0 0,1 -1,1 3,-6 6,-16 8,-23 3,-9 -1,-11 4,-14 11,-9 -4,5 3,-3 -11,0 -16,-9 -19,-16 -2,-4 -4,-8 -5,-12 -2,-5 0,-10 -6,-12 -8,29 6,22 6,42 -6,0 -4,-1 -8,4 -3,-3 -3,-4 -4,-7 -4,-18 -24,-19 -4,-50 5,-7 10,-16 13,-24 0,0 0,-3 1,-3 0,-4 0,-2 0,-3 -18,23 -8,22 -26,7l-13 -16c-2,-3 -2,-4 -4,-7 -5,12 12,28 16,35 2,5 9,13 2,19 -4,4 -10,4 -15,3 -7,-2 -4,-4 1,-11 -7,1 -5,2 -12,2 1,-5 0,-2 0,-6l-1 -5c0,-1 0,-1 0,-1z"/>
    <path class="fil2" d="M3267 1378c0,3 0,1 1,4l11 13c2,1 4,-2 8,2 0,0 3,11 19,2 3,-1 3,-2 6,-3 9,-3 3,6 9,-4 8,-1 2,0 8,-3 0,0 1,-1 1,-1l7 -5c-1,-8 -5,-7 -17,-7 -2,4 -4,6 -7,5l-8 -1c0,0 0,0 -1,0 -4,-1 -1,-2 -6,1 -11,6 8,-2 -3,2 -1,-13 -13,-11 -28,-5z"/>
    <path class="fil2" d="M2691 1647c-1,5 0,6 4,8 14,9 9,5 14,3 0,0 1,0 1,0 0,0 1,0 1,-1l2 0c0,0 1,-1 1,-1l9 -3c5,-12 -6,-5 -16,-5 0,0 -10,-6 -16,-1z"/>
    <path class="fil2" d="M2732 1571c0,3 0,1 0,3l1 3c0,6 -2,3 1,7l11 -8c5,-5 4,-3 8,-11 -5,2 -9,4 -13,11l-3 0c3,-6 3,-4 1,-10 0,0 0,0 0,-1l-1 -1c-3,5 -2,4 -5,7z"/>
    <polygon class="fil2" points="2847,2176 2848,2176 2856,2162 2854,2162 "/>
    <path class="fil2" d="M2797 1409c2,-4 1,-4 2,-8l-3 0c-1,6 -2,5 1,8z"/>
    <path class="fil2" d="M3095 1525l12 -7c-6,1 -8,2 -12,7z"/>
    <polygon class="fil2" points="2734,1829 2735,1829 2737,1825 2736,1825 "/>
    <polygon class="fil2" points="2801,1581 2801,1579 2799,1580 "/>
    <polygon class="fil2" points="3334,1427 3335,1427 3335,1425 "/>
    <path class="fil2" d="M3295 1636c0,0 1,-1 1,-1l0 0c0,0 -1,1 -1,1z"/>
   </g>
   <path class="fil2" d="M3291 2174l-89 6 -655 -114c-90,-11 -220,-154 -503,-234 -160,17 -481,89 -819,26l218 454 979 -3 334 -18 484 26 51 -143z"/>
   <g>
    <path class="fil2" d="M2596 1933c1,-1 1,-2 1,-3l2 -3c1,-2 5,-5 7,-5 0,3 1,10 3,13 2,-4 1,-11 0,-15l4 0c1,-1 0,-1 2,-1 0,0 1,0 2,0 1,0 3,0 4,0l4 0c-3,18 -12,22 -32,22l3 -8zm-42 -14c0,0 10,1 12,1 -1,4 -2,12 0,15 2,-3 3,-10 3,-13 1,0 5,2 5,3l5 8 3 8c-19,1 -30,-4 -32,-22l4 0zm-18 -22c0,7 1,13 3,20 1,6 2,7 1,13 -1,4 -2,11 0,15 -16,0 -19,-6 -22,-7 2,4 5,6 9,8 4,1 10,3 14,3 1,1 1,1 1,2 -4,0 -11,3 -19,1 -2,0 -2,-1 -4,-1 2,3 7,5 12,5 5,0 9,-2 13,-2 1,0 1,1 1,2 -5,1 -8,7 -21,7 5,5 19,-2 23,-5 2,1 2,2 4,3 1,1 2,2 4,3 6,5 14,8 22,10 2,1 3,2 4,7 0,2 0,3 -1,5 -5,11 -10,23 -15,35 -4,10 -13,37 -18,45 -2,3 -2,1 -5,2 -4,0 -6,3 -8,6 -3,8 -4,19 -4,29 0,17 12,32 22,44 1,1 1,2 2,3l5 6c1,1 1,1 2,2 0,1 0,1 1,1 -4,3 -12,3 -15,8 -1,3 0,7 3,9 6,4 14,0 21,0 4,6 14,4 15,0 5,3 3,4 10,4 1,0 3,-1 4,-1 1,-1 2,-2 2,-3 4,2 18,2 22,-1 1,0 1,-1 2,-2 2,-4 0,-8 -4,-10l-7 -2c-2,-1 2,1 0,0l-1 0c7,-1 22,-8 28,-12 5,-3 7,-5 11,-9 2,-1 1,-1 2,-2l8 -8c7,-11 11,-23 8,-37 -2,-9 -5,-15 -10,-22 -10,-14 -37,-30 -28,-47 1,-1 3,-3 4,-4 9,-5 15,1 17,1 4,0 5,-6 -2,-10 -8,-5 -18,-1 -25,4 -4,3 -7,9 -7,16 0,18 21,32 28,41 5,7 7,7 11,17 5,13 3,27 -7,36 -2,2 -3,4 -5,5 -7,7 -14,14 -24,16 0,-1 8,-12 13,-20 4,-8 7,-15 7,-25 0,-9 0,-29 -10,-33 -2,-1 -4,0 -6,0l-8 -19c-6,-15 -11,-30 -18,-44 -2,-6 -4,-11 -7,-16 -2,-5 -2,-7 0,-13 1,-3 8,-2 19,-8 3,-2 5,-3 7,-5 2,-1 4,-4 6,-5 3,1 5,3 8,4 3,2 9,4 13,3l2 -2c-12,0 -17,-6 -21,-7 0,-1 1,-2 1,-2 2,0 4,0 6,1 6,1 17,0 19,-4 -7,2 -1,2 -12,2 -4,0 -7,-2 -11,-2 0,-1 1,-1 1,-2 9,0 19,-3 23,-11 -1,1 -2,2 -4,3 -8,4 -15,3 -18,5 2,-7 1,-15 0,-22 0,-2 1,-5 2,-8 2,-10 4,-22 1,-32 -2,-4 -4,-7 -7,-9 0,4 6,15 -4,22 -3,3 -9,5 -12,8 -19,-5 -34,-5 -53,0 -2,-3 -8,-5 -11,-7 -3,-2 -4,-3 -5,-5 -4,-9 0,-14 0,-18 -7,5 -8,13 -8,22z"/>
    <path class="fil3" d="M2579 1933c-1,2 -5,4 -8,5 -1,0 -3,0 -3,-1 0,0 -1,0 -1,0 -4,0 -8,-4 -9,-6 -2,-3 -4,-7 -4,-12l-4 0c2,18 13,23 32,22l-3 -8z"/>
    <path class="fil3" d="M2618 1929c0,2 -6,8 -10,8 -2,1 -6,1 -8,0 -1,-1 -3,-3 -4,-4l-3 8c20,0 29,-4 32,-22l-4 0c0,2 0,4 -1,6 0,0 0,1 0,2 -1,0 -1,1 -1,1 0,0 0,0 -1,1z"/>
   </g>
  </g>
 </g>
</svg>
