<?xml version="1.0" encoding="UTF-8"?>
<!DOCTYPE svg PUBLIC "-//W3C//DTD SVG 1.1//EN" "http://www.w3.org/Graphics/SVG/1.1/DTD/svg11.dtd">
<!-- Creator: CorelDRAW X8 -->
<svg xmlns="http://www.w3.org/2000/svg" xml:space="preserve" width="3508px" height="2480px" version="1.1" style="shape-rendering:geometricPrecision; text-rendering:geometricPrecision; image-rendering:optimizeQuality; fill-rule:evenodd; clip-rule:evenodd"
viewBox="0 0 3508 2480"
 xmlns:xlink="http://www.w3.org/1999/xlink">
 <defs>
  <style type="text/css">
   <![CDATA[
    .fil0 {fill:#010001}
    .fil1 {fill:#272627}
    .fil11 {fill:#9E5719}
    .fil9 {fill:#CD4B11}
    .fil10 {fill:#E08018}
    .fil2 {fill:#EDB334}
    .fil4 {fill:#F19426}
    .fil6 {fill:#F56509}
    .fil5 {fill:#F77F13}
    .fil12 {fill:#F8C42A}
    .fil3 {fill:#FACF49}
    .fil8 {fill:#FAF237}
    .fil7 {fill:#FDEC60}
   ]]>
  </style>
 </defs>
 <g id="Capa_x0020_1">
  <metadata id="CorelCorpID_0Corel-Layer"/>
  <g id="hp1">
   <path class="fil0" d="M1751 1512c4,-7 11,-11 18,-6 -1,5 -2,6 -8,8 -5,3 -6,1 -10,-2zm148 8c3,-7 10,-14 14,-18 18,-21 22,-2 48,-6 11,-2 13,-7 25,1 -6,6 -29,11 -40,13 -8,1 -15,2 -24,3 -12,2 -12,6 -23,7zm-661 -8c-2,-10 -7,-14 -13,-28 -7,-14 -12,-14 -19,-25 5,-2 -5,-2 7,-2 1,0 6,1 9,1 1,20 8,29 14,41 9,17 4,11 2,13zm928 -42c-1,-13 14,-15 25,-18 -3,10 -2,5 -11,11 -6,5 -5,8 -14,7zm-779 16c6,6 11,22 14,31 6,20 2,18 13,36 3,11 11,16 11,27 1,8 -1,8 1,16 3,7 4,7 6,17 -6,10 -14,19 -30,16 -6,-3 -27,-60 -28,-66 -24,-3 -12,12 -8,24 5,7 22,46 22,57 -8,6 -11,10 -24,6 -10,-2 -15,-5 -18,-16 -6,-15 -4,-9 -12,-21 -5,-7 -9,-15 -12,-22 -8,-15 -7,-28 -17,-39 -4,-5 -7,-8 -11,-16 -3,-5 -7,-13 -12,-16 -7,-23 -42,-67 -20,-79 8,-1 11,1 18,-1 22,-6 16,-11 30,20 4,9 9,17 9,26 9,7 10,34 25,19 0,-32 -56,-72 -12,-92 40,-19 37,21 46,47 4,10 8,17 9,26zm114 -41c12,12 20,23 23,43 4,5 13,25 17,37 7,16 14,27 4,43 -23,2 -15,0 -25,-14 -5,-8 -12,-10 -17,-28 -6,-4 -4,-5 -12,-3 -1,2 -2,6 -3,7 -5,12 -11,6 -13,18 -2,8 6,23 6,36l-8 11c-16,28 -34,-32 -41,-42 -4,-15 -19,-60 -18,-73 2,-17 -7,-24 -9,-40 -10,-65 4,-45 17,-56 4,-4 6,-10 11,-14 11,-9 29,-1 35,6 11,13 10,18 17,35 6,11 15,21 16,34zm735 -43l16 5 -17 17 1 -22zm-663 2c6,20 2,21 4,38 2,10 9,16 9,29 3,3 0,0 2,4l7 18c25,-5 11,-1 25,-3 9,-1 14,-8 22,-3 5,4 9,12 8,19 -1,8 -7,9 -15,12 -11,4 -5,8 -16,10 -11,2 -10,-3 -20,7 -29,27 -36,-22 -47,-42 -6,-10 -17,-33 -18,-45 -2,-33 -11,-16 -19,-42 -5,-8 -8,-17 -12,-26 -12,-32 -4,-28 12,-34 7,-2 8,-5 14,-7 37,-19 34,50 44,65zm91 -37c8,7 8,22 7,32 -1,16 3,18 7,31l8 28c7,0 5,-1 12,-1 5,-1 8,0 14,0 10,-1 31,-16 27,21 -6,4 -7,3 -16,7 -10,4 -4,7 -15,8 -30,4 -17,14 -33,14 -11,1 -20,-14 -22,-24 -2,-5 -3,-11 -6,-17 -3,-8 -6,-10 -7,-17 -5,-6 -5,-12 -9,-21 -9,-23 6,-20 -13,-40 -5,-5 -7,-12 -8,-20l-14 -37c-2,-17 9,-13 29,-23 11,-5 18,-5 26,3 12,10 13,38 13,56zm499 -87l1 5c28,6 28,-5 41,5 1,51 -19,17 -39,33 -2,9 -1,17 2,23 10,0 9,3 21,-1 9,-2 15,-3 22,-1 13,34 -24,35 -24,35 -12,4 -8,10 -22,8 -12,-2 -19,1 -26,-4 -9,-5 -6,-5 -6,-15 -1,-11 -3,-9 -5,-16 -3,-12 6,-19 -8,-27 -7,-9 -3,-18 -3,-28 0,-10 -1,-20 -3,-29 -19,-82 25,-45 52,-51 10,-2 45,-8 53,-2 4,6 -2,46 -9,52 -14,11 -37,-10 -47,13zm190 26c-5,20 12,69 -19,60 -11,-4 -4,-15 -16,-25 -9,-9 -13,-6 -17,-23 -3,-5 -5,-14 -7,-19 -4,-11 -1,-15 -12,-14 -3,7 0,21 -2,32 -2,11 -1,7 0,17 3,21 -4,16 -10,27 -2,5 -1,6 -4,11l-14 0c-5,-9 -5,-15 -7,-27 -8,-10 2,-27 -4,-42 -3,-8 -17,-21 -7,-35 -4,-59 -7,-42 27,-56 23,-10 27,-3 33,11 3,6 5,9 8,15 7,3 1,8 11,14 4,-12 1,-29 2,-35 2,-8 0,-5 5,-9 7,-5 35,0 42,4 4,10 0,37 0,50 1,28 -4,23 -9,44zm-588 -80c6,7 8,29 9,38 2,13 1,6 10,14 7,7 4,7 13,13 11,7 19,20 22,32 3,5 6,19 5,27 3,5 3,7 3,14 0,25 -2,13 1,46 1,17 -9,12 -18,44 -3,8 -3,10 -8,17 -3,0 -26,0 -28,0 -1,0 -22,-8 -22,-8 -4,-4 -28,-47 -30,-52 -8,-5 -8,-27 -9,-37 0,-7 -1,-17 -2,-23 -2,-8 -5,-11 -5,-19 0,0 -1,-1 -1,-2l-2 -5c-1,-8 8,-21 13,-33 7,-14 17,-14 32,-21 2,-23 -3,-77 -10,-99 -10,20 -11,54 -44,45 -8,-5 -9,-17 -10,-26 -9,17 -6,39 -32,39 -44,2 -56,-91 -5,-101 12,-2 17,3 28,6 8,-7 8,-14 21,-14 10,14 -3,41 14,81 11,-4 21,-34 23,-47 1,-9 -13,-43 18,-48 10,13 3,22 4,39 9,-13 4,-38 29,-42 23,-4 35,12 40,29 6,21 1,42 -10,54 -14,14 -29,17 -50,11 -2,12 3,18 1,28zm-188 -53c3,5 11,32 15,41 9,18 32,36 7,40 -6,1 -10,1 -14,-2 -13,-7 -25,-52 -28,-66 -8,3 -37,27 -42,35 2,17 19,50 -8,50 -9,-9 -11,-35 -16,-49 -10,-1 -19,-7 -21,-18 -2,-16 4,-17 12,-24 0,-17 -14,-52 -24,-61 -8,1 -13,4 -17,7 -4,32 21,23 14,42l-4 1c-14,2 -23,-24 -21,-36 2,-16 14,-28 30,-30 32,-5 42,52 46,78l5 25c9,-1 55,-21 40,-59 -3,-21 -9,-35 -6,-58 4,-32 21,-34 33,-23 26,23 -10,70 -1,107zm520 89c-2,19 -6,21 -26,20 -15,-1 -27,1 -25,17 17,5 30,-4 43,4 0,9 -2,24 -6,30 -16,4 -42,-11 -31,26 22,13 26,-8 44,0 8,11 3,30 -8,34 -11,4 -8,-1 -19,8 -8,5 -9,4 -20,4 -34,-1 -25,-2 -29,-22 -2,-12 -6,-2 -6,-21 0,-8 0,-14 -6,-18 -13,-7 -3,-40 -13,-58l-8 -38c-3,3 -2,4 -2,8 -6,31 -6,12 -5,53 1,15 -3,26 -3,41 0,13 0,33 -2,44 -9,12 -5,18 -11,28l-26 -1 -11 -26c-1,-4 0,0 -1,-4 -2,-5 -1,0 -2,-4 -7,1 -2,-2 -5,4 -3,7 5,22 -8,46 -9,2 -8,3 -14,-1 -1,0 -10,-6 -12,-7 -8,-6 -7,-12 -12,-22 -4,-9 -9,-14 -13,-23 -3,-9 -4,-16 -8,-24 -14,-25 -19,-25 -21,-47 -1,-23 -24,-28 -18,-47 14,-10 23,-1 38,-11 2,-12 1,-66 0,-79 -3,-23 -9,-45 -11,-68 5,-7 11,-15 22,-18 6,6 6,11 5,21 -3,18 -4,15 1,18 -2,-4 4,-36 25,-40 22,-5 36,10 41,27 5,20 -1,41 -12,52 -14,16 -29,16 -52,12 -1,15 4,29 5,43 4,32 5,25 -2,39 -5,10 5,23 9,35 4,14 -2,27 6,38 7,-4 6,-4 5,-14 -1,-3 -2,-9 -3,-13 -1,-15 3,-19 4,-30 1,-12 -4,-21 3,-31 15,-7 15,14 19,26 4,12 8,24 13,36l4 11 6 -6c-2,-13 0,-18 -6,-30 -6,-12 -1,-10 -1,-24 0,-35 17,-20 37,-20 -4,-31 5,-39 18,-56 23,-29 26,-20 22,-50 -13,16 -16,46 -50,37 -12,-6 -14,-72 -13,-78 53,-43 10,26 30,64 12,-2 19,-14 25,-25 9,-17 6,-22 5,-43 6,-7 14,-15 24,-14 11,18 -21,85 15,40 5,-5 9,-16 20,-16 -3,17 -32,29 -36,52 -1,11 3,28 4,39 2,19 -1,25 -4,40 16,0 54,-14 69,-8 2,7 0,30 -1,40zm244 -191c2,1 1,0 4,3 1,1 2,5 3,7 2,6 3,11 4,17 -2,1 1,0 -4,2l-10 1c-3,-5 -11,-20 -14,-27 -3,-5 -4,-11 -4,-17l3 -19c9,7 8,24 16,31l2 2zm-50 -131c-3,0 -4,-1 -7,-7 5,1 4,-1 7,2 6,6 0,5 0,5zm-362 -130c15,5 37,18 48,26 14,11 25,25 28,46l-10 7c-3,3 -11,7 -16,10 -1,2 -15,13 -20,15 -13,-15 -21,-30 -38,-39l1 -11c-4,3 -3,-6 -3,4 -10,-1 -1,1 -15,-8 -5,-3 -9,-6 -15,-9 -6,-4 -11,-6 -17,-10 -9,-4 -8,-4 -8,-17 -6,0 -9,-2 -10,-3 -6,-2 1,1 -10,0l-3 -1c-5,9 2,11 -5,14 9,3 6,2 8,4 2,10 4,8 5,12 1,7 -1,6 -4,11 -15,1 -12,-4 -22,-5 -5,-4 -4,8 -4,-5 -3,3 0,1 -5,1 -4,1 2,0 -3,1 0,0 -1,0 -1,0 -1,0 -1,0 -2,0 -1,4 -1,6 -1,11 6,5 8,6 5,14l-14 -6 -2 -3c-1,0 -1,-1 -2,-1 -3,-4 -5,-6 -10,-7 -5,-1 -11,1 -17,3 1,5 1,5 2,10 1,0 5,0 12,5 32,19 17,32 13,30l-12 14c-15,2 -13,0 -24,-5l-4 -26c-7,-11 0,-11 -9,-18l-1 16c-6,2 -10,3 -17,4 9,-1 4,1 5,2l11 -2c2,7 1,16 0,24l-1 28c-1,11 4,25 -28,24 -6,-9 -8,-13 -22,-13 0,9 0,9 -2,13l-10 4 1 4c-8,0 -7,1 -13,4l-69 24c-17,2 -5,-11 -16,-27 -6,3 -11,6 -13,15 -1,6 0,10 -2,17 -5,-2 -13,4 -41,-18l-3 9c-4,21 -1,23 -20,29 -10,2 -45,-5 -50,-11l-3 -2 -10 -3c-10,7 -17,17 -29,23 -7,-6 -4,-8 -13,-9 -8,0 -5,-2 -11,1 0,6 -1,2 1,7l3 4c41,21 -1,34 -6,40 -6,-3 -19,-12 -27,-3l-3 6c0,-1 -1,1 -1,1 -5,-2 -9,-5 -12,-7 -4,13 -10,11 -7,25 -17,-2 -10,-10 -29,-6 1,5 0,10 0,18 -7,-1 -14,-2 -20,1 2,6 0,1 4,5 5,4 0,-3 5,3 -3,3 3,3 -4,2 -7,6 -14,4 -23,22 -9,18 -10,12 -23,19 -9,4 11,19 -29,1 -21,-10 -44,-24 -59,-42 -20,-23 -42,-64 -33,-98 -2,2 -1,1 -5,3 -9,2 -12,7 -16,15 2,12 7,3 4,18 -2,7 -3,8 -4,17 -4,-3 -2,-3 -7,-3l1 4c0,1 5,12 6,13 2,8 -1,4 -1,13 4,2 7,4 12,6 1,0 6,1 6,1 1,1 2,1 2,1 10,4 8,15 5,21 -3,7 -5,6 -13,8 1,14 -2,23 5,31l11 -5 10 12c6,11 12,30 15,44 8,21 14,32 31,42 -4,26 -14,44 -5,73 7,23 15,17 8,29 -7,13 -13,7 -13,28 10,7 11,2 14,19 1,6 1,9 5,13 -8,0 -5,-3 -12,-2 3,3 3,5 7,8 4,3 9,4 12,10 3,5 0,7 1,15 1,6 3,10 6,14 4,6 8,13 13,18 4,6 9,15 15,18 2,4 2,0 17,24 4,8 12,19 15,28 -9,-3 -12,-10 -21,-13 -8,-3 -7,3 -19,-16 -8,-12 -18,-35 -26,-45l4 15c-10,1 -22,-14 -27,-22 -7,-11 -13,-20 -18,-34 0,0 0,-2 0,-1 -1,0 -1,-1 -1,-2l-5 -9c-1,-5 -2,-9 -5,-14 -4,-11 -6,-18 -8,-30 -4,-11 -9,-42 -7,-57l-1 -3c-3,-13 1,11 -1,-4 0,-1 0,-5 0,-6l4 -38 0 -7 -2 3 -6 16 -5 17 0 52 3 19c2,16 2,24 1,40 2,6 1,19 3,27l26 61c10,13 10,23 35,45l67 56c35,34 58,30 67,56 -25,-5 -97,-44 -104,-56 -3,4 -1,3 11,16 6,6 10,10 17,16 24,19 24,14 40,25 5,3 8,4 13,6l14 7c18,2 44,9 61,15 11,2 18,2 27,7 3,1 4,2 4,2 28,6 18,15 73,15 53,0 53,-6 84,-6 -2,-5 3,-3 -5,-5l29 -4c10,-5 26,-10 39,-9 6,-5 19,-5 26,-8 12,-4 13,-6 27,-8l-13 1 -49 4c-4,-1 -7,-2 -11,-3l-10 -2c-28,0 -157,-3 -171,-12 16,-5 23,4 45,-2 7,-2 10,-1 17,-2l-22 -5 -31 -8c5,-5 8,-6 12,-11 7,-7 4,-8 18,-7 26,-8 18,-10 30,-15 13,6 -1,3 24,12l5 2c13,0 40,2 51,10 1,0 1,0 1,1l6 4c-3,-14 -5,-4 -9,-15l15 2c1,5 -1,4 1,8l42 -2c16,-2 38,3 52,0 15,0 18,-4 29,-8 3,-2 23,-4 29,-6 15,-5 12,-8 28,-1 33,14 59,16 99,14l51 -7c6,-4 1,-4 15,-6 14,-2 20,-8 31,-7l7 -4c3,0 8,0 11,-1 9,-2 32,-9 38,-10 3,-3 4,-2 10,-3l11 -3c-12,-1 -12,2 -25,0 -5,5 -13,5 -21,4 -8,3 -19,3 -28,0 -5,-1 -6,-2 -12,-3l-11 0c-1,0 -2,-1 -2,-1 0,0 -1,0 -2,0 -26,1 -55,-2 -81,-2 -10,-1 -66,-3 -76,-10 7,-2 19,1 29,1 14,0 12,-3 30,-5 -17,-6 -38,-6 -53,-14l46 -40c-6,8 -19,15 -26,21 -9,7 -19,18 -33,17 -4,-7 -6,-31 -14,-45 4,-4 6,-7 12,-9 6,-24 26,9 57,-35l44 -2c-2,5 -3,4 -8,7 5,7 8,-15 25,0 -2,6 -12,14 -21,25 -9,11 -14,17 -34,11l-1 4c8,0 7,0 14,4 9,5 3,1 14,2 -5,11 -19,25 -27,33 -7,7 -7,5 -9,11 16,-7 30,-22 42,-33 12,-12 6,-12 28,-12 14,0 21,-5 33,-5 6,-4 20,-5 28,-6 9,-3 21,-6 29,-9 20,-8 13,-3 31,0l1 12c2,3 19,25 21,26 2,-4 1,-16 5,-18 7,-3 3,9 18,6 11,-2 6,-14 17,-19 1,-4 -4,-3 4,-3 2,6 3,7 10,10 8,-15 3,-27 57,-25l8 2c5,-7 3,-13 4,-24 7,-6 24,-19 29,-22 7,2 12,5 16,10 -1,6 -8,14 -13,17 -5,5 -10,6 -13,13 4,-2 7,-3 12,-6 4,-3 6,-5 10,-8l4 -4c5,-3 2,-2 7,-4 6,5 9,12 13,19 5,9 6,15 13,20 -4,-14 -3,-12 6,-18 -2,-2 -3,-2 -5,-5 -3,-8 -1,-2 -2,-9 -4,-4 -6,-9 -7,-15 -3,-10 -2,-11 6,-15 4,-8 7,-7 13,-14 6,-6 6,-9 14,-15l1 -2c6,-6 9,-11 13,-18 6,-8 9,-9 12,-19 6,2 9,3 12,13 3,16 -2,12 10,55l14 18c15,9 7,-5 9,-18 -4,-4 -11,-29 -13,-34l4 -2c9,-3 6,-1 9,-5 4,-8 -1,-9 7,-10 10,-1 7,16 19,13 1,-5 -2,-12 -3,-19l4 -3c16,-17 19,-29 15,-61 -3,-23 13,-34 11,-65 -2,-5 3,-21 2,-33l-4 -30 -9 -13c-6,-6 -10,-3 -12,-10l-10 -1c0,-13 3,-11 -3,-26 -3,-11 -6,-13 -6,-25 -5,-10 -6,3 -8,-10 16,-6 9,11 18,20 2,-6 4,-12 5,-20l36 0c7,4 4,1 7,8l8 50c0,2 -1,22 2,12 10,-30 -6,-80 -11,-107 -11,-4 -9,-20 -12,-29 -2,-10 -7,-27 -12,-34l5 37c-9,-6 -19,-31 -27,-35l0 2c1,12 9,20 15,31 6,11 13,20 16,32l8 18 -26 -1 0 -10c-3,-7 -8,-27 -20,-40 -8,-8 -5,3 -15,-13 -4,-6 -8,-12 -12,-17 -20,-25 -15,-14 -22,-21 -1,-2 -3,-7 -4,-10 -6,-9 -7,-2 -13,-16 -3,-6 -5,-12 -9,-18 11,2 20,10 26,17 21,24 16,2 27,16l14 19c5,-8 1,3 -4,-16 -11,-22 -8,-23 -22,-30 -8,-4 -8,-6 -16,-14 -6,-6 -7,-6 -11,-12 -3,-4 0,-2 -4,-6 -10,-10 -16,-14 -31,-20 -17,-6 -12,-8 -23,-21l-28 -35c-20,-19 -13,-24 -35,-21 0,0 -1,0 -1,0 -1,0 -1,1 -2,1 0,0 -1,0 -1,0 -10,4 -21,11 -25,11 -2,0 -14,-1 -18,-2 -18,-2 -14,-7 -19,-34l-6 -15c-3,5 -2,25 -3,33 -11,-23 1,-34 -2,-50 -21,-2 -31,6 -49,10 -25,5 -32,-6 -43,-16 -6,0 -12,0 -18,0l-17 -2c-10,1 -36,-3 -43,-7 -7,-2 -9,-2 -15,-5 -9,-3 -6,0 -10,-8l-2 -1c-3,-1 -3,3 -12,-6 -7,5 -2,7 -14,10 -13,2 -34,2 -47,8 4,8 2,6 10,10 23,13 50,29 76,37 7,2 10,1 14,4z"/>
   <path class="fil1" d="M1244 1042c-2,3 -8,8 -10,12 -4,6 -4,8 -10,14 -4,-5 -3,7 -3,-7 -3,-3 -4,-3 -6,-6 -2,-2 -4,-5 -5,-7 -11,-15 -19,-35 -14,-55l36 4 37 4 19 -2c-2,5 -3,5 -10,11 -20,15 -17,17 -34,32zm98 -14c-9,2 -35,-12 -41,-16 -3,-4 -3,5 -2,-5 1,-2 38,-26 49,-26l0 16c-1,6 -1,12 -2,18 0,3 0,5 -1,7 -1,6 1,4 -3,6zm8 -73c3,-8 17,-27 23,-47l7 -22c9,1 11,5 18,9 -5,6 -4,0 -8,7 11,0 14,-3 20,5 0,0 5,7 5,7l11 23c3,6 7,7 6,14 -19,0 -55,7 -73,13 -4,2 -15,7 -19,7 1,-4 8,-13 10,-16zm351 -61c-8,4 -8,1 -8,1 -1,0 -5,-3 -5,-3l-14 -15c-10,-9 -9,-7 -11,-14 -3,-3 -3,-2 -4,-6 7,-4 37,-8 47,-10 18,-2 15,1 16,4 -3,3 -19,37 -21,43zm-164 -51l17 -29c3,-8 7,-13 10,-20 2,-3 4,-7 5,-9 2,-4 3,-5 6,-8 5,3 26,22 30,28 6,4 9,6 16,13 7,7 9,8 16,13 4,6 14,12 17,17 -22,-1 -55,-13 -70,-11 -8,5 -46,25 -56,22l9 -16zm57 -171c-3,7 -3,5 -11,7 -5,1 -9,2 -14,3 -11,5 -22,8 -31,16 -18,16 -32,28 -47,48l-18 27 -10 27c0,-1 0,0 0,1 -1,3 -2,8 -2,10 -4,7 4,6 -7,6 3,5 4,6 3,11 0,2 -3,10 -3,11 -5,-1 -19,-10 -26,-13 -14,-6 -31,-5 -26,-11 -18,1 -20,-5 -26,-11l-4 6c0,0 0,3 -1,4 -9,-3 -11,-9 -19,-18 0,-1 -1,-1 -1,-2 0,-1 -1,-1 -1,-1 -3,19 -10,-2 -12,22 -8,-3 -3,-2 -10,-8 -5,-4 -4,-4 -11,-6l2 5c5,3 2,0 6,6 -4,6 -4,10 -13,7 -8,-4 -5,-6 -17,-4 -1,12 2,-3 3,11l-9 1c-12,3 -8,6 -16,10 -4,3 -6,2 -10,4 -7,3 -5,1 -8,5 4,0 2,0 4,1 -4,2 -11,5 -15,6 2,4 1,1 2,5 1,3 0,1 1,4 2,7 6,13 19,6 28,-15 14,4 34,-14 9,5 9,4 19,-1l3 9c-6,6 -15,6 -26,19 -6,8 -3,9 -9,13 -4,3 -10,3 -16,7 -6,4 -9,9 -12,10 -3,2 -11,0 -17,1 -22,5 -22,9 -33,13 0,-5 0,-5 -2,-8 6,-8 7,-1 7,-16 16,0 12,-6 19,-16 2,-5 8,-10 -3,-13l0 -6c11,-1 3,1 6,-5l0 -3c2,-10 1,-23 2,-30 0,0 0,-1 0,-1l8 -21c-8,-11 -6,-7 -10,-4 0,-14 0,-12 -4,-16 1,12 3,30 -2,39 -1,8 -2,33 -7,38 -1,0 -1,0 -2,0l-4 4c-6,8 -7,13 -28,16 4,10 4,7 -5,13 -30,19 -25,27 -35,33 -1,7 -10,25 -14,33 -5,11 -7,24 -11,34l-1 19 -3 16c4,-2 3,-1 5,-3 -9,34 13,75 33,98 15,18 38,32 59,42 40,18 20,3 29,-1 13,-7 14,-1 23,-19 9,-18 16,-16 23,-22l-3 -1c0,0 -2,0 -3,0 -3,0 -1,1 -4,-1 -11,-7 -16,-24 -29,-26 -4,3 -12,11 -15,15l-34 -23c-9,-7 -4,1 -9,-10l16 4 15 6c10,-7 13,-18 24,-23 11,4 24,16 33,19l21 -25c9,3 19,11 31,14l4 3 3 -15 3 -12 4 -17 14 4c8,2 10,4 17,6l8 2c4,-6 1,-2 4,-5l-3 -4c-2,-5 -1,-1 -1,-7 6,-3 3,-1 11,-1l2 -5 -9 1c-1,-1 -4,-11 1,-15 3,-3 4,1 15,-4 -5,13 -2,-1 -2,15l6 -8 14 1 1 -11 -3 -33c7,-2 11,-3 17,-5 11,-4 9,-2 13,-12 0,-2 6,-19 8,-21 7,12 -2,30 7,40l1 -2c2,4 3,5 2,11 12,0 12,-3 22,2 11,6 14,23 -5,21 -10,-1 -17,2 -20,-12 0,-6 2,-9 -2,-14 -10,2 -7,4 -18,6l0 9 10 28 -5 -1c5,6 40,13 50,11 19,-6 16,-8 20,-29l3 -9c28,22 36,16 41,18 2,-7 1,-11 2,-17 2,-9 7,-12 13,-15 11,16 -1,29 16,27l69 -24c6,-3 5,-4 13,-4l-1 -4c-12,3 -21,1 -33,-1 -2,-7 -1,-12 1,-19l-2 1c-10,-1 -21,-5 -29,-2l1 15c-16,-2 -29,-9 -41,-16 -7,-4 -28,-20 -31,-26 -14,-10 -24,-33 -28,-40 9,-1 9,2 15,5 8,0 16,4 24,7 54,19 124,13 175,-2 -1,-1 4,-3 -5,-2 7,-1 11,-2 17,-4l1 -16c9,7 2,7 9,18 3,-4 -3,0 5,-5 5,5 2,1 4,8l5 14c7,-1 12,-4 18,-7 6,-2 9,-1 11,-9 2,9 0,11 -3,16 4,2 19,-11 -13,-30 -7,-5 -11,-5 -12,-5 -1,-5 -1,-5 -2,-10 6,-2 12,-4 17,-3 5,1 7,3 10,7 1,0 1,1 2,1l2 3c2,-8 0,-5 9,-8 0,-5 0,-7 1,-11 1,0 1,0 2,0 0,0 1,0 1,0 5,-1 -1,0 3,-1 5,0 2,2 5,-1 0,13 -1,1 4,5 0,-9 -1,-5 8,-11 1,-1 5,-4 6,-4 6,-3 -2,-2 7,-3 -2,-2 1,-1 -8,-4 7,-3 0,-5 5,-14 -2,-4 -3,-4 -14,-5l-40 -9c-2,-1 -4,-1 -7,-1 -8,5 -53,28 -63,30l13 -23c3,-8 10,-18 15,-27 6,-11 16,-32 22,-38l37 33c11,7 13,12 24,19 6,6 12,14 18,18 -4,1 0,0 -2,4 11,1 4,-2 10,0 1,1 4,3 10,3 0,13 -1,13 8,17 6,4 11,6 17,10 6,3 10,6 15,9 14,9 5,7 15,8 0,-10 -1,-1 3,-4 0,-1 0,-1 1,-2l1 -4c6,-24 -1,-44 5,-48 -4,-3 -7,-2 -14,-4 -26,-8 -53,-24 -76,-37 -8,-4 -6,-2 -10,-10 13,-6 34,-6 47,-8 12,-3 7,-5 14,-10 9,9 9,5 12,6l-1 -6 -11 -14c-3,-3 -8,-9 -10,-13l-10 -10c-8,-3 -4,-5 -14,-11 -7,-4 -9,-4 -12,-11 -6,0 -2,3 -7,-3l-27 -14c-21,-5 -27,-13 -57,-13 -21,1 -8,5 -31,1 -9,-2 -20,0 -33,0 4,3 -5,3 11,3l-37 0 1 18c1,0 1,2 1,2l1 3c1,4 -4,1 3,3l21 -2c13,-1 2,3 14,5 5,0 11,-3 15,-3 10,0 3,9 23,5l-1 11c-12,1 -19,2 -30,7 -1,1 -2,1 -4,2 -32,20 -1,5 -35,12 -24,5 1,8 -33,0 -19,-4 -25,1 -40,1 5,-10 4,-3 0,-10 5,-2 6,-1 10,-5l5 -9c11,5 13,1 21,-6 6,-6 4,-4 11,-7 0,0 -7,-37 9,-20 -1,-8 -4,-14 0,-14 10,0 -8,-2 2,1 5,1 -4,4 2,0 2,-2 3,-5 4,-8l-7 -2c0,0 -4,7 -2,-3 -9,6 -8,8 -10,15 -6,14 -36,18 -50,20z"/>
   <path class="fil2" d="M2009 1171l4 12c1,12 2,31 0,41 -5,2 -9,2 -13,4 -7,3 -3,4 -11,5 -11,-26 9,-46 20,-62zm-70 143c4,4 5,6 13,7 3,-9 3,-3 5,-11 0,-1 0,-1 0,-1 0,-1 0,-1 1,-1 2,-5 7,-5 9,0 2,-3 3,-7 5,-10l8 11c-1,-41 -1,-22 5,-53 0,-4 -1,-5 2,-8l8 38c8,-2 5,4 7,-8 5,4 7,8 8,15 4,-1 1,-2 7,-8 0,8 1,8 4,13 1,-3 8,-11 11,-14 7,-6 8,-6 16,-7l0 -12c0,0 1,0 1,1l16 6c2,-2 2,-4 3,-9 3,2 5,3 6,8 1,-4 1,-3 2,-6l2 -2c4,-8 1,-10 6,-16l0 11c10,-11 3,5 8,-12 1,11 -2,14 5,16 1,-10 3,-33 1,-40 -15,-6 -53,8 -69,8 3,-15 6,-21 4,-40 -1,-11 -5,-28 -4,-39 4,-23 33,-35 36,-52 -11,0 -15,11 -20,16 -36,45 -4,-22 -15,-40 -10,-1 -18,7 -24,14 1,21 4,26 -5,43 -6,11 -13,23 -25,25 -20,-38 23,-107 -30,-64 -1,6 1,72 13,78 34,9 37,-21 50,-37 4,30 1,21 -22,50 -13,17 -22,25 -18,56 -20,0 -37,-15 -37,20 0,14 -5,12 1,24 6,12 4,17 6,30z"/>
   <path class="fil3" d="M1649 1143c14,-9 37,0 28,40 -13,55 -35,24 -42,1 -4,-17 -1,-32 14,-41zm127 -20c24,-19 46,52 14,67 -7,3 -20,4 -26,0 -9,-6 -5,-54 12,-67zm-70 209c4,-14 1,-10 8,-20 -1,7 -8,10 0,19l8 -21c0,0 1,0 1,0 5,-6 -1,-5 6,-6 -5,2 -2,10 2,15l7 5 1 -17c6,2 9,4 13,2l8 -4c14,-7 -6,2 8,-7 6,-3 6,-2 6,-10 0,1 3,2 3,3l4 0c0,0 1,0 1,-1l-5 -9c5,2 5,6 9,9 8,9 10,3 22,21 4,6 6,11 11,12 -3,-12 -11,-25 -22,-32 -9,-6 -6,-6 -13,-13 -9,-8 -8,-1 -10,-14 -5,3 -3,0 -3,7l-22 -1c0,-6 1,-9 2,-14l1 -33c0,-9 -2,-8 1,-16 5,6 1,2 4,12 -5,-6 -4,-6 2,-5 6,19 2,17 6,12 2,-10 -3,-16 -1,-28 21,6 36,3 50,-11 11,-12 16,-33 10,-54 -5,-17 -17,-33 -40,-29 -25,4 -20,29 -29,42 -1,-17 6,-26 -4,-39 -31,5 -17,39 -18,48 -2,13 -12,43 -23,47 -17,-40 -4,-67 -14,-81 -13,0 -13,7 -21,14 -11,-3 -16,-8 -28,-6 -51,10 -39,103 5,101 26,0 23,-22 32,-39 1,9 2,21 10,26 33,9 34,-25 44,-45 7,22 12,76 10,99 -15,7 -25,7 -32,21 -5,12 -14,25 -13,33l2 5c0,1 1,2 1,2z"/>
   <path class="fil2" d="M1868 1169c-1,-18 1,-36 9,-50 8,-16 20,-22 31,-5 16,26 5,72 -40,55zm-16 191c6,-1 2,0 6,-6 1,-1 2,-3 3,-3 4,2 5,5 7,10l3 -9c1,0 1,0 1,0 1,-2 -4,-1 2,-8 3,-2 -2,-5 7,1 -2,-6 0,-4 -2,-12l3 4c5,5 0,1 6,5 3,-4 2,0 0,-7 -8,-11 -2,-24 -6,-38 -4,-12 -14,-25 -9,-35 7,-14 6,-7 2,-39 -1,-14 -6,-28 -5,-43 23,4 38,4 52,-12 11,-11 17,-32 12,-52 -5,-17 -19,-32 -41,-27 -21,4 -27,36 -25,40 -5,-3 -4,0 -1,-18 1,-10 1,-15 -5,-21 -11,3 -17,11 -22,18 2,23 8,45 11,68 1,13 2,67 0,79 -15,10 -24,1 -38,11 -6,19 17,24 18,47 2,22 7,22 21,47z"/>
   <path class="fil4" d="M1890 1308c1,4 2,10 3,13 1,10 2,10 -5,14 2,7 3,3 0,7 -6,-4 -1,0 -6,-5l-3 -4c2,8 0,6 2,12 -9,-6 -4,-3 -7,-1 -6,7 -1,6 -2,8 0,0 0,0 -1,0l-3 9c-2,-5 -3,-8 -7,-10 -1,0 -2,2 -3,3 -4,6 0,5 -6,6 4,8 5,15 8,24 4,9 9,14 13,23 6,-6 1,1 3,-5 1,-1 0,-4 0,-5 2,1 3,0 6,4 3,4 1,6 0,13 9,-3 8,-6 9,-16 2,-7 9,-11 11,-4l2 16 4 -1c0,-15 -7,-13 3,-19 0,8 1,6 2,13l0 11c-2,15 1,14 -10,19 4,5 0,3 8,4 13,-24 5,-39 8,-46 3,-6 -2,-3 5,-4 2,-14 -3,-3 -1,-15l2 3c6,10 5,4 10,9l3 5c0,-10 1,-5 2,-13l3 -11c0,0 1,-1 1,-1 5,2 1,1 7,0 1,7 -1,6 1,15 0,0 1,-1 1,-1 1,8 -1,-1 2,0 3,0 -1,10 5,-1 2,-3 0,-4 2,-9 4,-8 0,-1 4,-2 4,-11 4,-5 4,-21l1 0c0,17 -3,43 4,49 2,-11 2,-31 2,-44 0,-15 4,-26 3,-41l-8 -11c-2,3 -3,7 -5,10 -2,-5 -7,-5 -9,0 -1,0 -1,0 -1,1 0,0 0,0 0,1 -2,8 -2,2 -5,11 -8,-1 -9,-3 -13,-7l-6 6 -4 -11c-3,2 -1,4 -6,2l0 -4c-1,0 -1,-1 -1,-1 -4,-9 -3,-1 -5,-11 -8,4 -5,1 -7,-5l-3 8c-2,-2 -9,-8 -2,-4 -11,3 0,-2 -6,3 -4,4 -1,9 -2,16 -4,-3 -5,-1 -7,-5z"/>
   <path class="fil2" d="M1706 1332c0,8 3,11 5,19 1,6 2,16 2,23 1,10 1,32 9,37l5 5c0,0 1,1 1,2l-2 -9c0,-2 -8,-7 4,-3 7,2 5,5 4,11 10,-8 0,0 3,-8 2,-6 3,-1 9,-5 -2,-5 -1,-6 1,-9l2 -2c3,-5 3,-4 1,-7 0,0 1,0 1,1l7 1c4,0 -6,-3 8,-2 -5,-11 -13,-15 -12,-25 1,-14 1,-23 13,-24 10,11 16,59 19,79 4,4 3,9 4,-6 2,-22 -8,-5 5,-34 10,7 3,5 6,6 5,2 -7,2 3,-1 5,-2 4,6 5,-3 0,-5 0,-6 -2,-11 12,3 5,2 13,7 0,-1 -1,-2 -1,-1l3 -10c0,2 0,7 0,10l2 7c4,-14 3,-17 0,-30 1,-8 -2,-22 -5,-27 -5,-1 -7,-6 -11,-12 -12,-18 -14,-12 -22,-21 -4,-3 -4,-7 -9,-9l5 9c0,1 -1,1 -1,1l-4 0c0,-1 -3,-2 -3,-3 0,8 0,7 -6,10 -14,9 6,0 -8,7l-8 4c-4,2 -7,0 -13,-2l-1 17 -7 -5c-4,-5 -7,-13 -2,-15 -7,1 -1,0 -6,6 0,0 -1,0 -1,0l-8 21c-8,-9 -1,-12 0,-19 -7,10 -4,6 -8,20z"/>
   <path class="fil5" d="M2302 1238c-16,-2 -2,-4 -16,-8 -2,5 -2,4 -1,11 -9,-1 -14,0 -18,6l-1 3c-10,-3 -9,-3 -10,-7 -6,3 -5,4 -6,10l-3 -5c-5,-5 3,0 -4,-3 0,12 0,13 -4,19 1,-12 7,-15 -2,-23 4,16 3,24 -2,35l-1 -8c-10,14 4,27 7,35 6,15 -4,32 4,42 9,-8 -4,-9 6,-33 0,-1 -2,-3 2,-1l5 -6 2 18c5,-8 2,-5 4,-4 11,4 -9,0 4,4 1,-8 1,-7 2,-14 1,-8 0,-7 0,-19 6,3 3,5 5,-2l0 29c0,0 -1,0 -1,1l-1 1c0,0 0,1 0,1 0,1 0,6 2,9 0,-1 1,-6 1,-6l4 -6c2,-11 -1,-25 2,-32 11,-1 8,3 12,14 2,5 4,14 7,19l4 -3c-4,-11 -9,-21 -8,-33 9,4 0,8 12,13 1,-8 8,-13 14,-17l7 12c0,-15 6,-6 4,-18 8,6 3,7 8,2l2 -2c1,8 2,4 2,14 0,2 -5,1 6,7 -5,7 -4,8 1,13 5,-21 10,-16 9,-44 0,-13 4,-40 0,-50 -7,-4 -35,-9 -42,-4 -5,4 -3,1 -5,9 -1,6 2,23 -2,35 -10,-6 -4,-11 -11,-14z"/>
   <path class="fil2" d="M1344 1505c-15,15 -16,-12 -25,-19 0,5 -2,7 -5,7l-3 -1c-1,0 -3,-1 -3,-1l1 12c-11,-4 -2,-2 -5,3 -1,4 -6,5 -11,3 1,-4 6,-5 6,-14 -4,12 -6,5 -6,5 -8,0 -5,7 -7,3 0,0 -1,1 -2,1 -2,-7 -2,-3 0,-10 -2,1 -4,3 -7,0 2,7 4,10 8,15l2 4c-1,13 1,2 -5,7 5,3 9,11 12,16 4,8 7,11 11,16 10,11 9,24 17,39 4,-2 9,7 -3,-20 14,3 7,-1 10,10 5,13 4,5 0,12 2,-4 3,-3 4,-6 3,-4 3,-6 4,-11l11 13c1,-11 5,-4 6,-3 4,2 1,4 4,-3l8 4c-4,-12 -16,-27 8,-24 4,-6 3,2 1,-4 -2,-3 -4,-2 -7,-2 -5,0 -8,2 -12,4 2,-9 9,-10 20,-8l9 9c8,-11 3,3 8,-14 8,4 0,-1 4,3 17,17 2,1 12,9 0,-1 -2,-2 -2,-6 3,1 5,0 7,-1 -11,-18 -7,-16 -13,-36 -3,-9 -8,-25 -14,-31 -1,2 -1,17 -12,-19 -4,-1 5,-3 -1,1 -5,4 7,2 -2,1 -4,-1 3,0 -5,-3l-1 3c0,1 -1,1 -1,1 -5,6 3,-1 -5,4 1,-5 1,-5 1,-9 -1,-8 -1,-3 -2,-6 -1,1 -1,4 -1,4l-3 9c0,17 11,-14 5,12 0,0 -1,-1 -1,-1l-9 -6c5,8 3,12 -3,9l-5 -6c1,4 3,6 5,10 2,4 2,5 3,12 -3,4 7,5 -6,3z"/>
   <path class="fil2" d="M1445 1448c0,-7 -2,-2 1,-8 11,0 9,-4 19,19 10,21 17,37 -10,37 -2,-9 -6,-36 -9,-43 0,0 -1,-1 -1,-1 -6,5 -1,4 -5,-3 -2,-4 0,-4 -3,-8 -9,6 -2,0 -5,6l-6 8c-5,-23 3,-15 -6,-12 -6,3 -3,0 -9,1 3,4 2,5 4,11 3,7 1,0 4,9 3,10 6,14 -5,16 -1,13 14,58 18,73l2 -4c2,-5 2,-4 -1,-12l9 -5c0,9 -1,6 -2,10 0,0 0,0 0,1l0 3c0,-5 1,-11 5,-14 6,-5 6,0 11,5 0,-7 0,-4 1,-12 7,3 1,-3 6,5 -1,-2 -3,-5 -2,-9l10 -2c8,-3 14,-12 18,-1l2 5c8,-2 6,-1 12,3l4 6c0,-7 1,-9 -6,-14 -11,-6 -9,3 -10,-13 9,3 8,0 13,8l9 -5c7,-3 1,4 3,-1 5,-6 -1,9 1,-11 0,0 1,-1 1,-1 0,-13 -4,1 -3,-14 1,1 1,1 2,2 1,4 6,5 7,5 -3,-20 -11,-31 -23,-43 -9,-3 -5,-4 -13,-18l-8 -8c1,8 -6,4 -7,5 -4,2 1,-1 2,11 -12,-5 -12,-6 -12,-11 0,1 -1,1 -1,1l-12 3c-2,0 -5,-1 -5,-1l-1 4c-1,0 -1,1 -1,1 -3,9 0,4 1,5 0,0 1,1 1,1 0,-1 1,0 2,0 -13,11 -3,9 -2,10z"/>
   <path class="fil0" d="M1676 559c3,10 6,20 -2,29 2,18 -17,36 -20,49 -2,10 2,3 2,3l7 2c-1,3 -2,6 -4,8 -6,4 3,1 -2,0 -10,-3 8,-1 -2,-1 -4,0 -1,6 0,14 -16,-17 -9,20 -9,20 -7,3 -5,1 -11,7 -8,7 -10,11 -21,6l-5 9c-4,4 -5,3 -10,5 4,7 5,0 0,10 15,0 21,-5 40,-1 34,8 9,5 33,0 34,-7 3,8 35,-12 2,-1 3,-1 4,-2 11,-5 18,-6 30,-7l1 -11c-20,4 -13,-5 -23,-5 -4,0 -10,3 -15,3 -12,-2 -1,-6 -14,-5l-21 2c-7,-2 -2,1 -3,-3l-1 -3c0,0 0,-2 -1,-2l-1 -18 37 0c-16,0 -7,0 -11,-3l-23 0c3,-11 5,-13 12,-20 6,-7 9,-11 15,-16 6,-7 12,-16 18,-26 3,-5 11,-22 6,-28 -6,-7 -2,-3 -11,-5 -11,-2 -3,-2 -12,-4 -5,6 -10,4 -18,5z"/>
   <path class="fil4" d="M2120 1325c2,-5 2,-9 2,-14 0,-7 0,-2 0,-2 8,2 -4,3 2,2 0,-19 0,-13 3,-15 13,-11 -9,2 4,-4 2,8 10,10 16,9 0,0 2,-2 3,-2l-7 -3c-2,-1 -3,-1 -6,-3l1 -5c5,-1 3,7 14,3 -6,-3 -6,3 -10,-5 10,-4 11,0 13,2 3,-4 2,-2 -3,-3l4 -1c9,-3 5,3 7,-4 10,-23 33,-2 47,-13 7,-6 13,-46 9,-52 -8,-6 -43,0 -53,2 -27,6 -71,-31 -52,51 2,9 3,19 3,29 0,10 -4,19 3,28z"/>
   <path class="fil0" d="M1432 625l6 16c6,11 4,29 -5,39 -2,-1 -12,-9 -14,-10 3,20 -11,15 -15,18l10 9c-9,4 -25,14 -36,4 -12,-3 -7,-6 -20,-7 -7,3 -15,4 -22,7 -7,4 -12,8 -18,11 -6,8 -12,8 -17,20 7,-3 7,-5 15,-5 4,-3 5,-4 11,-5 19,-3 29,10 32,10 8,-3 14,-7 26,-9 13,-2 19,4 30,6 1,-3 0,-2 4,-5 3,-3 1,-1 6,-3 7,-3 11,-3 18,-3 12,2 15,6 22,8l-3 -10c-5,-19 -4,-28 8,-40 -8,-25 -26,-25 -5,-59 -13,-17 -3,-26 3,-41 -16,7 -34,28 -36,49z"/>
   <path class="fil4" d="M1546 926c3,6 24,22 31,26 12,7 25,14 41,16l-1 -15c8,-3 19,1 29,2 -3,-12 -1,-11 -13,-18 -10,-5 -5,9 -8,-6 0,0 1,-1 2,-1 0,1 1,-1 3,-1 6,-3 1,1 5,-3l3 6c0,1 -2,2 -2,2 5,3 3,4 3,-6 1,1 1,1 1,2 1,0 1,1 2,1 4,5 -1,2 4,0l1 -1c1,0 2,0 2,0 4,0 6,0 7,4 0,-15 -1,-3 4,-8 5,9 4,2 34,2l-2 0c-5,-3 -2,0 -6,-4l50 -9c0,0 1,-1 2,-1 2,6 1,4 2,12 -2,-16 -1,-4 3,-8 1,-8 2,-17 0,-24l-11 2c-51,15 -121,21 -175,2 -8,-3 -16,-7 -24,-7 -1,9 -1,3 2,8l16 14c8,8 12,6 18,15 -4,2 -7,2 -12,1 -7,-2 -5,-2 -7,-3 -5,-2 0,-3 -4,0z"/>
   <path class="fil0" d="M1232 786c4,4 4,2 4,16 4,-3 2,-7 10,4l-8 21c0,0 0,1 0,1 -1,7 0,20 -2,30l0 3c-3,6 5,4 -6,5l0 6c11,3 5,8 3,13 -7,10 -3,16 -19,16 0,15 -1,8 -7,16 2,3 2,3 2,8 11,-4 11,-8 33,-13 6,-1 14,1 17,-1 3,-1 6,-6 12,-10 6,-4 12,-4 16,-7 6,-4 3,-5 9,-13 11,-13 20,-13 26,-19l-3 -9c-10,5 -10,6 -19,1 -20,18 -6,-1 -34,14 -13,7 -17,1 -19,-6 -1,-3 0,-1 -1,-4 -1,-4 0,-1 -2,-5 4,-1 11,-4 15,-6 -2,-1 0,-1 -4,-1l-10 0c-2,-12 9,-32 13,-44 4,-10 6,-23 5,-37 -1,-7 1,-7 -5,-9 -11,-5 -27,6 -34,12 3,6 7,7 8,18z"/>
   <path class="fil4" d="M1786 1416c-3,1 -2,1 -6,2 -9,-10 -10,-19 -14,-32 -14,-1 -4,2 -8,2l-7 -1c0,-1 -1,-1 -1,-1 2,3 2,2 -1,7l-2 2c-2,3 -3,4 -1,9 -6,4 -7,-1 -9,5 -3,8 7,0 -3,8 1,-6 3,-9 -4,-11 -12,-4 -4,1 -4,3l2 9c0,-1 -1,-2 -1,-2l-5 -5c2,5 26,48 30,52l9 0c-2,-8 3,1 -3,-4 -6,-5 -5,-1 -6,-10 1,3 2,4 2,7 6,1 6,0 7,0l6 -4 -1 -11c0,-1 1,-4 1,-5l9 9c1,2 4,7 8,12l5 -8c1,-4 -1,-6 2,-14 7,7 2,4 1,16l6 -9 9 5c-3,-6 -4,-10 -1,-14 7,13 -2,4 3,19 1,1 1,1 1,2 9,-32 19,-27 18,-44 -3,-33 -1,-21 -1,-46 0,-7 0,-9 -3,-14 3,13 4,16 0,30l-2 -7c0,-3 0,-8 0,-10l-3 10c0,-1 1,0 1,1 -8,-5 -1,-4 -13,-7 2,5 2,6 2,11 -1,9 0,1 -5,3 -10,3 2,3 -3,1 -3,-1 4,1 -6,-6 -13,29 -3,12 -5,34 -1,15 0,10 -4,6z"/>
   <path class="fil3" d="M1551 1147c15,38 -31,58 -40,59l-5 -25c0,8 1,4 -2,9 -5,7 -5,4 -5,4 -1,-4 2,-1 2,-10 0,-7 -2,-3 -2,-15l-6 8c-3,4 -2,3 -2,5 5,12 1,1 4,14l-5 0c0,7 -1,7 -1,12 -7,-1 -2,1 -9,-4l2 0c14,-3 4,-10 4,-10l-6 -2c-1,0 1,-1 -3,-2 -2,8 -4,17 4,22l15 7c-4,4 5,8 -5,3 5,14 7,40 16,49 27,0 10,-33 8,-50 5,-8 34,-32 42,-35 3,14 15,59 28,66 4,3 8,3 14,2 25,-4 2,-22 -7,-40 -4,-9 -12,-36 -15,-41 -8,-3 -10,-5 -7,-26 -10,3 -3,-3 -8,-6l0 8c-4,-3 -6,-6 -6,-12 0,18 1,4 -5,10z"/>
   <path class="fil3" d="M1414 1480c11,-2 8,-6 5,-16 -3,-9 -1,-2 -4,-9 -2,-6 -1,-7 -4,-11 6,-1 3,2 9,-1 9,-3 1,-11 6,12l6 -8c3,-6 -4,0 5,-6 3,4 1,4 3,8 4,7 -1,8 5,3l0 -4c-1,-1 -11,1 2,-10 -1,0 -2,-1 -2,0 0,0 -1,-1 -1,-1 -1,-1 -4,4 -1,-5 0,0 0,-1 1,-1l1 -4c0,0 3,1 5,1l12 -3c0,0 1,0 1,-1 0,5 0,6 12,11 -1,-12 -6,-9 -2,-11 1,-1 8,3 7,-5l8 8c8,14 4,15 13,18 -1,-13 -10,-23 -16,-34 -7,-17 -6,-22 -17,-35 -6,-7 -24,-15 -35,-6 -5,4 -7,10 -11,14 -13,11 -27,-9 -17,56 2,16 11,23 9,40z"/>
   <path class="fil4" d="M1995 1286c10,18 0,51 13,58 6,1 5,-3 8,-7 4,10 -1,1 14,7 -2,-5 -2,1 -1,-7 3,-12 0,-4 4,-8 0,2 1,5 1,6 4,7 7,-2 3,7 -3,7 1,-9 -3,4 10,3 -3,0 9,5 -3,-17 -4,0 -2,-11l8 -15c0,13 -3,7 -5,17 -2,9 1,10 2,18 11,3 4,0 6,-1 -11,-37 15,-22 31,-26 4,-6 6,-21 6,-30 -13,-8 -26,1 -43,-4 -2,-16 10,-18 25,-17 20,1 24,-1 26,-20 -7,-2 -4,-5 -5,-16 -5,17 2,1 -8,12l0 -11c-5,6 -2,8 -6,16l-2 2c-1,3 -1,2 -2,6 -1,-5 -3,-6 -6,-8 -1,5 -1,7 -3,9l-16 -6c0,-1 -1,-1 -1,-1l0 12c-8,1 -9,1 -16,7 -3,3 -10,11 -11,14 -3,-5 -4,-5 -4,-13 -6,6 -3,7 -7,8 -1,-7 -3,-11 -8,-15 -2,12 1,6 -7,8z"/>
   <path class="fil5" d="M2120 1325c14,8 5,15 8,27 2,7 4,5 5,16 0,10 -3,10 6,15 11,2 1,2 6,-2 -7,-5 -11,-8 -4,-13 2,6 -1,2 4,4 3,1 8,1 10,0 -1,-1 -1,-2 -3,-3 0,-1 0,-1 0,-1 -2,-1 -14,5 -11,-8 3,-11 6,4 15,-1 5,-2 3,0 1,-7 -1,0 -4,8 -4,-6 11,0 6,1 15,0 -3,-6 -4,-14 -2,-23 20,-16 40,18 39,-33 -13,-10 -13,1 -41,-5l-1 -5c-2,7 2,1 -7,4l-4 1c5,1 6,-1 3,3 -2,-2 -3,-6 -13,-2 4,8 4,2 10,5 -11,4 -9,-4 -14,-3l-1 5c3,2 4,2 6,3l7 3c-1,0 -3,2 -3,2 -6,1 -14,-1 -16,-9 -13,6 9,-7 -4,4 -3,2 -3,-4 -3,15 -6,1 6,0 -2,-2 0,0 0,-5 0,2 0,5 0,9 -2,14z"/>
   <path class="fil4" d="M1640 1449c1,7 4,9 7,17 3,6 4,12 6,17 2,10 11,25 22,24 16,0 3,-10 33,-14 11,-1 5,-4 15,-8 9,-4 10,-3 16,-7 4,-37 -17,-22 -27,-21 -6,0 -9,-1 -14,0 -7,0 -5,1 -12,1l-8 -28 1 10 -5 -5c-4,-4 -1,-2 -2,-2 -6,11 5,2 -6,9l-7 3c-3,0 1,0 -3,0 -7,-1 -10,-6 -15,-6 1,6 1,3 -1,10z"/>
   <path class="fil4" d="M1552 1493c11,20 18,69 47,42 10,-10 9,-5 20,-7 11,-2 5,-6 16,-10 8,-3 14,-4 15,-12 1,-7 -3,-15 -8,-19 -8,-5 -13,2 -22,3 -14,2 0,-2 -25,3l-7 -18c-2,-4 1,-1 -2,-4 4,8 2,0 2,10l-7 -11c-3,3 -4,2 -4,12 2,-13 -1,-6 -3,-8 0,2 0,11 -6,7l-8 -10c-1,12 -1,11 1,13 -4,3 0,2 -5,0l-3 -2c5,19 2,6 -1,11z"/>
   <path class="fil2" d="M1515 1406c8,26 17,9 19,42 1,12 12,35 18,45 3,-5 6,8 1,-11l3 2c5,2 1,3 5,0 -2,-2 -2,-1 -1,-13l8 10c6,4 6,-5 6,-7 2,2 5,-5 3,8 0,-10 1,-9 4,-12l7 11c0,-10 2,-2 -2,-10 0,-13 -7,-19 -9,-29 -2,-17 2,-18 -4,-38 -3,6 0,1 -6,6 1,-17 -8,-8 -6,-31l-2 14c-2,7 -2,-6 -1,3 0,4 4,-6 1,6 -11,-5 -7,-3 -6,-12 -8,-1 -9,5 -8,12l-17 -8c2,2 2,0 3,4l-1 6c0,1 0,1 0,1l-5 7c-2,-13 0,-7 -1,-16 -7,16 1,16 -9,10z"/>
   <path class="fil2" d="M1610 1368c1,8 3,15 8,20 19,20 4,17 13,40 4,9 4,15 9,21 2,-7 2,-4 1,-10 5,0 8,5 15,6 4,0 0,0 3,0l7 -3c11,-7 0,2 6,-9 1,0 -2,-2 2,2l5 5 -1 -10c-4,-13 -8,-15 -7,-31 1,-10 1,-25 -7,-32 -3,3 1,4 -3,2 -1,-7 0,-10 -2,-16l-2 -6c0,-1 -1,-3 -1,-4 -5,8 1,0 -7,5 2,1 3,0 9,1 -1,1 -2,1 -2,1 -11,14 5,7 -10,14 -5,4 3,1 -4,0 -6,-1 -6,-2 -11,5l-4 -4c0,0 0,-1 -1,-1 -2,-3 -1,-2 -2,-3 -1,0 -1,-1 -1,-1l-2 -1c-3,-1 2,-2 -4,0l-1 6c0,0 -1,-1 -1,-1 -8,-9 0,-4 -3,-4l3 15 -5 -7z"/>
   <path class="fil5" d="M2008 1344c6,4 6,10 6,18 0,19 4,9 6,21 4,20 -5,21 29,22 11,0 12,1 20,-4 11,-9 8,-4 19,-8 11,-4 16,-23 8,-34 -18,-8 -22,13 -44,0 -2,1 5,4 -6,1 -1,-8 -4,-9 -2,-18 2,-10 5,-4 5,-17l-8 15c-2,11 -1,-6 2,11 -12,-5 1,-2 -9,-5 4,-13 0,3 3,-4 4,-9 1,0 -3,-7 0,-1 -1,-4 -1,-6 -4,4 -1,-4 -4,8 -1,8 -1,2 1,7 -15,-6 -10,3 -14,-7 -3,4 -2,8 -8,7z"/>
   <path class="fil3" d="M1344 1505c13,2 3,1 6,-3 -1,-7 -1,-8 -3,-12 -2,-4 -4,-6 -5,-10l5 6c6,3 8,-1 3,-9l9 6c0,0 1,1 1,1 6,-26 -5,5 -5,-12l3 -9c0,0 0,-3 1,-4 1,3 1,-2 2,6 0,4 0,4 -1,9 8,-5 0,2 5,-4 0,0 1,0 1,-1l1 -3c8,3 1,2 5,3 9,1 -3,3 2,-1 6,-4 -3,-2 1,-1 11,36 11,21 12,19 -1,-9 -5,-16 -9,-26 -9,-26 -6,-66 -46,-47 -44,20 12,60 12,92z"/>
   <path class="fil3" d="M1515 1406c10,6 2,6 9,-10 1,9 -1,3 1,16l5 -7c0,0 0,0 0,-1l1 -6c-1,-4 -1,-2 -3,-4l17 8c-1,-7 0,-13 8,-12 -1,9 -5,7 6,12 3,-12 -1,-2 -1,-6 -1,-9 -1,4 1,-3l2 -14c-2,23 7,14 6,31 6,-5 3,0 6,-6 -10,-15 -7,-84 -44,-65 -6,2 -7,5 -14,7 -16,6 -24,2 -12,34 4,9 7,18 12,26z"/>
   <path class="fil5" d="M1380 1044c3,11 3,1 -8,9 -6,3 -2,2 -4,5 -4,4 -6,2 -13,5l-4 2c-5,2 2,1 -8,2l-1 -4 -3 15 -4 -3c-8,5 -7,-1 -17,-1 -2,6 0,-7 0,1 0,2 2,-1 0,3 -2,0 -5,0 -6,0 -1,0 -1,0 -2,0l-9 4c-9,5 -1,3 -13,8l-9 3c-5,2 -2,1 -8,1 -14,-2 -6,-1 -18,-6l0 10c13,2 18,19 29,26 3,2 1,1 4,1 1,0 3,0 3,0l3 1c7,1 1,1 4,-2 -5,-6 0,1 -5,-3 -4,-4 -2,1 -4,-5 6,-3 13,-2 20,-1 0,-8 1,-13 0,-18 19,-4 12,4 29,6 -3,-14 3,-12 7,-25 3,2 7,5 12,7 0,0 1,-2 1,-1l3 -6c8,-9 21,0 27,3 5,-6 47,-19 6,-40 -3,3 0,-1 -4,5l-8 -2z"/>
   <path class="fil6" d="M2301 1318c4,17 8,14 17,23 12,10 5,21 16,25 31,9 14,-40 19,-60 -5,-5 -6,-6 -1,-13 -11,-6 -6,-5 -6,-7 0,-10 -1,-6 -2,-14l-2 2c-5,5 0,4 -8,-2 2,12 -4,3 -4,18l-7 -12c-6,4 -13,9 -14,17 -12,-5 -3,-9 -12,-13 -1,12 4,22 8,33l-4 3z"/>
   <path class="fil7" d="M1491 1222c10,5 1,1 5,-3l-15 -7c-8,-5 -6,-14 -4,-22 4,1 2,2 3,2l6 2c0,0 10,7 -4,10l-2 0c7,5 2,3 9,4 0,-5 1,-5 1,-12l5 0c-3,-13 1,-2 -4,-14 0,-2 -1,-1 2,-5l6 -8c0,12 2,8 2,15 0,9 -3,6 -2,10 0,0 0,3 5,-4 3,-5 2,-1 2,-9 -4,-26 -14,-83 -46,-78 -16,2 -28,14 -30,30 -2,12 7,38 21,36l4 -1c7,-19 -18,-10 -14,-42 4,-3 9,-6 17,-7 10,9 24,44 24,61 -8,7 -14,8 -12,24 2,11 11,17 21,18z"/>
   <path class="fil3" d="M1282 1520c6,-5 4,6 5,-7l-2 -4c-4,-5 -6,-8 -8,-15 3,3 5,1 7,0 -2,7 -2,3 0,10 1,0 2,-1 2,-1 2,4 -1,-3 7,-3 0,0 2,7 6,-5 0,9 -5,10 -6,14 5,2 10,1 11,-3 3,-5 -6,-7 5,-3l-1 -12c0,0 2,1 3,1l3 1c3,0 5,-2 5,-7 0,-9 -5,-17 -9,-26 -14,-31 -8,-26 -30,-20 -7,2 -10,0 -18,1 -22,12 13,56 20,79z"/>
   <path class="fil3" d="M1610 1368l5 7 -3 -15c3,0 -5,-5 3,4 0,0 1,1 1,1l1 -6c6,-2 1,-1 4,0l2 1c0,0 0,1 1,1 1,1 0,0 2,3 1,0 1,1 1,1l4 4c5,-7 5,-6 11,-5 7,1 -1,4 4,0 15,-7 -1,0 10,-14 0,0 1,0 2,-1 -6,-1 -7,0 -9,-1 8,-5 2,3 7,-5 0,1 1,3 1,4l2 6c2,6 1,9 2,16 4,2 0,1 3,-2 0,-18 -1,-46 -13,-56 -8,-8 -15,-8 -26,-3 -20,10 -31,6 -29,23l14 37z"/>
   <path class="fil4" d="M1374 1563c1,6 22,63 28,66 16,3 24,-6 30,-16 -2,-10 -3,-10 -6,-17 -2,-8 0,-8 -1,-16 0,-11 -8,-16 -11,-27 -2,1 -4,2 -7,1 0,4 2,5 2,6 -10,-8 5,8 -12,-9 -4,-4 4,1 -4,-3 -5,17 0,3 -8,14l-9 -9c-11,-2 -18,-1 -20,8 4,-2 7,-4 12,-4 3,0 5,-1 7,2 2,6 3,-2 -1,4z"/>
   <path class="fil4" d="M1432 1553c7,10 25,70 41,42l8 -11c0,-13 -8,-28 -6,-36 2,-12 8,-6 13,-18 1,-1 2,-5 3,-7l-2 -5c-4,-11 -10,-2 -18,1l-10 2c-1,4 1,7 2,9 -5,-8 1,-2 -6,-5 -1,8 -1,5 -1,12 -5,-5 -5,-10 -11,-5 -4,3 -5,9 -5,14l0 -3c0,-1 0,-1 0,-1 1,-4 2,-1 2,-10l-9 5c3,8 3,7 1,12l-2 4z"/>
   <path class="fil4" d="M1322 1591c3,7 7,15 12,22 8,12 6,6 12,21 3,11 8,14 18,16 13,4 16,0 24,-6 0,-11 -17,-50 -22,-57l-8 -4c-3,7 0,5 -4,3 -1,-1 -5,-8 -6,3l-11 -13c-1,5 -1,7 -4,11 -1,3 -2,2 -4,6 4,-7 5,1 0,-12 -3,-11 4,-7 -10,-10 12,27 7,18 3,20z"/>
   <path class="fil7" d="M1568 1077c18,4 7,43 4,54 -3,-4 -3,-4 -3,-12 -1,-12 -5,-32 -1,-42zm-17 70c6,-6 5,8 5,-10 0,6 2,9 6,12l0 -8c5,3 -2,9 8,6 -3,21 -1,23 7,26 -9,-37 27,-84 1,-107 -12,-11 -29,-9 -33,23 -3,23 3,37 6,58z"/>
   <path class="fil5" d="M1373 908l11 11c5,4 -4,3 8,11l-4 4c0,1 4,4 -10,10 -9,4 -18,9 -28,11 -2,3 -9,12 -10,16 4,0 15,-5 19,-7 18,-6 54,-13 73,-13 1,-7 -3,-8 -6,-14l-11 -23c0,0 -5,-7 -5,-7 -6,-8 -9,-5 -20,-5 4,-7 3,-1 8,-7 -7,-4 -9,-8 -18,-9l-7 22z"/>
   <path class="fil0" d="M1776 1123c-17,13 -21,61 -12,67 6,4 19,3 26,0 32,-15 10,-86 -14,-67z"/>
   <path class="fil0" d="M1925 691c2,8 4,7 7,14 8,13 0,17 3,25 7,-9 19,-11 28,-7 10,1 1,2 9,-3 2,-2 6,-5 9,-6 8,-4 18,0 25,-1 8,-8 10,-4 21,-3l-1 -2c-12,-6 -14,-14 -34,-14 -5,7 -12,10 -20,11 -18,4 -13,-3 -10,-11 -11,1 -8,2 -12,-6l-5 5c-17,-23 -3,-19 -6,-36 -5,-10 -16,-27 -30,-29 13,19 11,16 8,32 -2,11 14,13 8,31z"/>
   <path class="fil6" d="M1646 955l2 -1c5,-4 12,-3 23,-3 15,1 23,-2 37,-4 13,-2 22,-2 32,-8 0,-1 1,-1 1,-1l1 8 1 -28c-4,4 -5,-8 -3,8 -1,-8 0,-6 -2,-12 -1,0 -2,1 -2,1l-50 9c4,4 1,1 6,4l2 0c-30,0 -29,7 -34,-2 -5,5 -4,-7 -4,8 -1,-4 -3,-4 -7,-4 0,0 -1,0 -2,0l-1 1c-5,2 0,5 -4,0 -1,0 -1,-1 -2,-1 0,-1 0,-1 -1,-2 0,10 2,9 -3,6 0,0 2,-1 2,-2l-3 -6c-4,4 1,0 -5,3 -2,0 -3,2 -3,1 -1,0 -2,1 -2,1 3,15 -2,1 8,6 12,7 10,6 13,18z"/>
   <path class="fil0" d="M1649 1143c-15,9 -18,24 -14,41 7,23 29,54 42,-1 9,-40 -14,-49 -28,-40z"/>
   <path class="fil0" d="M1868 1169c45,17 56,-29 40,-55 -11,-17 -23,-11 -31,5 -8,14 -10,32 -9,50z"/>
   <path class="fil6" d="M2168 1346c-9,1 -4,0 -15,0 0,14 3,6 4,6 2,7 4,5 -1,7 -9,5 -12,-10 -15,1 -3,13 9,7 11,8 0,0 0,0 0,1 2,1 2,2 3,3 -2,1 -7,1 -10,0 -5,-2 -2,2 -4,-4 -7,5 -3,8 4,13 -5,4 5,4 -6,2 7,5 14,2 26,4 14,2 10,-4 22,-8 0,0 37,-1 24,-35 -7,-2 -13,-1 -22,1 -12,4 -11,1 -21,1z"/>
   <path class="fil4" d="M1503 1526c5,18 12,20 17,28 10,14 2,16 25,14 10,-16 3,-27 -4,-43 -4,-12 -13,-32 -17,-37 -1,0 -6,-1 -7,-5 -1,-1 -1,-1 -2,-2 -1,15 3,1 3,14 0,0 -1,1 -1,1 -2,20 4,5 -1,11 -2,5 4,-2 -3,1l-9 5c-5,-8 -4,-5 -13,-8 1,16 -1,7 10,13 7,5 6,7 6,14l-4 -6z"/>
   <path class="fil4" d="M2234 1268l1 8c5,-11 6,-19 2,-35 9,8 3,11 2,23 4,-6 4,-7 4,-19 7,3 -1,-2 4,3l3 5c1,-6 0,-7 6,-10 1,4 0,4 10,7l1 -3c4,-6 9,-7 18,-6 -1,-7 -1,-6 1,-11 14,4 0,6 16,8 -3,-6 -5,-9 -8,-15 -6,-14 -10,-21 -33,-11 -34,14 -31,-3 -27,56z"/>
   <path class="fil5" d="M1924 1387c1,4 0,-1 2,4 1,4 0,0 1,4l11 26 26 1c6,-10 2,-16 11,-28 -7,-6 -4,-32 -4,-49l-1 0c0,16 0,10 -4,21 -4,1 0,-6 -4,2 -2,5 0,6 -2,9 -6,11 -2,1 -5,1 -3,-1 -1,8 -2,0 0,0 -1,1 -1,1 -2,-9 0,-8 -1,-15 -6,1 -2,2 -7,0 0,0 -1,1 -1,1l-3 11c-1,8 -2,3 -2,13l-3 -5c-5,-5 -4,1 -10,-9l-2 -3c-2,12 3,1 1,15z"/>
   <path class="fil6" d="M1221 1061l4 -11c5,-1 12,-3 15,-10 10,0 1,0 4,2 17,-15 14,-17 34,-32 7,-6 8,-6 10,-11l-19 2c-5,9 -17,12 -25,20 0,0 -1,1 -1,2 -1,0 -1,1 -1,1l-5 5c-5,4 -2,-2 -5,5l-6 0 -10 -17c-7,-7 -9,-9 -7,-16 -7,-1 -3,1 -7,-2 -7,-5 -3,-2 -6,-6 -5,20 3,40 14,55 1,2 3,5 5,7 2,3 3,3 6,6z"/>
   <path class="fil3" d="M1211 1084c-4,3 -9,0 14,15 6,4 14,4 9,11 0,6 -1,0 4,3 3,-4 11,-12 15,-15l0 -10c12,5 4,4 18,6 6,0 3,1 8,-1l9 -3c12,-5 4,-3 13,-8l9 -4c1,0 1,0 2,0 1,0 4,0 6,0 2,-4 0,-1 0,-3 0,-8 -2,5 0,-1 10,0 9,6 17,1 -12,-3 -22,-11 -31,-14l-21 25c-9,-3 -22,-15 -33,-19 -11,5 -14,16 -24,23l-15 -6z"/>
   <path class="fil6" d="M2245 1345c2,12 2,18 7,27l14 0c3,-5 2,-6 4,-11 6,-11 13,-6 10,-27 -1,-10 -2,-6 0,-17l-4 6c0,0 -1,5 -1,6 -2,-3 -2,-8 -2,-9 0,0 0,-1 0,-1l1 -1c0,-1 1,-1 1,-1l0 -29c-2,7 1,5 -5,2 0,12 1,11 0,19 -1,7 -1,6 -2,14 -13,-4 7,0 -4,-4 -2,-1 1,-4 -4,4l-2 -18 -5 6c-4,-2 -2,0 -2,1 -10,24 3,25 -6,33z"/>
   <path class="fil8" d="M1554 814l-17 29c3,3 10,-3 20,-9 9,-5 13,-10 23,-13 10,-5 16,0 27,4 9,2 22,5 27,9l3 -3c-7,-5 -9,-6 -16,-13 -7,-7 -10,-9 -16,-13l-10 4c-2,-6 3,1 0,-4 -7,1 -5,1 -13,1l-28 8z"/>
   <path class="fil0" d="M1766 1386c4,13 5,22 14,32 4,-1 3,-1 6,-2 -3,-20 -9,-68 -19,-79 -12,1 -12,10 -13,24 -1,10 7,14 12,25z"/>
   <path class="fil2" d="M1890 1308c2,4 3,2 7,5 1,-7 -2,-12 2,-16 6,-5 -5,0 6,-3 -7,-4 0,2 2,4l3 -8c2,6 -1,9 7,5 2,10 1,2 5,11 0,0 0,1 1,1l0 4c5,2 3,0 6,-2 -5,-12 -9,-24 -13,-36 -4,-12 -4,-33 -19,-26 -7,10 -2,19 -3,31 -1,11 -5,15 -4,30z"/>
   <path class="fil5" d="M1752 1463c0,0 21,8 22,8 2,0 25,0 28,0 5,-7 5,-9 8,-17 0,-1 0,-1 -1,-2 -5,-15 4,-6 -3,-19 -3,4 -2,8 1,14l-9 -5 -6 9c1,-12 6,-9 -1,-16 -3,8 -1,10 -2,14l-5 8c-4,-5 -7,-10 -8,-12l-9 -9c0,1 -1,4 -1,5l1 11 -6 4c-1,0 -1,1 -7,0 0,-3 -1,-4 -2,-7 1,9 0,5 6,10 6,5 1,-4 3,4l-9 0z"/>
   <path class="fil2" d="M1671 951c1,2 1,5 2,7 5,-1 8,-1 10,1 3,2 2,5 7,11 2,-4 2,-4 2,-13 14,0 16,4 22,13 32,1 27,-13 28,-24l-1 -8c0,0 -1,0 -1,1 -10,6 -19,6 -32,8 -14,2 -22,5 -37,4z"/>
   <path class="fil3" d="M1745 785c-5,9 -12,19 -15,27l3 1c0,0 1,1 1,1 0,0 1,0 1,-1l42 -27c4,2 41,16 46,16 0,0 1,-1 2,-1 0,0 1,0 1,-1 0,0 1,0 2,-1 -11,-7 -13,-12 -24,-19 -5,0 -4,1 -9,0 -17,-3 -3,3 -17,1 -8,-2 3,-2 -5,-2 -3,0 2,0 -2,1 -11,5 -17,3 -20,9 -3,-1 -1,0 -4,-2 0,0 -1,0 -1,0 0,-1 -1,-1 -1,-2z"/>
   <path class="fil5" d="M1873 1407c5,10 4,16 12,22 2,1 11,7 12,7 6,4 5,3 14,1 -8,-1 -4,1 -8,-4 11,-5 8,-4 10,-19l0 -11c-1,-7 -2,-5 -2,-13 -10,6 -3,4 -3,19l-4 1 -2 -16c-2,-7 -9,-3 -11,4 -1,10 0,13 -9,16 1,-7 3,-9 0,-13 -3,-4 -4,-3 -6,-4 0,1 1,4 0,5 -2,6 3,-1 -3,5z"/>
   <path class="fil0" d="M2009 1171c-11,16 -31,36 -20,62 8,-1 4,-2 11,-5 4,-2 8,-2 13,-4 2,-10 1,-29 0,-41l-4 -12z"/>
   <path class="fil5" d="M1745 785c0,1 1,1 1,2 0,0 1,0 1,0 3,2 1,1 4,2 3,-6 9,-4 20,-9 4,-1 -1,-1 2,-1 8,0 -3,0 5,2 14,2 0,-4 17,-1 5,1 4,0 9,0l-37 -33c-6,6 -16,27 -22,38z"/>
   <path class="fil2" d="M1774 1264c-1,-9 -3,-31 -9,-38 -4,5 0,7 -6,-12 -6,-1 -7,-1 -2,5 -3,-10 1,-6 -4,-12 -3,8 -1,7 -1,16l-1 33c-1,5 -2,8 -2,14l22 1c0,-7 -2,-4 3,-7z"/>
   <path class="fil0" d="M1445 1448l0 4c0,0 1,1 1,1 3,7 7,34 9,43 27,0 20,-16 10,-37 -10,-23 -8,-19 -19,-19 -3,6 -1,1 -1,8z"/>
   <path class="fil2" d="M1730 812l-13 23c10,-2 55,-25 63,-30 -2,-9 -3,-10 -3,-19l-42 27c0,1 -1,1 -1,1 0,0 -1,-1 -1,-1l-3 -1z"/>
   <path class="fil4" d="M1427 1003l-1 11 -14 -1 -6 8 -5 3 -2 5c9,1 6,3 13,9 12,-6 19,-16 29,-23l10 3c1,-3 -2,-31 -10,-25l-14 10z"/>
   <path class="fil9" d="M1580 821c-1,2 -3,6 0,8 7,5 -3,-6 8,3 -1,2 -1,1 -2,3 0,0 -1,1 -1,1 0,-1 0,1 -1,1 15,-2 48,10 70,11 -3,-5 -13,-11 -17,-17l-3 3c-5,-4 -18,-7 -27,-9 -11,-4 -17,-9 -27,-4z"/>
   <path class="fil0" d="M1400 814l2 1c-5,6 12,5 26,11 7,3 21,12 26,13 0,-1 3,-9 3,-11 1,-5 0,-6 -3,-11 -9,-5 -10,-10 -15,-12 -9,7 -2,9 -10,15 -17,-3 -7,-20 -18,-26 0,13 -2,17 -11,20z"/>
   <path class="fil8" d="M1454 953c-4,10 -2,8 -13,12 -6,2 -10,3 -17,5l3 33 14 -10c8,-6 11,22 10,25l3 2 5 1 -10 -28c-5,-8 -6,-3 -9,-10 5,-5 4,-4 8,-6 11,-5 8,-1 10,-28 -3,2 -1,-3 -4,4z"/>
   <path class="fil2" d="M1537 843l-9 16c10,3 48,-17 56,-22 1,0 1,-2 1,-1 0,0 1,-1 1,-1 1,-2 1,-1 2,-3 -11,-9 -1,2 -8,-3 -3,-2 -1,-6 0,-8 -10,3 -14,8 -23,13 -10,6 -17,12 -20,9z"/>
   <path class="fil5" d="M1554 814l28 -8c8,0 6,0 13,-1 3,5 -2,-2 0,4l10 -4c-4,-6 -25,-25 -30,-28 -3,3 -4,4 -6,8 -1,2 -3,6 -5,9 -3,7 -7,12 -10,20z"/>
   <path class="fil9" d="M1780 805c3,0 5,0 7,1l40 9c11,1 12,1 14,5l3 1c2,-4 -2,-3 2,-4 -6,-4 -12,-12 -18,-18 -1,1 -2,1 -2,1 0,1 -1,1 -1,1 -1,0 -2,1 -2,1 -5,0 -42,-14 -46,-16 0,9 1,10 3,19z"/>
   <path class="fil4" d="M1648 954c-2,7 -3,12 -1,19 12,2 21,4 33,1l10 -4c-5,-6 -4,-9 -7,-11 -2,-2 -5,-2 -10,-1 -1,-2 -1,-5 -2,-7 -11,0 -18,-1 -23,3z"/>
   <path class="fil3" d="M1350 955c10,-2 19,-7 28,-11 14,-6 10,-9 10,-10l4 -4c-12,-8 -3,-7 -8,-11l-11 -11c-6,20 -20,39 -23,47z"/>
   <path class="fil6" d="M1754 892l4 26c11,5 9,7 24,5l12 -14c3,-5 5,-7 3,-16 -2,8 -5,7 -11,9 -6,3 -11,6 -18,7l-5 -14c-2,-7 1,-3 -4,-8 -8,5 -2,1 -5,5z"/>
   <path class="fil5" d="M1244 1021l-9 0c-4,-6 -2,-2 1,-10 -5,-1 -12,-4 -13,-11 0,-1 -1,-1 -1,-2l10 -1 -36 -4c3,4 -1,1 6,6 4,3 0,1 7,2 -2,7 0,9 7,16l10 17 6 0c3,-7 0,-1 5,-5l5 -5c0,0 0,-1 1,-1 0,-1 1,-2 1,-2z"/>
   <path class="fil0" d="M1469 972l-2 6c4,5 2,8 2,14 3,14 10,11 20,12 19,2 16,-15 5,-21 -10,-5 -10,-2 -22,-2 1,-6 0,-7 -2,-11l-1 2z"/>
   <path class="fil4" d="M1663 863l10 0 9 9c2,-10 -2,-7 9,-10 16,-4 14,2 24,-8 6,-5 3,-3 7,-3 -1,-3 2,-6 -16,-4 -10,2 -40,6 -47,10 1,4 1,3 4,6z"/>
   <path class="fil3" d="M1682 872c1,1 5,4 6,4 3,1 5,2 9,3 0,2 0,6 1,7 1,10 -2,4 3,8 2,-6 18,-40 21,-43 -4,0 -1,-2 -7,3 -10,10 -8,4 -24,8 -11,3 -7,0 -9,10z"/>
   <path class="fil6" d="M1546 926c4,-3 -1,-2 4,0 2,1 0,1 7,3 5,1 8,1 12,-1 -6,-9 -10,-7 -18,-15l-16 -14c-3,-5 -3,1 -2,-8 -6,-3 -6,-6 -15,-5 4,7 14,30 28,40z"/>
   <path class="fil3" d="M1244 1021c8,-8 20,-11 25,-20l-37 -4 -10 1c0,1 1,1 1,2 1,7 8,10 13,11 -3,8 -5,4 -1,10l9 0z"/>
   <path class="fil3" d="M1318 1011c9,5 11,9 20,3l4 14c4,-2 2,0 3,-6 1,-2 1,-4 1,-7 1,-6 1,-12 2,-18 0,-3 0,-6 -1,-8 -1,-6 -2,-5 -3,-6l-1 11c-1,0 -1,0 -1,0 0,0 -1,-1 -1,-1l-1 0c-3,1 3,-1 -3,1 -11,4 -1,0 -6,4 -2,1 -8,3 -10,5 -6,4 -3,8 -3,8z"/>
   <path class="fil10" d="M1454 953c3,-7 1,-2 4,-4 -2,27 1,23 -10,28 -4,2 -3,1 -8,6 3,7 4,2 9,10l0 -9c11,-2 8,-4 18,-6l2 -6c-9,-10 0,-28 -7,-40 -2,2 -8,19 -8,21z"/>
   <path class="fil0" d="M1124 1201l6 36 3 0c2,-3 -4,-3 5,-3 5,2 4,11 13,13l0 -10 -13 -21c-3,-7 -7,-12 -14,-17l0 2z"/>
   <path class="fil2" d="M1345 1051l-3 12 1 4c10,-1 3,0 8,-2l4 -2c7,-3 9,-1 13,-5 2,-3 -2,-2 4,-5 11,-8 11,2 8,-9 -7,-2 -9,-4 -17,-6 4,5 -6,1 4,5l-22 12 0 -4z"/>
   <path class="fil11" d="M1701 894c-5,-4 -2,2 -3,-8 -1,-1 -1,-5 -1,-7 -4,-1 -6,-2 -9,-3 -1,0 -5,-3 -6,-4l-9 -9 -10 0c2,7 1,5 11,14l14 15c0,0 4,3 5,3 0,0 0,3 8,-1z"/>
   <path class="fil4" d="M1301 1012c4,-7 3,-3 5,-5l12 4c0,0 -3,-4 3,-8 2,-2 8,-4 10,-5 5,-4 -5,0 6,-4 6,-2 0,0 3,-1l1 0c0,0 1,1 1,1 0,0 0,0 1,0l1 -11c1,1 2,0 3,6 1,2 1,5 1,8l0 -16c-11,0 -48,24 -49,26 -1,10 -1,1 2,5z"/>
   <path class="fil0" d="M1568 1077c-4,10 0,30 1,42 0,8 0,8 3,12 3,-11 14,-50 -4,-54z"/>
   <path class="fil12" d="M1823 856c10,1 7,6 22,5 3,-5 5,-4 4,-11 -1,-4 -3,-2 -5,-12 -9,1 -1,0 -7,3 -1,0 -5,3 -6,4 -9,6 -8,2 -8,11z"/>
   <path class="fil9" d="M1301 1012c6,4 32,18 41,16l-4 -14c-9,6 -11,2 -20,-3l-12 -4c-2,2 -1,-2 -5,5z"/>
   <path class="fil7" d="M1345 1051l0 4 22 -12c-10,-4 0,0 -4,-5l-14 -4 -4 17z"/>
   <path class="fil0" d="M1401 1024l5 -3c0,-16 -3,-2 2,-15 -11,5 -12,1 -15,4 -5,4 -2,14 -1,15l9 -1z"/>
   <path class="fil9" d="M1238 1113c-5,-3 -4,3 -4,-3 5,-7 -3,-7 -9,-11 -23,-15 -18,-12 -14,-15l-16 -4c5,11 0,3 9,10l34 23z"/>
   <path class="fil3" d="M1221 1061c0,14 -1,2 3,7 6,-6 6,-8 10,-14 2,-4 8,-9 10,-12 -3,-2 6,-2 -4,-2 -3,7 -10,9 -15,10l-4 11z"/>
   <path class="fil0" d="M1270 679l5 -3c5,2 7,2 8,7l8 1 -1 -6c-4,-2 -2,-1 -3,-4 -10,-5 -9,-9 -21,-6 -1,9 0,0 4,11z"/>
   <path class="fil0" d="M2104 773c2,13 12,17 15,35l3 -1 1 -7c-7,-6 -4,-8 -9,-16 -3,-6 -5,-9 -9,-15l-1 4z"/>
   <path class="fil12" d="M1798 872l14 6c3,-8 1,-9 -5,-14 -9,3 -7,0 -9,8z"/>
   <path class="fil0" d="M1385 808l15 5c1,-2 3,-4 5,-7l-12 -3c-12,-1 -6,1 -8,5z"/>
   <path class="fil0" d="M2373 1178c3,-8 4,-18 2,-26 -6,7 -6,12 -4,21l2 5z"/>
  </g>
 </g>
</svg>
