<?xml version="1.0" encoding="UTF-8"?>
<!DOCTYPE svg PUBLIC "-//W3C//DTD SVG 1.1//EN" "http://www.w3.org/Graphics/SVG/1.1/DTD/svg11.dtd">
<!-- Creator: CorelDRAW X8 -->
<svg xmlns="http://www.w3.org/2000/svg" xml:space="preserve" width="3508px" height="2480px" version="1.1" style="shape-rendering:geometricPrecision; text-rendering:geometricPrecision; image-rendering:optimizeQuality; fill-rule:evenodd; clip-rule:evenodd"
viewBox="0 0 3508 2480"
 xmlns:xlink="http://www.w3.org/1999/xlink">
 <defs>
  <style type="text/css">
   <![CDATA[
    .fil0 {fill:#FEFEFE}
    .fil1 {fill:#91D8F7}
    .fil4 {fill:#909090}
    .fil3 {fill:#A0A0A0}
    .fil2 {fill:#F29700}
   ]]>
  </style>
 </defs>
 <g id="Capa_x0020_1">
  <metadata id="CorelCorpID_0Corel-Layer"/>
  <g id="_2126437697520">
   <path class="fil0" d="M1174 925l104 -52 109 17 337 -42c43,-5 70,-37 79,5l21 105c9,42 -17,120 -59,127l-493 87c-42,7 -29,-52 -50,-88l-53 -90c-22,-37 -33,-49 5,-69z"/>
   <path class="fil1" d="M1196 1704l0 0zm66 -16l-2 3 2 -3zm0 0l2 -6 -2 6zm-184 -6c0,-7 5,0 2,0 0,0 -2,8 -2,0zm168 -11c7,5 6,4 8,14 -11,-3 -8,-1 -8,-14zm-165 -2l0 0zm3 -3l-3 3 3 -3zm241 -3l1 1c0,0 -1,-1 -1,-1zm-241 3l0 0zm-17 3c1,-4 0,-7 5,-9l6 0c-2,10 -3,12 -11,9zm264 -11l0 0zm0 0c-8,-3 -4,6 -6,-9 7,5 4,1 6,9zm-60 -9c7,3 8,7 5,14 -6,-2 -11,-5 -5,-14zm-36 6l1 1c0,0 -1,-1 -1,-1zm-151 -3l1 1c0,0 -1,-1 -1,-1zm-6 0l1 1c0,0 -1,-1 -1,-1zm258 -3c-1,-5 4,-9 2,-1 0,0 0,11 -2,1zm-104 0l1 1c0,0 -1,0 -1,-1zm-3 -5c0,-7 5,-1 2,0 0,0 -2,8 -2,0zm-156 0l0 0zm313 -6c0,-7 4,0 2,0 0,0 -2,8 -2,0zm-3 -8c-1,-5 4,-10 2,-2 0,1 0,12 -2,2zm-88 -3l3 6 -3 -6zm-233 3l-3 3 3 -3zm3 -3l-3 3 3 -3zm230 0l-3 -5 3 5zm-230 0l0 0zm329 -5l1 1c0,0 -1,-1 -1,-1zm-338 -6l-2 3 2 -3zm3 -2l-3 2 3 -2zm0 0l0 0zm346 -14c-1,14 3,5 -5,8l5 -8zm-357 14c2,-6 1,-5 3,-9l11 -2c-4,5 -8,7 -14,11zm17 -14l-3 3 3 -3zm2 -3l-2 3 2 -3zm-11 0l0 0zm11 0l0 0zm-8 -3l-3 3 3 -3zm3 -2l-3 2 3 -2zm0 0c5,-7 1,-6 11,-9 -5,8 -2,6 -11,9zm14 -14l-3 5 3 -5zm420 -3l1 1c0,0 -1,-1 -1,-1zm-420 3l0 0zm-25 -3l0 0zm3 -3l-3 3 3 -3zm2 -2l-2 2 2 -2zm3 -3l-3 3 3 -3zm3 -3l-3 3 3 -3zm-17 0l-2 3 2 -3zm17 0l0 0zm-17 0l0 0zm-8 0l2 -6 -2 6zm11 -11l0 0zm505 0l0 0zm-505 0l0 0zm500 -8c0,-7 4,0 2,0 0,0 -2,8 -2,0zm-511 3l0 0zm-5 -8l0 0zm5 -11l0 0zm-30 -3l-3 3 3 -3zm3 -6l-3 6 3 -6zm2 -2l-2 2 2 -2zm3 -3l-3 3 3 -3zm3 -3l-3 3 3 -3zm3 -3l-3 3 3 -3zm0 0l0 0zm640 -8l0 1c0,0 -1,-1 0,-1zm-599 0l1 1c0,0 -1,-1 -1,-1zm-19 -3l-3 3 3 -3zm8 0l0 0zm-8 0l0 0zm22 -11l0 1c0,0 -1,0 0,-1zm659 -5l1 1c-1,0 -2,-1 -1,-1zm-673 -17l-3 3 3 -3zm3 -2l-3 2 3 -2zm0 0l0 0zm-14 -28c3,-7 0,-5 11,-8 -6,8 -2,3 -11,8zm14 -11l0 1c0,0 -1,-1 0,-1zm0 -8l0 0zm0 0l0 0zm1038 -60l1 0c0,0 -2,0 -1,0zm-1146 -3l0 0zm91 -8l10 -12c0,13 0,8 -10,12zm-110 -17l-2 3 2 -3zm3 -3l-3 3 3 -3zm1346 -2l0 0zm-1346 2c2,-9 5,-11 14,-13l-14 13zm16 -16l-2 3 2 -3zm3 -3l-3 3 3 -3zm0 0l0 0zm0 -11l1 1c0,0 -1,-1 -1,-1zm52 -5l1 0c0,0 -1,0 -1,0zm-57 -20l-6 4 6 -4zm33 0l0 0zm-31 -2l-2 2 2 -2zm0 0l0 0zm1684 -3l0 0zm-1678 -3l1 1c0,0 -1,-1 -1,-1zm1678 -11l1 1c0,0 -1,-1 -1,-1zm3 -8l-6 -2 6 2zm-1353 -41c9,-5 78,-24 88,-24l72 290c-6,6 -50,25 -60,27 -6,-11 -9,-38 -11,-53l-21 8 3 59 -61 27 -10 -334zm-102 30c10,-3 51,-19 61,-15l41 326c-16,4 -48,26 -60,25l-18 -139 -16 6 17 144 -59 29 -43 -350 60 -20 15 119c17,0 17,-3 15,-18l-13 -107zm1452 -11l1 1c0,0 -1,-1 -1,-1zm-3 -14l1 1c0,0 -1,-1 -1,-1zm-13 -8l0 1c0,0 -1,-1 0,-1zm-75 -30l3 27c-15,1 -29,3 -43,4 -18,1 -14,-7 -16,-27l56 -4zm91 19l0 0zm-922 -89c79,-10 77,61 86,126 7,53 21,118 -60,141 -81,23 -77,-63 -85,-125 -9,-72 -20,-131 59,-142zm-234 51l29 229c12,2 25,-6 37,-9l7 56c-15,7 -85,37 -97,39l-37 -300 61 -15zm1151 24l0 1c0,0 -1,0 0,-1zm11 0l-3 -3 3 3zm-3 -3l0 0zm-3 -10l0 0zm6 -9l-3 -2 3 2zm-3 -2l-6 -3 6 3zm-1047 -23c6,13 27,189 29,216l37 -11 6 55c-16,4 -34,11 -50,17 -8,3 -16,6 -24,9l-18 6c-4,0 -1,1 -5,-1l-35 -280 60 -11zm1041 20l0 0zm-11 -6c3,-3 11,5 3,2 0,0 -7,3 -3,-2zm11 -5l0 0zm0 0l-6 -2 6 2zm3 -14l0 0zm-595 -53c0,31 3,192 -4,208l-74 18c-14,-24 -20,-77 -33,-102l-3 112 -76 21 -57 -234 60 -7 31 141 -1 -145 66 -6c3,22 22,116 30,130l0 -133 61 -3zm579 17l0 0zm0 0l0 0zm-462 -25l4 38 -39 2c-2,10 0,27 5,36l37 -2c1,11 5,24 2,34l-37 5 6 41 45 -5 5 35 -108 23c-2,-33 -28,-186 -22,-202l102 -5zm-1043 17c10,6 18,5 19,19 -13,-3 -16,-6 -19,-19zm1505 -3l0 1c0,0 -1,0 0,-1zm-327 81l-37 3 5 37 45 -5 4 33 -107 18c-5,-25 -24,-164 -22,-182l104 -1c1,10 6,25 1,34l-38 1 3 32 40 -3 2 33zm243 -87c3,11 4,82 3,96l-46 2 -22 -103 65 5zm-229 -10l52 1c8,8 14,22 21,32 8,11 14,21 22,32l-7 -63c14,0 41,-2 51,4 5,8 19,121 19,139l-55 6 -32 -52c-1,-1 -1,-2 -1,-2 -1,0 -2,-1 -2,-2l3 59c-12,5 -36,9 -51,7l-20 -161zm313 8l0 0zm-1505 11l-11 -6c-7,29 3,17 5,39l-5 0c-6,-25 -37,-39 -20,-74 10,3 7,4 18,18 4,7 10,15 13,23zm1485 -33c1,0 1,1 1,1l-1 -1zm31 -11l0 1c0,0 -1,-1 0,-1zm-11 3c-13,0 -6,0 -9,-3 13,0 6,0 9,3zm-9 -3l0 0zm-1565 -16c14,0 4,0 8,2 -14,0 -4,0 -8,-2zm1563 -3l0 1c0,0 -1,-1 0,-1zm-11 -3l0 1c0,0 -1,-1 0,-1zm-731 0l1 1c0,0 -1,-1 -1,-1zm6 -3c11,3 8,1 11,9 -10,-5 -6,-1 -11,-9zm-28 0l1 1c0,0 -1,0 -1,-1zm71 -8l0 0zm-49 0l0 0zm-30 0l1 1c0,0 -1,-1 -1,-1zm79 0l0 0zm-49 0l-3 -3 3 3zm3 -5l0 0zm-6 2l-2 -2 2 2zm-791 -2c-1,-8 7,1 2,0 -4,0 -1,6 -2,0zm816 -3l0 0zm-19 3l0 0zm-33 -3c-2,-8 6,1 3,0 0,0 -1,0 -1,0 -5,0 -1,6 -2,0zm-791 25c-8,-5 -12,-14 -19,-25 16,4 16,12 19,25zm1162 -28l0 1c0,0 -1,-1 0,-1zm-267 0l0 0zm-68 0l0 1c0,0 -1,-1 0,-1zm43 -3l1 1c0,0 -1,0 -1,-1zm-8 0l0 0zm-41 0l0 0zm258 -2l1 1c0,-1 -1,-1 -1,-1zm-156 -3l0 0zm-25 -6c19,13 10,15 22,25 -13,-1 -19,-12 -22,-25zm-33 3l1 1c0,0 -1,0 -1,-1zm-225 -11l0 -74c15,0 18,-2 30,-3 0,20 -1,61 2,78 2,12 -1,16 12,16 8,0 11,-8 11,-17l0 -79c16,0 19,-3 33,-3l0 137c0,21 -11,34 -28,39 -29,8 -51,-27 -21,-49 20,-14 18,-4 18,-20 -14,10 -12,16 -35,16 -15,0 -22,-24 -22,-41zm469 8l1 1c0,0 -1,0 -1,-1zm-35 0l0 0zm-198 0l0 0zm-865 -2l11 10c-14,-3 -7,-2 -11,-10zm1249 0l0 0zm-93 0l0 0zm-52 0l1 1c0,0 -1,-1 -1,-1zm-22 0c11,3 9,4 14,13 -10,-2 -9,-6 -14,-13zm-19 2l0 0zm-176 0l-3 -2 3 2zm362 -2l-2 -3 2 3zm-96 -6l3 6 -3 -6zm-57 3l1 1c-1,0 -2,-1 -1,-1zm-212 3l0 0zm363 -3l0 0zm-80 -3l1 1c0,0 -1,0 -1,-1zm-66 0l1 1c0,0 -1,0 -1,-1zm-38 0l0 0zm-154 0c10,3 8,3 11,14 -6,-4 -7,-8 -11,-14zm478 -5c13,7 24,13 44,13l0 9c7,0 7,1 13,2 1,-13 2,-11 14,-14 8,-1 14,-3 22,-5 -2,8 -9,23 -17,23 -15,1 7,-6 -12,-2 -9,1 -4,4 -4,12l-30 0c-2,-4 3,-14 -8,-14 -5,0 -8,6 -16,-8 -3,-7 -4,-11 -6,-16zm-294 3l1 0c0,0 -1,0 -1,0zm-8 0l0 0zm-258 0l0 0c0,0 -1,0 0,0zm414 -3l1 1c0,0 -1,-1 -1,-1zm-77 0l1 1c0,0 -1,-1 -1,-1zm-68 -3l1 1c-1,0 -2,-1 -1,-1zm-6 0l1 1c0,0 -1,-1 -1,-1zm80 -3l0 0zm-61 0l1 1c0,0 -1,0 -1,-1zm160 -2l1 0c-1,0 -2,0 -1,0zm-116 13c-5,-4 -9,-9 -11,-16 8,5 9,5 11,16zm-90 0c-12,-6 -14,-9 -14,-27 7,5 13,16 14,27zm44 -16l0 0zm-1346 0c18,-2 28,-8 33,-8 6,0 9,4 16,6 13,4 24,1 53,7l-9 5c-6,3 -6,2 -11,6 -8,4 -12,9 -19,13 -14,10 -24,17 -47,17l-6 -24c-3,-17 -2,-11 -10,-22zm1505 -3l0 0zm-159 3l0 0zm-585 -52c12,-1 15,-3 30,-3l0 16c19,-12 45,-27 59,12 4,12 8,37 5,50 -3,18 -5,29 -15,39 -9,9 -28,17 -44,9l0 63c-18,5 -30,28 -30,-2l-3 -124c-1,-19 -2,-37 -2,-60zm744 49l0 0zm-129 -5l0 0zm-8 0l0 0zm-28 0l0 0zm-19 -3c4,3 10,11 14,16 -13,-1 -4,2 -10,-4 -2,-3 -3,-8 -4,-12zm222 -3l4 5 -4 -5zm-167 6l0 0zm-8 0l0 0zm-28 0l-3 -3 3 3zm-3 -3l-2 -3 2 3zm-11 -3l0 0zm-5 3l0 0zm-1280 -3c9,-12 27,-11 47,-11 3,-6 4,-6 5,-14l17 3c2,24 16,25 41,25 -4,6 -9,11 -11,19 -26,-1 -20,-16 -49,-16 -19,0 -40,7 -50,-6zm1651 3c4,-6 33,-24 33,-11 0,7 -2,7 -3,14 -9,-6 -16,-9 -30,-3zm-151 -8l2 5 -2 -5zm-165 2l0 0zm-41 3l0 0zm-9 0l-2 -3 2 3zm-41 -3l1 1c0,0 -1,0 -1,-1zm-1041 0c0,-19 12,-29 28,-33 19,13 17,28 49,28 -2,22 -5,15 -5,55 0,33 24,75 49,82l0 22c-18,-1 -33,-16 -41,-27 -11,-13 -17,-27 -24,-45 -9,-27 -8,-30 -23,-45 -7,-7 -33,-27 -33,-37zm1409 -2c8,1 4,-1 9,5 -9,-2 -4,0 -9,-5zm-294 0l0 0zm294 0c-14,0 -14,0 -24,2 0,-12 -3,-21 8,-17 3,2 14,12 16,15zm-189 -20c6,4 19,23 14,28 -3,3 -9,-3 -11,-6 -5,-7 -3,-11 -3,-22zm-44 17l0 0zm60 -8l1 0c0,0 -1,0 -1,0zm-826 -6c9,0 24,-3 33,-5l0 19c15,-11 5,-14 35,-14 32,0 54,151 -30,132 0,26 3,42 3,66 -10,2 -22,12 -30,16l-4 -82c0,0 -39,51 -51,5 -9,6 -13,33 -36,33 -40,0 -47,-95 -20,-132 21,-28 39,-9 45,-5l0 -14c14,0 15,-2 30,-2 0,22 3,38 3,57 0,22 -5,52 13,52 17,0 16,-38 14,-57 -2,-12 -2,-62 -5,-69zm766 14c-7,3 -6,1 -14,-5 -7,-6 -8,-5 -11,-14 13,3 19,8 25,19zm-36 -17l0 0zm0 0l-3 -2 3 2zm-3 -2l0 0zm102 -9l0 0zm-104 -5c-1,8 0,5 -3,11 -4,-2 -3,-2 -8,-3 8,-8 -2,-4 11,-8zm170 0l0 0zm-36 0l0 0zm-1032 -8c41,-20 33,13 32,22l9 123c1,24 2,43 2,66 -4,2 -23,8 -30,8 0,-40 -5,-72 -5,-112 -11,2 -25,7 -36,8l8 118c-10,0 -22,5 -30,8 0,-37 -4,-68 -5,-104l-14 -104c-6,21 -14,7 -14,52 0,16 5,25 8,38 -40,0 -31,-62 -6,-94 9,-11 29,-23 48,-24 0,19 2,29 2,44l3 44c16,0 20,-4 33,-6l-3 -65c0,-13 -2,-10 -2,-22zm1032 8l0 0zm17 -8c10,7 37,54 38,71l-35 -61c-1,-4 -2,-9 -3,-10zm-22 0l1 0c-1,0 -2,0 -1,0zm-9 0l0 0zm0 0l-2 -3 2 3zm28 -6l1 1c0,0 -1,-1 -1,-1zm-22 0l0 0zm0 0l0 0zm-6 -8l0 0zm-16 27c-11,-7 -25,-27 -16,-44 5,4 47,61 49,72 -6,-4 -8,-7 -15,-13 -9,-7 -10,-5 -13,-17l-5 2zm-1343 -8c0,20 3,16 11,28 -39,20 -36,-29 -33,-53 43,-11 22,-4 22,25zm1357 -8c-5,-4 -21,-24 -25,-30 10,2 9,4 15,12 6,8 7,7 10,18zm44 47c-9,-7 -12,-19 -18,-30 -6,-13 -12,-19 -18,-31l-6 3c-3,-3 -16,-18 -19,-22 8,-1 23,-6 36,14l25 66zm-1470 -80c17,4 13,19 39,19l-3 17c-18,-13 -24,-19 -36,-36zm0 0l-2 -3 2 3zm-2 -3l0 0zm1593 -5l0 0zm-1602 0l1 0c0,0 -1,0 -1,0zm1486 -14c3,-9 -6,-4 8,-6l-8 6zm-610 -8l0 0zm481 -3l5 -3 -5 3zm74 11l-1 3c-1,2 1,1 -4,3 -6,3 -9,2 -17,2 6,-24 7,-23 20,-32 5,-4 5,-6 10,-9 18,12 16,11 44,11 -1,22 -2,22 -19,30 -21,11 -18,2 -33,-8zm-343 137c0,1 -1,1 -1,2l4 12c-12,-3 -3,-3 -21,-12 -9,-5 -15,-8 -23,-13 4,11 10,8 16,33 -13,-9 -23,-44 -38,-49 7,13 17,27 19,35l-10 -9c-3,-2 -2,-1 -5,-3 -9,-6 -8,-10 -18,-12 3,11 16,20 19,35 -16,-10 -11,-24 -35,-35 -10,-5 -13,-18 -31,-19l43 45c15,20 -2,0 4,15 -13,-4 -18,-13 -33,-17 6,9 5,3 11,11 -9,4 -2,0 -5,9 -8,-6 -4,-6 -14,-9 6,9 8,7 11,17 -31,-21 -22,-30 -22,-82 0,-39 -3,-68 -3,-105 -11,0 -11,-1 -19,3 1,-8 2,-23 6,-30 3,-4 16,-14 21,-17 23,-16 51,4 83,16 16,6 13,6 19,20 12,27 16,20 16,60 50,34 16,42 8,69 -4,13 3,6 2,17 -1,11 -11,-7 -29,-9 8,10 16,9 25,22zm-212 -145c5,-16 16,-11 36,-11 -10,15 -12,11 -36,11zm-453 -11c0,-9 5,-2 4,2 0,9 -4,-1 -4,-2zm1091 0c-12,2 -13,3 -20,11 -2,-12 -1,-3 0,-17 -13,0 -17,-3 -33,-3 16,-13 43,-9 53,9zm8 5c-9,-6 -1,1 -8,-14 0,0 -3,-5 -3,-5 14,4 8,5 11,19zm-11 -19l0 0zm-47 -25c4,6 7,11 11,17 0,0 -45,14 -29,-7 5,-5 11,-8 18,-10zm11 6c5,1 6,2 7,2l8 2c10,2 6,-8 7,7 -14,-1 -16,-3 -22,-11zm-3 -6l1 1c0,0 -1,0 -1,-1zm-527 0l1 1c0,0 -1,0 -1,-1zm527 -8c17,0 13,1 20,11 -14,0 -14,-2 -20,-11zm53 -3l-6 3 6 -3zm-182 0l0 0zm173 -5l-5 3 5 -3zm-131 -8l0 0c0,0 -1,0 0,0zm-113 -9l0 0zm222 -33l1 1c0,0 -1,0 -1,-1zm-1109 -22l1 1c0,0 -1,0 -1,-1zm-25 -8l0 0zm0 0l14 0c-4,4 -5,3 -6,11 14,1 6,1 14,4l6 2c-11,21 -10,32 1,54 10,22 7,36 7,66l-13 15c-18,12 -49,-3 -95,53 -7,9 -20,26 -21,40 -15,0 -18,1 -27,-7 -7,-5 -12,-10 -14,-18 21,0 50,-1 52,-28 -12,9 1,14 -22,17 -12,2 -18,0 -31,2 -43,6 -27,4 -54,23 -5,-21 -17,-20 -11,-44 62,0 59,1 106,-26 8,-4 7,-1 9,-10 -19,5 -72,41 -88,19 30,-2 33,-32 39,-55 25,6 40,17 68,17 0,-1 -1,-2 -2,-1l-6 -3c-2,0 -4,-1 -8,-2 -15,-6 -31,-15 -47,-19 11,-14 25,-14 35,-37 7,-17 10,-38 17,-54 -15,6 -16,57 -44,72 -1,-20 -16,-27 -23,-43 -2,-3 -2,-4 -3,-8 -1,0 -2,-3 -2,-3 0,-1 -1,-2 -1,-2 0,-1 -1,-1 -1,-2 0,21 3,24 12,37 10,14 11,20 1,34 -16,24 -6,50 -43,58 8,-17 5,-45 -8,-55 3,16 9,25 3,44 -9,26 -21,15 -25,30 -8,-5 -10,-18 -13,-28 -8,-21 -1,-18 1,-35 3,-21 -1,-39 -6,-59 -3,-10 -1,-8 -7,-15 0,21 11,56 2,79 -8,20 -2,27 2,49 2,10 10,41 8,50 -2,5 -11,12 -15,14 -18,-1 -17,-4 -27,-11 0,-15 0,-18 3,-30 3,-18 -2,-15 0,-29 1,-10 7,-16 9,-24 3,-11 1,-24 1,-35l-2 0c0,37 -12,36 -14,55 -10,-6 -20,-20 -26,-32l-15 -42c0,16 6,40 12,51 7,16 20,26 23,40 -13,0 -14,0 -24,2 -6,-11 -7,-23 -22,-27 8,13 15,9 16,30 -15,4 -16,4 -27,-6 -8,-8 -14,-11 -25,-15 -11,-5 -19,-6 -32,-10 -11,-4 -20,-11 -28,-13 6,9 15,13 27,17 41,15 23,12 49,42 8,9 16,14 23,24 -24,0 -18,0 -25,16 -44,0 -41,21 -75,32 -16,6 -15,-6 -24,7 13,0 19,-1 23,9 2,7 2,23 4,32l-74 -17c5,12 35,13 45,16 15,4 34,14 49,14 34,0 56,-34 90,-35 -8,16 -5,11 -9,31 -4,19 -8,10 -28,14 -15,3 -44,24 -51,34 33,-7 20,-24 75,-24 0,12 3,14 5,24 -5,8 -10,13 -18,18 -9,6 -15,7 -18,18 11,-7 14,-11 27,-17 27,-14 5,-29 15,-48 13,-24 0,-15 21,-48 7,5 11,10 18,16 9,10 8,9 15,21l35 66c10,18 14,35 -1,52 -5,6 -12,15 -14,22 -5,27 18,25 -6,51 -8,8 -11,9 -15,21 -10,26 -10,21 -32,37 -23,15 -36,7 -46,25 -4,6 -9,17 -11,25 19,-13 11,-31 41,-31 -1,16 -18,23 -25,36 12,-3 19,-20 31,-27 7,-4 12,-5 20,-10 9,-5 10,-7 21,-10 -8,11 -25,15 -34,27 -8,10 2,3 -9,15 -8,8 -9,10 -15,19 4,2 -3,4 6,0l5 3c6,-10 11,-12 20,-19 8,-7 11,-14 21,-17 -1,2 -2,4 -4,7l-4 8c-5,13 -24,32 -42,64 -6,9 -12,21 -13,33 8,-8 21,-44 38,-57 6,15 -1,-3 36,-31 5,-4 11,-7 17,-10l-4 13c-1,9 2,10 2,10 0,0 1,2 2,3 13,-3 -3,-4 12,-3l9 1c0,-1 1,0 2,0l-8 13c-1,0 -2,2 -2,1 0,0 -1,1 -2,2l-1 4c2,7 2,-4 14,-9 6,0 1,-1 3,3 -2,9 0,4 -4,9 1,0 11,-1 17,0 -10,21 -20,11 -10,17 4,5 4,2 0,4l-3 3 -1 3c3,10 -1,4 7,10 4,4 4,1 0,3l-3 3c-3,5 -3,5 -5,8l4 2c0,8 2,7 -5,7l0 0c-3,8 5,2 -5,8 3,-10 16,-14 22,-10l5 4c-13,-2 12,6 -11,10l0 -1 3 4 3 1 0 3 -6 9c11,-5 13,-10 25,-13 5,5 -8,19 -11,23 -11,0 0,-2 -1,1 -3,11 -6,11 -17,12 1,11 -1,3 4,6 10,-2 6,-3 14,-8 -4,15 -37,37 -44,52 -3,8 0,8 0,9 -8,14 -15,22 -19,41 6,-5 29,-52 55,-69 3,11 1,4 11,-3 -3,12 -8,14 -16,20 -6,4 -16,11 -20,16 20,-2 3,-10 22,-5 0,0 -1,0 -1,1 -1,1 -2,1 -2,1 -7,5 -8,5 -11,11 4,-2 3,-1 9,-2l-7 11c-7,13 -9,6 -13,21 10,-6 13,-16 25,-24 -3,10 -4,4 -7,15 0,1 0,3 0,3l-4 17c1,0 1,-2 1,-1l10 -18c2,8 -2,6 6,3 -5,20 -10,22 -11,36 13,-10 -1,-17 27,-25 -2,3 -3,5 -5,8l-6 28c-8,11 -13,8 -16,19 5,-3 5,-2 10,-6 7,-6 1,-5 12,-8 -3,5 -3,7 -6,12 -2,3 -5,4 -6,9 -3,13 4,-4 17,-7 -9,13 -9,5 -16,22 -1,0 -1,1 -1,2 -6,12 -10,11 -13,25l36 -41c7,2 2,0 8,3 -3,10 -8,13 -7,21l1 4c2,17 7,7 -2,22 4,2 -4,1 11,-3 -5,21 4,-5 0,17 -2,12 -5,9 -6,21 4,-4 1,0 5,-6 5,-10 4,-11 14,-18l3 10 20 -12c10,-8 -6,-1 8,-7 6,7 4,8 8,14l0 -16c18,1 12,6 22,13 13,-10 2,-16 24,-11 3,-12 8,-11 9,-24 0,0 1,0 1,1l8 14c2,8 -1,11 -1,20l5 0c2,17 -1,3 7,10l10 7c-2,-19 -6,-17 -14,-28 2,-6 3,-8 3,-16 7,-2 11,-3 16,-6 1,8 2,8 3,14 9,-3 2,-3 8,-14 3,-7 7,-9 14,-11 -1,17 -3,-9 -3,31 -14,6 -10,-10 -11,11 11,3 1,0 11,8 12,-24 -2,-9 20,-19 0,19 1,8 5,22 13,-6 -1,1 7,-8 6,-7 -4,3 3,-3 1,-1 3,-2 4,-3 -2,-9 -3,-9 -7,-16 -5,-10 -3,-8 4,-12 4,16 5,24 14,25 0,-20 -4,-23 -6,-38l8 12c4,8 2,5 9,10 0,-17 -3,-27 -3,-47l5 12c2,11 -3,17 20,32 0,-1 -3,-13 14,-4 1,0 2,1 2,1l0 -19 9 14 11 -14c6,-4 -8,-1 8,-3 -7,-12 2,-7 -11,-8 5,-16 3,9 8,-11l11 9 5 -12c1,11 2,10 6,17 9,-6 2,-5 14,-6 -1,-29 18,-42 5,-69 7,3 8,-3 8,25 1,21 5,11 9,28 0,-1 0,-3 1,-2 1,2 2,-3 2,-3 3,-3 0,-3 8,-4 -4,-8 -3,-10 -3,-22l8 20c23,-11 35,-10 41,-39 7,5 10,8 20,8 13,0 13,-6 13,-13 2,2 4,8 10,2 3,-3 2,-7 1,-11 5,2 3,1 6,3l3 3c0,0 1,1 1,1 0,0 1,1 1,2 6,-15 14,2 19,-17 19,9 23,-11 58,-19 0,-16 -8,-14 3,-22 1,8 2,13 5,19 12,-8 11,-6 11,-13 9,2 8,3 17,5 5,-20 7,-7 13,-8 0,0 1,-1 1,-1l6 -4c10,-8 5,0 12,-4 9,-4 2,-10 -2,-13 18,1 4,4 17,-6 0,9 1,10 2,17l9 0c1,-13 -5,-7 10,-6 1,-10 3,-9 3,-22l3 6c1,4 1,4 3,8 1,0 3,-1 3,-2 7,-2 0,0 3,-1 1,0 1,0 2,0 19,-3 6,3 32,-7 6,-3 24,0 12,-12l-3 -3c9,-3 4,6 6,-8l5 17c23,-2 1,-14 19,-6l-3 -16c9,5 10,13 24,9 10,-3 -2,-1 10,-3 18,-4 7,3 21,-7 5,-3 2,-2 8,-3 0,0 10,1 12,1 1,-16 4,-4 5,-19 1,0 1,0 1,1l2 10c13,-1 9,-5 17,1 18,13 -10,-2 5,4 1,-6 2,-6 3,-14 12,0 10,2 19,-3 19,-11 -1,-7 20,-8l2 0c5,-1 11,-8 22,-11 -3,14 -2,5 0,9 9,-6 23,-16 26,-23 3,-8 -5,-4 4,-8 13,-5 -5,6 22,6 5,-16 -2,4 6,-6 3,-2 3,-6 5,-11 3,0 3,12 11,-2 7,-13 -1,-12 14,-19 2,5 5,14 5,21 9,-4 10,-2 22,-2 1,-6 -1,-2 2,-7 2,-4 1,-2 5,-2l14 -4c6,-1 10,-1 16,-3 10,-2 16,-7 26,-10 20,-6 10,2 34,-8 0,0 1,-1 1,-1 18,-7 9,4 35,-2l57 -15 0 8c7,-8 5,-6 21,-6 5,-1 13,0 20,-2 23,-8 4,-4 41,-14 8,-2 13,-4 22,-6 6,-2 13,-6 20,-8 18,-6 16,3 31,-9 10,-7 0,0 18,-4l12 -4c0,0 1,0 1,0l18 2c36,6 48,-6 59,-7 11,-3 2,0 7,0 8,1 10,-3 19,-4 26,-5 27,0 46,-12 7,4 11,4 14,13l5 -5c10,3 6,3 14,8 -4,-14 -8,-4 -7,-16 1,-18 5,9 1,-5 -1,-2 -3,1 -5,-9l-8 -14c17,2 19,7 30,14 -2,-6 -13,-22 -22,-25 8,-5 7,5 11,-5 -11,-1 -17,-11 -19,-20 8,6 3,6 13,9 -1,-6 -1,-3 -4,-7 -5,-10 1,5 -4,-7l5 3c-2,-10 -2,-4 -5,-14 7,4 3,3 11,5l-5 -8 3 -5 -9 -8c13,3 14,10 25,13 -4,-5 -4,-5 -9,-10 -10,-8 -4,1 -10,-12 2,-4 1,2 0,-5 0,-9 -4,-3 4,-12 0,-1 1,-1 1,-2 -10,-3 -4,-3 -14,-5l3 -6 3 -5c-9,-3 -9,-4 -14,-11l11 3c-4,-7 -5,-4 -8,-12 -3,-8 0,3 -3,-8l11 9 -6 -15c0,-1 0,-1 0,-2 -4,-10 -5,-6 -10,-14l10 3c-9,-14 -12,-3 -13,-19l14 6c1,0 1,0 2,0 24,9 16,10 33,21 -3,-12 -13,-15 -22,-22 -6,-4 -5,-5 -13,-9 -9,-5 -8,-1 -11,-10 13,1 14,7 24,3 -4,-7 -17,-13 -25,-16l-8 -4c21,0 21,7 36,9 -6,-9 -14,-9 -25,-14 -5,-6 5,2 3,-6 -9,0 -33,-3 -41,-5 6,-26 21,-47 -2,-94 -5,-12 -16,-27 -25,-33 -17,-11 -33,-1 -50,1 2,-20 13,-25 14,-44 -14,1 -12,4 -17,13 -11,-7 -24,-8 -32,-10 -2,-1 0,-1 -3,-1 -10,-3 -5,-6 -11,3 25,-5 -2,19 32,19 2,-12 -2,-4 6,-11 5,22 1,10 -3,28 -55,-37 -95,25 -96,69l-5 0c-4,-15 -9,-30 -16,-43 -7,-13 -12,-30 -23,-37 3,13 11,19 14,33 -6,-5 -11,-13 -16,-20 -7,-8 -11,-12 -17,-21 8,-6 16,-10 25,-14 20,-9 21,-4 22,-19 11,8 0,7 10,7 8,-1 8,-5 9,-13 7,0 6,0 11,-3 0,-8 0,-10 -10,-17l-8 -5c-17,-10 -10,-11 -18,-27 17,0 10,5 24,4 30,-1 2,1 23,7 0,-9 6,-12 -19,-14 5,-5 4,-4 13,-5 -8,-11 -8,-3 -22,0 2,-6 3,-7 3,-14 -38,1 33,8 -49,8 5,-21 1,-14 13,-33 21,14 21,3 17,-16 -14,0 -6,-2 -15,4 -3,3 0,2 -6,5 -4,4 -1,3 -7,5 1,-18 2,-6 6,-20 -11,3 -3,3 -14,0l0 41c-2,14 -12,19 -22,25 0,-21 2,-12 -8,-16 1,-7 3,-8 3,-17 -11,1 -7,0 -14,3l5 9c12,18 7,31 -10,40 0,-24 -17,-43 -42,-43l0 19c21,5 16,-3 17,-6 15,11 20,27 11,47 -16,-6 3,-5 -20,-19 -6,-4 -9,2 -11,-28 0,-6 -1,-12 -2,-13l-12 -13c-3,-3 -2,-3 -6,-5 -5,-2 -11,-3 -15,-4 2,6 0,2 5,6l7 4c0,0 1,0 2,1 -19,-1 -32,-16 -33,5l3 -2c1,0 3,-2 4,-2 13,-3 1,-1 9,1l22 6c-8,11 -13,1 -30,5l4 2c1,1 5,2 6,2 30,10 24,-14 28,5 2,10 -6,13 -14,9 -10,-3 -5,-8 -21,-9 2,6 3,5 10,11l3 2 -10 2c18,9 44,-5 28,13 -7,8 -6,0 -9,13l7 6c9,-7 3,-4 6,-7 4,-4 -1,-2 6,-5 10,16 -1,22 -14,28 -11,4 -7,-2 -11,8 7,3 2,2 11,0 -4,6 -3,3 -5,11 18,-5 19,-17 24,-25 5,-6 2,-4 9,-8 0,19 -2,15 -5,29 -2,9 -1,21 -1,31 -16,-4 -35,-31 -66,-38 5,6 18,12 34,23 13,10 21,21 32,29 -7,10 -5,13 -5,30 -13,-3 -14,-10 -25,-13 7,10 21,15 22,30 -11,-1 -27,-9 -36,-14 3,-5 10,-37 -11,-38 4,13 6,3 8,16 1,10 -2,10 -2,22 -6,-6 -1,1 -5,-7 -3,-7 -2,-12 -20,-12 -8,11 0,8 -9,13 -5,3 -1,-8 -5,3 12,1 33,14 41,29 5,9 -4,-6 1,3 9,14 12,5 16,23 -9,-6 -2,-4 -11,-11 3,14 5,6 -3,9 -7,-10 -19,-33 -27,-39 2,8 4,13 8,19 -17,-4 -13,-13 -17,-2 -8,-6 -8,-15 -33,-28 4,10 -1,0 6,8 19,19 34,35 41,63 -15,-9 -20,-29 -35,-42l-6 -3c-1,0 -2,-1 -2,-1 0,0 -1,0 -1,0 -8,-4 -17,-20 -36,-25 5,6 21,16 31,30 -8,-2 -10,-3 -14,-8 1,17 12,21 14,39 -12,-3 -14,-8 -20,-17 -5,-7 -10,-12 -15,-20 -14,-19 4,-33 -8,-58 -2,-4 -60,-69 -70,-76 5,-9 41,-71 47,-74 17,-9 37,8 42,12 7,5 13,5 21,10 9,7 11,8 8,19 10,-7 6,-10 3,-22 11,3 13,6 14,20 6,-5 5,0 4,-10 -2,-16 -20,-18 -29,-26 12,-1 28,-5 45,10l6 7c1,1 1,1 1,2 1,0 1,1 2,1 0,1 0,1 1,2 0,-16 -9,-20 -21,-26 -21,-10 -17,-6 -40,-4 5,-7 9,-13 20,-14 17,-2 13,5 27,8 -25,-37 -58,2 -60,3 -4,-13 -5,-3 -6,-17 -1,-9 1,-12 3,-19 -6,2 -8,8 -10,18 -2,10 1,14 4,21 -12,-3 -21,-12 -33,-14 -24,-3 -52,48 -59,55 -9,9 -7,3 -17,8 -2,-7 -6,-15 -8,-22 -10,-29 -16,-23 -2,-45 5,-9 7,-13 11,-22 22,-44 58,-21 78,-51 -13,3 -6,6 -31,9 -25,4 -42,-1 -61,23 -7,9 -12,17 -20,23 0,-15 -3,-43 2,-52 8,-14 25,-5 31,-28 -35,23 -34,7 -48,21 -9,8 -18,33 -32,37 -2,-8 -14,-25 -20,-30 -8,-5 -30,-9 -40,-11 20,30 21,-16 46,60 9,28 19,52 22,85 -10,-5 -67,-21 -86,-9 -10,6 -7,10 -18,18l8 -28c-6,5 -25,35 -27,44 -20,0 -47,-18 -74,9 -5,5 -8,17 -9,27l3 -4c8,-14 1,-15 26,-26 12,-6 18,-3 31,2l12 6c-13,0 -25,0 -35,3 -12,3 -15,10 -18,21 -20,0 -52,7 -74,9l0 -9c-33,0 -180,25 -224,32l-29 6c-14,5 2,9 -24,15 0,-25 -4,-30 5,-40 16,-18 8,-10 3,-32 -28,-19 -1,-35 -34,-73 -18,-22 -34,-31 -48,-59 11,0 9,1 16,-2 -3,-13 -14,-17 -19,-27l-8 -39c8,-2 6,0 8,-9 20,2 -1,9 38,9 -4,-7 -3,-3 -9,-8 -8,-6 -7,-9 -13,-20 -3,0 -45,7 -49,11 -6,6 -3,9 -13,17 -9,7 -11,6 -17,16 -16,-4 -30,-15 -41,-16 0,16 6,29 16,36 22,16 5,-3 22,30 -6,0 -8,-1 -12,1 -9,5 -3,3 1,4z"/>
   <path class="fil2" d="M1178 1232l13 107c2,15 2,18 -15,18l-15 -119 -60 20 43 350 59 -29 -17 -144 16 -6 18 139c12,1 44,-21 60,-25l-41 -326c-10,-4 -51,12 -61,15z"/>
   <path class="fil2" d="M1974 1072l0 133c-8,-14 -27,-108 -30,-130l-66 6 1 145 -31 -141 -60 7 57 234 76 -21 3 -112c13,25 19,78 33,102l74 -18c7,-16 4,-177 4,-208l-61 3z"/>
   <path class="fil2" d="M1280 1202l10 334 61 -27 -3 -59 21 -8c2,15 5,42 11,53 10,-2 54,-21 60,-27l-72 -290c-10,0 -79,19 -88,24z"/>
   <path class="fil2" d="M1727 1322c-8,-12 -28,-162 -21,-178 14,0 13,3 16,16l15 124c2,18 8,34 -10,38zm-19 -223c-79,11 -68,70 -59,142 8,62 4,148 85,125 81,-23 67,-88 60,-141 -9,-65 -7,-136 -86,-126z"/>
   <path class="fil2" d="M1413 1165l37 300c12,-2 82,-32 97,-39l-7 -56c-12,3 -25,11 -37,9l-29 -229 -61 15z"/>
   <path class="fil2" d="M1526 1138l35 280c4,2 1,1 5,1l18 -6c8,-3 16,-6 24,-9 16,-6 34,-13 50,-17l-6 -55 -37 11c-2,-27 -23,-203 -29,-216l-60 11z"/>
   <path class="fil2" d="M2321 1220c15,2 39,-2 51,-7l-3 -59c0,1 1,2 2,2 0,0 0,1 1,2l32 52 55 -6c0,-18 -14,-131 -19,-139 -10,-6 -37,-4 -51,-4l7 63c-8,-11 -14,-21 -22,-32 -7,-10 -13,-24 -21,-32l-52 -1 20 161z"/>
   <path class="fil2" d="M2050 1066c-6,16 20,169 22,202l108 -23 -5 -35 -45 5 -6 -41 37 -5c3,-10 -1,-23 -2,-34l-37 2c-5,-9 -7,-26 -5,-36l39 -2 -4 -38 -102 5z"/>
   <path class="fil2" d="M2197 1242l107 -18 -4 -33 -45 5 -5 -37 37 -3 -2 -33 -40 3 -3 -32 38 -1c5,-9 0,-24 -1,-34l-104 1c-2,18 17,157 22,182z"/>
   <path class="fil2" d="M2487 1167l46 -2c1,-14 0,-85 -3,-96l-65 -5 22 103z"/>
   <path class="fil1" d="M1677 655c-2,9 1,2 -3,8 -4,5 -2,4 -8,6 5,-9 2,-8 11,-14zm3 -3l-3 3 3 -3zm0 0l5 -3 -5 3zm11 -8c1,-1 15,2 5,2 0,0 -1,0 -1,0 -2,-1 -9,3 -4,-2zm63 -49c0,-15 -3,-13 5,-19l-5 19zm3 -25c0,-7 4,0 1,0 0,0 -1,8 -1,0zm0 -11l0 0zm0 0l0 -5c-18,4 -21,20 -26,27 -2,3 1,1 -3,4l-7 4c9,3 8,3 11,11 3,8 3,13 0,19 -18,-4 1,-6 -17,-11l-8 17c0,0 -3,2 -5,5 10,11 18,2 11,9 -8,8 -26,-3 -30,-6 -1,18 -3,9 -13,20 -6,6 -11,14 -12,24 14,-3 9,-6 8,8l49 -22c7,-6 0,-2 10,-7l9 -5c7,-2 6,-1 14,-1 0,-17 -4,-9 2,-23 2,-5 3,-8 5,-12 0,-1 1,-2 1,-2 9,-17 2,-1 9,-31 1,-3 1,-1 1,-6l2 -20 -11 3z"/>
   <path class="fil1" d="M2655 798l0 0zm3 -3l-3 3 3 -3zm0 0c4,-6 0,-3 8,-5 -4,6 -1,3 -8,5zm-91 -5l-28 0c13,-8 21,-5 28,0zm102 -6l0 1c0,0 -1,0 0,-1zm-36 -11c3,8 -4,24 -17,28 -3,-9 -1,-6 0,-17 -11,1 -13,3 -27,3 1,14 2,4 5,16 -6,-3 -16,-9 -19,-18 -2,-6 -2,1 0,-9 -10,7 -6,5 -22,6 -14,0 -14,1 -25,2 1,10 4,2 4,8 1,7 1,-2 -6,9 17,1 5,4 25,10 5,2 3,1 6,3 18,8 6,2 28,7 28,5 4,0 23,13 12,-12 -2,-7 26,-19 13,-5 2,1 11,-2l24 -15c9,-9 2,-10 16,-11l0 -6c-4,0 -8,0 -8,-4 0,0 0,-1 0,-1l2 -5c-42,0 -27,7 -46,2z"/>
   <path class="fil1" d="M999 1402l0 0zm16 -11l0 0zm3 -3l-3 3 3 -3zm3 -2l-3 2 3 -2zm-31 -9l1 1c0,0 -1,0 -1,-1zm20 -2l-3 2 3 -2zm0 0l0 0zm-11 -17l0 1c0,0 -1,0 0,-1zm-17 -2l0 0zm28 -4l-4 -4 4 4zm-17 -7l1 0c0,0 -1,0 -1,0zm-14 -6l0 0zm0 0l-9 18c-4,7 -7,9 -10,18l22 -19c-1,10 -6,22 -8,32 10,-7 3,-13 19,-24 -1,13 0,5 -6,13 -7,11 -2,6 -4,14l-12 30c11,-4 2,2 15,-23 5,-10 10,-18 21,-21l5 4c-12,18 -20,11 -24,27 6,-5 3,-4 11,-6 -2,17 -1,13 -6,19 -6,7 -10,11 -11,22 6,-6 20,-34 47,-41l3 -3 0 -3c-8,-6 -4,0 -7,-10l-4 0 5 -3 3 -3 0 -4c-10,-6 0,4 10,-17 -6,-1 -16,0 -17,0 4,-5 2,0 4,-9l-3 -3c-12,5 -12,16 -14,9l1 -4c1,-1 2,-2 2,-2 0,1 1,-1 2,-1l8 -13c-1,0 -2,-1 -2,0l-9 -1c-15,-1 1,0 -12,3 -1,-1 -2,-3 -2,-3 0,0 -3,-1 -2,-10 -9,4 -16,7 -21,14l5 0z"/>
   <path class="fil1" d="M1504 702l0 0zm0 0c-8,-5 -13,-13 -14,-25 -19,13 2,-8 -44,3 4,10 -1,0 6,8l9 8c16,11 12,12 23,16l20 9c6,4 5,-8 6,11 24,-2 5,-2 17,-8l17 -7c1,0 1,0 2,0l4 -2c10,-3 2,2 11,-6l11 -8c6,-5 15,-12 17,-18 -9,0 -18,-1 -27,0 -12,1 -10,2 -18,-2 0,0 -1,-1 -2,-1 6,12 -7,23 -16,27l0 -16c-10,2 -9,3 -22,3l0 8z"/>
   <path class="fil1" d="M1727 1322c18,-4 12,-20 10,-38l-15 -124c-3,-13 -2,-16 -16,-16 -7,16 13,166 21,178z"/>
   <path class="fil1" d="M834 1089l0 6c10,0 15,5 19,22 -6,-4 -7,-5 -16,-6l-3 14c6,15 -9,-12 3,3 4,6 10,2 0,8 -7,3 -13,3 -20,0 0,18 -11,15 -11,41l14 -6c5,-2 3,-1 5,-3 9,-6 4,-9 20,-10 1,-10 1,-9 7,-15l18 -7 -1 -16c0,0 0,-1 0,-1 -5,-18 -1,-18 -6,-32 -2,-5 -2,-8 -3,-12 -2,-7 1,0 -2,-7 -4,-8 -4,1 -5,-12l-13 25c-3,8 2,5 -6,8z"/>
   <path class="fil1" d="M1380 1004c0,73 33,55 33,33l-2 -56c-2,-17 5,-26 -11,-26 -16,0 -20,32 -20,49z"/>
   <path class="fil1" d="M1021 1476l0 0zm0 0l0 0zm11 -19l0 0zm-20 -16l0 0zm-8 2l0 0zm11 -5l-3 3 3 -3zm6 -6c-2,9 3,4 -6,6l6 -6zm0 0l0 0zm-17 11c-1,6 0,5 -3,9 14,-4 15,-11 31,-14 -7,13 -14,18 -24,28 -11,10 -23,20 -26,30 16,-11 33,-35 50,-39 -5,19 -4,-2 -21,26 -5,10 -9,6 -21,29l23 -16c9,-8 14,-9 21,-20 -5,-3 -3,5 -4,-6 11,-1 14,-1 17,-12 1,-3 -10,-1 1,-1 3,-4 16,-18 11,-23 -12,3 -14,8 -25,13l6 -9 -3 -4 -3 -4c-2,-7 -1,-2 0,1 23,-4 -2,-12 11,-10l-5 -4c-6,-4 -19,0 -22,10 10,-6 2,0 5,-8l0 0c7,0 5,1 5,-7l-4 -2c-8,5 -16,11 -21,18l-6 14c-6,10 -12,14 -15,26 13,-8 7,-15 22,-25z"/>
   <path class="fil1" d="M1515 935c-24,0 -14,38 -14,47 1,18 -6,55 15,48 26,-9 20,-95 -1,-95z"/>
   <path class="fil1" d="M1606 935l0 63c0,20 33,11 33,-30 0,-64 -33,-56 -33,-33z"/>
   <path class="fil1" d="M1773 680l1 1c0,0 -1,-1 -1,-1zm39 -55l0 0zm2 -3l-2 3 2 -3zm0 0l0 0zm-16 6l0 5c8,3 8,5 8,17 -6,-5 -3,-4 -11,-6 -5,9 0,5 -8,11 3,7 -1,1 3,5l3 2c1,1 2,1 2,1 -16,0 -12,1 -22,-5 -1,14 4,-1 -14,19 3,8 2,3 4,7l2 4c5,-1 10,-2 15,-4l15 -7c31,-20 15,2 22,-22 3,-11 0,1 3,-8 0,0 1,-1 1,-2l5 -14c2,-11 -2,-13 -3,-16 -1,-2 -2,0 0,-7 -22,6 -5,17 -25,20z"/>
   <path class="fil1" d="M2627 872l0 0zm33 -11l1 1c0,0 -1,-1 -1,-1zm9 -3c3,-3 15,5 3,2 0,-1 -8,3 -3,-2zm-42 14c-7,-5 -7,-3 -8,-14 -9,5 -15,3 -27,3 0,13 1,15 17,21l7 2c1,0 2,1 2,1 17,3 13,6 26,9 3,-10 3,-7 13,-11l4 -2c7,-3 13,-9 24,-12 -4,-9 -4,-2 0,-13 -15,0 -22,1 -30,0 -1,9 -2,10 -6,16 -7,-3 -5,6 -5,-11 -8,4 -6,3 -17,3l0 8z"/>
   <path class="fil1" d="M1490 817c28,0 19,3 28,4 14,2 -3,-1 11,-1 1,0 16,3 22,0 -2,-8 -4,-8 -10,-12 -2,-1 -7,-4 -7,-4 -5,-4 -2,1 -5,-6 -8,5 -10,7 -22,8 5,-13 0,2 5,-11 -18,-4 -5,-10 -16,-5 0,-2 8,-25 -22,-33 0,0 0,1 0,1 -2,28 1,20 13,44 5,12 -1,5 3,15z"/>
   <path class="fil1" d="M1867 845l0 0zm0 0c-7,-2 -4,1 -6,-6l-5 0c-5,12 -13,5 -17,13 -6,11 -1,4 0,6 3,8 0,4 7,5 13,1 20,-2 27,-3 8,-2 9,0 16,1 1,-12 -1,-4 3,-10l9 -8c4,-5 22,-31 3,-28 -3,1 -8,4 -10,5 -7,5 -4,4 -8,3 2,8 3,8 0,16 -9,3 3,-1 -8,-5 -6,5 -9,3 -11,11z"/>
   <path class="fil1" d="M914 1163l0 0zm0 0c-7,-1 -11,-8 -29,4 -8,6 -5,2 -7,10 9,0 9,1 16,1 5,0 10,1 14,1 13,-1 -3,-3 21,-1 4,0 2,2 6,-2l16 -30c0,-1 0,-2 1,-2 0,-1 0,-2 0,-2l1 -4c0,0 0,-1 1,-1l1 -5c1,-5 0,3 2,-7 -15,1 -14,10 -27,14 2,8 3,8 3,19 -4,-2 -5,-5 -10,-4 -6,1 -8,5 -9,9z"/>
   <path class="fil2" d="M2483 1173c2,20 -2,28 16,27 14,-1 28,-3 43,-4l-3 -27 -56 4z"/>
   <path class="fil1" d="M1394 806c8,2 6,4 15,7 5,2 9,1 13,10 12,-1 34,-15 41,-25 -16,-8 -13,3 -25,-3 -1,11 -1,9 -8,14l0 -8 -13 6c-2,-7 -3,-7 -4,-15 -8,5 -12,3 -24,3 4,7 3,3 5,11z"/>
   <path class="fil1" d="M1836 702c-1,13 3,5 -5,11 -3,-8 6,-3 -25,-3l-11 0 0 11 33 8c6,-4 12,-7 19,-11 9,-7 11,-7 9,-19 -11,1 -8,3 -20,3z"/>
   <path class="fil1" d="M2605 946c10,-4 10,3 39,3 -1,-10 -2,-13 -13,-15 -12,-2 -5,5 -15,-10l-8 6c1,-8 1,-8 3,-14 -6,-2 -25,-16 -21,1 4,14 14,14 15,29z"/>
   <path class="fil1" d="M903 1213l8 10c-7,3 -7,1 -8,14 -10,1 -14,3 -14,22 5,-3 15,-8 19,-11l3 -3c6,-6 12,-10 11,-16l-6 -30c-2,-3 0,3 -2,-6 -10,7 -4,8 -11,20z"/>
   <path class="fil1" d="M1715 1031c0,14 7,14 17,14 6,-12 5,-17 5,-36 -11,3 -22,15 -22,22z"/>
   <path class="fil1" d="M1894 878l11 0 0 2 -11 0 0 -2zm16 -3c-1,-7 6,0 4,1 -6,1 -3,3 -4,-1zm-8 -3l3 0 -2 3 -1 -3zm19 -8l-1 6 1 -6zm0 0l0 -3 4 2 -4 1zm-19 8l-5 -3c-4,12 -7,2 -11,14 16,0 23,-2 33,0 4,-16 10,-10 11,-30 -7,3 -7,5 -17,5l3 11c-6,-3 -2,-7 -14,3z"/>
   <path class="fil1" d="M1919 894c-1,0 -1,0 -1,0 -1,1 -2,1 -2,1l-7 2c-14,4 -17,-3 -20,11l21 0c11,0 1,-1 9,3 8,-13 15,-14 16,-25 -17,0 -14,3 -16,8z"/>
   <path class="fil1" d="M1221 1685c-6,5 -7,9 -8,19l5 0c2,-8 3,-8 3,-19z"/>
   <polygon class="fil1" points="1059,1682 1065,1682 1065,1671 1059,1671 "/>
   <path class="fil1" d="M1306 1685c9,-6 5,2 6,-11l-6 0c-1,8 -2,5 0,11z"/>
   <path class="fil3" d="M1251 1713c9,-7 10,-8 -2,-11 2,3 2,4 2,11z"/>
   <path class="fil4" d="M1985 1416c0,1 3,1 3,0 1,0 5,7 1,0 0,0 -5,-5 -4,0z"/>
  </g>
 </g>
</svg>
