<?xml version="1.0" encoding="UTF-8"?>
<!DOCTYPE svg PUBLIC "-//W3C//DTD SVG 1.1//EN" "http://www.w3.org/Graphics/SVG/1.1/DTD/svg11.dtd">
<!-- Creator: CorelDRAW X8 -->
<svg xmlns="http://www.w3.org/2000/svg" xml:space="preserve" width="3508px" height="2480px" version="1.1" style="shape-rendering:geometricPrecision; text-rendering:geometricPrecision; image-rendering:optimizeQuality; fill-rule:evenodd; clip-rule:evenodd"
viewBox="0 0 3508 2480"
 xmlns:xlink="http://www.w3.org/1999/xlink">
 <defs>
  <style type="text/css">
   <![CDATA[
    .fil0 {fill:#0098DA}
    .fil3 {fill:#02151C}
    .fil1 {fill:#040402}
    .fil12 {fill:#252618}
    .fil8 {fill:#261603}
    .fil9 {fill:#353629}
    .fil18 {fill:#534C2D}
    .fil13 {fill:#673C0B}
    .fil19 {fill:#6B5230}
    .fil7 {fill:#784909}
    .fil5 {fill:#8D4A01}
    .fil17 {fill:#8E8E6B}
    .fil11 {fill:#935918}
    .fil10 {fill:#A96404}
    .fil20 {fill:#AD9B70}
    .fil16 {fill:#B88533}
    .fil15 {fill:#CC8C36}
    .fil14 {fill:#DC941B}
    .fil6 {fill:#F2ECA7}
    .fil2 {fill:#F6F8C5}
    .fil4 {fill:#F99209}
   ]]>
  </style>
 </defs>
 <g id="Capa_x0020_1">
  <metadata id="CorelCorpID_0Corel-Layer"/>
  <g id="_2126108200192">
   <path class="fil0" d="M1897 1557c14,6 26,-9 8,22 -16,-4 -7,3 -13,-8 -12,-24 4,-11 5,-14zm-33 5c-13,-12 3,-22 3,-22 26,15 6,-8 21,22 -12,3 -12,12 -24,0zm41 -26l-5 16 5 -16zm-451 -4c-2,-48 2,-17 21,-20 -5,26 7,19 -21,20zm368 -26l0 0zm-393 -30l0 0zm46 -98c0,-20 12,-2 4,0 0,0 -4,21 -4,0zm257 -180c-15,-8 -26,-15 -40,-11 -4,8 -4,0 -3,15 0,2 5,10 6,12 18,36 8,60 -11,94 -31,-17 5,-17 -36,-28 -10,46 5,73 46,128 18,11 15,-18 14,22 -5,16 -11,-2 1,26 5,11 8,46 15,65 -24,-10 -31,-18 -43,-13 -15,7 2,18 -21,15 -13,-21 -1,-25 -12,-44l1 4c4,38 5,-7 1,40 -33,-12 -12,10 -21,-27l4 32 -23 -15c0,-1 0,1 0,1 -28,15 7,-5 -10,9l-19 11c-25,9 12,3 -8,2l-17 -36c0,-3 -2,-4 -3,-6 -9,36 -4,8 5,43l-24 -16c-17,-6 -8,21 -13,-1 0,-1 -2,1 -3,1 -3,-31 -3,-8 10,-17 -8,-13 -10,-15 -14,-30l-3 -27c-1,-2 -1,-4 -2,-6l-4 -11c11,-34 4,-2 9,-11 1,-2 6,-7 6,-26l-23 0c1,-26 17,-61 2,-77 -14,-14 -65,-6 -89,-6l84 10c17,43 1,36 -1,39 -31,9 -22,12 -33,-12 -13,14 -4,-10 -13,22 -9,-21 -6,-19 -26,-27l-7 20 -22 25c6,3 0,5 14,4 13,-2 4,0 16,-6l0 17c17,2 6,-4 17,6 3,18 8,14 -10,14 11,8 4,1 8,16 -22,6 -12,3 -30,15l22 23c-14,4 -11,1 -22,7l25 20c1,1 3,2 5,3 -26,7 -20,1 -23,29 2,-2 7,-3 8,-3 2,-1 4,-1 5,-1l27 1c0,32 6,12 -5,27 -31,-11 -13,-4 -50,-5l-27 17c-2,0 -13,-2 -15,-2 5,16 -11,18 -11,18 -1,-2 -5,2 -11,3l-4 -24c0,52 11,38 129,38l430 1c46,-2 37,-10 37,-54l-22 -15 0 -23c-14,11 -13,17 -31,23 -1,-1 -3,-4 -4,-3l-48 -27c-7,-15 -15,-83 -15,-106 41,-22 63,-46 83,-90 19,-43 23,-105 2,-151 7,64 17,90 -11,149 -18,38 -45,71 -81,85 7,-97 48,-54 44,-120 -26,2 -7,11 -39,24l16 -66c-25,-20 -18,3 -41,-42 -21,1 -26,4 -38,12 6,48 -13,-39 7,12 14,38 0,30 -6,36l-11 -51z"/>
   <path class="fil0" d="M1598 1333c27,-3 24,-1 36,6 20,12 18,15 16,36 -56,-6 -50,-35 -52,-42zm-29 -87c27,8 46,18 46,51 -26,1 -55,-17 -46,-51zm243 -126c28,-5 41,31 25,64 -30,-13 -44,-35 -25,-64zm-213 -11c6,-17 26,-35 53,-25 0,19 -1,20 -19,29 -39,20 -29,4 -34,-4zm-1 -63l-1 24c-30,5 -41,18 -48,47l-21 -3c-23,33 -33,63 -31,121 1,47 17,93 46,113 9,9 10,12 22,21 3,3 13,9 14,10 13,10 6,3 15,14l31 10c21,7 19,0 36,0l15 20c38,4 6,2 18,-15 -41,-55 -56,-82 -46,-128 41,11 5,11 36,28 19,-34 29,-58 11,-94 -42,20 -38,38 -92,35 0,-14 -3,-22 3,-34l7 -9c1,-1 4,-2 5,-3 1,-1 4,-3 5,-3 2,-1 4,-2 6,-3l-8 -46c35,-7 72,-3 104,15l7 32 11 51c6,-6 20,2 6,-36 -20,-51 -1,36 -7,-12 12,-8 17,-11 38,-12 23,45 16,22 41,42l-16 66c32,-13 13,-22 39,-24 4,66 -37,23 -44,120 36,-14 63,-47 81,-85 28,-59 18,-85 11,-149 -24,-58 -52,-95 -108,-121 -53,-25 -140,-21 -186,8z"/>
   <path class="fil0" d="M2470 1091l2 2c0,0 -3,-1 -2,-2zm91 -95c-17,29 2,10 -23,19 9,-25 -5,-8 23,-19zm-597 -312l24 0 0 17 19 59c17,5 5,-13 18,14 19,10 22,25 23,53 38,-10 19,-29 68,-25 20,-4 8,-4 12,7 42,2 17,-16 65,-29l0 102 -36 9c37,13 68,21 72,64 49,0 74,13 83,53 68,0 28,18 75,30l-15 15c31,1 14,0 20,8 12,8 12,-12 9,15l-9 7c12,11 2,1 16,10 12,8 9,10 22,14 39,11 10,-25 40,5l8 -1 9 0c28,-27 18,-31 59,-54 8,10 5,1 14,22 3,8 3,15 6,25 4,-32 -12,-48 -10,-59 5,-25 22,-9 53,-18 11,-4 66,-32 110,-11 14,-27 12,-30 53,-30 -7,-27 -24,-39 -48,-51 -26,-13 -42,-17 -80,-17 -10,34 -42,50 -68,68 -7,-27 -3,-17 -23,-31l0 23 -30 0 0 -23c-31,3 -31,4 -38,31 -58,-2 -83,-52 -113,-91 -10,-13 -4,-21 -75,-23 -43,-1 -65,0 -98,8l0 -98c22,5 18,10 36,0l1 -17 16 1c14,-3 11,-1 22,-7l-30 -30 -30 -17c-67,35 -21,31 -121,36l-38 -43c-2,-27 -16,-47 -16,-97 -39,16 -34,15 -81,15l6 61z"/>
   <path class="fil0" d="M1988 1136c-14,-21 -11,-51 -18,-83l-50 14c-13,0 -8,-12 -2,32l31 234c7,67 16,52 8,90l31 0 0 -45c29,-1 17,2 37,-8 1,-35 8,-28 8,-105l16 36c5,14 1,8 6,16 12,21 15,60 17,90 23,-11 2,5 21,-20l15 2c33,-24 21,-38 23,-87 1,-41 15,-53 3,-105 3,-43 18,-101 7,-139 -28,-1 -46,-1 -63,8 -11,10 -7,19 -7,48l-8 0c0,-57 6,-68 -53,-68 -5,12 -11,35 -13,47 -2,11 -1,19 -2,29 -5,33 0,19 -7,14z"/>
   <path class="fil0" d="M1448 659c4,-18 3,-13 12,-20 13,22 23,79 24,108l-39 -2c-10,-20 -3,-63 3,-86zm-137 -50c36,18 34,8 49,47l17 -29 30 5c0,57 -23,140 -39,194 -24,79 5,58 9,59l29 38c14,-16 -1,1 11,-18 8,-12 6,-7 13,-17 21,-30 9,-52 20,-72 12,-22 3,-2 18,3 0,0 2,0 2,0l21 46c-1,9 -2,21 -1,30 3,23 -3,11 7,16 16,10 6,-7 15,9 1,-5 1,-7 4,-13 5,-10 6,-11 10,-16l34 -7 -7 -64c7,-33 -12,-86 -18,-121 -7,-43 -23,-75 -23,-121 -7,-6 -7,-2 -15,-4 -40,-3 -80,-2 -120,-2 -47,-1 -74,-12 -66,37z"/>
   <path class="fil0" d="M1037 1226c-8,-22 -1,-81 15,-106l18 53c4,21 6,33 7,56l-40 -3zm-93 -115c0,1 4,14 5,17l20 -16c21,-3 13,-4 38,-6 -9,42 -14,83 -25,126 -10,35 -28,98 -28,131 11,5 8,4 23,7 23,4 11,-10 14,13 32,9 7,8 27,-9 17,-15 5,-4 17,-22l8 -66c12,8 8,-8 20,18l11 -13 12 57c-3,14 -6,19 -2,36 0,2 1,4 1,6l13 18c18,-9 12,6 19,-28 12,-10 0,-4 18,-12 4,-1 16,-3 20,-4 -10,-80 -33,-159 -49,-243 8,-25 9,-4 3,-34 -8,-43 -3,-14 -11,-21 -36,-20 -136,-15 -190,-9l0 33c17,10 22,4 36,21z"/>
   <path class="fil0" d="M2566 1104c-3,-10 -3,-17 -6,-25 -9,-21 -6,-12 -14,-22 -41,23 -31,27 -59,54l11 272c12,8 -3,8 17,2 14,-6 25,-9 38,-15l0 -90 23 44 35 81 7 -35c15,9 5,-2 11,14l12 3 3 -20c19,-39 9,-256 7,-307l-48 1c-15,37 -2,102 -5,145 -15,-18 -27,-67 -32,-102z"/>
   <path class="fil0" d="M1734 699l-36 10 -1 -60c12,13 12,4 14,23 4,-31 4,-37 34,-40 2,14 4,6 2,22 -4,35 1,4 -8,18 -5,5 -11,-13 -5,27zm-170 -83c20,17 16,-23 15,16 22,24 9,-48 34,8 8,-24 0,-1 13,-12l22 4c0,47 0,95 0,142 0,25 -7,116 8,133 11,14 6,-20 11,23l10 -37 44 -4 0 -100c12,-12 4,-10 10,0l8 -7 15 -5 36 -34c51,-54 35,-152 -21,-164 -36,6 -17,5 -38,34 -42,-32 -49,-10 -72,-18 -1,-1 -3,-2 -4,-2 -10,-6 -42,-32 -75,-22 -23,6 -21,11 -16,45z"/>
   <path class="fil0" d="M749 1393l2 0c8,3 11,17 4,-8 15,-33 -20,20 7,-10 28,-32 17,-37 18,-128 25,13 13,14 25,5 1,0 3,-2 4,-3l27 51 43 1c11,-27 12,-211 7,-246l-64 1 -7 120c-2,1 -5,1 -6,3l-30 3 -3 -128 -51 2 -9 335c12,1 1,4 20,-9l13 11z"/>
   <path class="fil0" d="M1122 803c-4,41 -3,10 6,20l56 -26 1 -34c2,2 5,2 6,5 7,22 21,-1 32,-5l3 51c11,15 23,25 31,51 -40,15 -20,-10 -32,22 4,15 -4,3 6,17 10,15 1,3 10,9 23,-2 -3,6 13,-4l38 -27 -2 -307 -64 -3 -5 129 -33 -1c-22,-34 -4,-86 -13,-125 -86,-13 -42,48 -53,228z"/>
   <path class="fil0" d="M1829 627c3,1 12,4 16,12 14,0 2,-21 24,1 35,-8 -18,-8 36,-20l12 33c1,3 2,29 2,31 4,80 -14,177 8,228l53 -15c0,-32 -10,-99 9,-125l9 7 9 3 0 -22 -19 -59c-40,-8 -13,7 -24,-17l-6 -61c47,0 42,1 81,-15 0,50 14,70 16,97 19,-10 15,9 19,-36 0,-8 -1,-27 -1,-38 -16,-69 -82,-68 -131,-68 -90,1 -130,-17 -121,45 3,21 0,13 8,19z"/>
   <path class="fil0" d="M1119 910l-3 -47c18,-1 31,-5 42,-3 22,3 22,13 26,20 -9,7 6,7 -18,8l22 8c5,-23 -1,-12 15,-24l22 15c12,-32 -8,-7 32,-22 -8,-26 -20,-36 -31,-51 -13,-7 -26,-10 -42,-17l-56 26c-9,-10 -10,21 -6,-20l-9 0 -15 10c-24,-18 -13,4 -15,-31 -18,9 -20,13 -46,15 -49,-73 -28,-83 -48,-103 -7,-6 -129,-68 -134,-40l44 70c25,22 46,78 70,88l0 23c-19,5 -8,-3 -15,15 33,17 19,-6 23,30 64,-1 11,-15 53,15 15,-20 5,-11 31,-22 16,-7 27,-12 44,-16l8 43c9,26 -5,2 6,10z"/>
   <path class="fil0" d="M893 1295l-14 6 -43 -1 -3 15 13 50 18 8c15,-2 10,-5 10,12 1,2 9,14 9,18 4,25 1,12 -4,20l-1 15c6,46 12,19 40,44 14,13 21,35 21,62 28,-19 34,-35 79,-38 24,-7 -2,11 31,3 18,-4 25,-20 40,-26 48,-21 23,20 90,-32l-25 -39c-23,-21 1,-3 -24,-16 -13,11 -42,31 -58,38 -1,1 -3,1 -5,2l-30 5c-14,0 -36,-3 -52,-3 -9,-11 -4,-4 -14,-18l-24 -27c-14,-51 -15,-46 -15,-113 -29,7 -10,7 -39,15z"/>
   <path class="fil0" d="M1343 1363c-3,19 -1,18 1,33 7,53 -2,23 10,27l8 0c11,2 4,9 15,0l0 -45 15 9 22 -25 7 -20c20,8 17,6 26,27 9,-32 0,-8 13,-22 11,24 2,21 33,12 2,-3 18,4 1,-39l-84 -10c-6,-39 -3,-81 -3,-121 0,-23 3,-38 4,-56 2,-23 -3,-20 -5,-49 -11,-27 -23,-34 -60,-32 -17,40 -18,269 -3,311z"/>
   <path class="fil0" d="M2211 1121c2,-1 5,-26 41,0 -7,17 15,11 -16,17 -32,7 -24,-9 -25,-9l0 -8zm-11 -60c-9,18 -5,11 -16,17 -19,10 -23,14 -20,43l1 98c-3,16 -5,4 0,19 6,20 2,9 11,12l25 27c11,10 14,5 32,27l19 -7 7 -2 15 1c11,-7 -3,7 9,-9 0,0 7,-11 8,-13 13,-22 10,-12 9,-32l6 -60 -45 2c-2,26 2,29 -10,51l-25 -1 -2 -62 76 -9c12,-29 6,-25 2,-57l3 -22 -16 -7 -15 -16c-10,-18 -7,-17 -38,-17 -35,0 -26,-1 -36,17z"/>
   <path class="fil0" d="M1176 1370c-3,20 -1,26 3,38 1,42 -1,12 11,23 13,-25 4,-23 10,-50 0,-37 8,3 34,-5l43 -3 4 32 9 -28c24,-36 12,1 37,-29l-3 -23 -90 -7 -4 -259c-85,-21 -62,20 -63,123 0,49 -5,155 9,188z"/>
   <path class="fil0" d="M2413 1121l1 8c-2,1 9,14 -26,9 -28,-3 -11,-5 -16,-17 0,0 2,-22 41,0zm-76 -30c-15,71 -17,70 -7,143 1,40 21,39 59,78 1,1 3,3 3,3 1,0 2,2 3,2l15 -4 -1 -3 3 -13c2,0 14,0 15,0 4,-1 4,0 13,-7 23,-29 38,-55 38,-108l-8 4 -45 -2c-9,54 2,43 -23,54 -21,-10 -16,20 -19,-56 10,-4 14,-2 15,-2 5,-1 4,8 8,-15l56 -4 6 -40 2 -9c-30,-30 -1,6 -40,-5 -13,-4 -10,-6 -22,-14 -14,-9 -4,1 -16,-10l-12 -17 12 -5c-6,-8 11,-7 -20,-8 -25,7 -32,14 -35,38z"/>
   <path class="fil0" d="M1346 1052c37,-2 49,5 60,32l46 -10c6,24 3,14 15,32 16,-8 18,-10 38,-15l12 11c11,11 3,2 11,12l21 3c7,-29 18,-42 48,-47l1 -24 -3 -23c5,-3 12,-6 19,-12 22,-19 13,-24 34,-56 -54,0 -37,-6 -75,-15 -9,40 -9,64 -38,83 -3,-35 8,-13 -15,-30 -10,25 -1,22 -30,8l0 37c-22,-1 -24,-3 -40,-13 -22,-12 -24,-17 -28,-32 -30,20 -15,28 -57,49 -30,15 -11,-1 -19,10z"/>
   <path class="fil0" d="M1564 616c-5,-34 -7,-39 16,-45 33,-10 65,16 75,22 1,0 3,1 4,2 23,8 30,-14 72,18 21,-29 2,-28 38,-34l7 -8c4,-7 4,-3 7,-16 2,-8 1,-28 1,-37 49,-24 15,-4 45,-60 -48,0 -43,2 -75,-15 0,38 0,58 -23,75 -29,15 11,-6 -20,-8 -26,-2 12,10 -33,0 1,3 3,19 3,19 -1,12 2,3 -3,12 -46,-4 -44,-25 -75,-46 -13,49 -38,37 -39,55 -1,23 -31,-20 16,13 -7,2 -31,1 -22,42 5,26 -6,7 6,11z"/>
   <path class="fil0" d="M2172 646c-7,14 -1,5 -10,16l-21 -23c9,-22 6,-10 -3,-15 -10,-1 -20,-5 -31,-3 -38,6 -17,-3 -22,18l8 16c6,10 8,20 14,29 18,27 -3,0 22,15 -3,24 -6,19 2,39 56,-6 75,-32 96,-67l7 45c11,-12 6,2 11,-18 5,-25 -6,-47 7,-74 12,-19 14,-22 15,-53 -29,-7 -30,-8 -68,-8 -13,24 -30,50 -27,83z"/>
   <path class="fil0" d="M1106 1121c16,84 39,163 49,243 -4,1 -16,3 -20,4 -18,8 -6,2 -18,12l18 -2 8 0c19,-5 13,-4 33,-8 -14,-33 -9,-139 -9,-188 1,-103 -22,-144 63,-123l4 259 90 7 3 23c-25,30 -13,-7 -37,29 16,-5 38,-9 53,-14 -15,-42 -14,-271 3,-311 -4,3 -18,5 -22,9l0 249 -83 0 0 -264c-106,0 -83,-40 -83,249l-36 -153c-10,-22 1,-6 -16,-21z"/>
   <path class="fil0" d="M1695 1214c-1,-2 -6,-10 -6,-12 -1,-15 -1,-7 3,-15 14,-4 25,3 40,11l-7 -32c-32,-18 -69,-22 -104,-15l8 46c-2,1 -4,2 -6,3 -1,0 -4,2 -5,3 -1,1 -4,2 -5,3l-7 9c-6,12 -3,20 -3,34 54,3 50,-15 92,-35z"/>
   <path class="fil0" d="M994 1436c14,-20 -18,-1 18,-18 -12,22 8,13 -18,18zm-23 -16l6 -11c6,9 7,-14 7,21l-13 -10zm-24 -27l24 27c10,14 5,7 14,18 16,0 38,3 52,3l30 -5c2,-1 4,-1 5,-2 16,-7 45,-27 58,-38 25,13 1,-5 24,16l25 39c-67,52 -42,11 -90,32 -15,6 -22,22 -40,26 -33,8 -7,-10 -31,-3 10,7 23,15 34,23 27,-40 41,-57 91,-31l28 -31 7 24c0,-31 -6,-12 10,-30 11,10 11,-8 10,30 8,-19 8,-12 0,-40 -11,-44 -1,3 4,-36 3,-17 1,-19 -2,-34 -6,27 3,25 -10,50 -12,-11 -10,19 -11,-23l-7 15c-20,-15 -17,-22 -29,-45l-8 0 -8 14 -10 -12c-7,34 -1,19 -19,28 -20,27 5,5 -27,19 -17,8 -20,9 -41,11 0,-32 -3,-31 7,-54l-7 0 -9 1 -14 12c-28,-7 -7,1 -16,-14 -3,-23 9,-9 -14,-13l-8 30c-23,-6 -4,2 -22,-7z"/>
   <path class="fil0" d="M749 1393l-11 16 11 -16zm2 0l-2 0 -13 -11c-19,13 -8,10 -20,9l9 -335 51 -2 3 128 30 -3c1,-2 4,-2 6,-3l-27 -2c0,-150 15,-128 -75,-128 0,56 6,159 -2,209 -12,83 -4,118 2,191 24,-7 8,-4 23,-14l10 -6c4,-2 3,1 12,-3 -3,-13 -3,-17 -7,-30z"/>
   <path class="fil0" d="M1113 803l9 0c11,-180 -33,-241 53,-228 9,39 -9,91 13,125l33 1 5 -129 64 3c-1,-5 17,-14 -42,-13 -47,1 -37,-5 -37,129l-23 0 0 -128c-98,0 -75,-33 -75,240z"/>
   <path class="fil0" d="M1290 575l2 307 -38 27c-16,10 10,2 -13,4l0 25c30,-1 11,-10 32,2 -20,32 20,-15 -7,10l-10 9c-1,1 -4,3 -6,4 56,0 28,-31 14,-53 27,-7 15,-8 37,-23l0 -241c2,-36 -2,-13 10,-37 -8,-49 19,-38 66,-37 40,0 80,-1 120,2 -10,-17 5,-5 -15,-10 -40,-9 -164,0 -192,11z"/>
   <path class="fil0" d="M2093 676l9 15 -9 -15zm-20 -45c0,11 1,30 1,38 -4,45 0,26 -19,36l38 43c100,-5 54,-1 121,-36l30 17c12,-32 8,-67 8,-105 -13,27 -2,49 -7,74 -5,20 0,6 -11,18l-7 -45c-21,35 -40,61 -96,67 -8,-20 -5,-15 -2,-39 -25,-15 -4,12 -22,-15 -6,-9 -8,-19 -14,-29l0 21c-1,2 -3,2 -4,4l-7 8c-1,0 -3,2 -4,3 0,-32 -4,-34 7,-52 5,-21 -16,-12 22,-18 11,-2 21,2 31,3 -10,-7 4,-5 -22,-8 -8,-1 -28,0 -38,0l-5 15z"/>
   <path class="fil0" d="M2128 809c7,37 -8,58 10,98 12,-27 3,-2 19,-16l36 -9 0 -102c-48,13 -23,31 -65,29z"/>
   <path class="fil0" d="M815 1176l7 -120 64 -1c5,35 4,219 -7,246l14 -6 1 -196c19,9 31,8 50,12 -14,-17 -19,-11 -36,-21l0 -33c54,-6 154,-11 190,9 0,-29 16,-21 -151,-20l-136 0 4 130z"/>
   <path class="fil0" d="M2395 1197l15 0 0 30 -15 0 0 -30zm83 -30l0 -8 9 6 -9 2zm-10 -46l-6 40 -56 4c-4,23 -3,14 -8,15 -1,0 -5,-2 -15,2 3,76 -2,46 19,56 25,-11 14,0 23,-54l45 2c0,-32 -2,-14 8,-19l0 15c15,23 7,69 7,98l0 83c5,24 -4,10 13,20l-11 -272 -9 0c0,13 3,10 -10,10z"/>
   <path class="fil0" d="M1603 1491l0 0zm0 0l0 -23c-44,30 -28,-4 -56,20 -13,11 3,5 -19,16 -13,9 -13,-14 -10,17 1,0 3,-2 3,-1 5,22 -4,-5 13,1l24 16c-9,-35 -14,-7 -5,-43 1,2 3,3 3,6l17 36c20,1 -17,7 8,-2l19 -11c17,-14 -18,6 10,-9 0,0 0,-2 0,-1l23 15 -4 -32c9,37 -12,15 21,27 4,-47 3,-2 -1,-40l-16 -8 0 -22 -7 -7c-11,-7 -8,-4 -23,-8 3,39 6,10 15,45l-15 8z"/>
   <path class="fil0" d="M2229 1197l23 0 0 30c-31,-8 -19,-1 -23,-30zm71 -34l13 9 -13 -9zm2 -57c4,32 10,28 -2,57l-76 9 2 62 25 1c12,-22 8,-25 10,-51l45 -2 -6 60c13,-13 12,21 12,-30l7 0c0,43 -2,9 11,22 -10,-73 -8,-72 7,-143 -10,9 -6,-2 -13,13 -6,14 -5,5 -5,25l-7 0c0,-43 2,-9 -10,-23z"/>
   <path class="fil0" d="M2644 1367c7,-1 14,3 22,-4l0 -317c-6,0 -35,-2 -38,-1 -50,6 -14,-7 -25,16l48 -1c2,51 12,268 -7,307z"/>
   <path class="fil0" d="M2252 1325l0 7 -9 -6 9 -1zm22 -29l-15 -1c0,27 4,21 -7,30l0 -28 -19 7c-18,-22 -21,-17 -32,-27l-25 -27c0,35 30,45 53,60 -1,35 -14,39 0,68 23,-6 -6,7 11,-5 5,-3 10,-9 11,-9 15,-9 -2,-4 31,-1 0,-30 -1,-45 -8,-67z"/>
   <path class="fil0" d="M1869 640l-2 29 23 0 15 -38c0,52 14,92 4,148l-4 108c9,43 8,21 22,25 -22,-51 -4,-148 -8,-228 0,-2 -1,-28 -2,-31l-12 -33c-54,12 -1,12 -36,20z"/>
   <path class="fil0" d="M1678 1461l-4 16 4 -16zm-30 18c11,19 -1,23 12,44 23,3 6,-8 21,-15 12,-5 19,3 43,13 -7,-19 -10,-54 -15,-65l-11 16c-11,-12 -3,-7 -20,-11 -5,-19 4,-11 -15,-15l-15 33z"/>
   <path class="fil0" d="M1331 1566l4 24c6,-1 10,-5 11,-3 0,0 16,-2 11,-18 2,0 13,2 15,2l27 -17c37,1 19,-6 50,5 11,-15 5,5 5,-27l-27 -1c-1,0 -3,0 -5,1 -1,0 -6,1 -8,3l-25 0c0,0 -1,2 -1,3 -1,0 -2,1 -2,1 -34,11 29,0 -11,-3 -12,-1 0,-1 -17,3 -14,4 -7,4 -27,5 5,17 2,11 0,22z"/>
   <path class="fil0" d="M755 1385l33 -15 0 -75 23 0c0,31 -6,48 9,68l0 -61c11,29 -2,-3 13,13l3 -15 -27 -51c-1,1 -3,3 -4,3 -12,9 0,8 -25,-5 -1,91 10,96 -18,128 -27,30 8,-23 -7,10z"/>
   <path class="fil0" d="M2078 1066c17,-9 35,-9 63,-8 11,38 -4,96 -7,139 17,-9 10,9 13,-30 0,-7 -1,-29 -1,-38l7 0c0,48 -7,74 12,90l-1 -98c-25,-15 0,-27 -11,-75l-75 0 0 20z"/>
   <path class="fil0" d="M1377 885l10 14c5,9 3,6 7,17 3,11 5,20 5,39l23 0 0 -52c28,-8 18,-1 25,-28 3,-12 5,-27 5,-48l8 0c0,53 -7,61 31,38l-21 -46c0,0 -2,0 -2,0 -15,-5 -6,-25 -18,-3 -11,20 1,42 -20,72 -7,10 -5,5 -13,17 -12,19 3,2 -11,18l-29 -38z"/>
   <path class="fil0" d="M1626 628c-13,11 -5,-12 -13,12 -25,-56 -12,16 -34,-8 1,-39 5,1 -15,-16 5,25 8,74 16,90 30,-21 16,-19 15,-60 26,29 9,27 28,20 13,-4 4,-17 3,-38z"/>
   <path class="fil0" d="M1641 1430l7 8c26,0 42,-2 60,-8 1,-40 4,-11 -14,-22 -12,17 20,19 -18,15l-15 -20c-17,0 -15,7 -36,0l-31 -10 9 37c2,0 16,-5 18,-5 30,-1 9,-1 20,5z"/>
   <path class="fil0" d="M2157 891c-16,14 -7,-11 -19,16 -18,-40 -3,-61 -10,-98 -4,-11 8,-11 -12,-7 0,28 -3,57 1,84 6,39 -2,51 36,54l4 -49z"/>
   <path class="fil0" d="M1377 627l-17 29c-15,-39 -13,-29 -49,-47 -4,27 10,18 28,15 22,96 -16,93 30,105 0,-26 4,-34 4,-50 1,-21 3,-24 4,-52z"/>
   <path class="fil0" d="M1119 910c-3,14 -15,42 4,50 8,4 31,-14 43,-20 -9,-34 -1,-10 0,-52 -15,19 -7,-23 -14,23 -14,-19 15,-8 -16,-8 -1,0 -14,6 -17,7z"/>
   <path class="fil0" d="M1119 910c3,-1 16,-7 17,-7 31,0 2,-11 16,8 7,-46 -1,-4 14,-23 24,-1 9,-1 18,-8 -4,-7 -4,-17 -26,-20 -11,-2 -24,2 -42,3l3 47z"/>
   <path class="fil0" d="M2629 1384l-5 17c-3,-31 -4,-4 5,-17zm15 -17l-3 20 -12 -3c-6,-16 4,-5 -11,-14l-7 35 -35 -81c1,46 19,46 22,91 43,1 70,25 46,-48z"/>
   <path class="fil0" d="M1063 1304l14 12 -14 -12zm-28 48c11,-10 10,14 10,-42l7 45c19,-2 20,-2 34,-7l-12 -57 -11 13c-12,-26 -8,-10 -20,-18l-8 66z"/>
   <path class="fil0" d="M1739 782c-5,17 0,21 -8,7l-10 0 0 100c17,-1 7,5 11,-16 0,-3 -1,-25 -1,-31l11 -2c18,-5 14,1 19,-20 -31,2 -22,17 -30,-8l30 0c-4,-20 -3,-13 -7,-35l-15 5z"/>
   <path class="fil0" d="M1448 659c22,26 18,39 27,78l-30 0c11,-24 9,-44 3,-78zm0 0c-6,23 -13,66 -3,86l39 2c-1,-29 -11,-86 -24,-108 -9,7 -8,2 -12,20z"/>
   <path class="fil0" d="M2108 1389l-15 -2c-19,25 2,9 -21,20 -2,-30 -5,-69 -17,-90 0,26 8,105 16,121 40,-16 -19,0 37,-23l0 -26z"/>
   <path class="fil0" d="M820 1363c3,17 -7,-3 4,17 6,12 4,5 10,11 3,3 11,5 14,9l16 -27 -18 -8 -13 -50c-15,-16 -2,16 -13,-13l0 61z"/>
   <path class="fil0" d="M2566 1104c5,35 17,84 32,102 3,-43 -10,-108 5,-145 -26,-3 -5,-12 -11,9l-9 81c0,-34 -11,-38 -17,-47z"/>
   <path class="fil0" d="M1264 1423l7 -8 10 -10 -4 -32 -43 3c-26,8 -34,-32 -34,5 23,7 22,17 48,4 1,39 -6,22 16,38z"/>
   <path class="fil0" d="M1812 1120c-19,29 -5,51 25,64 16,-33 3,-69 -25,-64z"/>
   <path class="fil0" d="M1045 1151l15 0c0,39 5,39 7,68l-30 0c12,-24 8,-34 8,-68zm-8 75l40 3c-1,-23 -3,-35 -7,-56l-18 -53c-16,25 -23,84 -15,106z"/>
   <path class="fil0" d="M1927 912l-9 28 24 0 0 -37c50,4 46,24 45,-76 0,-2 0,-22 0,-23 5,-29 -1,-10 11,-25l-9 -7c-19,26 -9,93 -9,125l-53 15z"/>
   <path class="fil0" d="M834 1391c-1,45 -10,22 0,62 30,0 3,2 15,-11l-13 -12c14,-17 -2,-6 15,-13 5,-2 5,-1 17,1l-4 20 14 0 1 -15c-6,-20 -5,-15 -23,-30l18 -8c0,-17 5,-14 -10,-12l-16 27c-3,-4 -11,-6 -14,-9z"/>
   <path class="fil0" d="M1276 1466c-15,-46 0,-34 3,-39l-3 39zm5 -61l-10 10 -7 8c0,2 -1,23 -1,23 6,25 -5,9 13,20 2,12 -18,10 10,10 10,-20 5,-25 10,-70 1,-12 -2,-8 -6,-29l-9 28z"/>
   <path class="fil0" d="M1998 779c-5,44 7,23 -3,63 57,-5 23,-17 22,-20 -3,-17 -7,13 -1,-19 3,-22 4,-14 9,-29 -13,-27 -1,-9 -18,-14l0 22 -9 -3z"/>
   <path class="fil0" d="M1362 1423l-8 0c-5,31 -7,36 -7,75l22 0c16,-66 3,-19 -7,-75z"/>
   <path class="fil0" d="M1598 1333c2,7 -4,36 52,42 2,-21 4,-24 -16,-36 -12,-7 -9,-9 -36,-6z"/>
   <path class="fil0" d="M1615 1297c0,-33 -19,-43 -46,-51 -9,34 20,52 46,51z"/>
   <path class="fil0" d="M1599 1109c5,8 -5,24 34,4 18,-9 19,-10 19,-29 -27,-10 -47,8 -53,25z"/>
   <path class="fil0" d="M1497 911c0,20 0,71 24,46 13,-13 4,-9 4,-30l1 -36c-4,5 -5,6 -10,16 -3,6 -3,8 -4,13 -9,-16 1,1 -15,-9z"/>
   <path class="fil0" d="M1920 1067l50 -14c7,32 4,62 18,83 0,-44 -5,-58 -8,-90l-53 0c-4,5 -6,18 -7,21z"/>
   <path class="fil0" d="M1184 797c16,7 29,10 42,17l-3 -51c-11,4 -25,27 -32,5 -1,-3 -4,-3 -6,-5l-1 34z"/>
   <path class="fil0" d="M1656 907l0 33 22 0c1,-39 6,-45 38,-30 6,-7 4,-15 5,-21l-44 4 -10 37c-5,-43 0,-9 -11,-23z"/>
   <path class="fil0" d="M1837 658c20,4 15,-12 15,26 -8,7 11,10 -15,4 12,13 -19,11 22,11 0,-6 -1,-26 0,-30 5,-35 0,-10 10,-29 -22,-22 -10,-1 -24,-1 -4,-8 -13,-11 -16,-12l8 31z"/>
   <path class="fil0" d="M949 1176l-5 -17c12,-9 -1,-4 18,-4l7 -43 -20 16c-1,-3 -5,-16 -5,-17 -3,15 -7,25 -6,42 2,49 -1,18 11,23z"/>
   <path class="fil0" d="M2395 1317l0 23c26,-3 8,-2 16,8 -7,23 6,7 -16,22l35 -11c2,-1 4,-3 5,-4 1,-1 4,-3 5,-4 -17,0 -8,4 -19,-4l4 -27c-9,4 -8,-15 -8,12 -12,-10 -2,5 -7,-19l-15 4z"/>
   <path class="fil0" d="M1526 891c26,5 45,10 47,-18 0,-4 -4,-22 -5,-25 -10,-36 2,-12 -15,-28l7 64 -34 7z"/>
   <path class="fil0" d="M1250 963c2,-1 5,-3 6,-4l10 -9c27,-25 -13,22 7,-10 -21,-12 -2,-3 -32,-2 -12,2 -7,-8 -7,10 0,15 2,12 7,22 30,0 4,2 9,-7z"/>
   <path class="fil0" d="M2211 1129c1,0 -7,16 25,9 31,-6 9,0 16,-17 -36,-26 -39,-1 -41,0l33 0 0 8 -33 0z"/>
   <path class="fil0" d="M1734 699l-25 0c6,-26 0,-5 2,-27 -2,-19 -2,-10 -14,-23l1 60 36 -10z"/>
   <path class="fil0" d="M1711 672c20,-12 0,5 14,-17 7,-10 -4,-3 14,-16l0 33c9,-14 4,17 8,-18 2,-16 0,-8 -2,-22 -30,3 -30,9 -34,40z"/>
   <path class="fil0" d="M2515 1385c-20,6 -5,6 -17,-2 -8,35 -14,31 17,40l0 -38z"/>
   <path class="fil0" d="M2414 1129l-34 0 0 -8 33 0c-39,-22 -41,0 -41,0 5,12 -12,14 16,17 35,5 24,-8 26,-9z"/>
   <path class="fil0" d="M2440 1351c7,-6 7,9 7,-12 1,-39 1,-11 -7,-16l-15 -3 -4 27c11,8 2,4 19,4z"/>
   <path class="fil0" d="M1837 688c26,6 7,3 15,-4 0,-38 5,-22 -15,-26 -11,3 -7,-18 -8,12 -1,40 0,10 8,18z"/>
   <path class="fil0" d="M849 1442c30,13 17,5 15,-4l4 -20c-12,-2 -12,-3 -17,-1 -17,7 -1,-4 -15,13l13 12z"/>
   <path class="fil0" d="M949 1176c-13,29 -21,27 13,36l0 -42 -13 6z"/>
   <path class="fil0" d="M1178 1491c8,20 18,2 20,0 1,-38 1,-20 -10,-30 -16,18 -10,-1 -10,30z"/>
   <path class="fil0" d="M2395 1370c22,-15 9,1 16,-22 -8,-10 10,-11 -16,-8 -11,-2 -7,-20 -8,9 -1,38 0,10 8,21z"/>
   <path class="fil0" d="M991 1383c9,15 -12,7 16,14l14 -12c7,-9 2,-10 9,-1l7 0 -2 -32c-12,18 0,7 -17,22 -20,17 5,18 -27,9z"/>
   <path class="fil0" d="M2409 1310c27,0 10,-3 16,10l15 3 0 -33c-9,7 -9,6 -13,7 -1,0 -13,0 -15,0l-3 13z"/>
   <path class="fil0" d="M1594 1393c-9,-11 -2,-4 -15,-14 -1,-1 -11,-7 -14,-10 -12,-9 -13,-12 -22,-21 5,18 2,15 15,28 16,16 11,12 36,17z"/>
   <path class="fil0" d="M1888 1562c-15,-30 5,-7 -21,-22 0,0 -16,10 -3,22 12,12 12,3 24,0z"/>
   <polygon class="fil0" points="1626,1446 1633,1453 1648,1453 1648,1438 1641,1430 1626,1430 "/>
   <path class="fil0" d="M1454 1532c28,-1 16,6 21,-20 -19,3 -23,-28 -21,20z"/>
   <path class="fil0" d="M1905 1579c18,-31 6,-16 -8,-22 -1,3 -17,-10 -5,14 6,11 -3,4 13,8z"/>
   <path class="fil0" d="M949 1176l13 -6c13,7 6,5 5,-6 -2,-18 4,-1 -5,-9 -19,0 -6,-5 -18,4l5 17z"/>
   <path class="fil0" d="M2392 1083l9 -7c3,-27 3,-7 -9,-15l-12 5 12 17z"/>
   <path class="fil0" d="M1429 1422c18,0 13,4 10,-14 -11,-10 0,-4 -17,-6l7 20z"/>
   <polygon class="fil0" points="2235,782 2252,782 2252,766 2236,765 "/>
   <polygon class="fil0" points="1520,1461 1528,1461 1528,1430 1520,1430 "/>
   <path class="fil0" d="M1276 1466l3 -39c-3,5 -18,-7 -3,39z"/>
   <path class="fil0" d="M2561 996c-28,11 -14,-6 -23,19 25,-9 6,10 23,-19z"/>
   <path class="fil0" d="M2184 1078c11,-6 7,1 16,-17l-16 0 0 17z"/>
   <path class="fil0" d="M2172 646l-18 8c-1,-31 2,-3 -13,-15l21 23c9,-11 3,-2 10,-16z"/>
   <path class="fil0" d="M971 1420l13 10c0,-35 -1,-12 -7,-21l-6 11z"/>
   <path class="fil0" d="M994 1436c26,-5 6,4 18,-18 -36,17 -4,-2 -18,18z"/>
   <polygon class="fil0" points="2289,1077 2289,1061 2274,1061 "/>
  </g>
  <g id="_2126108231200">
   <path class="fil1" d="M1914 1557c13,6 25,-9 7,22 -16,-4 -6,3 -12,-8 -12,-24 3,-11 5,-14zm-34 5c-13,-12 3,-22 3,-22 26,15 7,-8 21,22 -12,3 -11,12 -24,0zm41 -26l-4 16 4 -16zm-450 -4c-3,-48 2,-17 20,-20 -5,26 7,19 -20,20zm367 -26l0 0zm-392 -30l0 0zm45 -98c0,-20 12,-2 5,0 0,0 -5,21 -5,0zm257 -180c-14,-8 -25,-15 -40,-11 -3,8 -3,0 -2,15 0,2 5,10 6,12 18,36 8,60 -12,94 -31,-17 5,-17 -36,-28 -10,46 6,73 47,128 17,11 15,-18 13,22 -5,16 -11,-2 1,26 5,11 9,46 15,65 -24,-10 -31,-18 -42,-13 -16,7 2,18 -22,15 -12,-21 0,-25 -11,-44l0 4c4,38 5,-7 2,40 -34,-12 -13,10 -21,-27l4 32 -23 -15c-1,-1 0,1 0,1 -28,15 6,-5 -10,9l-20 11c-25,9 13,3 -8,2l-16 -36c-1,-3 -2,-4 -3,-6 -9,36 -5,8 5,43l-24 -16c-17,-6 -9,21 -13,-1 -1,-1 -2,1 -3,1 -3,-31 -4,-8 9,-17 -8,-13 -10,-15 -13,-30l-4 -27c0,-2 -1,-4 -1,-6l-5 -11c12,-34 4,-2 10,-11 0,-2 5,-7 6,-26l-23 0c0,-26 17,-61 1,-77 -14,-14 -64,-6 -89,-6l84 10c18,43 1,36 0,39 -31,9 -22,12 -33,-12 -13,14 -5,-10 -13,22 -9,-21 -7,-19 -26,-27l-7 20 -23 25c7,3 1,5 15,4 13,-2 4,0 15,-6l0 17c18,2 7,-4 18,6 3,18 7,14 -10,14 10,8 4,1 8,16 -23,6 -13,3 -31,15l23 23c-15,4 -12,1 -23,7l26 20c1,1 3,2 5,3 -26,7 -21,1 -23,29 2,-2 6,-3 8,-3 1,-1 3,-1 5,-1l27 1c0,32 6,12 -6,27 -30,-11 -13,-4 -49,-5l-28 17c-1,0 -12,-2 -15,-2 5,16 -10,18 -10,18 -1,-2 -5,2 -11,3l-4 -24c0,52 11,38 128,38l431 1c46,-2 37,-10 37,-54l-23 -15 0 -23c-14,11 -12,17 -30,23 -2,-1 -4,-4 -5,-3l-48 -27c-7,-15 -15,-83 -15,-106 42,-22 63,-46 83,-90 20,-43 23,-105 3,-151 7,64 16,90 -12,149 -18,38 -45,71 -80,85 6,-97 47,-54 44,-120 -26,2 -7,11 -40,24l17 -66c-25,-20 -18,3 -41,-42 -21,1 -26,4 -38,12 6,48 -14,-39 6,12 15,38 1,30 -6,36l-11 -51z"/>
   <path class="fil2" d="M1614 1333c27,-3 25,-1 36,6 20,12 18,15 17,36 -56,-6 -50,-35 -53,-42zm-28 -87c27,8 46,18 46,51 -27,1 -55,-17 -46,-51zm242 -126c29,-5 41,31 25,64 -30,-13 -44,-35 -25,-64zm-213 -11c7,-17 27,-35 54,-25 -1,19 -1,20 -19,29 -40,20 -29,4 -35,-4zm0 -63l-2 24c-29,5 -41,18 -48,47l-21 -3c-22,33 -32,63 -31,121 2,47 18,93 46,113 9,9 11,12 23,21 3,3 13,9 14,10 12,10 5,3 14,14l31 10c22,7 19,0 36,0l16 20c38,4 5,2 18,-15 -41,-55 -57,-82 -47,-128 41,11 5,11 36,28 20,-34 30,-58 12,-94 -42,20 -38,38 -92,35 -1,-14 -4,-22 3,-34l7 -9c1,-1 3,-2 4,-3 2,-1 5,-3 6,-3 1,-1 4,-2 6,-3l-8 -46c34,-7 72,-3 104,15l6 32 11 51c7,-6 21,2 6,-36 -20,-51 0,36 -6,-12 12,-8 17,-11 38,-12 23,45 16,22 41,42l-17 66c33,-13 14,-22 40,-24 3,66 -38,23 -44,120 35,-14 62,-47 80,-85 28,-59 19,-85 12,-149 -24,-58 -53,-95 -108,-121 -54,-25 -140,-21 -186,8z"/>
   <path class="fil3" d="M2487 1091l2 2c0,0 -3,-1 -2,-2zm90 -95c-17,29 3,10 -22,19 9,-25 -5,-8 22,-19zm-597 -312l24 0 0 17 19 59c17,5 5,-13 19,14 19,10 22,25 22,53 38,-10 19,-29 68,-25 21,-4 9,-4 13,7 42,2 16,-16 65,-29l0 102 -37 9c38,13 69,21 72,64 49,0 74,13 83,53 69,0 28,18 76,30l-15 15c31,1 13,0 20,8 12,8 11,-12 8,15l-8 7c11,11 1,1 15,10 12,8 10,10 23,14 38,11 10,-25 40,5l7 -1 9 0c28,-27 18,-31 59,-54 8,10 5,1 14,22 4,8 4,15 6,25 4,-32 -12,-48 -10,-59 5,-25 22,-9 54,-18 11,-4 66,-32 110,-11 14,-27 12,-30 52,-30 -7,-27 -23,-39 -47,-51 -26,-13 -43,-17 -81,-17 -9,34 -41,50 -68,68 -7,-27 -3,-17 -22,-31l0 23 -30 0 0 -23c-31,3 -31,4 -38,31 -58,-2 -84,-52 -113,-91 -10,-13 -5,-21 -75,-23 -44,-1 -65,0 -99,8l0 -98c23,5 18,10 36,0l2 -17 15 1c15,-3 12,-1 23,-7l-30 -30 -31 -17c-67,35 -21,31 -120,36l-38 -43c-2,-27 -16,-47 -16,-97 -40,16 -34,15 -82,15l6 61z"/>
   <path class="fil4" d="M2004 1136c-13,-21 -10,-51 -17,-83l-51 14c-12,0 -7,-12 -1,32l31 234c7,67 16,52 8,90l30 0 0 -45c30,-1 18,2 38,-8 1,-35 7,-28 7,-105l17 36c4,14 1,8 6,16 12,21 14,60 17,90 23,-11 2,5 20,-20l16 2c32,-24 20,-38 22,-87 2,-41 15,-53 3,-105 4,-43 19,-101 7,-139 -28,-1 -45,-1 -62,8 -12,10 -8,19 -8,48l-7 0c0,-57 5,-68 -53,-68 -6,12 -12,35 -14,47 -1,11 0,19 -2,29 -4,33 0,19 -7,14z"/>
   <path class="fil4" d="M1465 659c4,-18 3,-13 11,-20 14,22 23,79 25,108l-40 -2c-9,-20 -2,-63 4,-86zm-137 -50c35,18 34,8 48,47l17 -29 30 5c0,57 -22,140 -39,194 -23,79 5,58 9,59l29 38c14,-16 0,1 12,-18 7,-12 6,-7 12,-17 22,-30 10,-52 21,-72 12,-22 2,-2 17,3 1,0 3,0 3,0l20 46c0,9 -2,21 -1,30 4,23 -2,11 8,16 15,10 6,-7 15,9 1,-5 0,-7 3,-13 5,-10 7,-11 10,-16l35 -7 -8 -64c8,-33 -12,-86 -17,-121 -7,-43 -23,-75 -23,-121 -8,-6 -7,-2 -15,-4 -40,-3 -80,-2 -121,-2 -46,-1 -74,-12 -65,37z"/>
   <path class="fil4" d="M1054 1226c-8,-22 -2,-81 15,-106l17 53c4,21 7,33 8,56l-40 -3zm-94 -115c0,1 4,14 5,17l21 -16c21,-3 13,-4 38,-6 -10,42 -14,83 -26,126 -9,35 -27,98 -27,131 10,5 8,4 23,7 23,4 11,-10 14,13 31,9 6,8 26,-9 18,-15 5,-4 17,-22l9 -66c12,8 8,-8 19,18l12 -13 11 57c-2,14 -5,19 -2,36 1,2 1,4 2,6l12 18c18,-9 13,6 19,-28 12,-10 1,-4 19,-12 4,-1 16,-3 20,-4 -10,-80 -33,-159 -49,-243 8,-25 8,-4 3,-34 -9,-43 -4,-14 -12,-21 -36,-20 -136,-15 -189,-9l-1 33c17,10 23,4 36,21z"/>
   <path class="fil4" d="M2582 1104c-2,-10 -2,-17 -6,-25 -9,-21 -6,-12 -14,-22 -41,23 -31,27 -59,54l11 272c12,8 -2,8 18,2 13,-6 24,-9 38,-15l0 -90 22 44 35 81 8 -35c15,9 4,-2 11,14l11 3 3 -20c20,-39 10,-256 8,-307l-48 1c-15,37 -2,102 -5,145 -15,-18 -28,-67 -33,-102z"/>
   <path class="fil4" d="M1750 699l-35 10 -2 -60c12,13 12,4 15,23 4,-31 3,-37 33,-40 3,14 4,6 2,22 -3,35 1,4 -8,18 -4,5 -10,-13 -5,27zm-169 -83c19,17 16,-23 15,16 22,24 9,-48 33,8 9,-24 1,-1 13,-12l23 4c0,47 0,95 0,142 0,25 -7,116 7,133 11,14 7,-20 12,23l9 -37 45 -4 -1 -100c13,-12 4,-10 11,0l7 -7 15 -5 36 -34c52,-54 36,-152 -21,-164 -36,6 -16,5 -37,34 -43,-32 -50,-10 -72,-18 -1,-1 -3,-2 -4,-2 -10,-6 -42,-32 -75,-22 -23,6 -21,11 -16,45z"/>
   <path class="fil4" d="M766 1393l1 0c9,3 11,17 5,-8 14,-33 -20,20 7,-10 27,-32 17,-37 17,-128 25,13 14,14 26,5 1,0 3,-2 4,-3l26 51 44 1c10,-27 11,-211 6,-246l-64 1 -7 120c-2,1 -4,1 -5,3l-30 3 -4 -128 -50 2 -10 335c12,1 2,4 20,-9l14 11z"/>
   <path class="fil4" d="M1139 803c-5,41 -3,10 5,20l57 -26 1 -34c2,2 5,2 6,5 6,22 21,-1 31,-5l4 51c10,15 23,25 30,51 -40,15 -20,-10 -32,22 5,15 -3,3 7,17 9,15 1,3 9,9 24,-2 -3,6 14,-4l37 -27 -2 -307 -64 -3 -4 129 -33 -1c-22,-34 -5,-86 -14,-125 -86,-13 -41,48 -52,228z"/>
   <path class="fil4" d="M1846 627c2,1 11,4 16,12 14,0 2,-21 23,1 35,-8 -17,-8 36,-20l13 33c0,3 2,29 2,31 4,80 -14,177 8,228l52 -15c1,-32 -10,-99 10,-125l8 7 10 3 -1 -22 -19 -59c-39,-8 -13,7 -24,-17l-6 -61c48,0 42,1 82,-15 0,50 14,70 16,97 18,-10 15,9 18,-36 1,-8 -1,-27 0,-38 -17,-69 -83,-68 -131,-68 -91,1 -130,-17 -121,45 3,21 0,13 8,19z"/>
   <path class="fil3" d="M1136 910l-4 -47c19,-1 32,-5 42,-3 23,3 22,13 27,20 -10,7 5,7 -18,8l21 8c6,-23 0,-12 16,-24l21 15c12,-32 -8,-7 32,-22 -7,-26 -20,-36 -30,-51 -14,-7 -27,-10 -42,-17l-57 26c-8,-10 -10,21 -5,-20l-10 0 -14 10c-24,-18 -13,4 -16,-31 -18,9 -20,13 -45,15 -49,-73 -29,-83 -48,-103 -7,-6 -129,-68 -135,-40l45 70c24,22 46,78 70,88l0 23c-20,5 -8,-3 -15,15 33,17 19,-6 23,30 63,-1 11,-15 52,15 15,-20 5,-11 31,-22 17,-7 28,-12 45,-16l8 43c9,26 -6,2 6,10z"/>
   <path class="fil3" d="M910 1295l-14 6 -44 -1 -2 15 13 50 18 8c15,-2 10,-5 10,12 1,2 8,14 9,18 3,25 1,12 -4,20l-1 15c5,46 12,19 39,44 14,13 21,35 22,62 27,-19 34,-35 79,-38 24,-7 -3,11 31,3 17,-4 25,-20 40,-26 48,-21 23,20 90,-32l-26 -39c-22,-21 2,-3 -24,-16 -12,11 -42,31 -57,38 -2,1 -4,1 -5,2l-30 5c-15,0 -37,-3 -53,-3 -8,-11 -4,-4 -14,-18l-23 -27c-14,-51 -16,-46 -16,-113 -28,7 -9,7 -38,15z"/>
   <path class="fil4" d="M1360 1363c-3,19 -2,18 0,33 8,53 -2,23 11,27l7 0c12,2 4,9 15,0l0 -45 15 9 23 -25 7 -20c19,8 17,6 26,27 8,-32 0,-8 13,-22 11,24 2,21 33,12 1,-3 18,4 0,-39l-84 -10c-6,-39 -3,-81 -3,-121 0,-23 3,-38 5,-56 2,-23 -4,-20 -5,-49 -11,-27 -23,-34 -60,-32 -17,40 -18,269 -3,311z"/>
   <path class="fil4" d="M2227 1121c3,-1 6,-26 42,0 -7,17 14,11 -16,17 -32,7 -25,-9 -25,-9l-1 -8zm-11 -60c-8,18 -4,11 -16,17 -18,10 -22,14 -19,43l1 98c-4,16 -5,4 0,19 6,20 2,9 11,12l25 27c11,10 13,5 32,27l18 -7 8 -2 15 1c10,-7 -4,7 8,-9 1,0 8,-11 9,-13 12,-22 9,-12 8,-32l7 -60 -46 2c-2,26 3,29 -9,51l-26 -1 -2 -62 77 -9c12,-29 6,-25 1,-57l3 -22 -15 -7 -15 -16c-10,-18 -8,-17 -38,-17 -36,0 -26,-1 -37,17z"/>
   <path class="fil4" d="M1193 1370c-3,20 -2,26 3,38 0,42 -2,12 11,23 12,-25 4,-23 10,-50 0,-37 8,3 34,-5l42 -3 4 32 10 -28c24,-36 12,1 36,-29l-3 -23 -89 -7 -4 -259c-86,-21 -62,20 -63,123 -1,49 -5,155 9,188z"/>
   <path class="fil4" d="M2429 1121l1 8c-1,1 9,14 -26,9 -28,-3 -11,-5 -16,-17 1,0 3,-22 41,0zm-76 -30c-15,71 -17,70 -6,143 1,40 20,39 59,78 0,1 2,3 3,3 0,0 1,2 2,2l15 -4 0 -3 3 -13c1,0 13,0 15,0 4,-1 3,0 13,-7 23,-29 37,-55 37,-108l-7 4 -46 -2c-9,54 3,43 -22,54 -21,-10 -17,20 -20,-56 10,-4 14,-2 15,-2 6,-1 5,8 8,-15l56 -4 7 -40 2 -9c-30,-30 -2,6 -40,-5 -13,-4 -11,-6 -23,-14 -14,-9 -4,1 -15,-10l-13 -17 13 -5c-7,-8 11,-7 -20,-8 -25,7 -33,14 -36,38z"/>
   <path class="fil3" d="M1363 1052c37,-2 49,5 60,32l45 -10c7,24 4,14 16,32 15,-8 18,-10 37,-15l13 11c10,11 3,2 10,12l21 3c7,-29 19,-42 48,-47l2 -24 -4 -23c5,-3 13,-6 19,-12 23,-19 14,-24 35,-56 -55,0 -38,-6 -76,-15 -9,40 -8,64 -37,83 -3,-35 8,-13 -15,-30 -11,25 -1,22 -31,8l0 37c-22,-1 -24,-3 -40,-13 -21,-12 -24,-17 -28,-32 -29,20 -14,28 -57,49 -30,15 -11,-1 -18,10z"/>
   <path class="fil3" d="M1581 616c-5,-34 -7,-39 16,-45 33,-10 65,16 75,22 1,0 3,1 4,2 22,8 29,-14 72,18 21,-29 1,-28 37,-34l8 -8c3,-7 4,-3 7,-16 1,-8 0,-28 0,-37 50,-24 16,-4 46,-60 -49,0 -43,2 -76,-15 0,38 0,58 -22,75 -29,15 11,-6 -21,-8 -25,-2 12,10 -32,0 0,3 2,19 2,19 0,12 2,3 -2,12 -47,-4 -44,-25 -76,-46 -13,49 -37,37 -38,55 -2,23 -31,-20 16,13 -7,2 -31,1 -22,42 5,26 -6,7 6,11z"/>
   <path class="fil4" d="M2188 646c-7,14 -1,5 -10,16l-21 -23c9,-22 7,-10 -2,-15 -10,-1 -20,-5 -31,-3 -38,6 -17,-3 -23,18l9 16c5,10 8,20 14,29 17,27 -3,0 22,15 -3,24 -6,19 1,39 57,-6 75,-32 96,-67l8 45c10,-12 5,2 10,-18 6,-25 -5,-47 7,-74 13,-19 14,-22 15,-53 -29,-7 -30,-8 -68,-8 -12,24 -30,50 -27,83z"/>
   <path class="fil5" d="M1123 1121c16,84 39,163 49,243 -4,1 -16,3 -20,4 -18,8 -7,2 -19,12l19 -2 7 0c19,-5 13,-4 34,-8 -14,-33 -10,-139 -9,-188 1,-103 -23,-144 63,-123l4 259 89 7 3 23c-24,30 -12,-7 -36,29 15,-5 37,-9 53,-14 -15,-42 -14,-271 3,-311 -5,3 -18,5 -23,9l0 249 -83 0 0 -264c-105,0 -82,-40 -82,249l-36 -153c-10,-22 1,-6 -16,-21z"/>
   <path class="fil6" d="M1712 1214c-1,-2 -6,-10 -6,-12 -1,-15 -1,-7 2,-15 15,-4 26,3 40,11l-6 -32c-32,-18 -70,-22 -104,-15l8 46c-2,1 -5,2 -6,3 -1,0 -4,2 -6,3 -1,1 -3,2 -4,3l-7 9c-7,12 -4,20 -3,34 54,3 50,-15 92,-35z"/>
   <path class="fil1" d="M1011 1436c14,-20 -18,-1 18,-18 -13,22 7,13 -18,18zm-24 -16l6 -11c7,9 7,-14 7,21l-13 -10zm-23 -27l23 27c10,14 6,7 14,18 16,0 38,3 53,3l30 -5c1,-1 3,-1 5,-2 15,-7 45,-27 57,-38 26,13 2,-5 24,16l26 39c-67,52 -42,11 -90,32 -15,6 -23,22 -40,26 -34,8 -7,-10 -31,-3 10,7 23,15 34,23 27,-40 41,-57 90,-31l29 -31 6 24c1,-31 -6,-12 11,-30 10,10 11,-8 10,30 8,-19 7,-12 0,-40 -11,-44 -2,3 4,-36 2,-17 1,-19 -2,-34 -6,27 2,25 -10,50 -13,-11 -11,19 -11,-23l-7 15c-20,-15 -17,-22 -30,-45l-7 0 -8 14 -11 -12c-6,34 -1,19 -19,28 -19,27 5,5 -26,19 -18,8 -21,9 -42,11 0,-32 -3,-31 8,-54l-8 0 -9 1 -13 12c-29,-7 -7,1 -16,-14 -3,-23 9,-9 -14,-13l-9 30c-22,-6 -4,2 -21,-7z"/>
   <path class="fil5" d="M766 1393l-12 16 12 -16zm1 0l-1 0 -14 -11c-18,13 -8,10 -20,9l10 -335 50 -2 4 128 30 -3c1,-2 3,-2 5,-3l-26 -2c0,-150 14,-128 -75,-128 0,56 5,159 -2,209 -13,83 -4,118 2,191 24,-7 7,-4 22,-14l10 -6c5,-2 3,1 13,-3 -4,-13 -4,-17 -8,-30z"/>
   <path class="fil5" d="M1129 803l10 0c11,-180 -34,-241 52,-228 9,39 -8,91 14,125l33 1 4 -129 64 3c-1,-5 18,-14 -41,-13 -47,1 -38,-5 -38,129l-22 0 0 -128c-99,0 -76,-33 -76,240z"/>
   <path class="fil7" d="M1306 575l2 307 -37 27c-17,10 10,2 -14,4l0 25c30,-1 11,-10 32,2 -19,32 20,-15 -7,10l-10 9c-1,1 -4,3 -6,4 57,0 29,-31 14,-53 28,-7 16,-8 38,-23l-1 -241c3,-36 -2,-13 11,-37 -9,-49 19,-38 65,-37 41,0 81,-1 121,2 -10,-17 4,-5 -16,-10 -40,-9 -164,0 -192,11z"/>
   <path class="fil8" d="M2110 676l8 15 -8 -15zm-20 -45c-1,11 1,30 0,38 -3,45 0,26 -18,36l38 43c99,-5 53,-1 120,-36l31 17c12,-32 7,-67 7,-105 -12,27 -1,49 -7,74 -5,20 0,6 -10,18l-8 -45c-21,35 -39,61 -96,67 -7,-20 -4,-15 -1,-39 -25,-15 -5,12 -22,-15 -6,-9 -9,-19 -14,-29l0 21c-1,2 -4,2 -4,4l-8 8c0,0 -2,2 -3,3 0,-32 -4,-34 6,-52 6,-21 -15,-12 23,-18 11,-2 21,2 31,3 -11,-7 3,-5 -23,-8 -8,-1 -28,0 -37,0l-5 15z"/>
   <path class="fil4" d="M2145 809c6,37 -9,58 10,98 11,-27 2,-2 18,-16l37 -9 0 -102c-49,13 -23,31 -65,29z"/>
   <path class="fil5" d="M831 1176l7 -120 64 -1c5,35 4,219 -6,246l14 -6 1 -196c18,9 31,8 49,12 -13,-17 -19,-11 -36,-21l1 -33c53,-6 153,-11 189,9 0,-29 17,-21 -151,-20l-135 0 3 130z"/>
   <path class="fil5" d="M2411 1197l15 0 0 30 -15 0 0 -30zm83 -30l0 -8 9 6 -9 2zm-9 -46l-7 40 -56 4c-3,23 -2,14 -8,15 -1,0 -5,-2 -15,2 3,76 -1,46 20,56 25,-11 13,0 22,-54l46 2c0,-32 -3,-14 7,-19l0 15c15,23 8,69 8,98l-1 83c5,24 -4,10 13,20l-11 -272 -9 0c0,13 4,10 -9,10z"/>
   <path class="fil9" d="M1619 1491l0 0zm0 0l0 -23c-44,30 -27,-4 -55,20 -13,11 3,5 -20,16 -13,9 -12,-14 -9,17 1,0 2,-2 3,-1 4,22 -4,-5 13,1l24 16c-10,-35 -14,-7 -5,-43 1,2 2,3 3,6l16 36c21,1 -17,7 8,-2l20 -11c16,-14 -18,6 10,-9 0,0 -1,-2 0,-1l23 15 -4 -32c8,37 -13,15 21,27 3,-47 2,-2 -2,-40l-15 -8 0 -22 -8 -7c-11,-7 -8,-4 -23,-8 4,39 6,10 16,45l-16 8z"/>
   <path class="fil7" d="M2245 1197l23 0 0 30c-31,-8 -19,-1 -23,-30zm72 -34l13 9 -13 -9zm1 -57c5,32 11,28 -1,57l-77 9 2 62 26 1c12,-22 7,-25 9,-51l46 -2 -7 60c14,-13 12,21 12,-30l8 0c0,43 -2,9 11,22 -11,-73 -9,-72 6,-143 -9,9 -5,-2 -12,13 -7,14 -5,5 -5,25l-8 0c0,-43 2,-9 -10,-23z"/>
   <path class="fil10" d="M2660 1367c7,-1 14,3 23,-4l0 -317c-7,0 -35,-2 -39,-1 -49,6 -13,-7 -24,16l48 -1c2,51 12,268 -8,307z"/>
   <path class="fil11" d="M2268 1325l0 7 -9 -6 9 -1zm23 -29l-15 -1c0,27 4,21 -8,30l0 -28 -18 7c-19,-22 -21,-17 -32,-27l-25 -27c0,35 30,45 52,60 0,35 -13,39 0,68 23,-6 -5,7 12,-5 4,-3 10,-9 11,-9 15,-9 -2,-4 30,-1 0,-30 0,-45 -7,-67z"/>
   <path class="fil5" d="M1885 640l-2 29 23 0 15 -38c0,52 15,92 5,148l-4 108c8,43 8,21 22,25 -22,-51 -4,-148 -8,-228 0,-2 -2,-28 -2,-31l-13 -33c-53,12 -1,12 -36,20z"/>
   <path class="fil9" d="M1695 1461l-4 16 4 -16zm-30 18c11,19 -1,23 11,44 24,3 6,-8 22,-15 11,-5 18,3 42,13 -6,-19 -10,-54 -15,-65l-11 16c-11,-12 -3,-7 -19,-11 -5,-19 3,-11 -15,-15l-15 33z"/>
   <path class="fil12" d="M1348 1566l4 24c6,-1 10,-5 11,-3 0,0 15,-2 10,-18 3,0 14,2 15,2l28 -17c36,1 19,-6 49,5 12,-15 6,5 6,-27l-27 -1c-2,0 -4,0 -5,1 -2,0 -6,1 -8,3l-25 0c-1,0 -2,2 -2,3 0,0 -1,1 -2,1 -33,11 29,0 -11,-3 -12,-1 1,-1 -16,3 -15,4 -8,4 -27,5 5,17 1,11 0,22z"/>
   <path class="fil7" d="M772 1385l33 -15 0 -75 23 0c0,31 -6,48 8,68l1 -61c11,29 -3,-3 13,13l2 -15 -26 -51c-1,1 -3,3 -4,3 -12,9 -1,8 -26,-5 0,91 10,96 -17,128 -27,30 7,-23 -7,10z"/>
   <path class="fil5" d="M2095 1066c17,-9 34,-9 62,-8 12,38 -3,96 -7,139 18,-9 10,9 13,-30 1,-7 -1,-29 -1,-38l8 0c0,48 -8,74 12,90l-1 -98c-25,-15 -1,-27 -11,-75l-75 0 0 20z"/>
   <path class="fil13" d="M1393 885l11 14c4,9 3,6 6,17 4,11 5,20 6,39l22 0 0 -52c29,-8 18,-1 25,-28 4,-12 6,-27 6,-48l7 0c0,53 -7,61 31,38l-20 -46c0,0 -2,0 -3,0 -15,-5 -5,-25 -17,-3 -11,20 1,42 -21,72 -6,10 -5,5 -12,17 -12,19 2,2 -12,18l-29 -38z"/>
   <path class="fil11" d="M1642 628c-12,11 -4,-12 -13,12 -24,-56 -11,16 -33,-8 1,-39 4,1 -15,-16 5,25 8,74 16,90 29,-21 16,-19 15,-60 25,29 8,27 27,20 13,-4 5,-17 3,-38z"/>
   <path class="fil12" d="M1657 1430l8 8c26,0 41,-2 59,-8 2,-40 4,-11 -13,-22 -13,17 20,19 -18,15l-16 -20c-17,0 -14,7 -36,0l-31 -10 9 37c3,0 17,-5 19,-5 30,-1 9,-1 19,5z"/>
   <path class="fil11" d="M2173 891c-16,14 -7,-11 -18,16 -19,-40 -4,-61 -10,-98 -4,-11 8,-11 -13,-7 0,28 -2,57 2,84 5,39 -2,51 36,54l3 -49z"/>
   <path class="fil7" d="M1393 627l-17 29c-14,-39 -13,-29 -48,-47 -5,27 10,18 28,15 22,96 -16,93 30,105 0,-26 3,-34 4,-50 0,-21 3,-24 3,-52z"/>
   <path class="fil11" d="M1136 910c-4,14 -16,42 3,50 9,4 32,-14 43,-20 -8,-34 -1,-10 1,-52 -15,19 -8,-23 -14,23 -14,-19 14,-8 -16,-8 -2,0 -15,6 -17,7z"/>
   <path class="fil4" d="M1136 910c2,-1 15,-7 17,-7 30,0 2,-11 16,8 6,-46 -1,-4 14,-23 23,-1 8,-1 18,-8 -5,-7 -4,-17 -27,-20 -10,-2 -23,2 -42,3l4 47z"/>
   <path class="fil7" d="M2646 1384l-5 17c-3,-31 -5,-4 5,-17zm14 -17l-3 20 -11 -3c-7,-16 4,-5 -11,-14l-8 35 -35 -81c1,46 19,46 23,91 42,1 70,25 45,-48z"/>
   <path class="fil13" d="M1079 1304l14 12 -14 -12zm-28 48c11,-10 10,14 10,-42l8 45c19,-2 20,-2 33,-7l-11 -57 -12 13c-11,-26 -7,-10 -19,-18l-9 66z"/>
   <path class="fil7" d="M1755 782c-5,17 1,21 -7,7l-11 0 1 100c17,-1 7,5 10,-16 1,-3 0,-25 0,-31l11 -2c17,-5 13,1 19,-20 -31,2 -22,17 -30,-8l30 0c-5,-20 -4,-13 -8,-35l-15 5z"/>
   <path class="fil5" d="M1465 659c22,26 17,39 26,78l-30 0c12,-24 10,-44 4,-78zm0 0c-6,23 -13,66 -4,86l40 2c-2,-29 -11,-86 -25,-108 -8,7 -7,2 -11,20z"/>
   <path class="fil13" d="M2125 1389l-16 -2c-18,25 3,9 -20,20 -3,-30 -5,-69 -17,-90 0,26 7,105 15,121 41,-16 -18,0 38,-23l0 -26z"/>
   <path class="fil14" d="M836 1363c3,17 -7,-3 4,17 7,12 4,5 10,11 4,3 11,5 14,9l17 -27 -18 -8 -13 -50c-16,-16 -2,16 -13,-13l-1 61z"/>
   <path class="fil7" d="M2582 1104c5,35 18,84 33,102 3,-43 -10,-108 5,-145 -26,-3 -5,-12 -12,9l-8 81c0,-34 -11,-38 -18,-47z"/>
   <path class="fil7" d="M1280 1423l8 -8 9 -10 -4 -32 -42 3c-26,8 -34,-32 -34,5 23,7 22,17 48,4 1,39 -7,22 15,38z"/>
   <path class="fil6" d="M1828 1120c-19,29 -5,51 25,64 16,-33 4,-69 -25,-64z"/>
   <path class="fil5" d="M1061 1151l15 0c0,39 6,39 8,68l-30 0c11,-24 7,-34 7,-68zm-7 75l40 3c-1,-23 -4,-35 -8,-56l-17 -53c-17,25 -23,84 -15,106z"/>
   <path class="fil7" d="M1944 912l-9 28 24 0 0 -37c49,4 45,24 45,-76 0,-2 0,-22 0,-23 4,-29 -2,-10 10,-25l-8 -7c-20,26 -9,93 -10,125l-52 15z"/>
   <path class="fil7" d="M850 1391c-1,45 -9,22 0,62 31,0 3,2 15,-11l-13 -12c14,-17 -1,-6 15,-13 5,-2 5,-1 18,1l-4 20 14 0 1 -15c-6,-20 -5,-15 -23,-30l18 -8c0,-17 5,-14 -10,-12l-17 27c-3,-4 -10,-6 -14,-9z"/>
   <path class="fil13" d="M1293 1466c-15,-46 -1,-34 2,-39l-2 39zm4 -61l-9 10 -8 8c0,2 -1,23 0,23 6,25 -6,9 13,20 1,12 -18,10 10,10 9,-20 5,-25 10,-70 1,-12 -2,-8 -6,-29l-10 28z"/>
   <path class="fil13" d="M2014 779c-4,44 7,23 -2,63 57,-5 23,-17 22,-20 -4,-17 -8,13 -2,-19 4,-22 4,-14 10,-29 -14,-27 -2,-9 -19,-14l1 22 -10 -3z"/>
   <path class="fil11" d="M1378 1423l-7 0c-5,31 -8,36 -8,75l23 0c15,-66 2,-19 -8,-75z"/>
   <path class="fil6" d="M1614 1333c3,7 -3,36 53,42 1,-21 3,-24 -17,-36 -11,-7 -9,-9 -36,-6z"/>
   <path class="fil6" d="M1632 1297c0,-33 -19,-43 -46,-51 -9,34 19,52 46,51z"/>
   <path class="fil6" d="M1615 1109c6,8 -5,24 35,4 18,-9 18,-10 19,-29 -27,-10 -47,8 -54,25z"/>
   <path class="fil11" d="M1514 911c0,20 -1,71 24,46 13,-13 4,-9 4,-30l0 -36c-3,5 -5,6 -10,16 -3,6 -2,8 -3,13 -9,-16 0,1 -15,-9z"/>
   <path class="fil5" d="M1936 1067l51 -14c7,32 4,62 17,83 0,-44 -5,-58 -7,-90l-53 0c-4,5 -7,18 -8,21z"/>
   <path class="fil7" d="M1201 797c15,7 28,10 42,17l-4 -51c-10,4 -25,27 -31,5 -1,-3 -4,-3 -6,-5l-1 34z"/>
   <path class="fil7" d="M1672 907l0 33 23 0c1,-39 6,-45 38,-30 6,-7 3,-15 5,-21l-45 4 -9 37c-5,-43 -1,-9 -12,-23z"/>
   <path class="fil13" d="M1853 658c20,4 16,-12 16,26 -9,7 11,10 -16,4 12,13 -19,11 23,11 0,-6 -1,-26 -1,-30 5,-35 1,-10 10,-29 -21,-22 -9,-1 -23,-1 -5,-8 -14,-11 -16,-12l7 31z"/>
   <path class="fil13" d="M966 1176l-5 -17c12,-9 -2,-4 17,-4l8 -43 -21 16c-1,-3 -5,-16 -5,-17 -3,15 -6,25 -5,42 2,49 -2,18 11,23z"/>
   <path class="fil13" d="M2411 1317l0 23c26,-3 9,-2 17,8 -7,23 5,7 -17,22l36 -11c1,-1 4,-3 5,-4 1,-1 3,-3 5,-4 -18,0 -8,4 -19,-4l4 -27c-10,4 -8,-15 -8,12 -13,-10 -3,5 -8,-19l-15 4z"/>
   <path class="fil7" d="M1542 891c27,5 45,10 47,-18 0,-4 -4,-22 -4,-25 -10,-36 1,-12 -16,-28l8 64 -35 7z"/>
   <path class="fil14" d="M1266 963c2,-1 5,-3 6,-4l10 -9c27,-25 -12,22 7,-10 -21,-12 -2,-3 -32,-2 -11,2 -6,-8 -6,10 0,15 1,12 6,22 31,0 5,2 9,-7z"/>
   <path class="fil7" d="M2228 1129c0,0 -7,16 25,9 30,-6 9,0 16,-17 -36,-26 -39,-1 -42,0l34 0 0 8 -33 0z"/>
   <path class="fil7" d="M1750 699l-25 0c7,-26 1,-5 3,-27 -3,-19 -3,-10 -15,-23l2 60 35 -10z"/>
   <path class="fil5" d="M1728 672c19,-12 -1,5 14,-17 7,-10 -5,-3 13,-16l0 33c9,-14 5,17 8,-18 2,-16 1,-8 -2,-22 -30,3 -29,9 -33,40z"/>
   <path class="fil7" d="M2532 1385c-20,6 -6,6 -18,-2 -7,35 -14,31 18,40l0 -38z"/>
   <path class="fil7" d="M2430 1129l-34 0 0 -8 33 0c-38,-22 -40,0 -41,0 5,12 -12,14 16,17 35,5 25,-8 26,-9z"/>
   <path class="fil15" d="M2457 1351c7,-6 6,9 7,-12 1,-39 0,-11 -7,-16l-15 -3 -4 27c11,8 1,4 19,4z"/>
   <path class="fil15" d="M1853 688c27,6 7,3 16,-4 0,-38 4,-22 -16,-26 -11,3 -6,-18 -7,12 -1,40 -1,10 7,18z"/>
   <path class="fil15" d="M865 1442c30,13 18,5 16,-4l4 -20c-13,-2 -13,-3 -18,-1 -16,7 -1,-4 -15,13l13 12z"/>
   <path class="fil13" d="M966 1176c-13,29 -22,27 12,36l0 -42 -12 6z"/>
   <path class="fil16" d="M1194 1491c8,20 18,2 21,0 1,-38 0,-20 -10,-30 -17,18 -10,-1 -11,30z"/>
   <path class="fil16" d="M2411 1370c22,-15 10,1 17,-22 -8,-10 9,-11 -17,-8 -11,-2 -6,-20 -7,9 -1,38 0,10 7,21z"/>
   <path class="fil7" d="M1008 1383c9,15 -13,7 16,14l13 -12c8,-9 3,-10 9,-1l8 0 -3 -32c-12,18 1,7 -17,22 -20,17 5,18 -26,9z"/>
   <path class="fil13" d="M2426 1310c27,0 10,-3 16,10l15 3 0 -33c-10,7 -9,6 -13,7 -2,0 -14,0 -15,0l-3 13z"/>
   <path class="fil17" d="M1610 1393c-9,-11 -2,-4 -14,-14 -1,-1 -11,-7 -14,-10 -12,-9 -14,-12 -23,-21 5,18 2,15 16,28 16,16 10,12 35,17z"/>
   <path class="fil9" d="M1904 1562c-14,-30 5,-7 -21,-22 0,0 -16,10 -3,22 13,12 12,3 24,0z"/>
   <polygon class="fil9" points="1642,1446 1650,1453 1665,1453 1665,1438 1657,1430 1642,1430 "/>
   <path class="fil9" d="M1471 1532c27,-1 15,6 20,-20 -18,3 -23,-28 -20,20z"/>
   <path class="fil9" d="M1921 1579c18,-31 6,-16 -7,-22 -2,3 -17,-10 -5,14 6,11 -4,4 12,8z"/>
   <path class="fil16" d="M966 1176l12 -6c14,7 7,5 5,-6 -2,-18 5,-1 -5,-9 -19,0 -5,-5 -17,4l5 17z"/>
   <path class="fil7" d="M2409 1083l8 -7c3,-27 4,-7 -8,-15l-13 5 13 17z"/>
   <path class="fil18" d="M1446 1422c17,0 13,4 10,-14 -11,-10 0,-4 -18,-6l8 20z"/>
   <polygon class="fil13" points="2251,782 2268,782 2268,766 2253,765 "/>
   <polygon class="fil3" points="1537,1461 1544,1461 1544,1430 1537,1430 "/>
   <path class="fil14" d="M1293 1466l2 -39c-3,5 -17,-7 -2,39z"/>
   <path class="fil19" d="M2577 996c-27,11 -13,-6 -22,19 25,-9 5,10 22,-19z"/>
   <path class="fil13" d="M2200 1078c12,-6 8,1 16,-17l-16 0 0 17z"/>
   <path class="fil7" d="M2188 646l-18 8c0,-31 2,-3 -13,-15l21 23c9,-11 3,-2 10,-16z"/>
   <path class="fil20" d="M987 1420l13 10c0,-35 0,-12 -7,-21l-6 11z"/>
   <path class="fil20" d="M1011 1436c25,-5 5,4 18,-18 -36,17 -4,-2 -18,18z"/>
   <polygon class="fil13" points="2306,1077 2306,1061 2291,1061 "/>
  </g>
 </g>
</svg>
